M48
;GenerationSoftware,Autodesk,EAGLE,9.6.2*%
;CreationDate,2020-09-11T18:32:05Z*%
FMAT,2
ICI,OFF
METRIC,TZ,000.000
T5C0.305
T4C0.350
T3C0.508
T2C1.020
T1C3.200
%
G90
M71
T1
X37600Y2400
X37600Y37600
X2400Y37600
X20000Y20000
X2400Y2400
T2
X23810Y38350
X21270Y38350
X18730Y38350
X16190Y38350
X23810Y1650
X21270Y1650
X18730Y1650
X16190Y1650
T3
X35230Y6460
X37770Y6460
X35230Y9000
X37770Y9000
X35230Y11540
X37770Y11540
X2230Y28460
X4770Y28460
X2230Y31000
X4770Y31000
X2230Y33540
X4770Y33540
T4
X7800Y8300
X38400Y23400
X15438Y29938
X31920Y27740
X1200Y17700
X4000Y7700
X7800Y4500
X25042Y28696
X18100Y16500
X25830Y11760
X32600Y11200
X32200Y8300
X15900Y7800
X15800Y11434
X22600Y6100
X24200Y6900
X31700Y10500
X14600Y14700
X17400Y14700
X12500Y15400
X8160Y19570
X22400Y14600
X14800Y17300
X13800Y11800
X16500Y13700
X33020Y17650
X13450Y9250
X14600Y23500
X24830Y14260
X22000Y24000
X18100Y31234
X6700Y29395
X15300Y31400
X23300Y28400
X16300Y31300
X25020Y12510
X23440Y10340
X17000Y30900
X24460Y31320
X16600Y29600
X23490Y24520
X17039Y16049
X16350Y23980
X20100Y25080
X2000Y13900
X6900Y12900
X800Y5300
X28000Y36100
X22700Y4700
X24970Y33030
X14730Y27190
X2080Y12070
X12460Y8550
X33940Y17960
X31334Y18130
X8070Y18160
X27040Y11170
X26430Y36040
X37700Y30200
X3500Y22400
X11700Y37100
X36400Y6400
T5
X30700Y4700
X24800Y17400
X25390Y22440
X6800Y8200
X23300Y13500
X17790Y25200
X14900Y29500
M30