G04 EAGLE Gerber RS-274X export*
G75*
%MOMM*%
%FSLAX34Y34*%
%LPD*%
%INTop Copper*%
%IPPOS*%
%AMOC8*
5,1,8,0,0,1.08239X$1,22.5*%
G01*
%ADD10R,1.100000X1.000000*%
%ADD11R,1.000000X1.100000*%
%ADD12R,1.400000X1.500000*%
%ADD13C,1.530000*%
%ADD14C,0.762000*%
%ADD15R,1.100000X0.300000*%
%ADD16R,0.300000X1.100000*%
%ADD17C,0.525000*%
%ADD18C,0.457200*%
%ADD19C,0.152400*%
%ADD20C,0.304800*%

G36*
X40688Y80896D02*
X40688Y80896D01*
X41614Y80896D01*
X43896Y78614D01*
X43896Y75386D01*
X41614Y73104D01*
X40318Y73104D01*
X40292Y73101D01*
X40266Y73103D01*
X40119Y73081D01*
X39972Y73064D01*
X39947Y73056D01*
X39921Y73052D01*
X39783Y72997D01*
X39644Y72947D01*
X39622Y72933D01*
X39597Y72923D01*
X39476Y72838D01*
X39351Y72758D01*
X39333Y72739D01*
X39311Y72724D01*
X39212Y72614D01*
X39109Y72507D01*
X39095Y72485D01*
X39078Y72465D01*
X39006Y72335D01*
X38930Y72208D01*
X38922Y72183D01*
X38909Y72160D01*
X38869Y72017D01*
X38824Y71876D01*
X38822Y71850D01*
X38814Y71825D01*
X38795Y71581D01*
X38795Y57789D01*
X38809Y57663D01*
X38816Y57537D01*
X38829Y57490D01*
X38835Y57442D01*
X38877Y57323D01*
X38912Y57202D01*
X38936Y57160D01*
X38952Y57114D01*
X39021Y57008D01*
X39082Y56898D01*
X39122Y56851D01*
X39141Y56821D01*
X39176Y56788D01*
X39241Y56711D01*
X50711Y45241D01*
X50810Y45162D01*
X50904Y45078D01*
X50947Y45054D01*
X50984Y45024D01*
X51099Y44970D01*
X51209Y44909D01*
X51256Y44896D01*
X51300Y44875D01*
X51423Y44849D01*
X51545Y44814D01*
X51606Y44809D01*
X51640Y44802D01*
X51688Y44803D01*
X51789Y44795D01*
X72581Y44795D01*
X72607Y44798D01*
X72633Y44796D01*
X72780Y44818D01*
X72927Y44835D01*
X72952Y44843D01*
X72978Y44847D01*
X73116Y44902D01*
X73255Y44952D01*
X73277Y44966D01*
X73302Y44976D01*
X73423Y45061D01*
X73548Y45141D01*
X73566Y45160D01*
X73588Y45175D01*
X73687Y45285D01*
X73790Y45392D01*
X73804Y45414D01*
X73821Y45434D01*
X73893Y45564D01*
X73969Y45691D01*
X73977Y45716D01*
X73990Y45739D01*
X74030Y45882D01*
X74075Y46023D01*
X74077Y46049D01*
X74085Y46074D01*
X74104Y46318D01*
X74104Y46614D01*
X76386Y48896D01*
X79614Y48896D01*
X81896Y46614D01*
X81896Y43386D01*
X79614Y41104D01*
X78688Y41104D01*
X78562Y41090D01*
X78436Y41083D01*
X78389Y41070D01*
X78341Y41064D01*
X78222Y41022D01*
X78101Y40987D01*
X78059Y40963D01*
X78013Y40947D01*
X77907Y40878D01*
X77797Y40817D01*
X77750Y40777D01*
X77720Y40758D01*
X77687Y40723D01*
X77610Y40658D01*
X76158Y39205D01*
X48842Y39205D01*
X33205Y54842D01*
X33205Y79211D01*
X33191Y79337D01*
X33184Y79463D01*
X33171Y79510D01*
X33165Y79558D01*
X33123Y79677D01*
X33088Y79798D01*
X33064Y79840D01*
X33048Y79886D01*
X32979Y79992D01*
X32918Y80102D01*
X32878Y80149D01*
X32859Y80179D01*
X32824Y80212D01*
X32759Y80289D01*
X25205Y87842D01*
X25205Y93211D01*
X25191Y93337D01*
X25184Y93463D01*
X25171Y93510D01*
X25165Y93558D01*
X25123Y93677D01*
X25088Y93798D01*
X25064Y93840D01*
X25048Y93886D01*
X24979Y93992D01*
X24918Y94102D01*
X24878Y94148D01*
X24859Y94179D01*
X24824Y94212D01*
X24759Y94289D01*
X9205Y109842D01*
X9205Y173654D01*
X9191Y173780D01*
X9184Y173906D01*
X9171Y173953D01*
X9165Y174001D01*
X9123Y174120D01*
X9088Y174241D01*
X9064Y174283D01*
X9048Y174329D01*
X8979Y174435D01*
X8918Y174545D01*
X8878Y174591D01*
X8859Y174621D01*
X8824Y174655D01*
X8759Y174731D01*
X8104Y175386D01*
X8104Y178614D01*
X8759Y179268D01*
X8838Y179368D01*
X8922Y179461D01*
X8946Y179504D01*
X8976Y179541D01*
X9030Y179656D01*
X9091Y179766D01*
X9104Y179813D01*
X9125Y179857D01*
X9151Y179980D01*
X9186Y180102D01*
X9191Y180163D01*
X9198Y180197D01*
X9197Y180245D01*
X9205Y180346D01*
X9205Y326258D01*
X11288Y328341D01*
X11289Y328341D01*
X16773Y333825D01*
X16852Y333924D01*
X16936Y334018D01*
X16960Y334061D01*
X16990Y334098D01*
X17044Y334213D01*
X17105Y334323D01*
X17118Y334370D01*
X17139Y334414D01*
X17165Y334537D01*
X17200Y334659D01*
X17205Y334720D01*
X17212Y334754D01*
X17211Y334802D01*
X17219Y334903D01*
X17219Y336411D01*
X17993Y338278D01*
X19422Y339707D01*
X21289Y340481D01*
X23311Y340481D01*
X25178Y339707D01*
X26607Y338278D01*
X27381Y336411D01*
X27381Y334389D01*
X26607Y332522D01*
X25178Y331093D01*
X23311Y330319D01*
X21803Y330319D01*
X21677Y330305D01*
X21551Y330298D01*
X21504Y330285D01*
X21456Y330279D01*
X21337Y330237D01*
X21216Y330202D01*
X21174Y330178D01*
X21128Y330162D01*
X21022Y330093D01*
X20912Y330032D01*
X20865Y329992D01*
X20835Y329973D01*
X20802Y329938D01*
X20725Y329873D01*
X15241Y324389D01*
X15162Y324290D01*
X15078Y324196D01*
X15054Y324153D01*
X15024Y324116D01*
X14970Y324001D01*
X14909Y323891D01*
X14896Y323844D01*
X14875Y323800D01*
X14849Y323677D01*
X14814Y323555D01*
X14809Y323494D01*
X14802Y323460D01*
X14803Y323412D01*
X14795Y323311D01*
X14795Y312815D01*
X14800Y312765D01*
X14798Y312715D01*
X14820Y312592D01*
X14835Y312469D01*
X14852Y312422D01*
X14861Y312372D01*
X14910Y312258D01*
X14952Y312141D01*
X14979Y312099D01*
X14999Y312052D01*
X15074Y311952D01*
X15141Y311848D01*
X15177Y311813D01*
X15207Y311773D01*
X15302Y311692D01*
X15392Y311606D01*
X15435Y311580D01*
X15473Y311547D01*
X15584Y311491D01*
X15691Y311427D01*
X15739Y311412D01*
X15784Y311389D01*
X15904Y311359D01*
X16023Y311321D01*
X16073Y311317D01*
X16122Y311305D01*
X16246Y311303D01*
X16370Y311293D01*
X16420Y311300D01*
X16470Y311300D01*
X16592Y311326D01*
X16715Y311344D01*
X16762Y311363D01*
X16811Y311374D01*
X16923Y311427D01*
X17039Y311473D01*
X17080Y311502D01*
X17126Y311524D01*
X17223Y311601D01*
X17325Y311672D01*
X17359Y311709D01*
X17398Y311741D01*
X17475Y311839D01*
X17558Y311931D01*
X17583Y311975D01*
X17614Y312015D01*
X17725Y312232D01*
X17993Y312878D01*
X19422Y314307D01*
X21289Y315081D01*
X23311Y315081D01*
X24922Y314413D01*
X25178Y314307D01*
X26607Y312878D01*
X27381Y311011D01*
X27381Y308989D01*
X26607Y307122D01*
X25178Y305693D01*
X23311Y304919D01*
X21289Y304919D01*
X19422Y305693D01*
X17993Y307122D01*
X17725Y307768D01*
X17701Y307812D01*
X17684Y307859D01*
X17616Y307964D01*
X17556Y308072D01*
X17522Y308110D01*
X17495Y308152D01*
X17405Y308238D01*
X17322Y308331D01*
X17280Y308359D01*
X17244Y308394D01*
X17137Y308458D01*
X17035Y308529D01*
X16988Y308547D01*
X16945Y308573D01*
X16827Y308611D01*
X16711Y308657D01*
X16661Y308664D01*
X16613Y308679D01*
X16489Y308689D01*
X16366Y308707D01*
X16316Y308703D01*
X16266Y308707D01*
X16143Y308689D01*
X16019Y308678D01*
X15971Y308663D01*
X15921Y308656D01*
X15806Y308610D01*
X15687Y308571D01*
X15644Y308545D01*
X15597Y308527D01*
X15495Y308456D01*
X15389Y308392D01*
X15352Y308357D01*
X15311Y308328D01*
X15228Y308236D01*
X15139Y308149D01*
X15111Y308106D01*
X15078Y308069D01*
X15018Y307960D01*
X14950Y307856D01*
X14933Y307808D01*
X14909Y307764D01*
X14875Y307644D01*
X14834Y307527D01*
X14828Y307477D01*
X14814Y307429D01*
X14795Y307185D01*
X14795Y289753D01*
X14806Y289654D01*
X14808Y289553D01*
X14826Y289481D01*
X14835Y289407D01*
X14869Y289313D01*
X14893Y289215D01*
X14927Y289149D01*
X14952Y289079D01*
X15007Y288995D01*
X15053Y288906D01*
X15101Y288849D01*
X15141Y288786D01*
X15213Y288717D01*
X15278Y288640D01*
X15338Y288596D01*
X15392Y288544D01*
X15478Y288493D01*
X15559Y288433D01*
X15627Y288403D01*
X15691Y288365D01*
X15786Y288335D01*
X15879Y288295D01*
X15952Y288282D01*
X16023Y288259D01*
X16123Y288251D01*
X16222Y288233D01*
X16296Y288237D01*
X16370Y288231D01*
X16470Y288246D01*
X16570Y288251D01*
X16641Y288272D01*
X16715Y288283D01*
X16808Y288320D01*
X16905Y288348D01*
X16970Y288384D01*
X17039Y288412D01*
X17121Y288469D01*
X17209Y288518D01*
X17285Y288583D01*
X17325Y288610D01*
X17349Y288637D01*
X17395Y288676D01*
X18252Y289533D01*
X19292Y290228D01*
X20448Y290707D01*
X20777Y290772D01*
X20777Y284600D01*
X20777Y278428D01*
X20448Y278493D01*
X19292Y278972D01*
X18252Y279667D01*
X17395Y280524D01*
X17316Y280586D01*
X17244Y280656D01*
X17180Y280694D01*
X17122Y280740D01*
X17031Y280783D01*
X16945Y280835D01*
X16874Y280857D01*
X16807Y280889D01*
X16709Y280910D01*
X16613Y280941D01*
X16539Y280947D01*
X16466Y280963D01*
X16366Y280961D01*
X16266Y280969D01*
X16192Y280958D01*
X16118Y280957D01*
X16021Y280932D01*
X15921Y280917D01*
X15852Y280890D01*
X15780Y280872D01*
X15691Y280826D01*
X15597Y280788D01*
X15536Y280746D01*
X15470Y280712D01*
X15394Y280647D01*
X15311Y280590D01*
X15261Y280534D01*
X15205Y280486D01*
X15145Y280405D01*
X15078Y280331D01*
X15042Y280266D01*
X14997Y280206D01*
X14958Y280114D01*
X14909Y280026D01*
X14889Y279954D01*
X14859Y279886D01*
X14842Y279787D01*
X14814Y279690D01*
X14806Y279590D01*
X14798Y279543D01*
X14800Y279507D01*
X14795Y279447D01*
X14795Y252425D01*
X14806Y252325D01*
X14808Y252224D01*
X14826Y252152D01*
X14835Y252078D01*
X14868Y251984D01*
X14893Y251886D01*
X14927Y251820D01*
X14952Y251750D01*
X15007Y251666D01*
X15053Y251577D01*
X15101Y251520D01*
X15141Y251457D01*
X15213Y251387D01*
X15278Y251311D01*
X15338Y251267D01*
X15392Y251215D01*
X15478Y251164D01*
X15559Y251104D01*
X15627Y251075D01*
X15691Y251036D01*
X15787Y251006D01*
X15879Y250966D01*
X15952Y250953D01*
X16023Y250930D01*
X16123Y250922D01*
X16222Y250904D01*
X16296Y250908D01*
X16370Y250902D01*
X16470Y250917D01*
X16570Y250922D01*
X16641Y250943D01*
X16715Y250954D01*
X16808Y250991D01*
X16905Y251019D01*
X16970Y251055D01*
X17039Y251083D01*
X17121Y251140D01*
X17209Y251189D01*
X17285Y251254D01*
X17325Y251282D01*
X17349Y251308D01*
X17395Y251347D01*
X18842Y252795D01*
X85206Y252795D01*
X85232Y252798D01*
X85258Y252796D01*
X85405Y252818D01*
X85552Y252835D01*
X85577Y252843D01*
X85603Y252847D01*
X85741Y252902D01*
X85880Y252952D01*
X85902Y252966D01*
X85927Y252976D01*
X86048Y253061D01*
X86173Y253141D01*
X86191Y253160D01*
X86213Y253175D01*
X86312Y253285D01*
X86415Y253392D01*
X86429Y253414D01*
X86446Y253434D01*
X86518Y253564D01*
X86594Y253691D01*
X86602Y253716D01*
X86615Y253739D01*
X86655Y253882D01*
X86700Y254023D01*
X86702Y254049D01*
X86710Y254074D01*
X86729Y254318D01*
X86729Y258026D01*
X87474Y258771D01*
X102526Y258771D01*
X103271Y258026D01*
X103271Y241974D01*
X102526Y241229D01*
X87474Y241229D01*
X86729Y241974D01*
X86729Y245682D01*
X86726Y245708D01*
X86728Y245734D01*
X86706Y245881D01*
X86689Y246028D01*
X86681Y246053D01*
X86677Y246079D01*
X86622Y246217D01*
X86572Y246356D01*
X86558Y246378D01*
X86548Y246403D01*
X86464Y246524D01*
X86383Y246649D01*
X86364Y246667D01*
X86349Y246689D01*
X86239Y246788D01*
X86132Y246891D01*
X86110Y246905D01*
X86090Y246922D01*
X85960Y246994D01*
X85833Y247070D01*
X85808Y247078D01*
X85785Y247091D01*
X85642Y247131D01*
X85501Y247176D01*
X85475Y247178D01*
X85450Y247186D01*
X85206Y247205D01*
X21789Y247205D01*
X21663Y247191D01*
X21537Y247184D01*
X21490Y247171D01*
X21442Y247165D01*
X21323Y247123D01*
X21202Y247088D01*
X21160Y247064D01*
X21114Y247048D01*
X21008Y246979D01*
X20898Y246918D01*
X20851Y246878D01*
X20821Y246859D01*
X20788Y246824D01*
X20711Y246759D01*
X15241Y241289D01*
X15162Y241189D01*
X15078Y241096D01*
X15054Y241053D01*
X15024Y241016D01*
X14970Y240901D01*
X14909Y240791D01*
X14896Y240744D01*
X14875Y240700D01*
X14849Y240577D01*
X14814Y240455D01*
X14809Y240394D01*
X14802Y240360D01*
X14803Y240312D01*
X14795Y240211D01*
X14795Y180346D01*
X14809Y180220D01*
X14816Y180094D01*
X14829Y180047D01*
X14835Y179999D01*
X14877Y179880D01*
X14912Y179759D01*
X14936Y179717D01*
X14952Y179671D01*
X15021Y179565D01*
X15082Y179455D01*
X15122Y179408D01*
X15141Y179378D01*
X15176Y179345D01*
X15241Y179268D01*
X15896Y178614D01*
X15896Y175386D01*
X15241Y174731D01*
X15162Y174632D01*
X15078Y174539D01*
X15054Y174496D01*
X15024Y174458D01*
X14970Y174344D01*
X14909Y174234D01*
X14896Y174187D01*
X14875Y174143D01*
X14849Y174020D01*
X14814Y173898D01*
X14809Y173837D01*
X14802Y173803D01*
X14803Y173755D01*
X14795Y173654D01*
X14795Y142982D01*
X14806Y142882D01*
X14808Y142781D01*
X14826Y142709D01*
X14835Y142635D01*
X14868Y142541D01*
X14893Y142443D01*
X14927Y142377D01*
X14952Y142307D01*
X15007Y142223D01*
X15053Y142134D01*
X15101Y142077D01*
X15141Y142014D01*
X15213Y141945D01*
X15278Y141868D01*
X15338Y141824D01*
X15392Y141772D01*
X15478Y141721D01*
X15559Y141661D01*
X15627Y141632D01*
X15691Y141593D01*
X15787Y141563D01*
X15879Y141523D01*
X15952Y141510D01*
X16023Y141487D01*
X16123Y141479D01*
X16222Y141461D01*
X16296Y141465D01*
X16370Y141459D01*
X16470Y141474D01*
X16570Y141479D01*
X16641Y141500D01*
X16715Y141511D01*
X16808Y141548D01*
X16905Y141576D01*
X16970Y141612D01*
X17039Y141640D01*
X17121Y141697D01*
X17209Y141746D01*
X17285Y141811D01*
X17325Y141839D01*
X17349Y141865D01*
X17395Y141904D01*
X18386Y142896D01*
X21614Y142896D01*
X23031Y141479D01*
X23130Y141400D01*
X23223Y141316D01*
X23266Y141292D01*
X23304Y141262D01*
X23418Y141208D01*
X23528Y141147D01*
X23575Y141134D01*
X23619Y141113D01*
X23742Y141087D01*
X23864Y141052D01*
X23925Y141047D01*
X23959Y141040D01*
X24007Y141041D01*
X24108Y141033D01*
X69842Y141033D01*
X75033Y135842D01*
X75033Y124158D01*
X73842Y122967D01*
X72158Y122967D01*
X70467Y124658D01*
X70368Y124737D01*
X70274Y124821D01*
X70232Y124845D01*
X70194Y124875D01*
X70080Y124929D01*
X69969Y124990D01*
X69923Y125003D01*
X69879Y125024D01*
X69756Y125050D01*
X69634Y125085D01*
X69573Y125090D01*
X69538Y125097D01*
X69490Y125096D01*
X69390Y125104D01*
X67386Y125104D01*
X65104Y127386D01*
X65104Y130614D01*
X67386Y132896D01*
X68552Y132896D01*
X68652Y132907D01*
X68752Y132909D01*
X68824Y132927D01*
X68898Y132936D01*
X68993Y132970D01*
X69090Y132994D01*
X69156Y133028D01*
X69226Y133053D01*
X69311Y133108D01*
X69400Y133154D01*
X69457Y133202D01*
X69519Y133242D01*
X69589Y133314D01*
X69666Y133379D01*
X69710Y133439D01*
X69761Y133493D01*
X69813Y133579D01*
X69873Y133660D01*
X69902Y133728D01*
X69940Y133792D01*
X69971Y133888D01*
X70011Y133980D01*
X70024Y134053D01*
X70046Y134124D01*
X70055Y134224D01*
X70072Y134323D01*
X70068Y134397D01*
X70074Y134471D01*
X70060Y134571D01*
X70054Y134671D01*
X70034Y134742D01*
X70023Y134816D01*
X69986Y134909D01*
X69958Y135006D01*
X69922Y135071D01*
X69894Y135140D01*
X69837Y135222D01*
X69788Y135310D01*
X69723Y135386D01*
X69695Y135426D01*
X69669Y135450D01*
X69629Y135496D01*
X68604Y136521D01*
X68505Y136600D01*
X68411Y136684D01*
X68369Y136708D01*
X68331Y136738D01*
X68217Y136792D01*
X68106Y136853D01*
X68060Y136866D01*
X68016Y136887D01*
X67893Y136913D01*
X67771Y136948D01*
X67710Y136953D01*
X67675Y136960D01*
X67627Y136959D01*
X67527Y136967D01*
X24108Y136967D01*
X23982Y136953D01*
X23856Y136946D01*
X23809Y136933D01*
X23761Y136927D01*
X23642Y136885D01*
X23521Y136850D01*
X23479Y136826D01*
X23433Y136810D01*
X23327Y136741D01*
X23217Y136680D01*
X23171Y136640D01*
X23141Y136621D01*
X23107Y136586D01*
X23031Y136521D01*
X21614Y135104D01*
X18386Y135104D01*
X17395Y136096D01*
X17316Y136158D01*
X17244Y136228D01*
X17180Y136266D01*
X17122Y136312D01*
X17031Y136355D01*
X16945Y136407D01*
X16874Y136429D01*
X16807Y136461D01*
X16709Y136482D01*
X16613Y136513D01*
X16539Y136519D01*
X16466Y136534D01*
X16366Y136533D01*
X16266Y136541D01*
X16192Y136530D01*
X16118Y136528D01*
X16021Y136504D01*
X15921Y136489D01*
X15852Y136462D01*
X15780Y136443D01*
X15691Y136397D01*
X15597Y136360D01*
X15536Y136318D01*
X15470Y136284D01*
X15394Y136219D01*
X15311Y136161D01*
X15261Y136106D01*
X15205Y136058D01*
X15145Y135977D01*
X15078Y135903D01*
X15042Y135837D01*
X14997Y135778D01*
X14958Y135686D01*
X14909Y135598D01*
X14889Y135526D01*
X14859Y135458D01*
X14842Y135359D01*
X14814Y135262D01*
X14806Y135162D01*
X14798Y135115D01*
X14800Y135079D01*
X14795Y135018D01*
X14795Y112789D01*
X14809Y112663D01*
X14816Y112537D01*
X14829Y112490D01*
X14835Y112442D01*
X14877Y112323D01*
X14912Y112202D01*
X14936Y112160D01*
X14952Y112114D01*
X15021Y112008D01*
X15082Y111898D01*
X15122Y111852D01*
X15141Y111821D01*
X15176Y111788D01*
X15241Y111711D01*
X28711Y98241D01*
X28712Y98241D01*
X31241Y95712D01*
X31241Y95711D01*
X32711Y94241D01*
X32811Y94162D01*
X32904Y94078D01*
X32947Y94054D01*
X32984Y94024D01*
X33099Y93970D01*
X33209Y93909D01*
X33256Y93896D01*
X33300Y93875D01*
X33423Y93849D01*
X33545Y93814D01*
X33605Y93809D01*
X33640Y93802D01*
X33689Y93803D01*
X33789Y93795D01*
X90711Y93795D01*
X90837Y93809D01*
X90963Y93816D01*
X91010Y93829D01*
X91058Y93835D01*
X91177Y93877D01*
X91298Y93912D01*
X91340Y93936D01*
X91386Y93952D01*
X91492Y94021D01*
X91602Y94082D01*
X91649Y94122D01*
X91679Y94141D01*
X91712Y94176D01*
X91789Y94241D01*
X99283Y101735D01*
X99362Y101834D01*
X99446Y101928D01*
X99470Y101971D01*
X99500Y102008D01*
X99554Y102123D01*
X99615Y102233D01*
X99628Y102280D01*
X99649Y102324D01*
X99675Y102447D01*
X99710Y102569D01*
X99715Y102630D01*
X99722Y102664D01*
X99721Y102712D01*
X99729Y102813D01*
X99729Y110526D01*
X100474Y111271D01*
X102182Y111271D01*
X102208Y111274D01*
X102234Y111272D01*
X102381Y111294D01*
X102528Y111311D01*
X102553Y111319D01*
X102579Y111323D01*
X102717Y111378D01*
X102856Y111428D01*
X102878Y111442D01*
X102903Y111452D01*
X103024Y111537D01*
X103149Y111617D01*
X103167Y111636D01*
X103189Y111651D01*
X103288Y111761D01*
X103391Y111868D01*
X103405Y111890D01*
X103422Y111910D01*
X103494Y112040D01*
X103570Y112167D01*
X103578Y112192D01*
X103591Y112215D01*
X103631Y112358D01*
X103676Y112499D01*
X103678Y112525D01*
X103686Y112550D01*
X103705Y112794D01*
X103705Y117206D01*
X103702Y117232D01*
X103704Y117258D01*
X103682Y117405D01*
X103665Y117552D01*
X103657Y117577D01*
X103653Y117603D01*
X103598Y117741D01*
X103548Y117880D01*
X103534Y117902D01*
X103524Y117927D01*
X103439Y118048D01*
X103359Y118173D01*
X103340Y118191D01*
X103325Y118213D01*
X103215Y118312D01*
X103108Y118415D01*
X103086Y118429D01*
X103066Y118446D01*
X102936Y118518D01*
X102809Y118594D01*
X102784Y118602D01*
X102761Y118615D01*
X102618Y118655D01*
X102477Y118700D01*
X102451Y118702D01*
X102426Y118710D01*
X102182Y118729D01*
X100474Y118729D01*
X99729Y119474D01*
X99729Y130526D01*
X100474Y131271D01*
X102182Y131271D01*
X102208Y131274D01*
X102234Y131272D01*
X102381Y131294D01*
X102528Y131311D01*
X102553Y131319D01*
X102579Y131323D01*
X102717Y131378D01*
X102856Y131428D01*
X102878Y131442D01*
X102903Y131452D01*
X103024Y131537D01*
X103149Y131617D01*
X103167Y131636D01*
X103189Y131651D01*
X103288Y131761D01*
X103391Y131868D01*
X103405Y131890D01*
X103422Y131910D01*
X103494Y132040D01*
X103570Y132167D01*
X103578Y132192D01*
X103591Y132215D01*
X103631Y132358D01*
X103676Y132499D01*
X103678Y132525D01*
X103686Y132550D01*
X103705Y132794D01*
X103705Y147658D01*
X113273Y157225D01*
X113335Y157303D01*
X113405Y157376D01*
X113443Y157440D01*
X113489Y157498D01*
X113532Y157589D01*
X113584Y157675D01*
X113606Y157746D01*
X113638Y157813D01*
X113659Y157911D01*
X113690Y158007D01*
X113696Y158081D01*
X113711Y158154D01*
X113710Y158254D01*
X113718Y158354D01*
X113707Y158428D01*
X113706Y158502D01*
X113681Y158599D01*
X113666Y158699D01*
X113639Y158768D01*
X113621Y158840D01*
X113574Y158930D01*
X113537Y159023D01*
X113495Y159084D01*
X113461Y159150D01*
X113396Y159227D01*
X113338Y159309D01*
X113283Y159359D01*
X113235Y159415D01*
X113154Y159475D01*
X113080Y159542D01*
X113015Y159578D01*
X112955Y159623D01*
X112863Y159662D01*
X112775Y159711D01*
X112703Y159731D01*
X112635Y159761D01*
X112536Y159778D01*
X112439Y159806D01*
X112339Y159814D01*
X112292Y159822D01*
X112256Y159820D01*
X112195Y159825D01*
X89222Y159825D01*
X67205Y181842D01*
X67205Y183206D01*
X67202Y183232D01*
X67204Y183258D01*
X67182Y183405D01*
X67165Y183552D01*
X67157Y183577D01*
X67153Y183603D01*
X67098Y183741D01*
X67048Y183880D01*
X67034Y183902D01*
X67024Y183927D01*
X66939Y184048D01*
X66859Y184173D01*
X66840Y184191D01*
X66825Y184213D01*
X66715Y184312D01*
X66608Y184415D01*
X66586Y184429D01*
X66566Y184446D01*
X66436Y184518D01*
X66309Y184594D01*
X66284Y184602D01*
X66261Y184615D01*
X66118Y184655D01*
X65977Y184700D01*
X65951Y184702D01*
X65926Y184710D01*
X65682Y184729D01*
X64474Y184729D01*
X63729Y185474D01*
X63729Y187182D01*
X63726Y187208D01*
X63728Y187234D01*
X63706Y187381D01*
X63689Y187528D01*
X63681Y187553D01*
X63677Y187579D01*
X63622Y187717D01*
X63572Y187856D01*
X63558Y187878D01*
X63548Y187903D01*
X63463Y188024D01*
X63383Y188149D01*
X63364Y188167D01*
X63349Y188189D01*
X63239Y188288D01*
X63132Y188391D01*
X63110Y188405D01*
X63090Y188422D01*
X62960Y188494D01*
X62833Y188570D01*
X62808Y188578D01*
X62785Y188591D01*
X62642Y188631D01*
X62501Y188676D01*
X62475Y188678D01*
X62450Y188686D01*
X62206Y188705D01*
X57794Y188705D01*
X57768Y188702D01*
X57742Y188704D01*
X57595Y188682D01*
X57448Y188665D01*
X57423Y188657D01*
X57397Y188653D01*
X57259Y188598D01*
X57120Y188548D01*
X57098Y188534D01*
X57073Y188524D01*
X56952Y188439D01*
X56827Y188359D01*
X56809Y188340D01*
X56787Y188325D01*
X56688Y188215D01*
X56585Y188108D01*
X56571Y188086D01*
X56554Y188066D01*
X56482Y187936D01*
X56406Y187809D01*
X56398Y187784D01*
X56385Y187761D01*
X56345Y187618D01*
X56300Y187477D01*
X56298Y187451D01*
X56290Y187426D01*
X56271Y187182D01*
X56271Y185474D01*
X55526Y184729D01*
X44474Y184729D01*
X43729Y185474D01*
X43729Y197526D01*
X44401Y198198D01*
X44433Y198238D01*
X44470Y198272D01*
X44541Y198374D01*
X44618Y198471D01*
X44639Y198517D01*
X44668Y198559D01*
X44714Y198674D01*
X44766Y198786D01*
X44777Y198836D01*
X44796Y198883D01*
X44814Y199006D01*
X44840Y199127D01*
X44839Y199178D01*
X44846Y199228D01*
X44836Y199352D01*
X44834Y199475D01*
X44821Y199525D01*
X44817Y199576D01*
X44779Y199693D01*
X44749Y199813D01*
X44725Y199859D01*
X44710Y199907D01*
X44646Y200013D01*
X44589Y200123D01*
X44556Y200162D01*
X44530Y200206D01*
X44444Y200294D01*
X44363Y200388D01*
X44322Y200419D01*
X44287Y200455D01*
X44085Y200594D01*
X43440Y200967D01*
X42967Y201440D01*
X42632Y202019D01*
X42459Y202665D01*
X42459Y206001D01*
X49024Y206001D01*
X49050Y206004D01*
X49076Y206002D01*
X49223Y206024D01*
X49370Y206041D01*
X49395Y206049D01*
X49421Y206053D01*
X49558Y206108D01*
X49698Y206158D01*
X49720Y206172D01*
X49745Y206182D01*
X49866Y206267D01*
X49991Y206347D01*
X50003Y206360D01*
X50050Y206315D01*
X50073Y206301D01*
X50092Y206284D01*
X50222Y206212D01*
X50349Y206136D01*
X50374Y206128D01*
X50397Y206115D01*
X50540Y206075D01*
X50681Y206030D01*
X50707Y206027D01*
X50732Y206020D01*
X50976Y206001D01*
X57541Y206001D01*
X57541Y202665D01*
X57368Y202019D01*
X57033Y201440D01*
X56560Y200967D01*
X55915Y200594D01*
X55874Y200564D01*
X55828Y200540D01*
X55734Y200460D01*
X55635Y200387D01*
X55602Y200348D01*
X55563Y200315D01*
X55489Y200215D01*
X55409Y200121D01*
X55386Y200075D01*
X55356Y200034D01*
X55307Y199921D01*
X55250Y199811D01*
X55238Y199761D01*
X55218Y199714D01*
X55196Y199593D01*
X55166Y199473D01*
X55165Y199422D01*
X55156Y199371D01*
X55162Y199248D01*
X55160Y199124D01*
X55171Y199074D01*
X55174Y199023D01*
X55208Y198905D01*
X55234Y198784D01*
X55256Y198737D01*
X55270Y198688D01*
X55331Y198581D01*
X55384Y198469D01*
X55416Y198429D01*
X55441Y198384D01*
X55599Y198198D01*
X56271Y197526D01*
X56271Y195818D01*
X56274Y195792D01*
X56272Y195766D01*
X56294Y195619D01*
X56311Y195472D01*
X56319Y195447D01*
X56323Y195421D01*
X56378Y195283D01*
X56428Y195144D01*
X56442Y195122D01*
X56452Y195097D01*
X56537Y194976D01*
X56617Y194851D01*
X56636Y194833D01*
X56651Y194811D01*
X56761Y194712D01*
X56868Y194609D01*
X56890Y194595D01*
X56910Y194578D01*
X57040Y194506D01*
X57167Y194430D01*
X57192Y194422D01*
X57215Y194409D01*
X57358Y194369D01*
X57499Y194324D01*
X57525Y194322D01*
X57550Y194314D01*
X57794Y194295D01*
X62206Y194295D01*
X62232Y194298D01*
X62258Y194296D01*
X62405Y194318D01*
X62552Y194335D01*
X62577Y194343D01*
X62603Y194347D01*
X62741Y194402D01*
X62880Y194452D01*
X62902Y194466D01*
X62927Y194476D01*
X63048Y194561D01*
X63173Y194641D01*
X63191Y194660D01*
X63213Y194675D01*
X63312Y194785D01*
X63415Y194892D01*
X63429Y194914D01*
X63446Y194934D01*
X63518Y195064D01*
X63594Y195191D01*
X63602Y195216D01*
X63615Y195239D01*
X63655Y195382D01*
X63700Y195523D01*
X63702Y195549D01*
X63710Y195574D01*
X63729Y195818D01*
X63729Y197526D01*
X64401Y198198D01*
X64433Y198238D01*
X64470Y198272D01*
X64541Y198374D01*
X64618Y198471D01*
X64639Y198517D01*
X64668Y198559D01*
X64714Y198674D01*
X64766Y198786D01*
X64777Y198836D01*
X64796Y198883D01*
X64814Y199006D01*
X64840Y199127D01*
X64839Y199178D01*
X64846Y199228D01*
X64836Y199352D01*
X64834Y199475D01*
X64821Y199525D01*
X64817Y199576D01*
X64779Y199693D01*
X64749Y199813D01*
X64725Y199859D01*
X64710Y199907D01*
X64646Y200013D01*
X64589Y200123D01*
X64556Y200162D01*
X64530Y200206D01*
X64444Y200294D01*
X64363Y200388D01*
X64322Y200419D01*
X64287Y200455D01*
X64085Y200594D01*
X63440Y200967D01*
X62967Y201440D01*
X62632Y202019D01*
X62459Y202665D01*
X62459Y206001D01*
X69024Y206001D01*
X69050Y206004D01*
X69076Y206002D01*
X69223Y206024D01*
X69370Y206041D01*
X69395Y206049D01*
X69421Y206053D01*
X69558Y206108D01*
X69698Y206158D01*
X69720Y206172D01*
X69745Y206182D01*
X69866Y206267D01*
X69991Y206347D01*
X70003Y206360D01*
X70050Y206315D01*
X70073Y206301D01*
X70092Y206284D01*
X70222Y206212D01*
X70349Y206136D01*
X70374Y206128D01*
X70397Y206115D01*
X70540Y206075D01*
X70681Y206030D01*
X70707Y206027D01*
X70732Y206020D01*
X70976Y206001D01*
X77541Y206001D01*
X77541Y202665D01*
X77368Y202019D01*
X77033Y201440D01*
X76560Y200967D01*
X75915Y200594D01*
X75874Y200564D01*
X75828Y200540D01*
X75734Y200460D01*
X75635Y200387D01*
X75602Y200348D01*
X75563Y200315D01*
X75489Y200215D01*
X75409Y200121D01*
X75386Y200075D01*
X75356Y200034D01*
X75307Y199921D01*
X75250Y199811D01*
X75238Y199761D01*
X75218Y199714D01*
X75196Y199593D01*
X75166Y199473D01*
X75165Y199422D01*
X75156Y199371D01*
X75162Y199248D01*
X75160Y199124D01*
X75171Y199074D01*
X75174Y199023D01*
X75208Y198904D01*
X75234Y198784D01*
X75256Y198737D01*
X75270Y198688D01*
X75331Y198581D01*
X75384Y198469D01*
X75416Y198429D01*
X75441Y198384D01*
X75599Y198198D01*
X76017Y197780D01*
X76037Y197764D01*
X76054Y197744D01*
X76174Y197656D01*
X76290Y197564D01*
X76313Y197553D01*
X76335Y197537D01*
X76471Y197478D01*
X76605Y197415D01*
X76631Y197409D01*
X76655Y197399D01*
X76801Y197373D01*
X76946Y197341D01*
X76972Y197342D01*
X76998Y197337D01*
X77146Y197345D01*
X77294Y197347D01*
X77319Y197354D01*
X77346Y197355D01*
X77488Y197396D01*
X77632Y197432D01*
X77655Y197444D01*
X77680Y197452D01*
X77810Y197524D01*
X77942Y197592D01*
X77962Y197609D01*
X77985Y197622D01*
X78171Y197780D01*
X79986Y199596D01*
X83214Y199596D01*
X84631Y198179D01*
X84730Y198100D01*
X84823Y198016D01*
X84866Y197992D01*
X84904Y197962D01*
X85018Y197908D01*
X85128Y197847D01*
X85175Y197834D01*
X85219Y197813D01*
X85342Y197787D01*
X85464Y197752D01*
X85525Y197747D01*
X85559Y197740D01*
X85607Y197741D01*
X85708Y197733D01*
X85826Y197733D01*
X85852Y197736D01*
X85878Y197734D01*
X86025Y197756D01*
X86172Y197773D01*
X86197Y197781D01*
X86223Y197785D01*
X86361Y197840D01*
X86500Y197890D01*
X86522Y197904D01*
X86547Y197914D01*
X86668Y197999D01*
X86793Y198079D01*
X86811Y198098D01*
X86833Y198113D01*
X86932Y198223D01*
X87035Y198330D01*
X87049Y198352D01*
X87066Y198372D01*
X87138Y198502D01*
X87214Y198629D01*
X87222Y198654D01*
X87235Y198677D01*
X87275Y198820D01*
X87320Y198961D01*
X87322Y198987D01*
X87330Y199012D01*
X87349Y199256D01*
X87349Y202047D01*
X87335Y202172D01*
X87328Y202298D01*
X87315Y202345D01*
X87309Y202393D01*
X87267Y202512D01*
X87232Y202633D01*
X87208Y202675D01*
X87192Y202721D01*
X87123Y202827D01*
X87062Y202937D01*
X87022Y202984D01*
X87003Y203014D01*
X86968Y203047D01*
X86903Y203124D01*
X86587Y203440D01*
X86252Y204019D01*
X86079Y204665D01*
X86079Y204977D01*
X94120Y204977D01*
X94146Y204980D01*
X94172Y204977D01*
X94319Y204999D01*
X94466Y205016D01*
X94491Y205025D01*
X94517Y205029D01*
X94654Y205084D01*
X94794Y205134D01*
X94816Y205148D01*
X94840Y205158D01*
X94962Y205242D01*
X95087Y205323D01*
X95105Y205342D01*
X95127Y205357D01*
X95226Y205467D01*
X95329Y205574D01*
X95342Y205596D01*
X95360Y205616D01*
X95432Y205746D01*
X95508Y205873D01*
X95516Y205898D01*
X95529Y205921D01*
X95569Y206064D01*
X95614Y206205D01*
X95616Y206231D01*
X95623Y206256D01*
X95643Y206500D01*
X95640Y206526D01*
X95642Y206552D01*
X95620Y206699D01*
X95603Y206846D01*
X95594Y206871D01*
X95590Y206897D01*
X95536Y207035D01*
X95486Y207174D01*
X95471Y207197D01*
X95462Y207221D01*
X95377Y207342D01*
X95297Y207467D01*
X95278Y207486D01*
X95263Y207507D01*
X95153Y207606D01*
X95046Y207709D01*
X95023Y207723D01*
X95004Y207740D01*
X94874Y207812D01*
X94747Y207888D01*
X94722Y207896D01*
X94699Y207909D01*
X94556Y207949D01*
X94415Y207995D01*
X94389Y207997D01*
X94363Y208004D01*
X94120Y208023D01*
X86079Y208023D01*
X86079Y208335D01*
X86252Y208981D01*
X86587Y209560D01*
X86903Y209876D01*
X86982Y209975D01*
X87066Y210069D01*
X87090Y210111D01*
X87120Y210149D01*
X87174Y210263D01*
X87235Y210374D01*
X87248Y210421D01*
X87269Y210464D01*
X87295Y210588D01*
X87330Y210710D01*
X87335Y210770D01*
X87342Y210805D01*
X87341Y210853D01*
X87349Y210953D01*
X87349Y215026D01*
X88094Y215771D01*
X97556Y215771D01*
X97582Y215774D01*
X97608Y215772D01*
X97755Y215794D01*
X97902Y215811D01*
X97927Y215819D01*
X97953Y215823D01*
X98091Y215878D01*
X98230Y215928D01*
X98252Y215942D01*
X98277Y215952D01*
X98398Y216037D01*
X98523Y216117D01*
X98541Y216136D01*
X98563Y216151D01*
X98662Y216261D01*
X98765Y216368D01*
X98779Y216390D01*
X98796Y216410D01*
X98868Y216540D01*
X98944Y216667D01*
X98952Y216692D01*
X98965Y216715D01*
X99005Y216858D01*
X99050Y216999D01*
X99052Y217025D01*
X99060Y217050D01*
X99079Y217294D01*
X99079Y220477D01*
X103120Y220477D01*
X103146Y220480D01*
X103172Y220477D01*
X103319Y220499D01*
X103466Y220516D01*
X103491Y220525D01*
X103517Y220529D01*
X103654Y220584D01*
X103794Y220634D01*
X103816Y220648D01*
X103840Y220658D01*
X103962Y220742D01*
X104087Y220823D01*
X104105Y220842D01*
X104127Y220857D01*
X104226Y220967D01*
X104291Y221034D01*
X104329Y221074D01*
X104343Y221097D01*
X104360Y221116D01*
X104432Y221246D01*
X104508Y221373D01*
X104516Y221398D01*
X104529Y221421D01*
X104569Y221564D01*
X104615Y221705D01*
X104617Y221731D01*
X104624Y221757D01*
X104643Y222000D01*
X104643Y230041D01*
X104955Y230041D01*
X105601Y229868D01*
X106180Y229533D01*
X106496Y229217D01*
X106595Y229138D01*
X106689Y229054D01*
X106731Y229030D01*
X106769Y229000D01*
X106883Y228946D01*
X106994Y228885D01*
X107041Y228872D01*
X107084Y228851D01*
X107208Y228825D01*
X107330Y228790D01*
X107390Y228785D01*
X107425Y228778D01*
X107473Y228779D01*
X107573Y228771D01*
X111646Y228771D01*
X111793Y228624D01*
X111813Y228608D01*
X111830Y228588D01*
X111950Y228500D01*
X112066Y228408D01*
X112090Y228396D01*
X112111Y228381D01*
X112247Y228322D01*
X112381Y228259D01*
X112407Y228253D01*
X112431Y228243D01*
X112577Y228216D01*
X112722Y228185D01*
X112748Y228186D01*
X112774Y228181D01*
X112922Y228189D01*
X113070Y228191D01*
X113096Y228198D01*
X113122Y228199D01*
X113264Y228240D01*
X113408Y228276D01*
X113432Y228288D01*
X113457Y228296D01*
X113586Y228368D01*
X113718Y228436D01*
X113738Y228453D01*
X113761Y228466D01*
X113947Y228624D01*
X114094Y228771D01*
X118146Y228771D01*
X118293Y228624D01*
X118313Y228608D01*
X118330Y228588D01*
X118450Y228500D01*
X118566Y228408D01*
X118590Y228396D01*
X118611Y228381D01*
X118747Y228322D01*
X118881Y228259D01*
X118907Y228253D01*
X118931Y228243D01*
X119077Y228216D01*
X119222Y228185D01*
X119248Y228186D01*
X119274Y228181D01*
X119422Y228189D01*
X119570Y228191D01*
X119596Y228198D01*
X119622Y228199D01*
X119764Y228240D01*
X119908Y228276D01*
X119932Y228288D01*
X119957Y228296D01*
X120086Y228368D01*
X120218Y228436D01*
X120238Y228453D01*
X120261Y228466D01*
X120447Y228624D01*
X120521Y228698D01*
X120600Y228797D01*
X120684Y228891D01*
X120708Y228933D01*
X120738Y228971D01*
X120792Y229085D01*
X120853Y229196D01*
X120866Y229243D01*
X120887Y229286D01*
X120913Y229410D01*
X120948Y229532D01*
X120953Y229592D01*
X120960Y229627D01*
X120959Y229675D01*
X120967Y229775D01*
X120967Y231842D01*
X126158Y237033D01*
X141892Y237033D01*
X142018Y237047D01*
X142144Y237054D01*
X142191Y237067D01*
X142239Y237073D01*
X142358Y237115D01*
X142479Y237150D01*
X142521Y237174D01*
X142567Y237190D01*
X142673Y237259D01*
X142783Y237320D01*
X142829Y237360D01*
X142859Y237379D01*
X142893Y237414D01*
X142969Y237479D01*
X144386Y238896D01*
X147614Y238896D01*
X149896Y236614D01*
X149896Y233386D01*
X147614Y231104D01*
X144386Y231104D01*
X142969Y232521D01*
X142870Y232600D01*
X142777Y232684D01*
X142734Y232708D01*
X142696Y232738D01*
X142582Y232792D01*
X142472Y232853D01*
X142425Y232866D01*
X142381Y232887D01*
X142258Y232913D01*
X142136Y232948D01*
X142075Y232953D01*
X142041Y232960D01*
X141993Y232959D01*
X141892Y232967D01*
X128473Y232967D01*
X128348Y232953D01*
X128221Y232946D01*
X128175Y232933D01*
X128127Y232927D01*
X128008Y232885D01*
X127886Y232850D01*
X127844Y232826D01*
X127799Y232810D01*
X127692Y232741D01*
X127582Y232680D01*
X127536Y232640D01*
X127506Y232621D01*
X127472Y232586D01*
X127396Y232521D01*
X126246Y231371D01*
X126183Y231292D01*
X126114Y231220D01*
X126075Y231156D01*
X126029Y231098D01*
X125986Y231007D01*
X125935Y230921D01*
X125912Y230850D01*
X125880Y230783D01*
X125859Y230685D01*
X125829Y230589D01*
X125823Y230515D01*
X125807Y230442D01*
X125809Y230342D01*
X125801Y230242D01*
X125812Y230168D01*
X125813Y230094D01*
X125837Y229997D01*
X125852Y229897D01*
X125880Y229828D01*
X125898Y229756D01*
X125944Y229667D01*
X125981Y229573D01*
X126023Y229512D01*
X126057Y229446D01*
X126123Y229370D01*
X126180Y229287D01*
X126235Y229237D01*
X126283Y229181D01*
X126364Y229121D01*
X126439Y229054D01*
X126504Y229018D01*
X126564Y228973D01*
X126656Y228934D01*
X126744Y228885D01*
X126815Y228865D01*
X126884Y228835D01*
X126982Y228818D01*
X127079Y228790D01*
X127179Y228782D01*
X127227Y228774D01*
X127262Y228776D01*
X127323Y228771D01*
X131146Y228771D01*
X131891Y228026D01*
X131891Y217294D01*
X131894Y217268D01*
X131892Y217242D01*
X131914Y217095D01*
X131931Y216948D01*
X131939Y216923D01*
X131943Y216897D01*
X131998Y216759D01*
X132048Y216620D01*
X132062Y216598D01*
X132072Y216573D01*
X132157Y216452D01*
X132237Y216327D01*
X132256Y216309D01*
X132271Y216287D01*
X132381Y216188D01*
X132488Y216085D01*
X132510Y216071D01*
X132530Y216054D01*
X132660Y215982D01*
X132787Y215906D01*
X132812Y215898D01*
X132835Y215885D01*
X132978Y215845D01*
X133119Y215800D01*
X133145Y215798D01*
X133170Y215790D01*
X133414Y215771D01*
X145146Y215771D01*
X145891Y215026D01*
X145891Y210974D01*
X145744Y210827D01*
X145728Y210807D01*
X145708Y210790D01*
X145620Y210670D01*
X145528Y210554D01*
X145516Y210530D01*
X145501Y210509D01*
X145442Y210373D01*
X145379Y210239D01*
X145373Y210213D01*
X145363Y210189D01*
X145336Y210043D01*
X145305Y209898D01*
X145306Y209872D01*
X145301Y209846D01*
X145309Y209698D01*
X145311Y209550D01*
X145318Y209524D01*
X145319Y209498D01*
X145360Y209356D01*
X145396Y209212D01*
X145408Y209188D01*
X145416Y209163D01*
X145488Y209034D01*
X145556Y208902D01*
X145573Y208882D01*
X145586Y208859D01*
X145744Y208673D01*
X145891Y208526D01*
X145891Y204474D01*
X145744Y204327D01*
X145728Y204307D01*
X145708Y204290D01*
X145620Y204170D01*
X145528Y204054D01*
X145516Y204030D01*
X145501Y204009D01*
X145442Y203873D01*
X145379Y203739D01*
X145373Y203713D01*
X145363Y203689D01*
X145336Y203543D01*
X145305Y203398D01*
X145306Y203372D01*
X145301Y203346D01*
X145309Y203198D01*
X145311Y203050D01*
X145318Y203024D01*
X145319Y202998D01*
X145360Y202856D01*
X145396Y202712D01*
X145408Y202688D01*
X145416Y202663D01*
X145488Y202534D01*
X145556Y202402D01*
X145573Y202382D01*
X145586Y202359D01*
X145744Y202173D01*
X145891Y202026D01*
X145891Y197818D01*
X145894Y197792D01*
X145892Y197766D01*
X145914Y197619D01*
X145931Y197472D01*
X145939Y197447D01*
X145943Y197421D01*
X145998Y197283D01*
X146048Y197144D01*
X146062Y197122D01*
X146072Y197097D01*
X146157Y196976D01*
X146237Y196851D01*
X146256Y196833D01*
X146271Y196811D01*
X146381Y196712D01*
X146488Y196609D01*
X146510Y196595D01*
X146530Y196578D01*
X146660Y196506D01*
X146787Y196430D01*
X146812Y196422D01*
X146835Y196409D01*
X146978Y196369D01*
X147119Y196324D01*
X147145Y196322D01*
X147170Y196314D01*
X147414Y196295D01*
X150658Y196295D01*
X172711Y174241D01*
X172810Y174162D01*
X172904Y174078D01*
X172947Y174054D01*
X172984Y174024D01*
X173099Y173970D01*
X173209Y173909D01*
X173256Y173896D01*
X173300Y173875D01*
X173423Y173849D01*
X173545Y173814D01*
X173606Y173809D01*
X173640Y173802D01*
X173688Y173803D01*
X173789Y173795D01*
X189383Y173795D01*
X189507Y173809D01*
X189632Y173815D01*
X189680Y173829D01*
X189729Y173835D01*
X189846Y173877D01*
X189967Y173911D01*
X190010Y173935D01*
X190057Y173952D01*
X190162Y174020D01*
X190271Y174081D01*
X190308Y174114D01*
X190350Y174141D01*
X190437Y174231D01*
X190529Y174315D01*
X190557Y174356D01*
X190592Y174392D01*
X190656Y174499D01*
X190727Y174602D01*
X190745Y174648D01*
X190771Y174691D01*
X190809Y174810D01*
X190855Y174926D01*
X190862Y174975D01*
X190877Y175023D01*
X190887Y175147D01*
X190905Y175271D01*
X190901Y175321D01*
X190905Y175370D01*
X190886Y175494D01*
X190876Y175618D01*
X190861Y175666D01*
X190853Y175715D01*
X190807Y175831D01*
X190769Y175950D01*
X190743Y175993D01*
X190725Y176039D01*
X190653Y176141D01*
X190589Y176249D01*
X190554Y176284D01*
X190526Y176325D01*
X190433Y176408D01*
X190346Y176498D01*
X190294Y176534D01*
X190267Y176558D01*
X190225Y176581D01*
X190144Y176637D01*
X184551Y179866D01*
X179866Y184551D01*
X176554Y190288D01*
X174839Y196688D01*
X174839Y203312D01*
X176554Y209712D01*
X179866Y215449D01*
X184551Y220134D01*
X190288Y223446D01*
X196688Y225161D01*
X203312Y225161D01*
X209712Y223446D01*
X215449Y220134D01*
X220134Y215449D01*
X223446Y209712D01*
X225161Y203312D01*
X225161Y196688D01*
X223446Y190288D01*
X221185Y186373D01*
X221126Y186235D01*
X221062Y186100D01*
X221057Y186076D01*
X221047Y186053D01*
X221020Y185906D01*
X220989Y185759D01*
X220989Y185735D01*
X220985Y185710D01*
X220992Y185560D01*
X220995Y185411D01*
X221001Y185387D01*
X221002Y185362D01*
X221043Y185218D01*
X221080Y185073D01*
X221091Y185051D01*
X221098Y185027D01*
X221170Y184897D01*
X221239Y184763D01*
X221255Y184744D01*
X221267Y184722D01*
X221368Y184612D01*
X221465Y184498D01*
X221485Y184483D01*
X221502Y184465D01*
X221625Y184380D01*
X221745Y184291D01*
X221768Y184281D01*
X221789Y184267D01*
X221928Y184212D01*
X222065Y184153D01*
X222090Y184148D01*
X222113Y184139D01*
X222261Y184117D01*
X222408Y184091D01*
X222433Y184092D01*
X222458Y184089D01*
X222607Y184101D01*
X222756Y184109D01*
X222780Y184116D01*
X222805Y184118D01*
X222947Y184164D01*
X223091Y184205D01*
X223113Y184218D01*
X223137Y184225D01*
X223265Y184302D01*
X223395Y184376D01*
X223418Y184395D01*
X223435Y184405D01*
X223469Y184438D01*
X223582Y184534D01*
X231759Y192711D01*
X231838Y192810D01*
X231922Y192904D01*
X231946Y192947D01*
X231976Y192984D01*
X232030Y193099D01*
X232091Y193209D01*
X232104Y193256D01*
X232125Y193300D01*
X232151Y193423D01*
X232186Y193545D01*
X232191Y193606D01*
X232198Y193640D01*
X232197Y193688D01*
X232205Y193789D01*
X232205Y204158D01*
X234289Y206241D01*
X241759Y213711D01*
X241838Y213810D01*
X241922Y213904D01*
X241946Y213947D01*
X241976Y213984D01*
X242030Y214099D01*
X242091Y214209D01*
X242104Y214256D01*
X242125Y214300D01*
X242151Y214423D01*
X242186Y214545D01*
X242191Y214605D01*
X242198Y214640D01*
X242197Y214688D01*
X242205Y214789D01*
X242205Y230158D01*
X249842Y237795D01*
X307575Y237795D01*
X307675Y237806D01*
X307776Y237808D01*
X307848Y237826D01*
X307922Y237835D01*
X308016Y237868D01*
X308114Y237893D01*
X308180Y237927D01*
X308250Y237952D01*
X308334Y238007D01*
X308423Y238053D01*
X308480Y238101D01*
X308543Y238141D01*
X308612Y238213D01*
X308689Y238278D01*
X308733Y238338D01*
X308785Y238392D01*
X308836Y238478D01*
X308896Y238559D01*
X308926Y238627D01*
X308964Y238691D01*
X308994Y238786D01*
X309034Y238879D01*
X309047Y238952D01*
X309070Y239023D01*
X309078Y239123D01*
X309096Y239222D01*
X309092Y239296D01*
X309098Y239370D01*
X309083Y239469D01*
X309078Y239570D01*
X309057Y239641D01*
X309046Y239715D01*
X309009Y239808D01*
X308981Y239905D01*
X308945Y239970D01*
X308917Y240039D01*
X308860Y240121D01*
X308811Y240209D01*
X308746Y240285D01*
X308718Y240325D01*
X308692Y240349D01*
X308653Y240395D01*
X308264Y240783D01*
X308165Y240862D01*
X308072Y240946D01*
X308029Y240970D01*
X307991Y241000D01*
X307877Y241054D01*
X307767Y241115D01*
X307720Y241128D01*
X307676Y241149D01*
X307553Y241175D01*
X307431Y241210D01*
X307371Y241215D01*
X307336Y241222D01*
X307287Y241221D01*
X307187Y241229D01*
X297474Y241229D01*
X296729Y241974D01*
X296729Y258026D01*
X297474Y258771D01*
X300682Y258771D01*
X300708Y258774D01*
X300734Y258772D01*
X300881Y258794D01*
X301028Y258811D01*
X301053Y258819D01*
X301079Y258823D01*
X301217Y258878D01*
X301356Y258928D01*
X301378Y258942D01*
X301403Y258952D01*
X301524Y259037D01*
X301649Y259117D01*
X301667Y259136D01*
X301689Y259151D01*
X301788Y259261D01*
X301891Y259368D01*
X301905Y259390D01*
X301922Y259410D01*
X301994Y259540D01*
X302070Y259667D01*
X302078Y259692D01*
X302091Y259715D01*
X302131Y259858D01*
X302176Y259999D01*
X302178Y260025D01*
X302186Y260050D01*
X302205Y260294D01*
X302205Y264358D01*
X304289Y266441D01*
X309833Y271985D01*
X309895Y272063D01*
X309965Y272136D01*
X310003Y272200D01*
X310049Y272258D01*
X310092Y272349D01*
X310144Y272435D01*
X310166Y272506D01*
X310198Y272573D01*
X310219Y272671D01*
X310250Y272767D01*
X310256Y272841D01*
X310271Y272914D01*
X310270Y273014D01*
X310278Y273114D01*
X310267Y273188D01*
X310266Y273262D01*
X310241Y273359D01*
X310226Y273459D01*
X310199Y273528D01*
X310181Y273600D01*
X310134Y273690D01*
X310097Y273783D01*
X310055Y273844D01*
X310021Y273910D01*
X309956Y273987D01*
X309898Y274069D01*
X309843Y274119D01*
X309795Y274175D01*
X309714Y274235D01*
X309640Y274302D01*
X309575Y274338D01*
X309515Y274383D01*
X309423Y274422D01*
X309335Y274471D01*
X309263Y274491D01*
X309195Y274521D01*
X309096Y274538D01*
X308999Y274566D01*
X308899Y274574D01*
X308852Y274582D01*
X308816Y274580D01*
X308755Y274585D01*
X230294Y274585D01*
X230268Y274582D01*
X230242Y274584D01*
X230095Y274562D01*
X229948Y274545D01*
X229923Y274537D01*
X229897Y274533D01*
X229759Y274478D01*
X229620Y274428D01*
X229598Y274414D01*
X229573Y274404D01*
X229452Y274319D01*
X229327Y274239D01*
X229309Y274220D01*
X229287Y274205D01*
X229188Y274095D01*
X229085Y273988D01*
X229071Y273966D01*
X229054Y273946D01*
X228982Y273816D01*
X228906Y273689D01*
X228898Y273664D01*
X228885Y273641D01*
X228845Y273498D01*
X228800Y273357D01*
X228798Y273331D01*
X228790Y273306D01*
X228771Y273062D01*
X228771Y268854D01*
X228026Y268109D01*
X217294Y268109D01*
X217268Y268106D01*
X217242Y268108D01*
X217095Y268086D01*
X216948Y268069D01*
X216923Y268061D01*
X216897Y268057D01*
X216759Y268002D01*
X216620Y267952D01*
X216598Y267938D01*
X216573Y267928D01*
X216452Y267843D01*
X216327Y267763D01*
X216309Y267744D01*
X216287Y267729D01*
X216188Y267619D01*
X216085Y267512D01*
X216071Y267490D01*
X216054Y267470D01*
X215982Y267340D01*
X215906Y267213D01*
X215898Y267188D01*
X215885Y267165D01*
X215845Y267022D01*
X215800Y266881D01*
X215798Y266855D01*
X215790Y266830D01*
X215771Y266586D01*
X215771Y254854D01*
X215026Y254109D01*
X210974Y254109D01*
X210827Y254256D01*
X210807Y254272D01*
X210790Y254292D01*
X210670Y254380D01*
X210554Y254472D01*
X210530Y254484D01*
X210509Y254499D01*
X210373Y254558D01*
X210239Y254621D01*
X210213Y254627D01*
X210189Y254637D01*
X210043Y254664D01*
X209898Y254695D01*
X209872Y254694D01*
X209846Y254699D01*
X209698Y254691D01*
X209550Y254689D01*
X209524Y254682D01*
X209498Y254681D01*
X209356Y254640D01*
X209212Y254604D01*
X209188Y254592D01*
X209163Y254584D01*
X209034Y254512D01*
X208902Y254444D01*
X208882Y254427D01*
X208859Y254414D01*
X208673Y254256D01*
X208526Y254109D01*
X206419Y254109D01*
X206393Y254106D01*
X206367Y254108D01*
X206220Y254086D01*
X206073Y254069D01*
X206048Y254061D01*
X206022Y254057D01*
X205884Y254002D01*
X205745Y253952D01*
X205723Y253938D01*
X205698Y253928D01*
X205577Y253843D01*
X205452Y253763D01*
X205434Y253744D01*
X205412Y253729D01*
X205313Y253619D01*
X205210Y253512D01*
X205196Y253490D01*
X205179Y253470D01*
X205107Y253340D01*
X205031Y253213D01*
X205023Y253188D01*
X205010Y253165D01*
X204970Y253022D01*
X204925Y252881D01*
X204923Y252855D01*
X204915Y252830D01*
X204896Y252586D01*
X204896Y249186D01*
X204580Y248871D01*
X204518Y248792D01*
X204448Y248720D01*
X204410Y248656D01*
X204364Y248598D01*
X204321Y248507D01*
X204269Y248421D01*
X204247Y248350D01*
X204215Y248283D01*
X204194Y248185D01*
X204163Y248089D01*
X204157Y248015D01*
X204142Y247942D01*
X204143Y247842D01*
X204135Y247742D01*
X204146Y247668D01*
X204148Y247594D01*
X204172Y247497D01*
X204187Y247397D01*
X204214Y247328D01*
X204233Y247256D01*
X204279Y247167D01*
X204316Y247073D01*
X204358Y247012D01*
X204392Y246946D01*
X204457Y246869D01*
X204515Y246787D01*
X204570Y246737D01*
X204618Y246681D01*
X204699Y246621D01*
X204773Y246554D01*
X204838Y246518D01*
X204898Y246473D01*
X204990Y246434D01*
X205078Y246385D01*
X205150Y246365D01*
X205218Y246335D01*
X205317Y246318D01*
X205414Y246290D01*
X205514Y246282D01*
X205561Y246274D01*
X205597Y246276D01*
X205658Y246271D01*
X214526Y246271D01*
X215271Y245526D01*
X215271Y244458D01*
X215282Y244358D01*
X215284Y244257D01*
X215302Y244185D01*
X215311Y244111D01*
X215345Y244017D01*
X215369Y243919D01*
X215403Y243853D01*
X215428Y243783D01*
X215483Y243699D01*
X215529Y243610D01*
X215577Y243553D01*
X215617Y243490D01*
X215689Y243421D01*
X215754Y243344D01*
X215814Y243300D01*
X215868Y243248D01*
X215954Y243197D01*
X216035Y243137D01*
X216103Y243108D01*
X216167Y243069D01*
X216262Y243039D01*
X216355Y242999D01*
X216428Y242986D01*
X216499Y242963D01*
X216599Y242955D01*
X216698Y242937D01*
X216772Y242941D01*
X216846Y242935D01*
X216946Y242950D01*
X217046Y242955D01*
X217117Y242976D01*
X217191Y242987D01*
X217284Y243024D01*
X217381Y243052D01*
X217446Y243088D01*
X217515Y243116D01*
X217597Y243173D01*
X217685Y243222D01*
X217761Y243287D01*
X217801Y243315D01*
X217825Y243341D01*
X217871Y243380D01*
X218386Y243896D01*
X221614Y243896D01*
X223896Y241614D01*
X223896Y238386D01*
X221614Y236104D01*
X218386Y236104D01*
X217871Y236620D01*
X217792Y236682D01*
X217720Y236752D01*
X217656Y236790D01*
X217598Y236836D01*
X217507Y236879D01*
X217421Y236931D01*
X217350Y236953D01*
X217283Y236985D01*
X217185Y237006D01*
X217089Y237037D01*
X217015Y237043D01*
X216942Y237058D01*
X216842Y237057D01*
X216742Y237065D01*
X216668Y237054D01*
X216594Y237052D01*
X216497Y237028D01*
X216397Y237013D01*
X216328Y236986D01*
X216256Y236967D01*
X216167Y236921D01*
X216073Y236884D01*
X216012Y236842D01*
X215946Y236808D01*
X215870Y236743D01*
X215787Y236685D01*
X215737Y236630D01*
X215681Y236582D01*
X215621Y236501D01*
X215554Y236427D01*
X215518Y236362D01*
X215473Y236302D01*
X215434Y236210D01*
X215385Y236122D01*
X215365Y236050D01*
X215335Y235982D01*
X215318Y235883D01*
X215290Y235786D01*
X215282Y235686D01*
X215274Y235639D01*
X215276Y235603D01*
X215271Y235542D01*
X215271Y234474D01*
X214526Y233729D01*
X202474Y233729D01*
X201729Y234474D01*
X201729Y245381D01*
X201726Y245407D01*
X201728Y245433D01*
X201706Y245580D01*
X201689Y245727D01*
X201681Y245752D01*
X201677Y245778D01*
X201622Y245916D01*
X201572Y246055D01*
X201558Y246077D01*
X201548Y246102D01*
X201463Y246223D01*
X201383Y246348D01*
X201364Y246366D01*
X201349Y246388D01*
X201239Y246487D01*
X201132Y246590D01*
X201110Y246604D01*
X201090Y246621D01*
X200960Y246693D01*
X200833Y246769D01*
X200808Y246777D01*
X200785Y246790D01*
X200642Y246830D01*
X200501Y246875D01*
X200475Y246877D01*
X200450Y246885D01*
X200206Y246904D01*
X199794Y246904D01*
X199768Y246901D01*
X199742Y246903D01*
X199595Y246881D01*
X199448Y246864D01*
X199423Y246856D01*
X199397Y246852D01*
X199259Y246797D01*
X199120Y246747D01*
X199098Y246733D01*
X199073Y246723D01*
X198952Y246638D01*
X198827Y246558D01*
X198809Y246539D01*
X198787Y246524D01*
X198688Y246414D01*
X198585Y246307D01*
X198571Y246285D01*
X198554Y246265D01*
X198482Y246135D01*
X198406Y246008D01*
X198398Y245983D01*
X198385Y245960D01*
X198345Y245817D01*
X198300Y245676D01*
X198298Y245650D01*
X198290Y245625D01*
X198271Y245381D01*
X198271Y234474D01*
X197526Y233729D01*
X185474Y233729D01*
X184729Y234474D01*
X184729Y235682D01*
X184726Y235708D01*
X184728Y235734D01*
X184706Y235881D01*
X184689Y236028D01*
X184681Y236053D01*
X184677Y236079D01*
X184622Y236216D01*
X184572Y236356D01*
X184558Y236378D01*
X184548Y236403D01*
X184463Y236524D01*
X184383Y236649D01*
X184364Y236667D01*
X184349Y236689D01*
X184239Y236788D01*
X184132Y236891D01*
X184110Y236905D01*
X184090Y236922D01*
X183960Y236994D01*
X183833Y237070D01*
X183808Y237078D01*
X183785Y237091D01*
X183642Y237131D01*
X183501Y237176D01*
X183475Y237178D01*
X183450Y237186D01*
X183206Y237205D01*
X177842Y237205D01*
X161205Y253842D01*
X161205Y287971D01*
X161191Y288097D01*
X161184Y288223D01*
X161171Y288270D01*
X161165Y288318D01*
X161123Y288437D01*
X161088Y288558D01*
X161064Y288600D01*
X161048Y288646D01*
X160979Y288752D01*
X160918Y288862D01*
X160878Y288908D01*
X160859Y288939D01*
X160824Y288972D01*
X160759Y289049D01*
X154770Y295038D01*
X154671Y295117D01*
X154577Y295201D01*
X154534Y295225D01*
X154497Y295255D01*
X154382Y295309D01*
X154272Y295370D01*
X154225Y295383D01*
X154181Y295404D01*
X154058Y295430D01*
X153936Y295465D01*
X153876Y295470D01*
X153841Y295477D01*
X153793Y295476D01*
X153692Y295484D01*
X152766Y295484D01*
X150484Y297766D01*
X150484Y300994D01*
X152766Y303276D01*
X155994Y303276D01*
X158276Y300994D01*
X158276Y300068D01*
X158290Y299942D01*
X158297Y299816D01*
X158310Y299769D01*
X158316Y299721D01*
X158358Y299602D01*
X158393Y299481D01*
X158417Y299439D01*
X158433Y299393D01*
X158502Y299287D01*
X158563Y299177D01*
X158603Y299130D01*
X158622Y299100D01*
X158657Y299067D01*
X158722Y298990D01*
X160024Y297688D01*
X160045Y297672D01*
X160062Y297652D01*
X160181Y297564D01*
X160297Y297471D01*
X160321Y297460D01*
X160342Y297445D01*
X160478Y297386D01*
X160613Y297322D01*
X160638Y297317D01*
X160662Y297307D01*
X160808Y297280D01*
X160953Y297249D01*
X160979Y297249D01*
X161005Y297245D01*
X161153Y297252D01*
X161302Y297255D01*
X161327Y297261D01*
X161353Y297263D01*
X161496Y297304D01*
X161640Y297340D01*
X161663Y297352D01*
X161688Y297359D01*
X161818Y297432D01*
X161949Y297500D01*
X161969Y297517D01*
X161992Y297529D01*
X162179Y297688D01*
X164386Y299896D01*
X167614Y299896D01*
X168839Y298670D01*
X168859Y298654D01*
X168876Y298634D01*
X168996Y298546D01*
X169112Y298454D01*
X169136Y298443D01*
X169157Y298427D01*
X169293Y298368D01*
X169427Y298305D01*
X169453Y298299D01*
X169477Y298289D01*
X169623Y298263D01*
X169768Y298231D01*
X169794Y298232D01*
X169820Y298227D01*
X169968Y298235D01*
X170116Y298237D01*
X170142Y298244D01*
X170168Y298245D01*
X170311Y298286D01*
X170454Y298322D01*
X170477Y298334D01*
X170503Y298342D01*
X170632Y298414D01*
X170764Y298482D01*
X170784Y298499D01*
X170807Y298512D01*
X170993Y298670D01*
X171087Y298764D01*
X171103Y298784D01*
X171123Y298802D01*
X171211Y298921D01*
X171303Y299037D01*
X171315Y299061D01*
X171330Y299082D01*
X171389Y299218D01*
X171452Y299352D01*
X171458Y299378D01*
X171468Y299402D01*
X171495Y299547D01*
X171526Y299693D01*
X171525Y299719D01*
X171530Y299745D01*
X171522Y299893D01*
X171520Y300041D01*
X171514Y300067D01*
X171512Y300093D01*
X171471Y300235D01*
X171435Y300379D01*
X171423Y300403D01*
X171416Y300428D01*
X171343Y300557D01*
X171275Y300689D01*
X171258Y300709D01*
X171245Y300732D01*
X171087Y300918D01*
X167967Y304038D01*
X167967Y304892D01*
X167953Y305018D01*
X167946Y305144D01*
X167933Y305191D01*
X167927Y305239D01*
X167885Y305358D01*
X167850Y305479D01*
X167826Y305521D01*
X167810Y305567D01*
X167741Y305673D01*
X167680Y305783D01*
X167640Y305829D01*
X167621Y305859D01*
X167586Y305893D01*
X167521Y305969D01*
X166104Y307386D01*
X166104Y307581D01*
X166101Y307607D01*
X166103Y307633D01*
X166081Y307780D01*
X166064Y307927D01*
X166056Y307952D01*
X166052Y307978D01*
X165997Y308116D01*
X165947Y308255D01*
X165933Y308277D01*
X165923Y308302D01*
X165838Y308423D01*
X165758Y308548D01*
X165739Y308566D01*
X165724Y308588D01*
X165614Y308687D01*
X165507Y308790D01*
X165485Y308804D01*
X165465Y308821D01*
X165335Y308893D01*
X165208Y308969D01*
X165183Y308977D01*
X165160Y308990D01*
X165017Y309030D01*
X164876Y309075D01*
X164850Y309077D01*
X164825Y309085D01*
X164581Y309104D01*
X161386Y309104D01*
X158975Y311515D01*
X158972Y311522D01*
X158947Y311592D01*
X158892Y311676D01*
X158846Y311765D01*
X158798Y311822D01*
X158758Y311885D01*
X158686Y311954D01*
X158621Y312031D01*
X158561Y312075D01*
X158507Y312127D01*
X158421Y312178D01*
X158340Y312238D01*
X158272Y312267D01*
X158208Y312306D01*
X158112Y312336D01*
X158020Y312376D01*
X157947Y312389D01*
X157876Y312412D01*
X157776Y312420D01*
X157677Y312438D01*
X157603Y312434D01*
X157529Y312440D01*
X157429Y312425D01*
X157329Y312420D01*
X157258Y312399D01*
X157184Y312388D01*
X157091Y312351D01*
X156994Y312323D01*
X156929Y312287D01*
X156860Y312259D01*
X156778Y312202D01*
X156690Y312153D01*
X156614Y312088D01*
X156574Y312060D01*
X156550Y312034D01*
X156504Y311995D01*
X154614Y310104D01*
X151386Y310104D01*
X149104Y312386D01*
X149104Y315614D01*
X151386Y317896D01*
X153390Y317896D01*
X153515Y317910D01*
X153642Y317917D01*
X153688Y317930D01*
X153736Y317936D01*
X153855Y317978D01*
X153977Y318013D01*
X154019Y318037D01*
X154064Y318053D01*
X154171Y318122D01*
X154281Y318183D01*
X154327Y318223D01*
X154357Y318242D01*
X154391Y318277D01*
X154467Y318342D01*
X155492Y319367D01*
X155555Y319446D01*
X155624Y319518D01*
X155663Y319582D01*
X155709Y319640D01*
X155752Y319731D01*
X155803Y319817D01*
X155826Y319888D01*
X155858Y319955D01*
X155879Y320053D01*
X155909Y320149D01*
X155915Y320223D01*
X155931Y320296D01*
X155929Y320396D01*
X155937Y320496D01*
X155926Y320570D01*
X155925Y320644D01*
X155901Y320741D01*
X155886Y320841D01*
X155858Y320910D01*
X155840Y320982D01*
X155794Y321071D01*
X155757Y321165D01*
X155715Y321226D01*
X155681Y321292D01*
X155615Y321368D01*
X155558Y321451D01*
X155503Y321501D01*
X155455Y321557D01*
X155374Y321617D01*
X155299Y321684D01*
X155234Y321720D01*
X155174Y321765D01*
X155082Y321804D01*
X154994Y321853D01*
X154923Y321873D01*
X154854Y321903D01*
X154756Y321920D01*
X154659Y321948D01*
X154559Y321956D01*
X154511Y321964D01*
X154476Y321962D01*
X154415Y321967D01*
X98523Y321967D01*
X98397Y321953D01*
X98271Y321946D01*
X98225Y321933D01*
X98177Y321927D01*
X98058Y321885D01*
X97936Y321850D01*
X97894Y321826D01*
X97849Y321810D01*
X97742Y321741D01*
X97632Y321680D01*
X97586Y321640D01*
X97556Y321621D01*
X97522Y321586D01*
X97446Y321521D01*
X71342Y295417D01*
X71263Y295318D01*
X71179Y295224D01*
X71155Y295182D01*
X71125Y295144D01*
X71071Y295030D01*
X71010Y294919D01*
X70997Y294873D01*
X70976Y294829D01*
X70950Y294706D01*
X70915Y294584D01*
X70910Y294523D01*
X70903Y294488D01*
X70904Y294440D01*
X70896Y294340D01*
X70896Y292336D01*
X68614Y290054D01*
X65386Y290054D01*
X63104Y292336D01*
X63104Y295564D01*
X65386Y297846D01*
X67390Y297846D01*
X67516Y297860D01*
X67642Y297867D01*
X67688Y297880D01*
X67736Y297886D01*
X67855Y297928D01*
X67977Y297963D01*
X68019Y297987D01*
X68064Y298003D01*
X68171Y298072D01*
X68281Y298133D01*
X68327Y298173D01*
X68357Y298192D01*
X68391Y298227D01*
X68467Y298292D01*
X96208Y326033D01*
X181936Y326033D01*
X181962Y326036D01*
X181988Y326034D01*
X182135Y326056D01*
X182282Y326073D01*
X182307Y326081D01*
X182333Y326085D01*
X182471Y326140D01*
X182610Y326190D01*
X182632Y326204D01*
X182657Y326214D01*
X182778Y326299D01*
X182903Y326379D01*
X182921Y326398D01*
X182943Y326413D01*
X183042Y326523D01*
X183145Y326630D01*
X183159Y326652D01*
X183176Y326672D01*
X183248Y326802D01*
X183324Y326929D01*
X183332Y326954D01*
X183345Y326977D01*
X183385Y327120D01*
X183430Y327261D01*
X183432Y327287D01*
X183440Y327312D01*
X183459Y327556D01*
X183459Y330501D01*
X190524Y330501D01*
X190550Y330504D01*
X190576Y330502D01*
X190723Y330524D01*
X190870Y330541D01*
X190895Y330549D01*
X190921Y330553D01*
X191058Y330608D01*
X191198Y330658D01*
X191220Y330672D01*
X191245Y330682D01*
X191366Y330767D01*
X191491Y330847D01*
X191509Y330866D01*
X191531Y330881D01*
X191630Y330991D01*
X191733Y331098D01*
X191747Y331120D01*
X191764Y331140D01*
X191836Y331270D01*
X191912Y331397D01*
X191920Y331422D01*
X191933Y331445D01*
X191973Y331588D01*
X192018Y331729D01*
X192020Y331755D01*
X192027Y331780D01*
X192047Y332024D01*
X192047Y332453D01*
X192476Y332453D01*
X192502Y332456D01*
X192528Y332454D01*
X192675Y332476D01*
X192822Y332493D01*
X192847Y332502D01*
X192873Y332506D01*
X193011Y332560D01*
X193150Y332610D01*
X193172Y332625D01*
X193197Y332634D01*
X193318Y332719D01*
X193443Y332799D01*
X193461Y332818D01*
X193483Y332833D01*
X193582Y332943D01*
X193685Y333050D01*
X193699Y333073D01*
X193716Y333092D01*
X193788Y333222D01*
X193864Y333349D01*
X193872Y333374D01*
X193885Y333397D01*
X193925Y333540D01*
X193970Y333681D01*
X193972Y333707D01*
X193980Y333732D01*
X193999Y333976D01*
X193999Y349024D01*
X193996Y349050D01*
X193998Y349076D01*
X193976Y349223D01*
X193959Y349370D01*
X193951Y349395D01*
X193947Y349421D01*
X193892Y349558D01*
X193842Y349698D01*
X193828Y349720D01*
X193818Y349745D01*
X193733Y349866D01*
X193653Y349991D01*
X193640Y350003D01*
X193685Y350050D01*
X193699Y350073D01*
X193716Y350092D01*
X193788Y350222D01*
X193864Y350349D01*
X193872Y350374D01*
X193885Y350397D01*
X193925Y350540D01*
X193970Y350681D01*
X193972Y350707D01*
X193980Y350732D01*
X193999Y350976D01*
X193999Y357541D01*
X197335Y357541D01*
X197981Y357368D01*
X198560Y357033D01*
X199033Y356560D01*
X199406Y355915D01*
X199436Y355874D01*
X199460Y355828D01*
X199540Y355734D01*
X199613Y355635D01*
X199652Y355602D01*
X199685Y355563D01*
X199785Y355489D01*
X199879Y355409D01*
X199925Y355386D01*
X199966Y355356D01*
X200079Y355307D01*
X200189Y355250D01*
X200239Y355238D01*
X200286Y355218D01*
X200407Y355196D01*
X200527Y355166D01*
X200578Y355165D01*
X200629Y355156D01*
X200752Y355162D01*
X200876Y355160D01*
X200926Y355171D01*
X200977Y355174D01*
X201095Y355208D01*
X201216Y355234D01*
X201263Y355256D01*
X201312Y355270D01*
X201419Y355331D01*
X201531Y355384D01*
X201571Y355416D01*
X201616Y355441D01*
X201802Y355599D01*
X202474Y356271D01*
X204182Y356271D01*
X204208Y356274D01*
X204234Y356272D01*
X204381Y356294D01*
X204528Y356311D01*
X204553Y356319D01*
X204579Y356323D01*
X204717Y356378D01*
X204856Y356428D01*
X204878Y356442D01*
X204903Y356452D01*
X205024Y356537D01*
X205149Y356617D01*
X205167Y356636D01*
X205189Y356651D01*
X205288Y356761D01*
X205391Y356868D01*
X205405Y356890D01*
X205422Y356910D01*
X205494Y357040D01*
X205570Y357167D01*
X205578Y357192D01*
X205591Y357215D01*
X205631Y357358D01*
X205676Y357499D01*
X205678Y357525D01*
X205686Y357550D01*
X205705Y357794D01*
X205705Y377248D01*
X205691Y377374D01*
X205684Y377500D01*
X205671Y377546D01*
X205665Y377594D01*
X205623Y377713D01*
X205588Y377835D01*
X205564Y377877D01*
X205548Y377922D01*
X205479Y378029D01*
X205418Y378139D01*
X205378Y378185D01*
X205359Y378215D01*
X205324Y378249D01*
X205259Y378325D01*
X205137Y378447D01*
X203779Y381726D01*
X203779Y385274D01*
X205137Y388553D01*
X207647Y391063D01*
X210926Y392421D01*
X214474Y392421D01*
X217753Y391063D01*
X220263Y388553D01*
X221621Y385274D01*
X221621Y381726D01*
X220263Y378447D01*
X217753Y375937D01*
X214474Y374579D01*
X212818Y374579D01*
X212792Y374576D01*
X212766Y374578D01*
X212619Y374556D01*
X212472Y374539D01*
X212447Y374531D01*
X212421Y374527D01*
X212283Y374472D01*
X212144Y374422D01*
X212122Y374408D01*
X212097Y374398D01*
X211976Y374313D01*
X211851Y374233D01*
X211833Y374214D01*
X211811Y374199D01*
X211712Y374089D01*
X211609Y373982D01*
X211595Y373960D01*
X211578Y373940D01*
X211506Y373810D01*
X211430Y373683D01*
X211422Y373658D01*
X211409Y373635D01*
X211369Y373492D01*
X211324Y373351D01*
X211322Y373325D01*
X211314Y373300D01*
X211295Y373056D01*
X211295Y357794D01*
X211298Y357768D01*
X211296Y357742D01*
X211318Y357595D01*
X211335Y357448D01*
X211343Y357423D01*
X211347Y357397D01*
X211402Y357259D01*
X211452Y357120D01*
X211466Y357098D01*
X211476Y357073D01*
X211561Y356952D01*
X211641Y356827D01*
X211660Y356809D01*
X211675Y356787D01*
X211785Y356688D01*
X211892Y356585D01*
X211914Y356571D01*
X211934Y356554D01*
X212064Y356482D01*
X212191Y356406D01*
X212216Y356398D01*
X212239Y356385D01*
X212382Y356345D01*
X212523Y356300D01*
X212549Y356298D01*
X212574Y356290D01*
X212818Y356271D01*
X214526Y356271D01*
X215271Y355526D01*
X215271Y354318D01*
X215274Y354292D01*
X215272Y354266D01*
X215294Y354119D01*
X215311Y353972D01*
X215319Y353947D01*
X215323Y353921D01*
X215378Y353783D01*
X215428Y353644D01*
X215442Y353622D01*
X215452Y353597D01*
X215537Y353476D01*
X215617Y353351D01*
X215636Y353333D01*
X215651Y353311D01*
X215761Y353212D01*
X215868Y353109D01*
X215890Y353095D01*
X215910Y353078D01*
X216040Y353006D01*
X216167Y352930D01*
X216192Y352922D01*
X216215Y352909D01*
X216358Y352869D01*
X216499Y352824D01*
X216525Y352822D01*
X216550Y352814D01*
X216794Y352795D01*
X221158Y352795D01*
X223241Y350712D01*
X223241Y350711D01*
X246292Y327660D01*
X246391Y327581D01*
X246485Y327497D01*
X246528Y327473D01*
X246565Y327443D01*
X246680Y327389D01*
X246790Y327328D01*
X246837Y327315D01*
X246881Y327294D01*
X247004Y327268D01*
X247126Y327233D01*
X247187Y327228D01*
X247221Y327221D01*
X247269Y327222D01*
X247370Y327214D01*
X248402Y327214D01*
X250485Y325131D01*
X250486Y325130D01*
X251130Y324486D01*
X251131Y324485D01*
X253214Y322402D01*
X253214Y290307D01*
X253228Y290181D01*
X253235Y290055D01*
X253248Y290008D01*
X253254Y289960D01*
X253296Y289841D01*
X253331Y289720D01*
X253355Y289678D01*
X253371Y289632D01*
X253440Y289526D01*
X253501Y289416D01*
X253541Y289370D01*
X253560Y289340D01*
X253595Y289306D01*
X253660Y289230D01*
X254315Y288575D01*
X254315Y287649D01*
X254329Y287523D01*
X254336Y287397D01*
X254349Y287350D01*
X254355Y287302D01*
X254397Y287183D01*
X254432Y287062D01*
X254456Y287020D01*
X254472Y286974D01*
X254541Y286868D01*
X254602Y286758D01*
X254642Y286711D01*
X254661Y286681D01*
X254696Y286648D01*
X254761Y286571D01*
X260711Y280621D01*
X260810Y280542D01*
X260904Y280458D01*
X260947Y280434D01*
X260984Y280404D01*
X261099Y280350D01*
X261209Y280289D01*
X261256Y280276D01*
X261300Y280255D01*
X261423Y280229D01*
X261545Y280194D01*
X261606Y280189D01*
X261640Y280182D01*
X261688Y280183D01*
X261789Y280175D01*
X315834Y280175D01*
X315960Y280189D01*
X316086Y280196D01*
X316133Y280209D01*
X316181Y280215D01*
X316300Y280257D01*
X316421Y280292D01*
X316463Y280316D01*
X316509Y280332D01*
X316615Y280401D01*
X316725Y280462D01*
X316771Y280502D01*
X316801Y280521D01*
X316835Y280556D01*
X316911Y280621D01*
X317586Y281296D01*
X320814Y281296D01*
X321488Y280621D01*
X321588Y280542D01*
X321681Y280458D01*
X321724Y280434D01*
X321761Y280404D01*
X321876Y280350D01*
X321986Y280289D01*
X322033Y280276D01*
X322077Y280255D01*
X322200Y280229D01*
X322322Y280194D01*
X322383Y280189D01*
X322417Y280182D01*
X322465Y280183D01*
X322566Y280175D01*
X342778Y280175D01*
X384610Y238342D01*
X384709Y238263D01*
X384803Y238179D01*
X384846Y238155D01*
X384883Y238125D01*
X384998Y238071D01*
X385108Y238010D01*
X385155Y237997D01*
X385199Y237976D01*
X385322Y237950D01*
X385444Y237915D01*
X385505Y237910D01*
X385539Y237903D01*
X385587Y237904D01*
X385607Y237902D01*
X387896Y235614D01*
X387896Y232386D01*
X387241Y231731D01*
X387162Y231632D01*
X387078Y231539D01*
X387054Y231496D01*
X387024Y231458D01*
X386970Y231344D01*
X386909Y231234D01*
X386896Y231187D01*
X386875Y231143D01*
X386849Y231020D01*
X386814Y230898D01*
X386809Y230837D01*
X386802Y230803D01*
X386803Y230755D01*
X386795Y230654D01*
X386795Y145942D01*
X357827Y116975D01*
X357748Y116876D01*
X357664Y116782D01*
X357640Y116739D01*
X357610Y116702D01*
X357556Y116587D01*
X357495Y116477D01*
X357482Y116430D01*
X357461Y116386D01*
X357435Y116263D01*
X357400Y116141D01*
X357395Y116080D01*
X357388Y116046D01*
X357389Y115998D01*
X357381Y115897D01*
X357381Y114389D01*
X356863Y113139D01*
X356821Y112994D01*
X356776Y112851D01*
X356774Y112827D01*
X356767Y112804D01*
X356760Y112653D01*
X356748Y112504D01*
X356751Y112480D01*
X356750Y112456D01*
X356777Y112308D01*
X356799Y112159D01*
X356808Y112137D01*
X356813Y112113D01*
X356873Y111975D01*
X356928Y111835D01*
X356942Y111815D01*
X356952Y111793D01*
X357041Y111672D01*
X357127Y111549D01*
X357145Y111533D01*
X357159Y111513D01*
X357275Y111416D01*
X357386Y111316D01*
X357407Y111304D01*
X357425Y111288D01*
X357559Y111220D01*
X357691Y111147D01*
X357714Y111141D01*
X357736Y111130D01*
X357881Y111093D01*
X358026Y111052D01*
X358055Y111050D01*
X358074Y111045D01*
X358121Y111045D01*
X358270Y111033D01*
X369827Y111033D01*
X369952Y111047D01*
X370079Y111054D01*
X370125Y111067D01*
X370173Y111073D01*
X370292Y111115D01*
X370414Y111150D01*
X370456Y111174D01*
X370501Y111190D01*
X370608Y111259D01*
X370718Y111320D01*
X370764Y111360D01*
X370794Y111379D01*
X370828Y111414D01*
X370904Y111479D01*
X372250Y112824D01*
X372297Y112885D01*
X372352Y112938D01*
X372405Y113020D01*
X372466Y113097D01*
X372499Y113167D01*
X372540Y113231D01*
X372573Y113324D01*
X372615Y113413D01*
X372631Y113487D01*
X372657Y113559D01*
X372668Y113657D01*
X372689Y113753D01*
X372687Y113830D01*
X372696Y113906D01*
X372684Y114004D01*
X372683Y114102D01*
X372664Y114176D01*
X372655Y114252D01*
X372619Y114363D01*
X372619Y116411D01*
X373393Y118278D01*
X374822Y119707D01*
X376689Y120481D01*
X378711Y120481D01*
X380578Y119707D01*
X382007Y118278D01*
X382781Y116411D01*
X382781Y114389D01*
X382007Y112522D01*
X380578Y111093D01*
X378711Y110319D01*
X376668Y110319D01*
X376641Y110331D01*
X376544Y110349D01*
X376450Y110376D01*
X376373Y110379D01*
X376298Y110393D01*
X376200Y110388D01*
X376101Y110393D01*
X376026Y110379D01*
X375950Y110375D01*
X375855Y110348D01*
X375759Y110330D01*
X375688Y110300D01*
X375615Y110278D01*
X375529Y110230D01*
X375439Y110191D01*
X375377Y110146D01*
X375311Y110108D01*
X375197Y110012D01*
X375159Y109983D01*
X375147Y109969D01*
X375124Y109950D01*
X373779Y108604D01*
X372142Y106967D01*
X361585Y106967D01*
X361485Y106956D01*
X361385Y106954D01*
X361313Y106936D01*
X361239Y106927D01*
X361144Y106894D01*
X361047Y106869D01*
X360981Y106835D01*
X360911Y106810D01*
X360826Y106755D01*
X360737Y106709D01*
X360680Y106661D01*
X360618Y106621D01*
X360548Y106549D01*
X360472Y106484D01*
X360427Y106424D01*
X360376Y106370D01*
X360324Y106284D01*
X360264Y106203D01*
X360235Y106135D01*
X360197Y106071D01*
X360166Y105975D01*
X360126Y105883D01*
X360113Y105810D01*
X360091Y105739D01*
X360082Y105639D01*
X360065Y105540D01*
X360069Y105466D01*
X360063Y105392D01*
X360077Y105292D01*
X360083Y105192D01*
X360103Y105121D01*
X360114Y105047D01*
X360151Y104954D01*
X360179Y104857D01*
X360216Y104792D01*
X360243Y104723D01*
X360300Y104641D01*
X360349Y104553D01*
X360414Y104477D01*
X360442Y104437D01*
X360468Y104413D01*
X360508Y104367D01*
X366396Y98479D01*
X368033Y96842D01*
X368033Y72473D01*
X368047Y72347D01*
X368054Y72221D01*
X368067Y72175D01*
X368073Y72127D01*
X368115Y72008D01*
X368150Y71886D01*
X368174Y71844D01*
X368190Y71799D01*
X368259Y71692D01*
X368320Y71582D01*
X368360Y71536D01*
X368379Y71506D01*
X368414Y71472D01*
X368479Y71396D01*
X371818Y68057D01*
X371838Y68041D01*
X371855Y68021D01*
X371975Y67932D01*
X372091Y67840D01*
X372114Y67829D01*
X372135Y67814D01*
X372272Y67755D01*
X372406Y67692D01*
X372431Y67686D01*
X372455Y67676D01*
X372602Y67649D01*
X372746Y67618D01*
X372773Y67619D01*
X372798Y67614D01*
X372947Y67622D01*
X373095Y67624D01*
X373120Y67631D01*
X373147Y67632D01*
X373289Y67673D01*
X373433Y67709D01*
X373456Y67721D01*
X373481Y67728D01*
X373611Y67801D01*
X373743Y67869D01*
X373763Y67886D01*
X373786Y67899D01*
X373972Y68057D01*
X374822Y68907D01*
X376689Y69681D01*
X378711Y69681D01*
X380578Y68907D01*
X381367Y68118D01*
X381446Y68056D01*
X381518Y67986D01*
X381582Y67948D01*
X381640Y67902D01*
X381731Y67859D01*
X381817Y67807D01*
X381888Y67785D01*
X381955Y67753D01*
X382053Y67732D01*
X382149Y67701D01*
X382223Y67695D01*
X382296Y67679D01*
X382396Y67681D01*
X382496Y67673D01*
X382570Y67684D01*
X382644Y67685D01*
X382741Y67710D01*
X382841Y67725D01*
X382910Y67752D01*
X382982Y67770D01*
X383071Y67816D01*
X383165Y67853D01*
X383226Y67896D01*
X383292Y67930D01*
X383368Y67995D01*
X383451Y68052D01*
X383501Y68108D01*
X383557Y68156D01*
X383617Y68237D01*
X383684Y68311D01*
X383720Y68376D01*
X383765Y68436D01*
X383804Y68528D01*
X383853Y68616D01*
X383873Y68688D01*
X383903Y68756D01*
X383920Y68855D01*
X383948Y68952D01*
X383956Y69052D01*
X383964Y69099D01*
X383962Y69135D01*
X383967Y69195D01*
X383967Y80227D01*
X383953Y80353D01*
X383946Y80479D01*
X383933Y80525D01*
X383927Y80573D01*
X383885Y80692D01*
X383850Y80814D01*
X383826Y80856D01*
X383810Y80901D01*
X383741Y81008D01*
X383680Y81118D01*
X383640Y81164D01*
X383621Y81194D01*
X383586Y81228D01*
X383521Y81304D01*
X380276Y84550D01*
X380216Y84597D01*
X380162Y84652D01*
X380080Y84705D01*
X380003Y84766D01*
X379933Y84799D01*
X379869Y84840D01*
X379776Y84873D01*
X379687Y84915D01*
X379613Y84931D01*
X379541Y84957D01*
X379443Y84968D01*
X379347Y84989D01*
X379270Y84987D01*
X379194Y84996D01*
X379096Y84984D01*
X378998Y84983D01*
X378924Y84964D01*
X378848Y84955D01*
X378737Y84919D01*
X376689Y84919D01*
X374822Y85693D01*
X373393Y87122D01*
X372619Y88989D01*
X372619Y91011D01*
X373393Y92878D01*
X374822Y94307D01*
X376689Y95081D01*
X378711Y95081D01*
X380578Y94307D01*
X382007Y92878D01*
X382781Y91011D01*
X382781Y88968D01*
X382769Y88941D01*
X382751Y88844D01*
X382724Y88750D01*
X382721Y88673D01*
X382707Y88598D01*
X382712Y88500D01*
X382707Y88401D01*
X382721Y88326D01*
X382725Y88250D01*
X382752Y88155D01*
X382770Y88059D01*
X382800Y87988D01*
X382822Y87915D01*
X382870Y87829D01*
X382909Y87739D01*
X382954Y87677D01*
X382992Y87611D01*
X383088Y87497D01*
X383117Y87459D01*
X383131Y87447D01*
X383150Y87424D01*
X386396Y84179D01*
X388033Y82542D01*
X388033Y61158D01*
X386396Y59521D01*
X383479Y56604D01*
X381842Y54967D01*
X229158Y54967D01*
X227521Y56604D01*
X227467Y56658D01*
X227378Y56729D01*
X227370Y56736D01*
X227365Y56740D01*
X227274Y56821D01*
X227232Y56845D01*
X227194Y56875D01*
X227080Y56929D01*
X226969Y56990D01*
X226923Y57003D01*
X226879Y57024D01*
X226756Y57050D01*
X226634Y57085D01*
X226573Y57090D01*
X226538Y57097D01*
X226490Y57096D01*
X226390Y57104D01*
X224386Y57104D01*
X222104Y59386D01*
X222104Y62614D01*
X224386Y64896D01*
X227614Y64896D01*
X229031Y63479D01*
X229130Y63400D01*
X229223Y63316D01*
X229266Y63292D01*
X229304Y63262D01*
X229418Y63208D01*
X229528Y63147D01*
X229575Y63134D01*
X229619Y63113D01*
X229742Y63087D01*
X229864Y63052D01*
X229925Y63047D01*
X229959Y63040D01*
X230007Y63041D01*
X230108Y63033D01*
X232527Y63033D01*
X232653Y63047D01*
X232779Y63054D01*
X232825Y63067D01*
X232873Y63073D01*
X232992Y63115D01*
X233114Y63150D01*
X233156Y63174D01*
X233201Y63190D01*
X233308Y63259D01*
X233418Y63320D01*
X233464Y63360D01*
X233494Y63379D01*
X233528Y63414D01*
X233604Y63479D01*
X237658Y67533D01*
X237737Y67632D01*
X237821Y67726D01*
X237845Y67768D01*
X237875Y67806D01*
X237929Y67920D01*
X237990Y68031D01*
X238003Y68077D01*
X238024Y68121D01*
X238050Y68244D01*
X238085Y68366D01*
X238090Y68427D01*
X238097Y68462D01*
X238096Y68510D01*
X238104Y68610D01*
X238104Y70614D01*
X240386Y72896D01*
X243614Y72896D01*
X245896Y70614D01*
X245896Y67386D01*
X243614Y65104D01*
X241610Y65104D01*
X241484Y65090D01*
X241358Y65083D01*
X241312Y65070D01*
X241264Y65064D01*
X241145Y65022D01*
X241023Y64987D01*
X240981Y64963D01*
X240936Y64947D01*
X240829Y64878D01*
X240719Y64817D01*
X240673Y64777D01*
X240643Y64758D01*
X240609Y64723D01*
X240533Y64658D01*
X237508Y61633D01*
X237445Y61555D01*
X237376Y61482D01*
X237337Y61418D01*
X237291Y61360D01*
X237248Y61269D01*
X237197Y61183D01*
X237174Y61112D01*
X237142Y61045D01*
X237121Y60947D01*
X237091Y60851D01*
X237085Y60777D01*
X237069Y60704D01*
X237071Y60604D01*
X237063Y60504D01*
X237074Y60430D01*
X237075Y60356D01*
X237099Y60258D01*
X237114Y60159D01*
X237142Y60090D01*
X237160Y60018D01*
X237206Y59929D01*
X237243Y59835D01*
X237285Y59774D01*
X237319Y59708D01*
X237385Y59632D01*
X237442Y59549D01*
X237497Y59499D01*
X237545Y59443D01*
X237626Y59383D01*
X237701Y59316D01*
X237766Y59280D01*
X237826Y59235D01*
X237918Y59196D01*
X238006Y59147D01*
X238077Y59127D01*
X238146Y59097D01*
X238244Y59080D01*
X238341Y59052D01*
X238441Y59044D01*
X238489Y59036D01*
X238524Y59038D01*
X238585Y59033D01*
X345532Y59033D01*
X345657Y59047D01*
X345782Y59053D01*
X345829Y59067D01*
X345878Y59073D01*
X345997Y59115D01*
X346117Y59150D01*
X346160Y59173D01*
X346207Y59190D01*
X346312Y59258D01*
X346421Y59319D01*
X346458Y59352D01*
X346499Y59379D01*
X346587Y59469D01*
X346679Y59554D01*
X346707Y59594D01*
X346742Y59630D01*
X346806Y59737D01*
X346877Y59841D01*
X346895Y59887D01*
X346920Y59929D01*
X346959Y60048D01*
X347004Y60165D01*
X347012Y60214D01*
X347027Y60261D01*
X347037Y60386D01*
X347055Y60510D01*
X347051Y60559D01*
X347055Y60608D01*
X347036Y60732D01*
X347025Y60857D01*
X347010Y60904D01*
X347003Y60953D01*
X346956Y61070D01*
X346918Y61189D01*
X346888Y61243D01*
X346874Y61277D01*
X346847Y61316D01*
X346799Y61402D01*
X346672Y61592D01*
X346193Y62748D01*
X346128Y63077D01*
X352300Y63077D01*
X358472Y63077D01*
X358407Y62748D01*
X357928Y61592D01*
X357801Y61402D01*
X357744Y61291D01*
X357680Y61183D01*
X357665Y61136D01*
X357642Y61092D01*
X357612Y60971D01*
X357573Y60851D01*
X357569Y60802D01*
X357558Y60754D01*
X357556Y60629D01*
X357545Y60504D01*
X357553Y60455D01*
X357552Y60406D01*
X357578Y60283D01*
X357597Y60159D01*
X357615Y60113D01*
X357626Y60065D01*
X357680Y59952D01*
X357726Y59835D01*
X357754Y59795D01*
X357775Y59750D01*
X357853Y59652D01*
X357925Y59549D01*
X357961Y59516D01*
X357992Y59478D01*
X358090Y59400D01*
X358184Y59316D01*
X358227Y59292D01*
X358265Y59261D01*
X358379Y59208D01*
X358489Y59147D01*
X358536Y59134D01*
X358581Y59113D01*
X358703Y59086D01*
X358824Y59052D01*
X358886Y59047D01*
X358921Y59040D01*
X358969Y59041D01*
X359068Y59033D01*
X372405Y59033D01*
X372504Y59044D01*
X372605Y59046D01*
X372677Y59064D01*
X372751Y59073D01*
X372845Y59106D01*
X372943Y59131D01*
X373009Y59165D01*
X373079Y59190D01*
X373163Y59245D01*
X373253Y59291D01*
X373309Y59339D01*
X373372Y59379D01*
X373442Y59451D01*
X373518Y59516D01*
X373562Y59576D01*
X373614Y59630D01*
X373665Y59716D01*
X373725Y59797D01*
X373755Y59865D01*
X373793Y59929D01*
X373823Y60024D01*
X373863Y60117D01*
X373876Y60190D01*
X373899Y60261D01*
X373907Y60361D01*
X373925Y60460D01*
X373921Y60534D01*
X373927Y60608D01*
X373912Y60707D01*
X373907Y60808D01*
X373886Y60879D01*
X373875Y60953D01*
X373838Y61046D01*
X373810Y61143D01*
X373774Y61208D01*
X373747Y61277D01*
X373689Y61359D01*
X373640Y61447D01*
X373575Y61523D01*
X373548Y61563D01*
X373521Y61587D01*
X373482Y61633D01*
X373378Y61737D01*
X373367Y61765D01*
X373311Y61845D01*
X373263Y61931D01*
X373211Y61988D01*
X373168Y62051D01*
X373095Y62117D01*
X373029Y62190D01*
X372966Y62233D01*
X372909Y62284D01*
X372823Y62332D01*
X372742Y62388D01*
X372671Y62416D01*
X372604Y62453D01*
X372509Y62480D01*
X372418Y62516D01*
X372342Y62527D01*
X372269Y62548D01*
X372120Y62560D01*
X372073Y62567D01*
X372054Y62565D01*
X372025Y62567D01*
X371558Y62567D01*
X363967Y70158D01*
X363967Y94527D01*
X363953Y94653D01*
X363946Y94779D01*
X363933Y94825D01*
X363927Y94873D01*
X363885Y94992D01*
X363850Y95114D01*
X363826Y95156D01*
X363810Y95201D01*
X363741Y95308D01*
X363680Y95418D01*
X363640Y95464D01*
X363621Y95494D01*
X363586Y95528D01*
X363521Y95604D01*
X356604Y102521D01*
X356505Y102600D01*
X356411Y102684D01*
X356369Y102708D01*
X356331Y102738D01*
X356217Y102792D01*
X356106Y102853D01*
X356060Y102866D01*
X356016Y102887D01*
X355893Y102913D01*
X355771Y102948D01*
X355710Y102953D01*
X355675Y102960D01*
X355627Y102959D01*
X355527Y102967D01*
X321108Y102967D01*
X320982Y102953D01*
X320856Y102946D01*
X320809Y102933D01*
X320761Y102927D01*
X320642Y102885D01*
X320521Y102850D01*
X320479Y102826D01*
X320433Y102810D01*
X320327Y102741D01*
X320217Y102680D01*
X320171Y102640D01*
X320141Y102621D01*
X320107Y102586D01*
X320031Y102521D01*
X318614Y101104D01*
X316610Y101104D01*
X316484Y101090D01*
X316358Y101083D01*
X316312Y101070D01*
X316264Y101064D01*
X316145Y101022D01*
X316023Y100987D01*
X315981Y100963D01*
X315936Y100947D01*
X315829Y100878D01*
X315719Y100817D01*
X315673Y100777D01*
X315643Y100758D01*
X315609Y100723D01*
X315533Y100658D01*
X297508Y82633D01*
X297445Y82555D01*
X297376Y82482D01*
X297337Y82418D01*
X297291Y82360D01*
X297248Y82269D01*
X297197Y82183D01*
X297174Y82112D01*
X297142Y82045D01*
X297121Y81947D01*
X297091Y81851D01*
X297085Y81777D01*
X297069Y81704D01*
X297071Y81604D01*
X297063Y81504D01*
X297074Y81430D01*
X297075Y81356D01*
X297099Y81259D01*
X297114Y81159D01*
X297142Y81090D01*
X297160Y81018D01*
X297206Y80928D01*
X297243Y80835D01*
X297285Y80774D01*
X297319Y80708D01*
X297385Y80631D01*
X297442Y80549D01*
X297497Y80499D01*
X297545Y80443D01*
X297626Y80383D01*
X297701Y80316D01*
X297766Y80280D01*
X297826Y80235D01*
X297918Y80196D01*
X298006Y80147D01*
X298077Y80127D01*
X298146Y80097D01*
X298244Y80080D01*
X298341Y80052D01*
X298441Y80044D01*
X298489Y80036D01*
X298524Y80038D01*
X298585Y80033D01*
X316527Y80033D01*
X316653Y80047D01*
X316779Y80054D01*
X316825Y80067D01*
X316873Y80073D01*
X316992Y80115D01*
X317114Y80150D01*
X317156Y80174D01*
X317201Y80190D01*
X317308Y80259D01*
X317418Y80320D01*
X317464Y80360D01*
X317494Y80379D01*
X317528Y80414D01*
X317604Y80479D01*
X317658Y80533D01*
X317729Y80622D01*
X317736Y80630D01*
X317739Y80635D01*
X317821Y80726D01*
X317845Y80768D01*
X317875Y80806D01*
X317929Y80920D01*
X317990Y81031D01*
X318003Y81077D01*
X318024Y81121D01*
X318050Y81244D01*
X318085Y81366D01*
X318090Y81427D01*
X318097Y81462D01*
X318096Y81510D01*
X318104Y81610D01*
X318104Y84614D01*
X320386Y86896D01*
X323614Y86896D01*
X325896Y84614D01*
X325896Y81386D01*
X323614Y79104D01*
X322610Y79104D01*
X322484Y79090D01*
X322358Y79083D01*
X322312Y79070D01*
X322264Y79064D01*
X322145Y79022D01*
X322023Y78987D01*
X321981Y78963D01*
X321936Y78947D01*
X321829Y78878D01*
X321719Y78817D01*
X321673Y78777D01*
X321643Y78758D01*
X321609Y78723D01*
X321533Y78658D01*
X318842Y75967D01*
X218064Y75967D01*
X218038Y75964D01*
X218012Y75966D01*
X217865Y75944D01*
X217718Y75927D01*
X217693Y75919D01*
X217667Y75915D01*
X217529Y75860D01*
X217390Y75810D01*
X217368Y75796D01*
X217343Y75786D01*
X217222Y75701D01*
X217097Y75621D01*
X217079Y75602D01*
X217057Y75587D01*
X216958Y75477D01*
X216855Y75370D01*
X216841Y75348D01*
X216824Y75328D01*
X216752Y75198D01*
X216676Y75071D01*
X216668Y75046D01*
X216655Y75023D01*
X216615Y74880D01*
X216570Y74739D01*
X216568Y74713D01*
X216560Y74688D01*
X216541Y74444D01*
X216541Y72499D01*
X209476Y72499D01*
X209450Y72496D01*
X209424Y72498D01*
X209277Y72476D01*
X209130Y72459D01*
X209105Y72451D01*
X209079Y72447D01*
X208942Y72392D01*
X208802Y72342D01*
X208780Y72328D01*
X208755Y72318D01*
X208634Y72233D01*
X208509Y72153D01*
X208491Y72134D01*
X208469Y72119D01*
X208370Y72009D01*
X208267Y71902D01*
X208253Y71880D01*
X208236Y71860D01*
X208164Y71730D01*
X208088Y71603D01*
X208080Y71578D01*
X208067Y71555D01*
X208027Y71412D01*
X207982Y71271D01*
X207980Y71245D01*
X207973Y71220D01*
X207953Y70976D01*
X207953Y70547D01*
X207524Y70547D01*
X207498Y70544D01*
X207472Y70546D01*
X207325Y70524D01*
X207178Y70507D01*
X207153Y70498D01*
X207127Y70494D01*
X206989Y70440D01*
X206850Y70390D01*
X206828Y70375D01*
X206803Y70366D01*
X206682Y70281D01*
X206557Y70201D01*
X206539Y70182D01*
X206517Y70167D01*
X206418Y70057D01*
X206315Y69950D01*
X206301Y69927D01*
X206284Y69908D01*
X206212Y69778D01*
X206136Y69651D01*
X206128Y69626D01*
X206115Y69603D01*
X206075Y69460D01*
X206030Y69319D01*
X206027Y69293D01*
X206020Y69268D01*
X206001Y69024D01*
X206001Y62459D01*
X202665Y62459D01*
X202019Y62632D01*
X201440Y62967D01*
X200967Y63440D01*
X200594Y64085D01*
X200564Y64126D01*
X200540Y64172D01*
X200460Y64266D01*
X200387Y64365D01*
X200348Y64398D01*
X200315Y64437D01*
X200215Y64511D01*
X200121Y64591D01*
X200075Y64614D01*
X200034Y64644D01*
X199921Y64693D01*
X199811Y64750D01*
X199761Y64762D01*
X199714Y64782D01*
X199593Y64804D01*
X199473Y64834D01*
X199422Y64835D01*
X199371Y64844D01*
X199248Y64838D01*
X199124Y64840D01*
X199074Y64829D01*
X199023Y64826D01*
X198905Y64792D01*
X198784Y64766D01*
X198737Y64744D01*
X198688Y64730D01*
X198581Y64669D01*
X198469Y64616D01*
X198429Y64584D01*
X198384Y64559D01*
X198198Y64401D01*
X197526Y63729D01*
X195818Y63729D01*
X195792Y63726D01*
X195766Y63728D01*
X195619Y63706D01*
X195472Y63689D01*
X195447Y63681D01*
X195421Y63677D01*
X195283Y63622D01*
X195144Y63572D01*
X195122Y63558D01*
X195097Y63548D01*
X194976Y63463D01*
X194851Y63383D01*
X194833Y63364D01*
X194811Y63349D01*
X194712Y63239D01*
X194609Y63132D01*
X194595Y63110D01*
X194578Y63090D01*
X194506Y62960D01*
X194430Y62833D01*
X194422Y62808D01*
X194409Y62785D01*
X194369Y62642D01*
X194324Y62501D01*
X194322Y62475D01*
X194314Y62450D01*
X194295Y62206D01*
X194295Y57794D01*
X194298Y57768D01*
X194296Y57742D01*
X194318Y57595D01*
X194335Y57448D01*
X194343Y57423D01*
X194347Y57397D01*
X194402Y57259D01*
X194452Y57120D01*
X194466Y57098D01*
X194476Y57073D01*
X194561Y56952D01*
X194641Y56827D01*
X194660Y56809D01*
X194675Y56787D01*
X194785Y56688D01*
X194892Y56585D01*
X194914Y56571D01*
X194934Y56554D01*
X195064Y56482D01*
X195191Y56406D01*
X195216Y56398D01*
X195239Y56385D01*
X195382Y56345D01*
X195523Y56300D01*
X195549Y56298D01*
X195574Y56290D01*
X195818Y56271D01*
X197526Y56271D01*
X198198Y55599D01*
X198238Y55567D01*
X198272Y55530D01*
X198374Y55459D01*
X198471Y55382D01*
X198517Y55361D01*
X198559Y55332D01*
X198674Y55286D01*
X198786Y55234D01*
X198836Y55223D01*
X198883Y55204D01*
X199006Y55186D01*
X199127Y55160D01*
X199178Y55161D01*
X199228Y55154D01*
X199352Y55164D01*
X199475Y55166D01*
X199525Y55179D01*
X199576Y55183D01*
X199693Y55221D01*
X199813Y55251D01*
X199859Y55275D01*
X199907Y55290D01*
X200013Y55354D01*
X200123Y55411D01*
X200162Y55444D01*
X200206Y55470D01*
X200294Y55556D01*
X200388Y55637D01*
X200419Y55678D01*
X200455Y55713D01*
X200594Y55915D01*
X200967Y56560D01*
X201440Y57033D01*
X202019Y57368D01*
X202665Y57541D01*
X206001Y57541D01*
X206001Y50976D01*
X206004Y50950D01*
X206002Y50924D01*
X206024Y50777D01*
X206041Y50630D01*
X206049Y50605D01*
X206053Y50579D01*
X206108Y50442D01*
X206158Y50302D01*
X206172Y50280D01*
X206182Y50255D01*
X206267Y50134D01*
X206347Y50009D01*
X206360Y49997D01*
X206315Y49950D01*
X206301Y49927D01*
X206284Y49908D01*
X206212Y49778D01*
X206136Y49651D01*
X206128Y49626D01*
X206115Y49603D01*
X206075Y49460D01*
X206030Y49319D01*
X206027Y49293D01*
X206020Y49268D01*
X206001Y49024D01*
X206001Y42304D01*
X205996Y42302D01*
X205912Y42247D01*
X205823Y42201D01*
X205766Y42153D01*
X205703Y42113D01*
X205634Y42041D01*
X205557Y41976D01*
X205513Y41916D01*
X205461Y41862D01*
X205410Y41776D01*
X205350Y41695D01*
X205321Y41627D01*
X205282Y41563D01*
X205252Y41467D01*
X205212Y41375D01*
X205199Y41302D01*
X205176Y41231D01*
X205168Y41131D01*
X205150Y41032D01*
X205154Y40958D01*
X205148Y40884D01*
X205163Y40784D01*
X205168Y40684D01*
X205189Y40613D01*
X205200Y40539D01*
X205237Y40446D01*
X205265Y40349D01*
X205301Y40284D01*
X205329Y40215D01*
X205386Y40133D01*
X205435Y40045D01*
X205500Y39969D01*
X205528Y39929D01*
X205554Y39905D01*
X205593Y39859D01*
X215495Y29958D01*
X215495Y26016D01*
X215503Y25940D01*
X215502Y25864D01*
X215523Y25767D01*
X215535Y25670D01*
X215560Y25598D01*
X215577Y25523D01*
X215619Y25434D01*
X215652Y25342D01*
X215694Y25277D01*
X215726Y25208D01*
X215788Y25131D01*
X215841Y25049D01*
X215896Y24996D01*
X215944Y24936D01*
X216021Y24875D01*
X216092Y24807D01*
X216157Y24767D01*
X216217Y24720D01*
X216351Y24652D01*
X216391Y24628D01*
X216409Y24622D01*
X216435Y24609D01*
X217753Y24063D01*
X220263Y21553D01*
X221622Y18272D01*
X221632Y18181D01*
X221634Y18080D01*
X221652Y18008D01*
X221661Y17934D01*
X221694Y17840D01*
X221719Y17742D01*
X221753Y17676D01*
X221778Y17606D01*
X221833Y17522D01*
X221879Y17432D01*
X221927Y17376D01*
X221967Y17313D01*
X222039Y17244D01*
X222104Y17167D01*
X222164Y17123D01*
X222218Y17071D01*
X222304Y17020D01*
X222385Y16960D01*
X222453Y16930D01*
X222517Y16892D01*
X222613Y16862D01*
X222705Y16822D01*
X222778Y16809D01*
X222849Y16786D01*
X222949Y16778D01*
X223048Y16760D01*
X223122Y16764D01*
X223196Y16758D01*
X223296Y16773D01*
X223396Y16778D01*
X223467Y16799D01*
X223541Y16810D01*
X223634Y16847D01*
X223731Y16875D01*
X223796Y16911D01*
X223865Y16939D01*
X223947Y16996D01*
X224035Y17045D01*
X224111Y17110D01*
X224151Y17137D01*
X224175Y17164D01*
X224221Y17203D01*
X225550Y18533D01*
X228268Y18533D01*
X228344Y18541D01*
X228421Y18540D01*
X228517Y18561D01*
X228615Y18573D01*
X228687Y18598D01*
X228761Y18615D01*
X228850Y18657D01*
X228943Y18690D01*
X229007Y18732D01*
X229076Y18764D01*
X229153Y18826D01*
X229236Y18879D01*
X229289Y18934D01*
X229348Y18982D01*
X229409Y19059D01*
X229478Y19130D01*
X229517Y19195D01*
X229564Y19255D01*
X229632Y19388D01*
X229657Y19429D01*
X229662Y19447D01*
X229676Y19473D01*
X230537Y21553D01*
X233047Y24063D01*
X236326Y25421D01*
X239874Y25421D01*
X243153Y24063D01*
X245663Y21553D01*
X247021Y18274D01*
X247021Y14726D01*
X245663Y11447D01*
X243153Y8937D01*
X239874Y7579D01*
X236326Y7579D01*
X233047Y8937D01*
X230537Y11447D01*
X229676Y13527D01*
X229639Y13594D01*
X229610Y13665D01*
X229554Y13746D01*
X229506Y13832D01*
X229455Y13888D01*
X229411Y13951D01*
X229338Y14017D01*
X229272Y14090D01*
X229209Y14133D01*
X229153Y14184D01*
X229067Y14232D01*
X228986Y14288D01*
X228915Y14316D01*
X228848Y14353D01*
X228753Y14380D01*
X228661Y14416D01*
X228586Y14427D01*
X228512Y14448D01*
X228363Y14460D01*
X228317Y14467D01*
X228298Y14465D01*
X228268Y14467D01*
X227865Y14467D01*
X227740Y14453D01*
X227614Y14446D01*
X227567Y14433D01*
X227519Y14427D01*
X227400Y14385D01*
X227279Y14350D01*
X227237Y14326D01*
X227191Y14310D01*
X227085Y14241D01*
X226975Y14180D01*
X226928Y14140D01*
X226898Y14121D01*
X226865Y14086D01*
X226788Y14021D01*
X217400Y4633D01*
X217338Y4555D01*
X217268Y4482D01*
X217230Y4418D01*
X217184Y4360D01*
X217141Y4269D01*
X217089Y4183D01*
X217067Y4112D01*
X217035Y4045D01*
X217014Y3947D01*
X216983Y3851D01*
X216977Y3777D01*
X216961Y3704D01*
X216963Y3604D01*
X216955Y3504D01*
X216966Y3430D01*
X216967Y3356D01*
X216992Y3259D01*
X217007Y3159D01*
X217034Y3090D01*
X217052Y3018D01*
X217098Y2928D01*
X217135Y2835D01*
X217178Y2774D01*
X217212Y2708D01*
X217277Y2631D01*
X217334Y2549D01*
X217389Y2499D01*
X217438Y2443D01*
X217519Y2383D01*
X217593Y2316D01*
X217658Y2280D01*
X217718Y2235D01*
X217810Y2196D01*
X217898Y2147D01*
X217970Y2127D01*
X218038Y2097D01*
X218137Y2080D01*
X218234Y2052D01*
X218334Y2044D01*
X218381Y2036D01*
X218417Y2038D01*
X218477Y2033D01*
X358707Y2033D01*
X358807Y2044D01*
X358907Y2046D01*
X358979Y2064D01*
X359053Y2073D01*
X359148Y2106D01*
X359245Y2131D01*
X359311Y2165D01*
X359381Y2190D01*
X359466Y2245D01*
X359555Y2291D01*
X359612Y2339D01*
X359674Y2379D01*
X359744Y2451D01*
X359821Y2516D01*
X359865Y2576D01*
X359916Y2630D01*
X359968Y2716D01*
X360028Y2797D01*
X360057Y2865D01*
X360095Y2929D01*
X360126Y3025D01*
X360166Y3117D01*
X360179Y3190D01*
X360202Y3261D01*
X360210Y3361D01*
X360227Y3460D01*
X360224Y3534D01*
X360230Y3608D01*
X360215Y3708D01*
X360209Y3808D01*
X360189Y3879D01*
X360178Y3953D01*
X360141Y4046D01*
X360113Y4143D01*
X360077Y4208D01*
X360049Y4277D01*
X359992Y4359D01*
X359943Y4447D01*
X359878Y4523D01*
X359850Y4563D01*
X359824Y4587D01*
X359784Y4633D01*
X355866Y8551D01*
X352554Y14288D01*
X350839Y20688D01*
X350839Y27312D01*
X352554Y33712D01*
X355866Y39449D01*
X360551Y44134D01*
X366288Y47446D01*
X372688Y49161D01*
X379312Y49161D01*
X385712Y47446D01*
X391449Y44134D01*
X395367Y40216D01*
X395445Y40153D01*
X395518Y40084D01*
X395582Y40045D01*
X395640Y39999D01*
X395731Y39956D01*
X395817Y39905D01*
X395888Y39882D01*
X395955Y39850D01*
X396053Y39829D01*
X396149Y39798D01*
X396223Y39792D01*
X396296Y39777D01*
X396396Y39779D01*
X396496Y39770D01*
X396570Y39782D01*
X396644Y39783D01*
X396741Y39807D01*
X396841Y39822D01*
X396910Y39850D01*
X396982Y39868D01*
X397072Y39914D01*
X397165Y39951D01*
X397226Y39993D01*
X397292Y40027D01*
X397369Y40093D01*
X397451Y40150D01*
X397501Y40205D01*
X397557Y40253D01*
X397617Y40334D01*
X397684Y40409D01*
X397720Y40474D01*
X397765Y40534D01*
X397804Y40626D01*
X397853Y40714D01*
X397873Y40785D01*
X397903Y40854D01*
X397920Y40952D01*
X397948Y41049D01*
X397956Y41149D01*
X397964Y41197D01*
X397962Y41232D01*
X397967Y41293D01*
X397967Y358707D01*
X397956Y358807D01*
X397954Y358907D01*
X397936Y358979D01*
X397927Y359053D01*
X397894Y359148D01*
X397869Y359245D01*
X397835Y359311D01*
X397810Y359381D01*
X397755Y359466D01*
X397709Y359555D01*
X397661Y359612D01*
X397621Y359674D01*
X397549Y359744D01*
X397484Y359821D01*
X397424Y359865D01*
X397370Y359916D01*
X397284Y359968D01*
X397203Y360028D01*
X397135Y360057D01*
X397071Y360095D01*
X396975Y360126D01*
X396883Y360166D01*
X396810Y360179D01*
X396739Y360202D01*
X396639Y360210D01*
X396540Y360227D01*
X396466Y360224D01*
X396392Y360230D01*
X396292Y360215D01*
X396192Y360209D01*
X396121Y360189D01*
X396047Y360178D01*
X395954Y360141D01*
X395857Y360113D01*
X395792Y360077D01*
X395723Y360049D01*
X395641Y359992D01*
X395553Y359943D01*
X395477Y359878D01*
X395437Y359850D01*
X395413Y359824D01*
X395367Y359784D01*
X391449Y355866D01*
X385712Y352554D01*
X379312Y350839D01*
X372688Y350839D01*
X366288Y352554D01*
X360551Y355866D01*
X355866Y360551D01*
X352554Y366288D01*
X350839Y372688D01*
X350839Y379312D01*
X352554Y385712D01*
X355866Y391449D01*
X359784Y395367D01*
X359847Y395445D01*
X359916Y395518D01*
X359955Y395582D01*
X360001Y395640D01*
X360044Y395731D01*
X360095Y395817D01*
X360118Y395888D01*
X360150Y395955D01*
X360171Y396053D01*
X360202Y396149D01*
X360208Y396223D01*
X360223Y396296D01*
X360221Y396396D01*
X360230Y396496D01*
X360218Y396570D01*
X360217Y396644D01*
X360193Y396741D01*
X360178Y396841D01*
X360150Y396910D01*
X360132Y396982D01*
X360086Y397072D01*
X360049Y397165D01*
X360007Y397226D01*
X359973Y397292D01*
X359907Y397369D01*
X359850Y397451D01*
X359795Y397501D01*
X359747Y397557D01*
X359666Y397617D01*
X359591Y397684D01*
X359526Y397720D01*
X359466Y397765D01*
X359374Y397804D01*
X359286Y397853D01*
X359215Y397873D01*
X359146Y397903D01*
X359048Y397920D01*
X358951Y397948D01*
X358851Y397956D01*
X358803Y397964D01*
X358768Y397962D01*
X358707Y397967D01*
X41293Y397967D01*
X41193Y397956D01*
X41093Y397954D01*
X41021Y397936D01*
X40947Y397927D01*
X40852Y397894D01*
X40755Y397869D01*
X40689Y397835D01*
X40619Y397810D01*
X40534Y397755D01*
X40445Y397709D01*
X40388Y397661D01*
X40326Y397621D01*
X40256Y397549D01*
X40179Y397484D01*
X40135Y397424D01*
X40084Y397370D01*
X40032Y397284D01*
X39972Y397203D01*
X39943Y397135D01*
X39905Y397071D01*
X39874Y396975D01*
X39834Y396883D01*
X39821Y396810D01*
X39798Y396739D01*
X39790Y396639D01*
X39773Y396540D01*
X39776Y396466D01*
X39770Y396392D01*
X39785Y396292D01*
X39791Y396192D01*
X39811Y396121D01*
X39822Y396047D01*
X39859Y395954D01*
X39887Y395857D01*
X39923Y395792D01*
X39951Y395723D01*
X40008Y395641D01*
X40057Y395553D01*
X40122Y395477D01*
X40150Y395437D01*
X40176Y395413D01*
X40216Y395367D01*
X44134Y391449D01*
X47446Y385712D01*
X49161Y379312D01*
X49161Y372688D01*
X47446Y366288D01*
X44134Y360551D01*
X39449Y355866D01*
X33712Y352554D01*
X27312Y350839D01*
X20688Y350839D01*
X14288Y352554D01*
X8551Y355866D01*
X4633Y359784D01*
X4555Y359847D01*
X4482Y359916D01*
X4418Y359955D01*
X4360Y360001D01*
X4269Y360044D01*
X4183Y360095D01*
X4112Y360118D01*
X4045Y360150D01*
X3947Y360171D01*
X3851Y360202D01*
X3777Y360208D01*
X3704Y360223D01*
X3604Y360221D01*
X3504Y360230D01*
X3430Y360218D01*
X3356Y360217D01*
X3259Y360193D01*
X3159Y360178D01*
X3090Y360150D01*
X3018Y360132D01*
X2928Y360086D01*
X2835Y360049D01*
X2774Y360007D01*
X2708Y359973D01*
X2631Y359907D01*
X2549Y359850D01*
X2499Y359795D01*
X2443Y359747D01*
X2383Y359666D01*
X2316Y359591D01*
X2280Y359526D01*
X2235Y359466D01*
X2196Y359374D01*
X2147Y359286D01*
X2127Y359215D01*
X2097Y359146D01*
X2080Y359048D01*
X2052Y358951D01*
X2044Y358851D01*
X2036Y358803D01*
X2038Y358768D01*
X2033Y358707D01*
X2033Y41293D01*
X2044Y41193D01*
X2046Y41093D01*
X2064Y41021D01*
X2073Y40947D01*
X2106Y40852D01*
X2131Y40755D01*
X2165Y40689D01*
X2190Y40619D01*
X2245Y40534D01*
X2291Y40445D01*
X2339Y40388D01*
X2379Y40326D01*
X2451Y40256D01*
X2516Y40179D01*
X2576Y40135D01*
X2630Y40084D01*
X2716Y40032D01*
X2797Y39972D01*
X2865Y39943D01*
X2929Y39905D01*
X3025Y39874D01*
X3117Y39834D01*
X3190Y39821D01*
X3261Y39798D01*
X3361Y39790D01*
X3460Y39773D01*
X3534Y39776D01*
X3608Y39770D01*
X3708Y39785D01*
X3808Y39791D01*
X3879Y39811D01*
X3953Y39822D01*
X4046Y39859D01*
X4143Y39887D01*
X4208Y39923D01*
X4277Y39951D01*
X4359Y40008D01*
X4447Y40057D01*
X4523Y40122D01*
X4563Y40150D01*
X4587Y40176D01*
X4633Y40216D01*
X8551Y44134D01*
X14288Y47446D01*
X20688Y49161D01*
X27312Y49161D01*
X33712Y47446D01*
X39449Y44134D01*
X44134Y39449D01*
X47446Y33712D01*
X49161Y27312D01*
X49161Y20688D01*
X47446Y14288D01*
X44134Y8551D01*
X40216Y4633D01*
X40153Y4555D01*
X40084Y4482D01*
X40045Y4418D01*
X39999Y4360D01*
X39956Y4269D01*
X39905Y4183D01*
X39882Y4112D01*
X39850Y4045D01*
X39829Y3947D01*
X39798Y3851D01*
X39792Y3777D01*
X39777Y3704D01*
X39779Y3604D01*
X39770Y3504D01*
X39782Y3430D01*
X39783Y3356D01*
X39807Y3259D01*
X39822Y3159D01*
X39850Y3090D01*
X39868Y3018D01*
X39914Y2928D01*
X39951Y2835D01*
X39993Y2774D01*
X40027Y2708D01*
X40093Y2631D01*
X40150Y2549D01*
X40205Y2499D01*
X40253Y2443D01*
X40334Y2383D01*
X40409Y2316D01*
X40474Y2280D01*
X40534Y2235D01*
X40626Y2196D01*
X40714Y2147D01*
X40785Y2127D01*
X40854Y2097D01*
X40952Y2080D01*
X41049Y2052D01*
X41149Y2044D01*
X41197Y2036D01*
X41232Y2038D01*
X41293Y2033D01*
X206923Y2033D01*
X207023Y2044D01*
X207123Y2046D01*
X207195Y2064D01*
X207269Y2073D01*
X207363Y2106D01*
X207461Y2131D01*
X207527Y2165D01*
X207597Y2190D01*
X207681Y2245D01*
X207771Y2291D01*
X207827Y2339D01*
X207890Y2379D01*
X207960Y2451D01*
X208036Y2516D01*
X208080Y2576D01*
X208132Y2630D01*
X208184Y2716D01*
X208243Y2797D01*
X208273Y2865D01*
X208311Y2929D01*
X208341Y3025D01*
X208381Y3117D01*
X208394Y3190D01*
X208417Y3261D01*
X208425Y3361D01*
X208443Y3460D01*
X208439Y3534D01*
X208445Y3608D01*
X208430Y3708D01*
X208425Y3808D01*
X208404Y3879D01*
X208393Y3953D01*
X208356Y4046D01*
X208328Y4143D01*
X208292Y4208D01*
X208265Y4277D01*
X208207Y4359D01*
X208158Y4447D01*
X208093Y4523D01*
X208066Y4563D01*
X208039Y4587D01*
X208000Y4633D01*
X206211Y6422D01*
X200985Y11648D01*
X200985Y13001D01*
X200971Y13127D01*
X200964Y13253D01*
X200951Y13300D01*
X200945Y13348D01*
X200903Y13467D01*
X200868Y13588D01*
X200844Y13630D01*
X200828Y13676D01*
X200759Y13782D01*
X200698Y13892D01*
X200658Y13939D01*
X200639Y13969D01*
X200604Y14002D01*
X200539Y14079D01*
X199798Y14820D01*
X199770Y14842D01*
X199746Y14869D01*
X199634Y14950D01*
X199525Y15036D01*
X199493Y15052D01*
X199463Y15073D01*
X199335Y15126D01*
X199210Y15185D01*
X199175Y15193D01*
X199142Y15207D01*
X199005Y15229D01*
X198869Y15259D01*
X198833Y15258D01*
X198798Y15264D01*
X198659Y15255D01*
X198521Y15253D01*
X198486Y15244D01*
X198450Y15242D01*
X198317Y15201D01*
X198183Y15168D01*
X198151Y15151D01*
X198116Y15141D01*
X197996Y15072D01*
X197873Y15008D01*
X197846Y14985D01*
X197815Y14967D01*
X197713Y14872D01*
X197608Y14782D01*
X197586Y14753D01*
X197560Y14729D01*
X197483Y14614D01*
X197400Y14502D01*
X197386Y14469D01*
X197366Y14439D01*
X197272Y14213D01*
X196744Y12588D01*
X196016Y11159D01*
X195073Y9861D01*
X193939Y8727D01*
X192641Y7784D01*
X191212Y7056D01*
X189849Y6613D01*
X189849Y15474D01*
X189846Y15500D01*
X189848Y15526D01*
X189826Y15673D01*
X189809Y15820D01*
X189801Y15845D01*
X189797Y15871D01*
X189742Y16008D01*
X189692Y16148D01*
X189678Y16170D01*
X189668Y16195D01*
X189583Y16316D01*
X189503Y16441D01*
X189484Y16459D01*
X189469Y16481D01*
X189359Y16580D01*
X189252Y16683D01*
X189230Y16697D01*
X189210Y16714D01*
X189080Y16786D01*
X188953Y16862D01*
X188928Y16870D01*
X188905Y16883D01*
X188762Y16923D01*
X188621Y16968D01*
X188595Y16970D01*
X188570Y16977D01*
X188326Y16997D01*
X187797Y16997D01*
X187797Y17526D01*
X187794Y17552D01*
X187796Y17578D01*
X187774Y17725D01*
X187757Y17872D01*
X187748Y17897D01*
X187744Y17923D01*
X187690Y18061D01*
X187640Y18200D01*
X187625Y18222D01*
X187616Y18247D01*
X187531Y18368D01*
X187451Y18493D01*
X187432Y18511D01*
X187417Y18533D01*
X187307Y18632D01*
X187200Y18735D01*
X187177Y18749D01*
X187158Y18766D01*
X187028Y18838D01*
X186901Y18914D01*
X186876Y18922D01*
X186853Y18935D01*
X186710Y18975D01*
X186569Y19020D01*
X186543Y19022D01*
X186518Y19030D01*
X186274Y19049D01*
X177413Y19049D01*
X177856Y20412D01*
X178584Y21841D01*
X179527Y23139D01*
X180661Y24273D01*
X181959Y25216D01*
X183388Y25944D01*
X185013Y26472D01*
X185046Y26487D01*
X185081Y26496D01*
X185204Y26560D01*
X185330Y26617D01*
X185359Y26639D01*
X185391Y26655D01*
X185496Y26745D01*
X185606Y26830D01*
X185629Y26858D01*
X185656Y26881D01*
X185738Y26993D01*
X185826Y27101D01*
X185842Y27133D01*
X185863Y27162D01*
X185918Y27289D01*
X185979Y27414D01*
X185987Y27449D01*
X186001Y27482D01*
X186026Y27618D01*
X186027Y27624D01*
X186030Y27633D01*
X186030Y27638D01*
X186057Y27753D01*
X186057Y27789D01*
X186063Y27825D01*
X186056Y27957D01*
X186058Y27980D01*
X186056Y27996D01*
X186055Y28102D01*
X186047Y28137D01*
X186045Y28173D01*
X186012Y28288D01*
X186006Y28325D01*
X185996Y28351D01*
X185974Y28441D01*
X185958Y28473D01*
X185948Y28508D01*
X185897Y28599D01*
X185877Y28649D01*
X185853Y28684D01*
X185819Y28753D01*
X185796Y28780D01*
X185778Y28812D01*
X185701Y28902D01*
X185679Y28935D01*
X185657Y28955D01*
X185620Y28998D01*
X150653Y63965D01*
X150554Y64044D01*
X150460Y64128D01*
X150417Y64152D01*
X150380Y64182D01*
X150265Y64236D01*
X150155Y64297D01*
X150108Y64310D01*
X150064Y64331D01*
X149941Y64357D01*
X149819Y64392D01*
X149759Y64397D01*
X149724Y64404D01*
X149676Y64403D01*
X149575Y64411D01*
X115685Y64411D01*
X99575Y80521D01*
X99476Y80600D01*
X99382Y80684D01*
X99340Y80708D01*
X99302Y80738D01*
X99188Y80792D01*
X99077Y80853D01*
X99031Y80866D01*
X98987Y80887D01*
X98864Y80913D01*
X98742Y80948D01*
X98681Y80953D01*
X98646Y80960D01*
X98598Y80959D01*
X98498Y80967D01*
X82108Y80967D01*
X81982Y80953D01*
X81856Y80946D01*
X81809Y80933D01*
X81761Y80927D01*
X81642Y80885D01*
X81521Y80850D01*
X81479Y80826D01*
X81433Y80810D01*
X81327Y80741D01*
X81217Y80680D01*
X81171Y80640D01*
X81141Y80621D01*
X81107Y80586D01*
X81031Y80521D01*
X79614Y79104D01*
X76386Y79104D01*
X74104Y81386D01*
X74104Y84614D01*
X75096Y85605D01*
X75158Y85684D01*
X75228Y85756D01*
X75266Y85820D01*
X75312Y85878D01*
X75355Y85969D01*
X75407Y86055D01*
X75429Y86126D01*
X75461Y86193D01*
X75482Y86291D01*
X75513Y86387D01*
X75519Y86461D01*
X75534Y86534D01*
X75533Y86634D01*
X75541Y86734D01*
X75530Y86808D01*
X75528Y86882D01*
X75504Y86979D01*
X75489Y87079D01*
X75462Y87148D01*
X75443Y87220D01*
X75397Y87309D01*
X75360Y87403D01*
X75318Y87464D01*
X75284Y87530D01*
X75219Y87606D01*
X75161Y87689D01*
X75106Y87739D01*
X75058Y87795D01*
X74977Y87855D01*
X74903Y87922D01*
X74837Y87958D01*
X74778Y88003D01*
X74686Y88042D01*
X74598Y88091D01*
X74526Y88111D01*
X74458Y88141D01*
X74359Y88158D01*
X74262Y88186D01*
X74162Y88194D01*
X74115Y88202D01*
X74079Y88200D01*
X74018Y88205D01*
X36425Y88205D01*
X36325Y88194D01*
X36224Y88192D01*
X36152Y88174D01*
X36078Y88165D01*
X35984Y88132D01*
X35886Y88107D01*
X35820Y88073D01*
X35750Y88048D01*
X35666Y87993D01*
X35577Y87947D01*
X35520Y87899D01*
X35457Y87859D01*
X35388Y87787D01*
X35311Y87722D01*
X35267Y87662D01*
X35215Y87608D01*
X35164Y87522D01*
X35104Y87441D01*
X35075Y87373D01*
X35036Y87309D01*
X35006Y87213D01*
X34966Y87121D01*
X34953Y87048D01*
X34930Y86977D01*
X34922Y86877D01*
X34904Y86778D01*
X34908Y86704D01*
X34902Y86630D01*
X34917Y86530D01*
X34922Y86430D01*
X34943Y86359D01*
X34954Y86285D01*
X34991Y86192D01*
X35019Y86095D01*
X35055Y86030D01*
X35083Y85961D01*
X35140Y85879D01*
X35189Y85791D01*
X35254Y85715D01*
X35282Y85675D01*
X35308Y85651D01*
X35347Y85605D01*
X36711Y84241D01*
X36712Y84241D01*
X39610Y81342D01*
X39709Y81263D01*
X39803Y81179D01*
X39846Y81155D01*
X39883Y81125D01*
X39998Y81071D01*
X40108Y81010D01*
X40155Y80997D01*
X40199Y80976D01*
X40322Y80950D01*
X40444Y80915D01*
X40505Y80910D01*
X40539Y80903D01*
X40587Y80904D01*
X40688Y80896D01*
G37*
G36*
X321108Y107033D02*
X321108Y107033D01*
X321780Y107033D01*
X321880Y107044D01*
X321981Y107046D01*
X322053Y107064D01*
X322127Y107073D01*
X322221Y107107D01*
X322319Y107131D01*
X322385Y107165D01*
X322455Y107190D01*
X322539Y107245D01*
X322628Y107291D01*
X322685Y107339D01*
X322748Y107379D01*
X322817Y107451D01*
X322894Y107516D01*
X322938Y107576D01*
X322990Y107630D01*
X323041Y107716D01*
X323101Y107797D01*
X323130Y107865D01*
X323169Y107929D01*
X323199Y108025D01*
X323239Y108117D01*
X323252Y108190D01*
X323275Y108261D01*
X323283Y108361D01*
X323301Y108460D01*
X323297Y108534D01*
X323303Y108608D01*
X323288Y108708D01*
X323283Y108808D01*
X323262Y108879D01*
X323251Y108953D01*
X323214Y109046D01*
X323186Y109143D01*
X323150Y109208D01*
X323122Y109277D01*
X323065Y109359D01*
X323016Y109447D01*
X322951Y109523D01*
X322923Y109563D01*
X322897Y109587D01*
X322858Y109633D01*
X322104Y110386D01*
X322104Y113614D01*
X324386Y115896D01*
X327614Y115896D01*
X329896Y113614D01*
X329896Y112556D01*
X329899Y112530D01*
X329897Y112504D01*
X329919Y112357D01*
X329936Y112210D01*
X329944Y112185D01*
X329948Y112159D01*
X330003Y112021D01*
X330053Y111882D01*
X330067Y111860D01*
X330077Y111835D01*
X330162Y111714D01*
X330242Y111589D01*
X330261Y111571D01*
X330276Y111549D01*
X330386Y111450D01*
X330493Y111347D01*
X330515Y111333D01*
X330535Y111316D01*
X330665Y111244D01*
X330792Y111168D01*
X330817Y111160D01*
X330840Y111147D01*
X330983Y111107D01*
X331124Y111062D01*
X331150Y111060D01*
X331175Y111052D01*
X331419Y111033D01*
X346330Y111033D01*
X346479Y111050D01*
X346629Y111062D01*
X346652Y111070D01*
X346676Y111073D01*
X346818Y111123D01*
X346961Y111170D01*
X346981Y111182D01*
X347004Y111190D01*
X347131Y111272D01*
X347259Y111349D01*
X347277Y111366D01*
X347297Y111379D01*
X347401Y111487D01*
X347509Y111592D01*
X347522Y111612D01*
X347539Y111630D01*
X347617Y111759D01*
X347698Y111885D01*
X347706Y111908D01*
X347718Y111929D01*
X347764Y112072D01*
X347814Y112214D01*
X347817Y112238D01*
X347824Y112261D01*
X347836Y112410D01*
X347853Y112560D01*
X347850Y112584D01*
X347852Y112608D01*
X347830Y112757D01*
X347812Y112906D01*
X347803Y112934D01*
X347801Y112953D01*
X347783Y112997D01*
X347737Y113139D01*
X347219Y114389D01*
X347219Y116411D01*
X347993Y118278D01*
X349422Y119707D01*
X351289Y120481D01*
X352797Y120481D01*
X352923Y120495D01*
X353049Y120502D01*
X353096Y120515D01*
X353144Y120521D01*
X353263Y120563D01*
X353384Y120598D01*
X353426Y120622D01*
X353472Y120638D01*
X353578Y120707D01*
X353688Y120768D01*
X353735Y120808D01*
X353765Y120827D01*
X353798Y120862D01*
X353875Y120927D01*
X380759Y147811D01*
X380838Y147910D01*
X380922Y148004D01*
X380946Y148047D01*
X380976Y148084D01*
X381030Y148199D01*
X381091Y148309D01*
X381104Y148356D01*
X381125Y148400D01*
X381151Y148523D01*
X381186Y148645D01*
X381191Y148706D01*
X381198Y148740D01*
X381197Y148788D01*
X381205Y148889D01*
X381205Y230654D01*
X381191Y230780D01*
X381184Y230906D01*
X381171Y230953D01*
X381165Y231001D01*
X381123Y231120D01*
X381088Y231241D01*
X381064Y231283D01*
X381048Y231329D01*
X380979Y231435D01*
X380918Y231545D01*
X380878Y231591D01*
X380859Y231621D01*
X380824Y231655D01*
X380759Y231731D01*
X380104Y232386D01*
X380104Y234312D01*
X380090Y234438D01*
X380083Y234564D01*
X380070Y234611D01*
X380064Y234659D01*
X380022Y234778D01*
X379987Y234899D01*
X379963Y234941D01*
X379947Y234987D01*
X379878Y235093D01*
X379817Y235203D01*
X379777Y235250D01*
X379758Y235280D01*
X379723Y235313D01*
X379658Y235390D01*
X340909Y274139D01*
X340810Y274218D01*
X340716Y274302D01*
X340673Y274326D01*
X340636Y274356D01*
X340521Y274410D01*
X340411Y274471D01*
X340364Y274484D01*
X340320Y274505D01*
X340197Y274531D01*
X340075Y274566D01*
X340014Y274571D01*
X339980Y274578D01*
X339932Y274577D01*
X339831Y274585D01*
X322526Y274585D01*
X322400Y274571D01*
X322274Y274564D01*
X322227Y274551D01*
X322179Y274545D01*
X322060Y274503D01*
X321939Y274468D01*
X321897Y274444D01*
X321851Y274428D01*
X321745Y274359D01*
X321635Y274298D01*
X321588Y274258D01*
X321558Y274239D01*
X321525Y274204D01*
X321448Y274139D01*
X320814Y273504D01*
X319888Y273504D01*
X319762Y273490D01*
X319636Y273483D01*
X319589Y273470D01*
X319541Y273464D01*
X319422Y273422D01*
X319301Y273387D01*
X319259Y273363D01*
X319213Y273347D01*
X319107Y273278D01*
X318997Y273217D01*
X318950Y273177D01*
X318920Y273158D01*
X318887Y273123D01*
X318810Y273058D01*
X308241Y262489D01*
X308162Y262390D01*
X308078Y262296D01*
X308054Y262253D01*
X308024Y262216D01*
X307970Y262101D01*
X307909Y261991D01*
X307896Y261944D01*
X307875Y261900D01*
X307849Y261777D01*
X307814Y261655D01*
X307809Y261594D01*
X307802Y261560D01*
X307803Y261512D01*
X307795Y261411D01*
X307795Y260294D01*
X307798Y260268D01*
X307796Y260242D01*
X307818Y260095D01*
X307835Y259948D01*
X307843Y259923D01*
X307847Y259897D01*
X307902Y259759D01*
X307952Y259620D01*
X307966Y259598D01*
X307976Y259573D01*
X308061Y259452D01*
X308141Y259327D01*
X308160Y259309D01*
X308175Y259287D01*
X308285Y259188D01*
X308392Y259085D01*
X308414Y259071D01*
X308434Y259054D01*
X308564Y258982D01*
X308691Y258906D01*
X308716Y258898D01*
X308739Y258885D01*
X308882Y258845D01*
X309023Y258800D01*
X309049Y258798D01*
X309074Y258790D01*
X309318Y258771D01*
X312526Y258771D01*
X313271Y258026D01*
X313271Y244313D01*
X313285Y244187D01*
X313292Y244061D01*
X313305Y244014D01*
X313311Y243966D01*
X313353Y243847D01*
X313388Y243726D01*
X313412Y243684D01*
X313428Y243638D01*
X313497Y243532D01*
X313558Y243422D01*
X313598Y243375D01*
X313617Y243345D01*
X313652Y243312D01*
X313717Y243235D01*
X321241Y235712D01*
X321241Y235711D01*
X330711Y226241D01*
X332795Y224158D01*
X332795Y216794D01*
X332797Y216775D01*
X332796Y216759D01*
X332797Y216753D01*
X332796Y216742D01*
X332818Y216595D01*
X332835Y216448D01*
X332843Y216423D01*
X332847Y216397D01*
X332902Y216259D01*
X332952Y216120D01*
X332966Y216098D01*
X332976Y216073D01*
X333061Y215952D01*
X333141Y215827D01*
X333160Y215809D01*
X333175Y215787D01*
X333285Y215688D01*
X333392Y215585D01*
X333414Y215571D01*
X333434Y215554D01*
X333564Y215482D01*
X333691Y215406D01*
X333716Y215398D01*
X333739Y215385D01*
X333882Y215345D01*
X334023Y215300D01*
X334049Y215298D01*
X334074Y215290D01*
X334318Y215271D01*
X335526Y215271D01*
X336271Y214526D01*
X336271Y212818D01*
X336274Y212792D01*
X336272Y212766D01*
X336294Y212619D01*
X336311Y212472D01*
X336319Y212447D01*
X336323Y212421D01*
X336378Y212283D01*
X336428Y212144D01*
X336442Y212122D01*
X336452Y212097D01*
X336537Y211976D01*
X336617Y211851D01*
X336636Y211833D01*
X336651Y211811D01*
X336761Y211712D01*
X336868Y211609D01*
X336890Y211595D01*
X336910Y211578D01*
X337040Y211506D01*
X337167Y211430D01*
X337192Y211422D01*
X337215Y211409D01*
X337358Y211369D01*
X337499Y211324D01*
X337525Y211322D01*
X337550Y211314D01*
X337794Y211295D01*
X342206Y211295D01*
X342232Y211298D01*
X342258Y211296D01*
X342405Y211318D01*
X342552Y211335D01*
X342577Y211343D01*
X342603Y211347D01*
X342741Y211402D01*
X342880Y211452D01*
X342902Y211466D01*
X342927Y211476D01*
X343048Y211561D01*
X343173Y211641D01*
X343191Y211660D01*
X343213Y211675D01*
X343312Y211785D01*
X343415Y211892D01*
X343429Y211914D01*
X343446Y211934D01*
X343518Y212064D01*
X343594Y212191D01*
X343602Y212216D01*
X343615Y212239D01*
X343655Y212382D01*
X343700Y212523D01*
X343702Y212549D01*
X343710Y212574D01*
X343729Y212818D01*
X343729Y214526D01*
X344474Y215271D01*
X355526Y215271D01*
X356271Y214526D01*
X356271Y202474D01*
X355599Y201802D01*
X355567Y201762D01*
X355530Y201728D01*
X355459Y201626D01*
X355382Y201529D01*
X355361Y201483D01*
X355332Y201441D01*
X355286Y201326D01*
X355234Y201214D01*
X355223Y201164D01*
X355204Y201117D01*
X355186Y200994D01*
X355160Y200873D01*
X355161Y200822D01*
X355154Y200772D01*
X355164Y200648D01*
X355166Y200525D01*
X355179Y200475D01*
X355183Y200424D01*
X355221Y200307D01*
X355251Y200187D01*
X355275Y200141D01*
X355290Y200093D01*
X355354Y199987D01*
X355411Y199877D01*
X355444Y199838D01*
X355470Y199794D01*
X355556Y199706D01*
X355637Y199612D01*
X355678Y199581D01*
X355713Y199545D01*
X355915Y199406D01*
X356560Y199033D01*
X357033Y198560D01*
X357368Y197981D01*
X357541Y197335D01*
X357541Y193999D01*
X350976Y193999D01*
X350950Y193996D01*
X350924Y193998D01*
X350777Y193976D01*
X350630Y193959D01*
X350605Y193951D01*
X350579Y193947D01*
X350442Y193892D01*
X350302Y193842D01*
X350280Y193828D01*
X350255Y193818D01*
X350134Y193733D01*
X350009Y193653D01*
X349997Y193640D01*
X349950Y193685D01*
X349927Y193699D01*
X349908Y193716D01*
X349778Y193788D01*
X349651Y193864D01*
X349626Y193872D01*
X349603Y193885D01*
X349460Y193925D01*
X349319Y193970D01*
X349293Y193972D01*
X349268Y193980D01*
X349024Y193999D01*
X342459Y193999D01*
X342459Y197335D01*
X342632Y197981D01*
X342967Y198560D01*
X343440Y199033D01*
X344085Y199406D01*
X344126Y199436D01*
X344172Y199460D01*
X344266Y199540D01*
X344365Y199613D01*
X344398Y199652D01*
X344437Y199685D01*
X344511Y199785D01*
X344591Y199879D01*
X344614Y199925D01*
X344644Y199966D01*
X344693Y200079D01*
X344750Y200189D01*
X344762Y200239D01*
X344782Y200286D01*
X344804Y200407D01*
X344834Y200527D01*
X344835Y200578D01*
X344844Y200629D01*
X344838Y200752D01*
X344840Y200876D01*
X344829Y200926D01*
X344826Y200977D01*
X344792Y201096D01*
X344766Y201216D01*
X344744Y201263D01*
X344730Y201312D01*
X344669Y201420D01*
X344616Y201531D01*
X344584Y201571D01*
X344559Y201616D01*
X344401Y201802D01*
X343729Y202474D01*
X343729Y204182D01*
X343726Y204208D01*
X343728Y204234D01*
X343706Y204381D01*
X343689Y204528D01*
X343681Y204553D01*
X343677Y204579D01*
X343622Y204717D01*
X343572Y204856D01*
X343558Y204878D01*
X343548Y204903D01*
X343463Y205024D01*
X343383Y205149D01*
X343364Y205167D01*
X343349Y205189D01*
X343239Y205288D01*
X343132Y205391D01*
X343110Y205405D01*
X343090Y205422D01*
X342960Y205494D01*
X342833Y205570D01*
X342808Y205578D01*
X342785Y205591D01*
X342642Y205631D01*
X342501Y205676D01*
X342475Y205678D01*
X342450Y205686D01*
X342206Y205705D01*
X337794Y205705D01*
X337768Y205702D01*
X337742Y205704D01*
X337595Y205682D01*
X337448Y205665D01*
X337423Y205657D01*
X337397Y205653D01*
X337259Y205598D01*
X337120Y205548D01*
X337098Y205534D01*
X337073Y205524D01*
X336952Y205439D01*
X336827Y205359D01*
X336809Y205340D01*
X336787Y205325D01*
X336688Y205215D01*
X336585Y205108D01*
X336571Y205086D01*
X336554Y205066D01*
X336482Y204936D01*
X336406Y204809D01*
X336398Y204784D01*
X336385Y204761D01*
X336345Y204618D01*
X336300Y204477D01*
X336298Y204451D01*
X336290Y204426D01*
X336271Y204182D01*
X336271Y202474D01*
X335599Y201802D01*
X335567Y201762D01*
X335530Y201728D01*
X335459Y201626D01*
X335382Y201529D01*
X335361Y201483D01*
X335332Y201441D01*
X335286Y201326D01*
X335234Y201214D01*
X335223Y201164D01*
X335204Y201117D01*
X335186Y200994D01*
X335160Y200873D01*
X335161Y200822D01*
X335154Y200772D01*
X335164Y200648D01*
X335166Y200525D01*
X335179Y200475D01*
X335183Y200424D01*
X335221Y200307D01*
X335251Y200187D01*
X335275Y200141D01*
X335290Y200093D01*
X335354Y199987D01*
X335411Y199877D01*
X335444Y199838D01*
X335470Y199794D01*
X335556Y199706D01*
X335637Y199612D01*
X335678Y199581D01*
X335713Y199545D01*
X335915Y199406D01*
X336560Y199033D01*
X337033Y198560D01*
X337368Y197981D01*
X337541Y197335D01*
X337541Y193999D01*
X330976Y193999D01*
X330950Y193996D01*
X330924Y193998D01*
X330777Y193976D01*
X330630Y193959D01*
X330605Y193951D01*
X330579Y193947D01*
X330442Y193892D01*
X330302Y193842D01*
X330280Y193828D01*
X330255Y193818D01*
X330134Y193733D01*
X330009Y193653D01*
X329991Y193634D01*
X329969Y193619D01*
X329870Y193509D01*
X329767Y193402D01*
X329753Y193380D01*
X329736Y193360D01*
X329664Y193230D01*
X329588Y193103D01*
X329580Y193078D01*
X329567Y193055D01*
X329527Y192912D01*
X329482Y192771D01*
X329480Y192745D01*
X329473Y192720D01*
X329453Y192476D01*
X329453Y192047D01*
X329024Y192047D01*
X328998Y192044D01*
X328972Y192046D01*
X328825Y192024D01*
X328678Y192007D01*
X328653Y191998D01*
X328627Y191994D01*
X328489Y191940D01*
X328350Y191890D01*
X328328Y191875D01*
X328303Y191866D01*
X328182Y191781D01*
X328057Y191701D01*
X328039Y191682D01*
X328017Y191667D01*
X327918Y191557D01*
X327815Y191450D01*
X327801Y191427D01*
X327784Y191408D01*
X327712Y191278D01*
X327636Y191151D01*
X327628Y191126D01*
X327615Y191103D01*
X327575Y190960D01*
X327530Y190819D01*
X327527Y190793D01*
X327520Y190768D01*
X327501Y190524D01*
X327501Y182705D01*
X327515Y182579D01*
X327522Y182453D01*
X327535Y182407D01*
X327541Y182359D01*
X327583Y182240D01*
X327618Y182118D01*
X327642Y182076D01*
X327658Y182031D01*
X327727Y181924D01*
X327788Y181814D01*
X327828Y181768D01*
X327847Y181738D01*
X327882Y181704D01*
X327947Y181628D01*
X328733Y180842D01*
X328832Y180763D01*
X328926Y180679D01*
X328968Y180655D01*
X329006Y180625D01*
X329120Y180571D01*
X329231Y180510D01*
X329277Y180497D01*
X329321Y180476D01*
X329444Y180450D01*
X329566Y180415D01*
X329627Y180410D01*
X329662Y180403D01*
X329710Y180404D01*
X329810Y180396D01*
X331814Y180396D01*
X334096Y178114D01*
X334096Y174886D01*
X331814Y172604D01*
X328586Y172604D01*
X326304Y174886D01*
X326304Y176890D01*
X326290Y177016D01*
X326283Y177142D01*
X326270Y177188D01*
X326264Y177236D01*
X326222Y177355D01*
X326187Y177477D01*
X326163Y177519D01*
X326147Y177564D01*
X326078Y177671D01*
X326017Y177781D01*
X325977Y177827D01*
X325958Y177857D01*
X325923Y177891D01*
X325858Y177967D01*
X322633Y181192D01*
X322555Y181255D01*
X322482Y181324D01*
X322418Y181363D01*
X322360Y181409D01*
X322269Y181452D01*
X322183Y181503D01*
X322112Y181526D01*
X322045Y181558D01*
X321947Y181579D01*
X321851Y181609D01*
X321777Y181615D01*
X321704Y181631D01*
X321604Y181629D01*
X321504Y181637D01*
X321430Y181626D01*
X321356Y181625D01*
X321259Y181601D01*
X321159Y181586D01*
X321090Y181558D01*
X321018Y181540D01*
X320929Y181494D01*
X320835Y181457D01*
X320774Y181415D01*
X320708Y181381D01*
X320632Y181315D01*
X320549Y181258D01*
X320499Y181203D01*
X320443Y181155D01*
X320383Y181074D01*
X320316Y180999D01*
X320280Y180934D01*
X320235Y180874D01*
X320196Y180782D01*
X320147Y180694D01*
X320127Y180623D01*
X320097Y180554D01*
X320080Y180456D01*
X320052Y180359D01*
X320044Y180259D01*
X320036Y180211D01*
X320038Y180176D01*
X320033Y180115D01*
X320033Y168158D01*
X297842Y145967D01*
X253719Y145967D01*
X253693Y145964D01*
X253667Y145966D01*
X253520Y145944D01*
X253373Y145927D01*
X253348Y145919D01*
X253322Y145915D01*
X253184Y145860D01*
X253045Y145810D01*
X253023Y145796D01*
X252998Y145786D01*
X252877Y145701D01*
X252752Y145621D01*
X252734Y145602D01*
X252712Y145587D01*
X252613Y145477D01*
X252510Y145370D01*
X252496Y145348D01*
X252479Y145328D01*
X252407Y145198D01*
X252331Y145071D01*
X252323Y145046D01*
X252310Y145023D01*
X252270Y144880D01*
X252225Y144739D01*
X252223Y144713D01*
X252215Y144688D01*
X252196Y144444D01*
X252196Y140986D01*
X250779Y139569D01*
X250700Y139470D01*
X250616Y139377D01*
X250592Y139334D01*
X250562Y139296D01*
X250508Y139182D01*
X250447Y139072D01*
X250434Y139025D01*
X250413Y138981D01*
X250387Y138858D01*
X250352Y138736D01*
X250347Y138675D01*
X250340Y138641D01*
X250341Y138593D01*
X250333Y138492D01*
X250333Y135458D01*
X230479Y115604D01*
X229128Y114253D01*
X229065Y114174D01*
X228996Y114102D01*
X228957Y114038D01*
X228911Y113980D01*
X228868Y113889D01*
X228817Y113803D01*
X228794Y113732D01*
X228762Y113665D01*
X228741Y113567D01*
X228711Y113471D01*
X228705Y113397D01*
X228689Y113324D01*
X228691Y113224D01*
X228683Y113124D01*
X228694Y113050D01*
X228695Y112976D01*
X228719Y112879D01*
X228734Y112779D01*
X228762Y112710D01*
X228780Y112638D01*
X228826Y112549D01*
X228863Y112455D01*
X228905Y112394D01*
X228939Y112328D01*
X229005Y112252D01*
X229062Y112169D01*
X229117Y112119D01*
X229165Y112063D01*
X229246Y112003D01*
X229321Y111936D01*
X229386Y111900D01*
X229446Y111855D01*
X229538Y111816D01*
X229626Y111767D01*
X229697Y111747D01*
X229766Y111717D01*
X229864Y111700D01*
X229961Y111672D01*
X230061Y111664D01*
X230109Y111656D01*
X230144Y111658D01*
X230205Y111653D01*
X233247Y111653D01*
X233373Y111667D01*
X233499Y111674D01*
X233545Y111687D01*
X233593Y111693D01*
X233712Y111735D01*
X233834Y111770D01*
X233876Y111794D01*
X233921Y111810D01*
X234028Y111879D01*
X234138Y111940D01*
X234184Y111980D01*
X234214Y111999D01*
X234248Y112034D01*
X234324Y112099D01*
X245858Y123633D01*
X245937Y123732D01*
X246021Y123826D01*
X246045Y123868D01*
X246075Y123906D01*
X246129Y124020D01*
X246190Y124131D01*
X246203Y124177D01*
X246224Y124221D01*
X246250Y124344D01*
X246285Y124466D01*
X246290Y124527D01*
X246297Y124562D01*
X246296Y124610D01*
X246304Y124710D01*
X246304Y126714D01*
X248586Y128996D01*
X251814Y128996D01*
X254096Y126714D01*
X254096Y123486D01*
X251814Y121204D01*
X249810Y121204D01*
X249684Y121190D01*
X249558Y121183D01*
X249512Y121170D01*
X249464Y121164D01*
X249345Y121122D01*
X249223Y121087D01*
X249181Y121063D01*
X249136Y121047D01*
X249029Y120978D01*
X248919Y120917D01*
X248873Y120877D01*
X248843Y120858D01*
X248809Y120823D01*
X248733Y120758D01*
X236719Y108744D01*
X236703Y108724D01*
X236683Y108707D01*
X236595Y108587D01*
X236503Y108471D01*
X236491Y108448D01*
X236476Y108427D01*
X236417Y108290D01*
X236354Y108156D01*
X236348Y108131D01*
X236338Y108107D01*
X236311Y107960D01*
X236280Y107816D01*
X236281Y107790D01*
X236276Y107764D01*
X236284Y107615D01*
X236286Y107467D01*
X236293Y107442D01*
X236294Y107416D01*
X236335Y107273D01*
X236371Y107129D01*
X236383Y107106D01*
X236391Y107081D01*
X236463Y106951D01*
X236531Y106819D01*
X236548Y106799D01*
X236561Y106777D01*
X236719Y106590D01*
X238296Y105014D01*
X238296Y104148D01*
X238307Y104048D01*
X238309Y103948D01*
X238327Y103876D01*
X238336Y103802D01*
X238369Y103707D01*
X238394Y103610D01*
X238428Y103544D01*
X238453Y103474D01*
X238508Y103389D01*
X238554Y103300D01*
X238602Y103243D01*
X238642Y103181D01*
X238714Y103111D01*
X238779Y103035D01*
X238839Y102990D01*
X238893Y102939D01*
X238979Y102887D01*
X239060Y102827D01*
X239128Y102798D01*
X239192Y102760D01*
X239288Y102729D01*
X239380Y102689D01*
X239453Y102676D01*
X239524Y102654D01*
X239624Y102645D01*
X239723Y102628D01*
X239797Y102632D01*
X239871Y102626D01*
X239971Y102640D01*
X240071Y102646D01*
X240142Y102666D01*
X240216Y102677D01*
X240309Y102714D01*
X240406Y102742D01*
X240471Y102778D01*
X240540Y102806D01*
X240622Y102863D01*
X240710Y102912D01*
X240786Y102977D01*
X240826Y103005D01*
X240850Y103031D01*
X240896Y103071D01*
X253958Y116133D01*
X254037Y116232D01*
X254121Y116326D01*
X254145Y116368D01*
X254175Y116406D01*
X254229Y116520D01*
X254290Y116631D01*
X254303Y116677D01*
X254324Y116721D01*
X254350Y116844D01*
X254385Y116966D01*
X254390Y117027D01*
X254397Y117062D01*
X254396Y117110D01*
X254404Y117210D01*
X254404Y119214D01*
X256686Y121496D01*
X259914Y121496D01*
X262196Y119214D01*
X262196Y115986D01*
X259914Y113704D01*
X257910Y113704D01*
X257784Y113690D01*
X257658Y113683D01*
X257612Y113670D01*
X257564Y113664D01*
X257445Y113622D01*
X257323Y113587D01*
X257281Y113563D01*
X257236Y113547D01*
X257129Y113478D01*
X257019Y113417D01*
X256973Y113377D01*
X256943Y113358D01*
X256909Y113323D01*
X256833Y113258D01*
X231208Y87633D01*
X231145Y87555D01*
X231076Y87482D01*
X231037Y87418D01*
X230991Y87360D01*
X230948Y87269D01*
X230897Y87183D01*
X230874Y87112D01*
X230842Y87045D01*
X230821Y86947D01*
X230791Y86851D01*
X230785Y86777D01*
X230769Y86704D01*
X230771Y86604D01*
X230763Y86504D01*
X230774Y86430D01*
X230775Y86356D01*
X230799Y86259D01*
X230814Y86159D01*
X230842Y86090D01*
X230860Y86018D01*
X230906Y85928D01*
X230943Y85835D01*
X230985Y85774D01*
X231019Y85708D01*
X231085Y85631D01*
X231142Y85549D01*
X231197Y85499D01*
X231245Y85443D01*
X231326Y85383D01*
X231401Y85316D01*
X231466Y85280D01*
X231526Y85235D01*
X231618Y85196D01*
X231706Y85147D01*
X231777Y85127D01*
X231846Y85097D01*
X231944Y85080D01*
X232041Y85052D01*
X232141Y85044D01*
X232189Y85036D01*
X232224Y85038D01*
X232285Y85033D01*
X293527Y85033D01*
X293653Y85047D01*
X293779Y85054D01*
X293825Y85067D01*
X293873Y85073D01*
X293992Y85115D01*
X294114Y85150D01*
X294156Y85174D01*
X294201Y85190D01*
X294308Y85259D01*
X294418Y85320D01*
X294464Y85360D01*
X294494Y85379D01*
X294528Y85414D01*
X294604Y85479D01*
X312658Y103533D01*
X312737Y103632D01*
X312821Y103726D01*
X312845Y103768D01*
X312875Y103806D01*
X312929Y103920D01*
X312990Y104031D01*
X313003Y104077D01*
X313024Y104121D01*
X313050Y104244D01*
X313085Y104366D01*
X313090Y104427D01*
X313097Y104462D01*
X313096Y104510D01*
X313104Y104610D01*
X313104Y106614D01*
X315386Y108896D01*
X318614Y108896D01*
X320031Y107479D01*
X320130Y107400D01*
X320223Y107316D01*
X320266Y107292D01*
X320304Y107262D01*
X320418Y107208D01*
X320528Y107147D01*
X320575Y107134D01*
X320619Y107113D01*
X320742Y107087D01*
X320864Y107052D01*
X320925Y107047D01*
X320959Y107040D01*
X321007Y107041D01*
X321108Y107033D01*
G37*
G36*
X220774Y148873D02*
X220774Y148873D01*
X220922Y148875D01*
X220947Y148881D01*
X220973Y148883D01*
X221115Y148924D01*
X221260Y148960D01*
X221283Y148972D01*
X221308Y148979D01*
X221437Y149052D01*
X221569Y149120D01*
X221589Y149137D01*
X221612Y149149D01*
X221799Y149308D01*
X222386Y149896D01*
X224390Y149896D01*
X224516Y149910D01*
X224642Y149917D01*
X224688Y149930D01*
X224736Y149936D01*
X224855Y149978D01*
X224977Y150013D01*
X225012Y150033D01*
X295527Y150033D01*
X295653Y150047D01*
X295779Y150054D01*
X295825Y150067D01*
X295873Y150073D01*
X295992Y150115D01*
X296114Y150150D01*
X296156Y150174D01*
X296201Y150190D01*
X296308Y150259D01*
X296418Y150320D01*
X296464Y150360D01*
X296494Y150379D01*
X296528Y150414D01*
X296604Y150479D01*
X315521Y169396D01*
X315599Y169495D01*
X315684Y169589D01*
X315708Y169631D01*
X315738Y169669D01*
X315792Y169783D01*
X315853Y169894D01*
X315866Y169940D01*
X315887Y169984D01*
X315913Y170107D01*
X315948Y170229D01*
X315953Y170290D01*
X315960Y170325D01*
X315959Y170373D01*
X315967Y170473D01*
X315967Y189317D01*
X315956Y189416D01*
X315954Y189517D01*
X315936Y189589D01*
X315927Y189663D01*
X315894Y189757D01*
X315869Y189855D01*
X315835Y189921D01*
X315810Y189991D01*
X315755Y190076D01*
X315709Y190165D01*
X315661Y190221D01*
X315621Y190284D01*
X315549Y190354D01*
X315484Y190430D01*
X315424Y190474D01*
X315370Y190526D01*
X315284Y190578D01*
X315203Y190637D01*
X315135Y190667D01*
X315071Y190705D01*
X314976Y190735D01*
X314883Y190775D01*
X314810Y190788D01*
X314739Y190811D01*
X314639Y190819D01*
X314540Y190837D01*
X314466Y190833D01*
X314392Y190839D01*
X314293Y190824D01*
X314192Y190819D01*
X314121Y190798D01*
X314047Y190787D01*
X313954Y190750D01*
X313857Y190722D01*
X313792Y190686D01*
X313723Y190659D01*
X313641Y190601D01*
X313553Y190552D01*
X313477Y190487D01*
X313437Y190460D01*
X313413Y190433D01*
X313367Y190394D01*
X313097Y190124D01*
X313018Y190025D01*
X312934Y189931D01*
X312910Y189889D01*
X312880Y189851D01*
X312826Y189736D01*
X312765Y189626D01*
X312752Y189579D01*
X312731Y189536D01*
X312705Y189412D01*
X312670Y189290D01*
X312665Y189230D01*
X312658Y189195D01*
X312659Y189147D01*
X312651Y189047D01*
X312651Y184974D01*
X311906Y184229D01*
X302444Y184229D01*
X302418Y184226D01*
X302392Y184228D01*
X302245Y184206D01*
X302098Y184189D01*
X302073Y184181D01*
X302047Y184177D01*
X301909Y184122D01*
X301770Y184072D01*
X301748Y184058D01*
X301723Y184048D01*
X301602Y183963D01*
X301477Y183883D01*
X301459Y183864D01*
X301437Y183849D01*
X301338Y183739D01*
X301235Y183632D01*
X301221Y183610D01*
X301204Y183590D01*
X301132Y183460D01*
X301056Y183333D01*
X301048Y183308D01*
X301035Y183285D01*
X300995Y183142D01*
X300950Y183001D01*
X300948Y182975D01*
X300940Y182950D01*
X300921Y182706D01*
X300921Y179523D01*
X296880Y179523D01*
X296854Y179520D01*
X296828Y179522D01*
X296681Y179500D01*
X296534Y179484D01*
X296509Y179475D01*
X296483Y179471D01*
X296346Y179416D01*
X296206Y179366D01*
X296184Y179352D01*
X296160Y179342D01*
X296038Y179258D01*
X295913Y179177D01*
X295895Y179158D01*
X295873Y179143D01*
X295774Y179033D01*
X295671Y178926D01*
X295657Y178903D01*
X295639Y178884D01*
X295568Y178754D01*
X295492Y178627D01*
X295484Y178602D01*
X295471Y178579D01*
X295431Y178436D01*
X295385Y178295D01*
X295383Y178269D01*
X295376Y178243D01*
X295357Y178000D01*
X295357Y169959D01*
X295045Y169959D01*
X294399Y170132D01*
X293820Y170467D01*
X293504Y170783D01*
X293405Y170862D01*
X293311Y170946D01*
X293269Y170970D01*
X293231Y171000D01*
X293117Y171054D01*
X293006Y171115D01*
X292959Y171128D01*
X292916Y171149D01*
X292792Y171175D01*
X292670Y171210D01*
X292610Y171215D01*
X292575Y171222D01*
X292527Y171221D01*
X292427Y171229D01*
X288354Y171229D01*
X288207Y171376D01*
X288187Y171392D01*
X288170Y171412D01*
X288050Y171500D01*
X287934Y171592D01*
X287910Y171604D01*
X287889Y171619D01*
X287753Y171678D01*
X287619Y171741D01*
X287593Y171747D01*
X287569Y171757D01*
X287423Y171784D01*
X287278Y171815D01*
X287252Y171814D01*
X287226Y171819D01*
X287078Y171811D01*
X286930Y171809D01*
X286904Y171802D01*
X286878Y171801D01*
X286736Y171760D01*
X286592Y171724D01*
X286568Y171712D01*
X286543Y171704D01*
X286414Y171632D01*
X286282Y171564D01*
X286262Y171547D01*
X286239Y171534D01*
X286053Y171376D01*
X285906Y171229D01*
X281854Y171229D01*
X281707Y171376D01*
X281687Y171392D01*
X281670Y171412D01*
X281550Y171500D01*
X281434Y171592D01*
X281410Y171604D01*
X281389Y171619D01*
X281253Y171678D01*
X281119Y171741D01*
X281093Y171747D01*
X281069Y171757D01*
X280923Y171784D01*
X280778Y171815D01*
X280752Y171814D01*
X280726Y171819D01*
X280578Y171811D01*
X280430Y171809D01*
X280404Y171802D01*
X280378Y171801D01*
X280236Y171760D01*
X280092Y171724D01*
X280068Y171712D01*
X280043Y171704D01*
X279914Y171632D01*
X279782Y171564D01*
X279762Y171547D01*
X279739Y171534D01*
X279553Y171376D01*
X279406Y171229D01*
X275354Y171229D01*
X275207Y171376D01*
X275187Y171392D01*
X275170Y171412D01*
X275050Y171500D01*
X274934Y171592D01*
X274910Y171604D01*
X274889Y171619D01*
X274753Y171678D01*
X274619Y171741D01*
X274593Y171747D01*
X274569Y171757D01*
X274423Y171784D01*
X274278Y171815D01*
X274252Y171814D01*
X274226Y171819D01*
X274078Y171811D01*
X273930Y171809D01*
X273904Y171802D01*
X273878Y171801D01*
X273736Y171760D01*
X273592Y171724D01*
X273568Y171712D01*
X273543Y171704D01*
X273414Y171632D01*
X273282Y171564D01*
X273262Y171547D01*
X273239Y171534D01*
X273053Y171376D01*
X272906Y171229D01*
X268854Y171229D01*
X268109Y171974D01*
X268109Y182706D01*
X268106Y182732D01*
X268108Y182758D01*
X268086Y182905D01*
X268069Y183052D01*
X268061Y183077D01*
X268057Y183103D01*
X268002Y183241D01*
X267952Y183380D01*
X267938Y183402D01*
X267928Y183427D01*
X267843Y183548D01*
X267763Y183673D01*
X267744Y183691D01*
X267729Y183713D01*
X267619Y183812D01*
X267512Y183915D01*
X267490Y183929D01*
X267470Y183946D01*
X267340Y184018D01*
X267213Y184094D01*
X267188Y184102D01*
X267165Y184115D01*
X267022Y184155D01*
X266881Y184200D01*
X266855Y184202D01*
X266830Y184210D01*
X266586Y184229D01*
X254854Y184229D01*
X254109Y184974D01*
X254109Y189026D01*
X254256Y189173D01*
X254272Y189193D01*
X254292Y189210D01*
X254380Y189330D01*
X254472Y189446D01*
X254484Y189470D01*
X254499Y189491D01*
X254558Y189627D01*
X254621Y189761D01*
X254627Y189787D01*
X254637Y189811D01*
X254664Y189957D01*
X254695Y190102D01*
X254694Y190128D01*
X254699Y190154D01*
X254691Y190302D01*
X254689Y190450D01*
X254682Y190476D01*
X254681Y190502D01*
X254640Y190644D01*
X254604Y190788D01*
X254592Y190812D01*
X254584Y190837D01*
X254512Y190966D01*
X254444Y191098D01*
X254427Y191118D01*
X254414Y191141D01*
X254256Y191327D01*
X254109Y191474D01*
X254109Y195526D01*
X254256Y195673D01*
X254272Y195693D01*
X254292Y195710D01*
X254380Y195830D01*
X254472Y195946D01*
X254484Y195970D01*
X254499Y195991D01*
X254558Y196127D01*
X254621Y196261D01*
X254627Y196287D01*
X254637Y196311D01*
X254664Y196457D01*
X254695Y196602D01*
X254694Y196628D01*
X254699Y196654D01*
X254691Y196802D01*
X254689Y196950D01*
X254682Y196976D01*
X254681Y197002D01*
X254640Y197144D01*
X254604Y197288D01*
X254592Y197312D01*
X254584Y197337D01*
X254512Y197466D01*
X254444Y197598D01*
X254427Y197618D01*
X254414Y197641D01*
X254256Y197827D01*
X254109Y197974D01*
X254109Y202182D01*
X254106Y202208D01*
X254108Y202234D01*
X254086Y202381D01*
X254069Y202528D01*
X254061Y202553D01*
X254057Y202579D01*
X254002Y202717D01*
X253952Y202856D01*
X253938Y202878D01*
X253928Y202903D01*
X253843Y203024D01*
X253763Y203149D01*
X253744Y203167D01*
X253729Y203189D01*
X253619Y203288D01*
X253512Y203391D01*
X253490Y203405D01*
X253470Y203422D01*
X253340Y203494D01*
X253213Y203570D01*
X253188Y203578D01*
X253165Y203591D01*
X253022Y203631D01*
X252881Y203676D01*
X252855Y203678D01*
X252830Y203686D01*
X252586Y203705D01*
X250342Y203705D01*
X246077Y207971D01*
X246057Y207987D01*
X246040Y208007D01*
X245920Y208095D01*
X245804Y208187D01*
X245780Y208198D01*
X245759Y208214D01*
X245623Y208273D01*
X245489Y208336D01*
X245463Y208342D01*
X245439Y208352D01*
X245293Y208378D01*
X245148Y208409D01*
X245122Y208409D01*
X245096Y208414D01*
X244948Y208406D01*
X244800Y208403D01*
X244774Y208397D01*
X244748Y208396D01*
X244606Y208355D01*
X244462Y208318D01*
X244439Y208306D01*
X244413Y208299D01*
X244284Y208227D01*
X244152Y208159D01*
X244132Y208142D01*
X244109Y208129D01*
X243923Y207971D01*
X238241Y202289D01*
X238162Y202190D01*
X238078Y202096D01*
X238054Y202053D01*
X238024Y202016D01*
X237970Y201901D01*
X237909Y201791D01*
X237896Y201744D01*
X237875Y201700D01*
X237849Y201577D01*
X237814Y201455D01*
X237809Y201394D01*
X237802Y201360D01*
X237803Y201312D01*
X237795Y201211D01*
X237795Y190842D01*
X235711Y188759D01*
X214952Y167999D01*
X214936Y167979D01*
X214916Y167962D01*
X214827Y167842D01*
X214735Y167726D01*
X214724Y167703D01*
X214708Y167682D01*
X214650Y167545D01*
X214586Y167411D01*
X214581Y167386D01*
X214570Y167362D01*
X214544Y167215D01*
X214513Y167071D01*
X214513Y167045D01*
X214509Y167019D01*
X214516Y166870D01*
X214519Y166722D01*
X214525Y166697D01*
X214527Y166671D01*
X214568Y166528D01*
X214604Y166384D01*
X214616Y166361D01*
X214623Y166336D01*
X214695Y166206D01*
X214764Y166074D01*
X214781Y166054D01*
X214793Y166032D01*
X214952Y165845D01*
X215271Y165526D01*
X215271Y154313D01*
X215285Y154187D01*
X215292Y154061D01*
X215305Y154014D01*
X215311Y153966D01*
X215353Y153847D01*
X215388Y153726D01*
X215412Y153684D01*
X215428Y153638D01*
X215497Y153532D01*
X215558Y153422D01*
X215598Y153375D01*
X215617Y153345D01*
X215652Y153312D01*
X215717Y153235D01*
X219644Y149308D01*
X219665Y149292D01*
X219682Y149272D01*
X219801Y149183D01*
X219917Y149091D01*
X219941Y149080D01*
X219962Y149065D01*
X220098Y149006D01*
X220232Y148942D01*
X220258Y148937D01*
X220282Y148927D01*
X220428Y148900D01*
X220573Y148869D01*
X220599Y148870D01*
X220625Y148865D01*
X220774Y148873D01*
G37*
G36*
X138496Y107034D02*
X138496Y107034D01*
X138643Y107056D01*
X138790Y107073D01*
X138815Y107081D01*
X138841Y107085D01*
X138979Y107140D01*
X139118Y107190D01*
X139140Y107204D01*
X139165Y107214D01*
X139286Y107299D01*
X139411Y107379D01*
X139429Y107398D01*
X139451Y107413D01*
X139550Y107523D01*
X139653Y107630D01*
X139667Y107652D01*
X139684Y107672D01*
X139756Y107802D01*
X139832Y107929D01*
X139840Y107954D01*
X139853Y107977D01*
X139893Y108120D01*
X139938Y108261D01*
X139940Y108287D01*
X139948Y108312D01*
X139967Y108556D01*
X139967Y112527D01*
X139953Y112653D01*
X139946Y112779D01*
X139933Y112825D01*
X139927Y112873D01*
X139885Y112992D01*
X139850Y113114D01*
X139826Y113156D01*
X139810Y113201D01*
X139741Y113308D01*
X139680Y113418D01*
X139640Y113464D01*
X139621Y113494D01*
X139586Y113528D01*
X139521Y113604D01*
X139467Y113658D01*
X139378Y113729D01*
X139370Y113736D01*
X139365Y113739D01*
X139274Y113821D01*
X139232Y113845D01*
X139194Y113875D01*
X139080Y113929D01*
X138969Y113990D01*
X138923Y114003D01*
X138879Y114024D01*
X138756Y114050D01*
X138634Y114085D01*
X138573Y114090D01*
X138538Y114097D01*
X138490Y114096D01*
X138390Y114104D01*
X136386Y114104D01*
X134104Y116386D01*
X134104Y119614D01*
X136386Y121896D01*
X139614Y121896D01*
X141896Y119614D01*
X141896Y117610D01*
X141910Y117484D01*
X141917Y117358D01*
X141930Y117312D01*
X141936Y117264D01*
X141978Y117145D01*
X142013Y117023D01*
X142037Y116981D01*
X142053Y116936D01*
X142122Y116829D01*
X142183Y116719D01*
X142223Y116673D01*
X142242Y116643D01*
X142277Y116609D01*
X142342Y116533D01*
X142396Y116479D01*
X142705Y116170D01*
X142783Y116107D01*
X142856Y116038D01*
X142920Y115999D01*
X142978Y115953D01*
X143069Y115910D01*
X143155Y115859D01*
X143226Y115836D01*
X143293Y115804D01*
X143391Y115783D01*
X143487Y115753D01*
X143561Y115747D01*
X143634Y115731D01*
X143734Y115733D01*
X143834Y115725D01*
X143908Y115736D01*
X143982Y115737D01*
X144080Y115761D01*
X144179Y115776D01*
X144248Y115804D01*
X144320Y115822D01*
X144409Y115868D01*
X144503Y115905D01*
X144564Y115947D01*
X144630Y115981D01*
X144707Y116047D01*
X144789Y116104D01*
X144839Y116159D01*
X144895Y116207D01*
X144955Y116288D01*
X145022Y116363D01*
X145058Y116428D01*
X145103Y116488D01*
X145142Y116580D01*
X145191Y116668D01*
X145211Y116739D01*
X145241Y116808D01*
X145258Y116906D01*
X145286Y117003D01*
X145294Y117103D01*
X145302Y117151D01*
X145300Y117186D01*
X145305Y117247D01*
X145305Y117458D01*
X155871Y128023D01*
X155887Y128043D01*
X155907Y128060D01*
X155995Y128180D01*
X156087Y128296D01*
X156098Y128320D01*
X156114Y128341D01*
X156173Y128477D01*
X156236Y128611D01*
X156242Y128637D01*
X156252Y128661D01*
X156278Y128807D01*
X156309Y128952D01*
X156309Y128978D01*
X156314Y129004D01*
X156306Y129152D01*
X156303Y129300D01*
X156297Y129326D01*
X156296Y129352D01*
X156255Y129494D01*
X156218Y129638D01*
X156206Y129662D01*
X156199Y129687D01*
X156127Y129816D01*
X156059Y129948D01*
X156042Y129968D01*
X156029Y129991D01*
X155871Y130177D01*
X155289Y130759D01*
X153205Y132842D01*
X153205Y158302D01*
X153202Y158328D01*
X153204Y158354D01*
X153182Y158501D01*
X153165Y158648D01*
X153157Y158673D01*
X153153Y158699D01*
X153098Y158837D01*
X153048Y158976D01*
X153034Y158998D01*
X153024Y159023D01*
X152939Y159144D01*
X152859Y159269D01*
X152840Y159287D01*
X152825Y159309D01*
X152715Y159408D01*
X152608Y159511D01*
X152586Y159525D01*
X152566Y159542D01*
X152436Y159614D01*
X152309Y159690D01*
X152284Y159698D01*
X152261Y159711D01*
X152118Y159751D01*
X151977Y159796D01*
X151951Y159798D01*
X151926Y159806D01*
X151682Y159825D01*
X128362Y159825D01*
X128262Y159814D01*
X128161Y159812D01*
X128089Y159794D01*
X128015Y159785D01*
X127921Y159752D01*
X127823Y159727D01*
X127757Y159693D01*
X127687Y159668D01*
X127603Y159613D01*
X127514Y159567D01*
X127457Y159519D01*
X127394Y159479D01*
X127325Y159407D01*
X127248Y159342D01*
X127204Y159282D01*
X127152Y159228D01*
X127101Y159142D01*
X127041Y159061D01*
X127012Y158993D01*
X126973Y158929D01*
X126943Y158833D01*
X126903Y158741D01*
X126890Y158668D01*
X126867Y158597D01*
X126859Y158497D01*
X126841Y158398D01*
X126845Y158324D01*
X126839Y158250D01*
X126854Y158150D01*
X126859Y158050D01*
X126880Y157979D01*
X126891Y157905D01*
X126928Y157812D01*
X126956Y157715D01*
X126992Y157650D01*
X127020Y157581D01*
X127077Y157499D01*
X127126Y157411D01*
X127191Y157335D01*
X127219Y157295D01*
X127245Y157271D01*
X127284Y157225D01*
X128896Y155614D01*
X128896Y153610D01*
X128910Y153484D01*
X128917Y153358D01*
X128930Y153312D01*
X128936Y153264D01*
X128978Y153145D01*
X129013Y153023D01*
X129037Y152981D01*
X129053Y152936D01*
X129122Y152829D01*
X129183Y152719D01*
X129223Y152673D01*
X129242Y152643D01*
X129277Y152609D01*
X129342Y152533D01*
X137673Y144202D01*
X137693Y144186D01*
X137710Y144166D01*
X137830Y144077D01*
X137946Y143985D01*
X137970Y143974D01*
X137991Y143958D01*
X138127Y143900D01*
X138261Y143836D01*
X138287Y143831D01*
X138311Y143820D01*
X138457Y143794D01*
X138602Y143763D01*
X138628Y143763D01*
X138654Y143759D01*
X138802Y143766D01*
X138950Y143769D01*
X138976Y143775D01*
X139002Y143777D01*
X139144Y143818D01*
X139288Y143854D01*
X139311Y143866D01*
X139337Y143873D01*
X139466Y143946D01*
X139598Y144014D01*
X139618Y144031D01*
X139641Y144043D01*
X139827Y144202D01*
X141658Y146033D01*
X141737Y146132D01*
X141821Y146226D01*
X141845Y146268D01*
X141875Y146306D01*
X141929Y146420D01*
X141990Y146531D01*
X142003Y146577D01*
X142024Y146621D01*
X142050Y146744D01*
X142085Y146866D01*
X142090Y146927D01*
X142097Y146962D01*
X142096Y147010D01*
X142104Y147110D01*
X142104Y148614D01*
X144386Y150896D01*
X147614Y150896D01*
X149896Y148614D01*
X149896Y145386D01*
X147614Y143104D01*
X145110Y143104D01*
X144984Y143090D01*
X144858Y143083D01*
X144812Y143070D01*
X144764Y143064D01*
X144645Y143022D01*
X144523Y142987D01*
X144481Y142963D01*
X144436Y142947D01*
X144329Y142878D01*
X144219Y142817D01*
X144173Y142777D01*
X144143Y142758D01*
X144109Y142723D01*
X144033Y142658D01*
X130717Y129342D01*
X130638Y129243D01*
X130554Y129149D01*
X130530Y129107D01*
X130500Y129069D01*
X130446Y128955D01*
X130385Y128844D01*
X130372Y128798D01*
X130351Y128754D01*
X130325Y128631D01*
X130290Y128509D01*
X130285Y128448D01*
X130278Y128413D01*
X130279Y128365D01*
X130271Y128265D01*
X130271Y119474D01*
X129526Y118729D01*
X117474Y118729D01*
X116729Y119474D01*
X116729Y130526D01*
X117474Y131271D01*
X126265Y131271D01*
X126391Y131285D01*
X126517Y131292D01*
X126563Y131305D01*
X126611Y131311D01*
X126730Y131353D01*
X126852Y131388D01*
X126894Y131412D01*
X126939Y131428D01*
X127046Y131497D01*
X127156Y131558D01*
X127202Y131598D01*
X127232Y131617D01*
X127266Y131652D01*
X127342Y131717D01*
X134798Y139173D01*
X134814Y139193D01*
X134834Y139210D01*
X134923Y139330D01*
X135015Y139446D01*
X135026Y139470D01*
X135042Y139491D01*
X135100Y139627D01*
X135164Y139761D01*
X135169Y139787D01*
X135180Y139811D01*
X135206Y139957D01*
X135237Y140102D01*
X135237Y140128D01*
X135241Y140154D01*
X135234Y140302D01*
X135231Y140450D01*
X135225Y140476D01*
X135223Y140502D01*
X135182Y140644D01*
X135146Y140788D01*
X135134Y140811D01*
X135127Y140837D01*
X135055Y140966D01*
X134986Y141098D01*
X134969Y141118D01*
X134957Y141141D01*
X134798Y141327D01*
X126467Y149658D01*
X126368Y149737D01*
X126274Y149821D01*
X126232Y149845D01*
X126194Y149875D01*
X126080Y149929D01*
X125969Y149990D01*
X125923Y150003D01*
X125879Y150024D01*
X125756Y150050D01*
X125634Y150085D01*
X125573Y150090D01*
X125538Y150097D01*
X125490Y150096D01*
X125390Y150104D01*
X123386Y150104D01*
X121104Y152386D01*
X121104Y153474D01*
X121093Y153574D01*
X121091Y153675D01*
X121073Y153747D01*
X121064Y153821D01*
X121031Y153915D01*
X121006Y154013D01*
X120972Y154079D01*
X120947Y154149D01*
X120892Y154233D01*
X120846Y154322D01*
X120798Y154379D01*
X120758Y154442D01*
X120686Y154511D01*
X120621Y154588D01*
X120561Y154632D01*
X120507Y154684D01*
X120421Y154735D01*
X120340Y154795D01*
X120272Y154824D01*
X120208Y154863D01*
X120112Y154893D01*
X120020Y154933D01*
X119947Y154946D01*
X119876Y154969D01*
X119776Y154977D01*
X119677Y154995D01*
X119603Y154991D01*
X119529Y154997D01*
X119429Y154982D01*
X119329Y154977D01*
X119258Y154956D01*
X119184Y154945D01*
X119091Y154908D01*
X118994Y154880D01*
X118929Y154844D01*
X118860Y154816D01*
X118778Y154759D01*
X118690Y154710D01*
X118614Y154645D01*
X118574Y154617D01*
X118550Y154591D01*
X118504Y154552D01*
X109741Y145789D01*
X109662Y145690D01*
X109578Y145596D01*
X109554Y145553D01*
X109524Y145516D01*
X109470Y145401D01*
X109409Y145291D01*
X109396Y145244D01*
X109375Y145200D01*
X109349Y145077D01*
X109314Y144955D01*
X109309Y144894D01*
X109302Y144860D01*
X109303Y144812D01*
X109295Y144711D01*
X109295Y132794D01*
X109298Y132768D01*
X109296Y132742D01*
X109318Y132595D01*
X109335Y132448D01*
X109343Y132423D01*
X109347Y132397D01*
X109402Y132259D01*
X109452Y132120D01*
X109466Y132098D01*
X109476Y132073D01*
X109561Y131952D01*
X109641Y131827D01*
X109660Y131809D01*
X109675Y131787D01*
X109785Y131688D01*
X109892Y131585D01*
X109914Y131571D01*
X109934Y131554D01*
X110064Y131482D01*
X110191Y131406D01*
X110216Y131398D01*
X110239Y131385D01*
X110382Y131345D01*
X110523Y131300D01*
X110549Y131298D01*
X110574Y131290D01*
X110818Y131271D01*
X112526Y131271D01*
X113271Y130526D01*
X113271Y119474D01*
X112526Y118729D01*
X110818Y118729D01*
X110792Y118726D01*
X110766Y118728D01*
X110619Y118706D01*
X110472Y118689D01*
X110447Y118681D01*
X110421Y118677D01*
X110283Y118622D01*
X110144Y118572D01*
X110122Y118558D01*
X110097Y118548D01*
X109976Y118463D01*
X109851Y118383D01*
X109833Y118364D01*
X109811Y118349D01*
X109712Y118239D01*
X109609Y118132D01*
X109595Y118110D01*
X109578Y118090D01*
X109506Y117960D01*
X109430Y117833D01*
X109422Y117808D01*
X109409Y117785D01*
X109369Y117642D01*
X109324Y117501D01*
X109322Y117475D01*
X109314Y117450D01*
X109295Y117206D01*
X109295Y112794D01*
X109298Y112768D01*
X109296Y112742D01*
X109318Y112595D01*
X109335Y112448D01*
X109343Y112423D01*
X109347Y112397D01*
X109402Y112259D01*
X109452Y112120D01*
X109466Y112098D01*
X109476Y112073D01*
X109561Y111952D01*
X109641Y111827D01*
X109660Y111809D01*
X109675Y111787D01*
X109785Y111688D01*
X109892Y111585D01*
X109914Y111571D01*
X109934Y111554D01*
X110064Y111482D01*
X110191Y111406D01*
X110216Y111398D01*
X110239Y111385D01*
X110382Y111345D01*
X110523Y111300D01*
X110549Y111298D01*
X110574Y111290D01*
X110818Y111271D01*
X112526Y111271D01*
X113271Y110526D01*
X113271Y99474D01*
X112526Y98729D01*
X110318Y98729D01*
X110292Y98726D01*
X110266Y98728D01*
X110119Y98706D01*
X109972Y98689D01*
X109947Y98681D01*
X109921Y98677D01*
X109783Y98622D01*
X109644Y98572D01*
X109622Y98558D01*
X109597Y98548D01*
X109476Y98463D01*
X109351Y98383D01*
X109333Y98364D01*
X109311Y98349D01*
X109212Y98239D01*
X109109Y98132D01*
X109095Y98110D01*
X109078Y98090D01*
X109006Y97960D01*
X108930Y97833D01*
X108922Y97808D01*
X108909Y97785D01*
X108869Y97642D01*
X108824Y97501D01*
X108822Y97475D01*
X108814Y97450D01*
X108795Y97206D01*
X108795Y83789D01*
X108809Y83663D01*
X108816Y83537D01*
X108829Y83490D01*
X108835Y83442D01*
X108877Y83323D01*
X108912Y83202D01*
X108936Y83160D01*
X108952Y83114D01*
X109021Y83008D01*
X109082Y82898D01*
X109122Y82851D01*
X109141Y82821D01*
X109176Y82788D01*
X109241Y82711D01*
X118711Y73241D01*
X118810Y73162D01*
X118904Y73078D01*
X118947Y73054D01*
X118984Y73024D01*
X119099Y72970D01*
X119209Y72909D01*
X119256Y72896D01*
X119300Y72875D01*
X119423Y72849D01*
X119545Y72814D01*
X119606Y72809D01*
X119640Y72802D01*
X119688Y72803D01*
X119789Y72795D01*
X144975Y72795D01*
X145075Y72806D01*
X145176Y72808D01*
X145248Y72826D01*
X145322Y72835D01*
X145416Y72869D01*
X145514Y72893D01*
X145580Y72927D01*
X145650Y72952D01*
X145734Y73007D01*
X145823Y73053D01*
X145880Y73101D01*
X145943Y73141D01*
X146012Y73213D01*
X146089Y73278D01*
X146133Y73338D01*
X146185Y73392D01*
X146236Y73478D01*
X146296Y73559D01*
X146325Y73627D01*
X146364Y73691D01*
X146394Y73787D01*
X146434Y73879D01*
X146447Y73952D01*
X146470Y74023D01*
X146478Y74123D01*
X146496Y74222D01*
X146492Y74296D01*
X146498Y74370D01*
X146483Y74470D01*
X146478Y74570D01*
X146457Y74641D01*
X146446Y74715D01*
X146409Y74808D01*
X146381Y74905D01*
X146345Y74970D01*
X146317Y75039D01*
X146260Y75121D01*
X146211Y75209D01*
X146146Y75285D01*
X146118Y75325D01*
X146092Y75349D01*
X146053Y75395D01*
X145305Y76142D01*
X145305Y103753D01*
X145294Y103853D01*
X145292Y103953D01*
X145274Y104026D01*
X145265Y104099D01*
X145232Y104194D01*
X145207Y104291D01*
X145173Y104357D01*
X145148Y104427D01*
X145093Y104512D01*
X145047Y104601D01*
X144999Y104658D01*
X144959Y104720D01*
X144887Y104790D01*
X144821Y104867D01*
X144762Y104911D01*
X144708Y104962D01*
X144622Y105014D01*
X144541Y105074D01*
X144473Y105103D01*
X144409Y105141D01*
X144313Y105172D01*
X144221Y105212D01*
X144148Y105225D01*
X144077Y105247D01*
X143977Y105256D01*
X143878Y105273D01*
X143804Y105269D01*
X143730Y105275D01*
X143631Y105261D01*
X143530Y105255D01*
X143459Y105235D01*
X143385Y105224D01*
X143292Y105187D01*
X143195Y105159D01*
X143130Y105123D01*
X143061Y105095D01*
X142979Y105038D01*
X142891Y104989D01*
X142815Y104924D01*
X142775Y104896D01*
X142751Y104870D01*
X142705Y104830D01*
X142479Y104604D01*
X140842Y102967D01*
X131794Y102967D01*
X131768Y102964D01*
X131742Y102966D01*
X131595Y102944D01*
X131448Y102927D01*
X131423Y102919D01*
X131397Y102915D01*
X131259Y102860D01*
X131120Y102810D01*
X131098Y102796D01*
X131073Y102786D01*
X130952Y102701D01*
X130827Y102621D01*
X130809Y102602D01*
X130787Y102587D01*
X130688Y102477D01*
X130585Y102370D01*
X130571Y102348D01*
X130554Y102328D01*
X130482Y102198D01*
X130406Y102071D01*
X130398Y102046D01*
X130385Y102023D01*
X130345Y101880D01*
X130300Y101739D01*
X130298Y101713D01*
X130290Y101688D01*
X130271Y101444D01*
X130271Y100235D01*
X130285Y100109D01*
X130292Y99983D01*
X130305Y99937D01*
X130311Y99889D01*
X130353Y99770D01*
X130388Y99648D01*
X130412Y99606D01*
X130428Y99561D01*
X130497Y99454D01*
X130558Y99344D01*
X130598Y99298D01*
X130617Y99268D01*
X130652Y99234D01*
X130717Y99158D01*
X133033Y96842D01*
X133132Y96763D01*
X133226Y96679D01*
X133268Y96655D01*
X133306Y96625D01*
X133420Y96571D01*
X133531Y96510D01*
X133577Y96497D01*
X133621Y96476D01*
X133744Y96450D01*
X133866Y96415D01*
X133927Y96410D01*
X133962Y96403D01*
X134010Y96404D01*
X134110Y96396D01*
X136114Y96396D01*
X138396Y94114D01*
X138396Y90886D01*
X136114Y88604D01*
X132886Y88604D01*
X130604Y90886D01*
X130604Y92890D01*
X130590Y93016D01*
X130583Y93142D01*
X130570Y93188D01*
X130564Y93236D01*
X130522Y93355D01*
X130487Y93477D01*
X130463Y93519D01*
X130447Y93564D01*
X130378Y93671D01*
X130317Y93781D01*
X130277Y93827D01*
X130258Y93857D01*
X130223Y93891D01*
X130158Y93967D01*
X125842Y98283D01*
X125743Y98362D01*
X125649Y98446D01*
X125607Y98470D01*
X125569Y98500D01*
X125455Y98554D01*
X125344Y98615D01*
X125298Y98628D01*
X125254Y98649D01*
X125131Y98675D01*
X125009Y98710D01*
X124948Y98715D01*
X124913Y98722D01*
X124865Y98721D01*
X124765Y98729D01*
X117474Y98729D01*
X116729Y99474D01*
X116729Y110526D01*
X117474Y111271D01*
X129526Y111271D01*
X130271Y110526D01*
X130271Y108556D01*
X130274Y108530D01*
X130272Y108504D01*
X130294Y108357D01*
X130311Y108210D01*
X130319Y108185D01*
X130323Y108159D01*
X130378Y108021D01*
X130428Y107882D01*
X130442Y107860D01*
X130452Y107835D01*
X130537Y107714D01*
X130617Y107589D01*
X130636Y107571D01*
X130651Y107549D01*
X130761Y107450D01*
X130868Y107347D01*
X130890Y107333D01*
X130910Y107316D01*
X131040Y107244D01*
X131167Y107168D01*
X131192Y107160D01*
X131215Y107147D01*
X131358Y107107D01*
X131499Y107062D01*
X131525Y107060D01*
X131550Y107052D01*
X131794Y107033D01*
X138444Y107033D01*
X138470Y107036D01*
X138496Y107034D01*
G37*
G36*
X159957Y165429D02*
X159957Y165429D01*
X160083Y165436D01*
X160130Y165449D01*
X160178Y165455D01*
X160297Y165497D01*
X160418Y165532D01*
X160460Y165556D01*
X160506Y165572D01*
X160612Y165641D01*
X160722Y165702D01*
X160769Y165742D01*
X160799Y165761D01*
X160832Y165796D01*
X160909Y165861D01*
X165971Y170923D01*
X165987Y170943D01*
X166007Y170960D01*
X166095Y171080D01*
X166187Y171196D01*
X166198Y171220D01*
X166214Y171241D01*
X166273Y171377D01*
X166336Y171511D01*
X166342Y171537D01*
X166352Y171561D01*
X166378Y171707D01*
X166409Y171852D01*
X166409Y171878D01*
X166414Y171904D01*
X166406Y172052D01*
X166403Y172200D01*
X166397Y172226D01*
X166396Y172252D01*
X166355Y172394D01*
X166318Y172538D01*
X166306Y172561D01*
X166299Y172587D01*
X166227Y172716D01*
X166159Y172848D01*
X166142Y172868D01*
X166129Y172891D01*
X165971Y173077D01*
X149761Y189287D01*
X149683Y189349D01*
X149610Y189419D01*
X149546Y189457D01*
X149488Y189503D01*
X149397Y189546D01*
X149311Y189598D01*
X149240Y189620D01*
X149173Y189652D01*
X149075Y189673D01*
X148979Y189704D01*
X148905Y189710D01*
X148832Y189725D01*
X148732Y189724D01*
X148632Y189732D01*
X148558Y189721D01*
X148484Y189720D01*
X148387Y189695D01*
X148287Y189680D01*
X148218Y189653D01*
X148146Y189635D01*
X148056Y189588D01*
X147963Y189551D01*
X147902Y189509D01*
X147836Y189475D01*
X147759Y189410D01*
X147677Y189352D01*
X147627Y189297D01*
X147571Y189249D01*
X147511Y189168D01*
X147444Y189094D01*
X147408Y189029D01*
X147363Y188969D01*
X147324Y188877D01*
X147275Y188789D01*
X147255Y188717D01*
X147225Y188649D01*
X147208Y188550D01*
X147200Y188523D01*
X139120Y188523D01*
X139094Y188520D01*
X139068Y188522D01*
X138921Y188500D01*
X138774Y188484D01*
X138749Y188475D01*
X138723Y188471D01*
X138586Y188416D01*
X138446Y188366D01*
X138424Y188352D01*
X138400Y188342D01*
X138278Y188258D01*
X138153Y188177D01*
X138135Y188158D01*
X138113Y188143D01*
X138014Y188033D01*
X137911Y187926D01*
X137897Y187903D01*
X137879Y187884D01*
X137808Y187754D01*
X137732Y187627D01*
X137724Y187602D01*
X137711Y187579D01*
X137671Y187436D01*
X137625Y187295D01*
X137623Y187269D01*
X137616Y187243D01*
X137597Y187000D01*
X137597Y182959D01*
X133414Y182959D01*
X133388Y182956D01*
X133362Y182958D01*
X133215Y182936D01*
X133068Y182919D01*
X133043Y182911D01*
X133017Y182907D01*
X132879Y182852D01*
X132740Y182802D01*
X132718Y182788D01*
X132693Y182778D01*
X132572Y182693D01*
X132447Y182613D01*
X132429Y182594D01*
X132407Y182579D01*
X132308Y182469D01*
X132205Y182362D01*
X132191Y182340D01*
X132174Y182320D01*
X132102Y182190D01*
X132026Y182063D01*
X132018Y182038D01*
X132005Y182015D01*
X131965Y181872D01*
X131920Y181731D01*
X131918Y181705D01*
X131910Y181680D01*
X131891Y181436D01*
X131891Y171974D01*
X131146Y171229D01*
X126938Y171229D01*
X126912Y171226D01*
X126886Y171228D01*
X126739Y171206D01*
X126592Y171189D01*
X126567Y171181D01*
X126541Y171177D01*
X126403Y171122D01*
X126264Y171072D01*
X126242Y171058D01*
X126217Y171048D01*
X126096Y170963D01*
X125971Y170883D01*
X125953Y170864D01*
X125931Y170849D01*
X125832Y170739D01*
X125729Y170632D01*
X125715Y170610D01*
X125698Y170590D01*
X125626Y170460D01*
X125550Y170333D01*
X125542Y170308D01*
X125529Y170285D01*
X125489Y170142D01*
X125444Y170001D01*
X125442Y169975D01*
X125434Y169950D01*
X125415Y169706D01*
X125415Y166938D01*
X125418Y166912D01*
X125416Y166886D01*
X125438Y166739D01*
X125455Y166592D01*
X125463Y166567D01*
X125467Y166541D01*
X125522Y166403D01*
X125572Y166264D01*
X125586Y166242D01*
X125596Y166217D01*
X125681Y166096D01*
X125761Y165971D01*
X125780Y165953D01*
X125795Y165931D01*
X125905Y165832D01*
X126012Y165729D01*
X126034Y165715D01*
X126054Y165698D01*
X126184Y165626D01*
X126311Y165550D01*
X126336Y165542D01*
X126359Y165529D01*
X126502Y165489D01*
X126643Y165444D01*
X126669Y165442D01*
X126694Y165434D01*
X126938Y165415D01*
X159831Y165415D01*
X159957Y165429D01*
G37*
%LPC*%
G36*
X163110Y243696D02*
X163110Y243696D01*
X165114Y243696D01*
X167396Y241414D01*
X167396Y238186D01*
X165114Y235904D01*
X161886Y235904D01*
X159604Y238186D01*
X159604Y240190D01*
X159590Y240316D01*
X159583Y240442D01*
X159570Y240488D01*
X159564Y240536D01*
X159522Y240655D01*
X159487Y240777D01*
X159463Y240819D01*
X159447Y240864D01*
X159378Y240971D01*
X159317Y241081D01*
X159277Y241127D01*
X159258Y241157D01*
X159223Y241191D01*
X159158Y241267D01*
X152904Y247521D01*
X152805Y247600D01*
X152711Y247684D01*
X152669Y247708D01*
X152631Y247738D01*
X152517Y247792D01*
X152406Y247853D01*
X152360Y247866D01*
X152316Y247887D01*
X152193Y247913D01*
X152071Y247948D01*
X152010Y247953D01*
X151975Y247960D01*
X151927Y247959D01*
X151827Y247967D01*
X134794Y247967D01*
X134768Y247964D01*
X134742Y247966D01*
X134595Y247944D01*
X134448Y247927D01*
X134423Y247919D01*
X134397Y247915D01*
X134259Y247860D01*
X134120Y247810D01*
X134098Y247796D01*
X134073Y247786D01*
X133952Y247701D01*
X133827Y247621D01*
X133809Y247602D01*
X133787Y247587D01*
X133688Y247477D01*
X133585Y247370D01*
X133571Y247348D01*
X133554Y247328D01*
X133482Y247198D01*
X133406Y247071D01*
X133398Y247046D01*
X133385Y247023D01*
X133345Y246880D01*
X133300Y246739D01*
X133298Y246713D01*
X133290Y246688D01*
X133271Y246444D01*
X133271Y241974D01*
X132526Y241229D01*
X117474Y241229D01*
X116729Y241974D01*
X116729Y258026D01*
X117474Y258771D01*
X132526Y258771D01*
X133271Y258026D01*
X133271Y253556D01*
X133274Y253530D01*
X133272Y253504D01*
X133294Y253357D01*
X133311Y253210D01*
X133319Y253185D01*
X133323Y253159D01*
X133378Y253021D01*
X133428Y252882D01*
X133442Y252860D01*
X133452Y252835D01*
X133537Y252714D01*
X133617Y252589D01*
X133636Y252571D01*
X133651Y252549D01*
X133761Y252450D01*
X133868Y252347D01*
X133890Y252333D01*
X133910Y252316D01*
X134040Y252244D01*
X134167Y252168D01*
X134192Y252160D01*
X134215Y252147D01*
X134358Y252107D01*
X134499Y252062D01*
X134525Y252060D01*
X134550Y252052D01*
X134794Y252033D01*
X154142Y252033D01*
X162033Y244142D01*
X162132Y244063D01*
X162226Y243979D01*
X162268Y243955D01*
X162306Y243925D01*
X162420Y243871D01*
X162531Y243810D01*
X162577Y243797D01*
X162621Y243776D01*
X162744Y243750D01*
X162866Y243715D01*
X162927Y243710D01*
X162962Y243703D01*
X163010Y243704D01*
X163110Y243696D01*
G37*
%LPD*%
%LPC*%
G36*
X265552Y252073D02*
X265552Y252073D01*
X265577Y252081D01*
X265603Y252085D01*
X265741Y252140D01*
X265880Y252190D01*
X265902Y252204D01*
X265927Y252214D01*
X266048Y252299D01*
X266173Y252379D01*
X266191Y252398D01*
X266213Y252413D01*
X266312Y252523D01*
X266415Y252630D01*
X266429Y252652D01*
X266446Y252672D01*
X266518Y252802D01*
X266594Y252929D01*
X266602Y252954D01*
X266615Y252977D01*
X266655Y253120D01*
X266700Y253261D01*
X266702Y253287D01*
X266710Y253312D01*
X266729Y253556D01*
X266729Y258026D01*
X267474Y258771D01*
X282526Y258771D01*
X283271Y258026D01*
X283271Y241974D01*
X282526Y241229D01*
X267474Y241229D01*
X266729Y241974D01*
X266729Y246444D01*
X266726Y246470D01*
X266728Y246496D01*
X266706Y246643D01*
X266689Y246790D01*
X266681Y246815D01*
X266677Y246841D01*
X266622Y246978D01*
X266572Y247118D01*
X266558Y247140D01*
X266548Y247165D01*
X266463Y247286D01*
X266383Y247411D01*
X266364Y247429D01*
X266349Y247451D01*
X266239Y247550D01*
X266132Y247653D01*
X266110Y247667D01*
X266090Y247684D01*
X265960Y247756D01*
X265833Y247832D01*
X265808Y247840D01*
X265785Y247853D01*
X265642Y247893D01*
X265501Y247938D01*
X265475Y247940D01*
X265450Y247948D01*
X265206Y247967D01*
X241173Y247967D01*
X241047Y247953D01*
X240921Y247946D01*
X240875Y247933D01*
X240827Y247927D01*
X240708Y247885D01*
X240586Y247850D01*
X240544Y247826D01*
X240499Y247810D01*
X240392Y247741D01*
X240282Y247680D01*
X240236Y247640D01*
X240206Y247621D01*
X240172Y247586D01*
X240096Y247521D01*
X239242Y246667D01*
X239163Y246568D01*
X239079Y246474D01*
X239055Y246432D01*
X239025Y246394D01*
X238971Y246280D01*
X238910Y246169D01*
X238897Y246123D01*
X238876Y246079D01*
X238850Y245956D01*
X238815Y245834D01*
X238810Y245773D01*
X238803Y245738D01*
X238804Y245690D01*
X238796Y245590D01*
X238796Y243586D01*
X236514Y241304D01*
X233286Y241304D01*
X231004Y243586D01*
X231004Y246814D01*
X233286Y249096D01*
X235290Y249096D01*
X235416Y249110D01*
X235542Y249117D01*
X235588Y249130D01*
X235636Y249136D01*
X235755Y249178D01*
X235877Y249213D01*
X235919Y249237D01*
X235964Y249253D01*
X236071Y249322D01*
X236181Y249383D01*
X236227Y249423D01*
X236257Y249442D01*
X236291Y249477D01*
X236367Y249542D01*
X238858Y252033D01*
X265206Y252033D01*
X265232Y252036D01*
X265258Y252034D01*
X265405Y252056D01*
X265552Y252073D01*
G37*
%LPD*%
G36*
X183552Y242835D02*
X183552Y242835D01*
X183577Y242843D01*
X183603Y242847D01*
X183741Y242902D01*
X183880Y242952D01*
X183902Y242966D01*
X183927Y242976D01*
X184048Y243061D01*
X184173Y243141D01*
X184191Y243160D01*
X184213Y243175D01*
X184312Y243285D01*
X184415Y243392D01*
X184429Y243414D01*
X184446Y243434D01*
X184518Y243564D01*
X184594Y243691D01*
X184602Y243716D01*
X184615Y243739D01*
X184655Y243882D01*
X184700Y244023D01*
X184702Y244049D01*
X184710Y244074D01*
X184729Y244318D01*
X184729Y245526D01*
X185474Y246271D01*
X187182Y246271D01*
X187208Y246274D01*
X187234Y246272D01*
X187381Y246294D01*
X187528Y246311D01*
X187553Y246319D01*
X187579Y246323D01*
X187717Y246378D01*
X187856Y246428D01*
X187878Y246442D01*
X187903Y246452D01*
X188024Y246537D01*
X188149Y246617D01*
X188167Y246636D01*
X188189Y246651D01*
X188288Y246761D01*
X188391Y246868D01*
X188405Y246890D01*
X188422Y246910D01*
X188494Y247040D01*
X188570Y247167D01*
X188578Y247192D01*
X188591Y247215D01*
X188631Y247358D01*
X188676Y247499D01*
X188678Y247525D01*
X188686Y247550D01*
X188693Y247646D01*
X190759Y249711D01*
X190838Y249810D01*
X190922Y249904D01*
X190946Y249947D01*
X190976Y249984D01*
X191030Y250099D01*
X191091Y250209D01*
X191104Y250256D01*
X191125Y250300D01*
X191151Y250423D01*
X191186Y250545D01*
X191191Y250606D01*
X191198Y250640D01*
X191197Y250688D01*
X191205Y250789D01*
X191205Y251489D01*
X191199Y251540D01*
X191202Y251591D01*
X191180Y251713D01*
X191165Y251836D01*
X191148Y251884D01*
X191139Y251934D01*
X191090Y252047D01*
X191048Y252164D01*
X191020Y252207D01*
X191000Y252253D01*
X190926Y252352D01*
X190859Y252457D01*
X190822Y252492D01*
X190792Y252533D01*
X190697Y252613D01*
X190608Y252699D01*
X190564Y252725D01*
X190525Y252758D01*
X190415Y252814D01*
X190309Y252878D01*
X190261Y252893D01*
X190215Y252916D01*
X190095Y252946D01*
X189977Y252984D01*
X189926Y252988D01*
X189877Y253000D01*
X189753Y253002D01*
X189630Y253012D01*
X189579Y253004D01*
X189528Y253005D01*
X189288Y252961D01*
X188834Y252839D01*
X188523Y252839D01*
X188523Y260880D01*
X188520Y260906D01*
X188522Y260932D01*
X188500Y261079D01*
X188484Y261226D01*
X188475Y261251D01*
X188471Y261277D01*
X188416Y261414D01*
X188366Y261554D01*
X188352Y261576D01*
X188342Y261600D01*
X188258Y261722D01*
X188177Y261847D01*
X188158Y261865D01*
X188143Y261887D01*
X188033Y261986D01*
X187926Y262089D01*
X187903Y262103D01*
X187884Y262120D01*
X187754Y262192D01*
X187627Y262268D01*
X187602Y262276D01*
X187579Y262289D01*
X187436Y262329D01*
X187295Y262375D01*
X187269Y262377D01*
X187243Y262384D01*
X187000Y262403D01*
X182959Y262403D01*
X182959Y266586D01*
X182956Y266612D01*
X182958Y266638D01*
X182936Y266785D01*
X182919Y266932D01*
X182911Y266957D01*
X182907Y266983D01*
X182852Y267121D01*
X182802Y267260D01*
X182788Y267282D01*
X182778Y267307D01*
X182693Y267428D01*
X182613Y267553D01*
X182594Y267571D01*
X182579Y267593D01*
X182469Y267692D01*
X182362Y267795D01*
X182340Y267809D01*
X182320Y267826D01*
X182190Y267898D01*
X182063Y267974D01*
X182038Y267982D01*
X182015Y267995D01*
X181872Y268035D01*
X181731Y268080D01*
X181705Y268082D01*
X181680Y268090D01*
X181436Y268109D01*
X171974Y268109D01*
X171229Y268854D01*
X171229Y273062D01*
X171226Y273088D01*
X171228Y273114D01*
X171206Y273261D01*
X171189Y273408D01*
X171181Y273433D01*
X171177Y273459D01*
X171122Y273597D01*
X171072Y273736D01*
X171058Y273758D01*
X171048Y273783D01*
X170963Y273904D01*
X170883Y274029D01*
X170864Y274047D01*
X170849Y274069D01*
X170739Y274168D01*
X170632Y274271D01*
X170610Y274285D01*
X170590Y274302D01*
X170460Y274374D01*
X170333Y274450D01*
X170308Y274458D01*
X170285Y274471D01*
X170142Y274511D01*
X170001Y274556D01*
X169975Y274558D01*
X169950Y274566D01*
X169706Y274585D01*
X168318Y274585D01*
X168292Y274582D01*
X168266Y274584D01*
X168119Y274562D01*
X167972Y274545D01*
X167947Y274537D01*
X167921Y274533D01*
X167783Y274478D01*
X167644Y274428D01*
X167622Y274414D01*
X167597Y274404D01*
X167476Y274319D01*
X167351Y274239D01*
X167333Y274220D01*
X167311Y274205D01*
X167212Y274095D01*
X167109Y273988D01*
X167095Y273966D01*
X167078Y273946D01*
X167006Y273816D01*
X166930Y273689D01*
X166922Y273664D01*
X166909Y273641D01*
X166869Y273498D01*
X166824Y273357D01*
X166822Y273331D01*
X166814Y273306D01*
X166795Y273062D01*
X166795Y256789D01*
X166809Y256663D01*
X166816Y256537D01*
X166829Y256490D01*
X166835Y256442D01*
X166877Y256323D01*
X166912Y256202D01*
X166936Y256160D01*
X166952Y256114D01*
X167021Y256008D01*
X167082Y255898D01*
X167122Y255851D01*
X167141Y255821D01*
X167176Y255788D01*
X167241Y255711D01*
X179711Y243241D01*
X179810Y243162D01*
X179904Y243078D01*
X179947Y243054D01*
X179984Y243024D01*
X180099Y242970D01*
X180209Y242909D01*
X180256Y242896D01*
X180300Y242875D01*
X180423Y242849D01*
X180545Y242814D01*
X180606Y242809D01*
X180640Y242802D01*
X180688Y242803D01*
X180789Y242795D01*
X183206Y242795D01*
X183232Y242798D01*
X183258Y242796D01*
X183405Y242818D01*
X183552Y242835D01*
G37*
G36*
X261226Y211516D02*
X261226Y211516D01*
X261251Y211525D01*
X261277Y211529D01*
X261414Y211584D01*
X261554Y211634D01*
X261576Y211648D01*
X261600Y211658D01*
X261722Y211742D01*
X261847Y211823D01*
X261865Y211842D01*
X261887Y211857D01*
X261986Y211967D01*
X262082Y212067D01*
X262089Y212074D01*
X262103Y212097D01*
X262120Y212116D01*
X262192Y212246D01*
X262268Y212373D01*
X262276Y212398D01*
X262289Y212421D01*
X262329Y212564D01*
X262375Y212705D01*
X262377Y212731D01*
X262384Y212757D01*
X262403Y213000D01*
X262403Y217041D01*
X266586Y217041D01*
X266612Y217044D01*
X266638Y217042D01*
X266785Y217064D01*
X266932Y217081D01*
X266957Y217089D01*
X266983Y217093D01*
X267121Y217148D01*
X267260Y217198D01*
X267282Y217212D01*
X267307Y217222D01*
X267428Y217307D01*
X267553Y217387D01*
X267571Y217406D01*
X267593Y217421D01*
X267692Y217531D01*
X267795Y217638D01*
X267809Y217660D01*
X267826Y217680D01*
X267898Y217810D01*
X267974Y217937D01*
X267982Y217962D01*
X267995Y217985D01*
X268035Y218128D01*
X268080Y218269D01*
X268082Y218295D01*
X268090Y218320D01*
X268109Y218564D01*
X268109Y228026D01*
X268854Y228771D01*
X273062Y228771D01*
X273088Y228774D01*
X273114Y228772D01*
X273261Y228794D01*
X273408Y228811D01*
X273433Y228819D01*
X273459Y228823D01*
X273597Y228878D01*
X273736Y228928D01*
X273758Y228942D01*
X273783Y228952D01*
X273904Y229037D01*
X274029Y229117D01*
X274047Y229136D01*
X274069Y229151D01*
X274168Y229261D01*
X274271Y229368D01*
X274285Y229390D01*
X274302Y229410D01*
X274374Y229540D01*
X274450Y229667D01*
X274458Y229692D01*
X274471Y229715D01*
X274511Y229858D01*
X274556Y229999D01*
X274558Y230025D01*
X274566Y230050D01*
X274585Y230294D01*
X274585Y230682D01*
X274582Y230708D01*
X274584Y230734D01*
X274562Y230881D01*
X274545Y231028D01*
X274537Y231053D01*
X274533Y231079D01*
X274478Y231217D01*
X274428Y231356D01*
X274414Y231378D01*
X274404Y231403D01*
X274319Y231524D01*
X274239Y231649D01*
X274220Y231667D01*
X274205Y231689D01*
X274095Y231788D01*
X273988Y231891D01*
X273966Y231905D01*
X273946Y231922D01*
X273816Y231994D01*
X273689Y232070D01*
X273664Y232078D01*
X273641Y232091D01*
X273498Y232131D01*
X273357Y232176D01*
X273331Y232178D01*
X273306Y232186D01*
X273062Y232205D01*
X252789Y232205D01*
X252663Y232191D01*
X252537Y232184D01*
X252490Y232171D01*
X252442Y232165D01*
X252323Y232123D01*
X252202Y232088D01*
X252160Y232064D01*
X252114Y232048D01*
X252008Y231979D01*
X251898Y231918D01*
X251851Y231878D01*
X251821Y231859D01*
X251788Y231824D01*
X251711Y231759D01*
X248241Y228289D01*
X248162Y228190D01*
X248078Y228096D01*
X248054Y228053D01*
X248024Y228016D01*
X247970Y227901D01*
X247909Y227791D01*
X247896Y227744D01*
X247875Y227700D01*
X247849Y227577D01*
X247814Y227455D01*
X247809Y227394D01*
X247802Y227360D01*
X247803Y227312D01*
X247795Y227211D01*
X247795Y214789D01*
X247809Y214663D01*
X247816Y214537D01*
X247829Y214490D01*
X247835Y214442D01*
X247877Y214323D01*
X247912Y214202D01*
X247936Y214160D01*
X247952Y214114D01*
X248021Y214008D01*
X248082Y213898D01*
X248122Y213851D01*
X248141Y213821D01*
X248176Y213788D01*
X248241Y213711D01*
X250239Y211713D01*
X250317Y211651D01*
X250390Y211581D01*
X250454Y211543D01*
X250512Y211497D01*
X250603Y211454D01*
X250689Y211402D01*
X250760Y211380D01*
X250827Y211348D01*
X250925Y211327D01*
X251021Y211296D01*
X251095Y211290D01*
X251168Y211275D01*
X251268Y211276D01*
X251368Y211268D01*
X251442Y211279D01*
X251516Y211280D01*
X251613Y211305D01*
X251713Y211320D01*
X251782Y211347D01*
X251854Y211365D01*
X251943Y211411D01*
X252037Y211449D01*
X252077Y211477D01*
X260880Y211477D01*
X260906Y211480D01*
X260932Y211477D01*
X261079Y211499D01*
X261226Y211516D01*
G37*
%LPC*%
G36*
X160126Y7579D02*
X160126Y7579D01*
X156847Y8937D01*
X154337Y11447D01*
X152979Y14726D01*
X152979Y18274D01*
X154337Y21553D01*
X156847Y24063D01*
X160126Y25421D01*
X163674Y25421D01*
X166953Y24063D01*
X169463Y21553D01*
X170821Y18274D01*
X170821Y14726D01*
X169463Y11447D01*
X166953Y8937D01*
X163674Y7579D01*
X160126Y7579D01*
G37*
%LPD*%
%LPC*%
G36*
X160126Y374579D02*
X160126Y374579D01*
X156847Y375937D01*
X154337Y378447D01*
X152979Y381726D01*
X152979Y385274D01*
X154337Y388553D01*
X156847Y391063D01*
X160126Y392421D01*
X163674Y392421D01*
X166953Y391063D01*
X169463Y388553D01*
X170821Y385274D01*
X170821Y381726D01*
X169463Y378447D01*
X166953Y375937D01*
X163674Y374579D01*
X160126Y374579D01*
G37*
%LPD*%
%LPC*%
G36*
X236326Y374579D02*
X236326Y374579D01*
X233047Y375937D01*
X230537Y378447D01*
X229179Y381726D01*
X229179Y385274D01*
X230537Y388553D01*
X233047Y391063D01*
X236326Y392421D01*
X239874Y392421D01*
X243153Y391063D01*
X245663Y388553D01*
X247021Y385274D01*
X247021Y381726D01*
X245663Y378447D01*
X243153Y375937D01*
X239874Y374579D01*
X236326Y374579D01*
G37*
%LPD*%
G36*
X230446Y129062D02*
X230446Y129062D01*
X230546Y129067D01*
X230617Y129088D01*
X230691Y129099D01*
X230784Y129136D01*
X230881Y129163D01*
X230946Y129200D01*
X231015Y129227D01*
X231097Y129285D01*
X231185Y129334D01*
X231261Y129399D01*
X231301Y129426D01*
X231325Y129453D01*
X231371Y129492D01*
X236886Y135007D01*
X236902Y135028D01*
X236922Y135045D01*
X236967Y135105D01*
X237013Y135153D01*
X237048Y135211D01*
X237103Y135280D01*
X237114Y135304D01*
X237130Y135325D01*
X237165Y135407D01*
X237192Y135452D01*
X237208Y135503D01*
X237252Y135595D01*
X237257Y135621D01*
X237268Y135645D01*
X237286Y135745D01*
X237298Y135784D01*
X237301Y135825D01*
X237325Y135936D01*
X237325Y135962D01*
X237329Y135988D01*
X237323Y136101D01*
X237326Y136131D01*
X237321Y136162D01*
X237319Y136284D01*
X237313Y136310D01*
X237311Y136336D01*
X237277Y136454D01*
X237274Y136476D01*
X237266Y136497D01*
X237234Y136622D01*
X237222Y136646D01*
X237215Y136671D01*
X237152Y136784D01*
X237145Y136799D01*
X237136Y136813D01*
X237075Y136932D01*
X237058Y136952D01*
X237045Y136975D01*
X236886Y137161D01*
X236708Y137340D01*
X236609Y137419D01*
X236515Y137503D01*
X236472Y137527D01*
X236435Y137557D01*
X236320Y137611D01*
X236210Y137672D01*
X236163Y137685D01*
X236119Y137706D01*
X235996Y137732D01*
X235874Y137767D01*
X235813Y137772D01*
X235779Y137779D01*
X235731Y137778D01*
X235630Y137786D01*
X220598Y137786D01*
X219641Y138743D01*
X219562Y138805D01*
X219490Y138875D01*
X219426Y138913D01*
X219368Y138960D01*
X219277Y139002D01*
X219191Y139054D01*
X219120Y139077D01*
X219053Y139109D01*
X218955Y139130D01*
X218859Y139160D01*
X218785Y139166D01*
X218712Y139182D01*
X218612Y139180D01*
X218512Y139188D01*
X218438Y139177D01*
X218364Y139176D01*
X218267Y139151D01*
X218167Y139137D01*
X218098Y139109D01*
X218026Y139091D01*
X217937Y139045D01*
X217843Y139008D01*
X217782Y138965D01*
X217716Y138931D01*
X217640Y138866D01*
X217557Y138809D01*
X217507Y138754D01*
X217451Y138705D01*
X217391Y138625D01*
X217324Y138550D01*
X217288Y138485D01*
X217243Y138425D01*
X217204Y138333D01*
X217155Y138245D01*
X217135Y138173D01*
X217105Y138105D01*
X217088Y138006D01*
X217060Y137910D01*
X217052Y137810D01*
X217044Y137762D01*
X217046Y137726D01*
X217041Y137666D01*
X217041Y133414D01*
X217044Y133388D01*
X217042Y133362D01*
X217064Y133215D01*
X217081Y133068D01*
X217089Y133043D01*
X217093Y133017D01*
X217148Y132879D01*
X217198Y132740D01*
X217212Y132718D01*
X217222Y132693D01*
X217307Y132572D01*
X217387Y132447D01*
X217406Y132429D01*
X217421Y132407D01*
X217531Y132308D01*
X217638Y132205D01*
X217660Y132191D01*
X217680Y132174D01*
X217810Y132102D01*
X217937Y132026D01*
X217962Y132018D01*
X217985Y132005D01*
X218128Y131965D01*
X218269Y131920D01*
X218295Y131918D01*
X218320Y131910D01*
X218564Y131891D01*
X228026Y131891D01*
X228771Y131146D01*
X228771Y130569D01*
X228782Y130469D01*
X228784Y130369D01*
X228802Y130297D01*
X228811Y130223D01*
X228844Y130129D01*
X228869Y130031D01*
X228903Y129965D01*
X228928Y129895D01*
X228983Y129811D01*
X229029Y129721D01*
X229077Y129665D01*
X229117Y129602D01*
X229189Y129532D01*
X229254Y129456D01*
X229314Y129412D01*
X229368Y129360D01*
X229454Y129308D01*
X229535Y129249D01*
X229603Y129219D01*
X229667Y129181D01*
X229763Y129150D01*
X229855Y129111D01*
X229928Y129098D01*
X229999Y129075D01*
X230099Y129067D01*
X230198Y129049D01*
X230272Y129053D01*
X230346Y129047D01*
X230446Y129062D01*
G37*
%LPC*%
G36*
X46689Y304919D02*
X46689Y304919D01*
X44822Y305693D01*
X43393Y307122D01*
X42619Y308989D01*
X42619Y311011D01*
X43393Y312878D01*
X44822Y314307D01*
X46689Y315081D01*
X48711Y315081D01*
X50322Y314413D01*
X50578Y314307D01*
X52007Y312878D01*
X52781Y311011D01*
X52781Y308989D01*
X52007Y307122D01*
X50578Y305693D01*
X48711Y304919D01*
X46689Y304919D01*
G37*
%LPD*%
%LPC*%
G36*
X46689Y279519D02*
X46689Y279519D01*
X44822Y280293D01*
X43393Y281722D01*
X42619Y283589D01*
X42619Y285611D01*
X43393Y287478D01*
X44822Y288907D01*
X46689Y289681D01*
X48711Y289681D01*
X50578Y288907D01*
X52007Y287478D01*
X52781Y285611D01*
X52781Y283589D01*
X52007Y281722D01*
X50578Y280293D01*
X48711Y279519D01*
X46689Y279519D01*
G37*
%LPD*%
%LPC*%
G36*
X351289Y84919D02*
X351289Y84919D01*
X349422Y85693D01*
X347993Y87122D01*
X347219Y88989D01*
X347219Y91011D01*
X347993Y92878D01*
X349422Y94307D01*
X351289Y95081D01*
X353311Y95081D01*
X355178Y94307D01*
X356607Y92878D01*
X357381Y91011D01*
X357381Y88989D01*
X356607Y87122D01*
X355178Y85693D01*
X353311Y84919D01*
X351289Y84919D01*
G37*
%LPD*%
%LPC*%
G36*
X46689Y330319D02*
X46689Y330319D01*
X44822Y331093D01*
X43393Y332522D01*
X42619Y334389D01*
X42619Y336411D01*
X43393Y338278D01*
X44822Y339707D01*
X46689Y340481D01*
X48711Y340481D01*
X50578Y339707D01*
X52007Y338278D01*
X52781Y336411D01*
X52781Y334389D01*
X52007Y332522D01*
X50578Y331093D01*
X48711Y330319D01*
X46689Y330319D01*
G37*
%LPD*%
%LPC*%
G36*
X183459Y335499D02*
X183459Y335499D01*
X183459Y338335D01*
X183632Y338981D01*
X183967Y339560D01*
X184440Y340033D01*
X184696Y340181D01*
X184757Y340226D01*
X184823Y340263D01*
X184896Y340330D01*
X184976Y340388D01*
X185025Y340446D01*
X185081Y340497D01*
X185137Y340579D01*
X185201Y340654D01*
X185236Y340722D01*
X185279Y340784D01*
X185315Y340876D01*
X185360Y340964D01*
X185379Y341038D01*
X185406Y341108D01*
X185421Y341206D01*
X185445Y341303D01*
X185446Y341378D01*
X185457Y341453D01*
X185448Y341552D01*
X185450Y341651D01*
X185434Y341725D01*
X185428Y341801D01*
X185397Y341895D01*
X185376Y341992D01*
X185344Y342060D01*
X185320Y342132D01*
X185269Y342217D01*
X185227Y342306D01*
X185179Y342366D01*
X185140Y342431D01*
X185071Y342501D01*
X185009Y342579D01*
X184950Y342626D01*
X184897Y342680D01*
X184773Y342766D01*
X184736Y342795D01*
X184719Y342803D01*
X184696Y342819D01*
X184440Y342967D01*
X183967Y343440D01*
X183632Y344019D01*
X183459Y344665D01*
X183459Y347501D01*
X189001Y347501D01*
X189001Y335499D01*
X183459Y335499D01*
G37*
%LPD*%
%LPC*%
G36*
X189849Y386049D02*
X189849Y386049D01*
X189849Y393387D01*
X191212Y392944D01*
X192641Y392216D01*
X193939Y391273D01*
X195073Y390139D01*
X196016Y388841D01*
X196744Y387412D01*
X197187Y386049D01*
X189849Y386049D01*
G37*
%LPD*%
%LPC*%
G36*
X189849Y380951D02*
X189849Y380951D01*
X197187Y380951D01*
X196744Y379588D01*
X196016Y378159D01*
X195073Y376861D01*
X193939Y375727D01*
X192641Y374784D01*
X191212Y374056D01*
X189849Y373613D01*
X189849Y380951D01*
G37*
%LPD*%
%LPC*%
G36*
X177413Y386049D02*
X177413Y386049D01*
X177856Y387412D01*
X178584Y388841D01*
X179527Y390139D01*
X180661Y391273D01*
X181959Y392216D01*
X183388Y392944D01*
X184751Y393387D01*
X184751Y386049D01*
X177413Y386049D01*
G37*
%LPD*%
%LPC*%
G36*
X183388Y7056D02*
X183388Y7056D01*
X181959Y7784D01*
X180661Y8727D01*
X179527Y9861D01*
X178584Y11159D01*
X177856Y12588D01*
X177413Y13951D01*
X184751Y13951D01*
X184751Y6613D01*
X183388Y7056D01*
G37*
%LPD*%
%LPC*%
G36*
X183388Y374056D02*
X183388Y374056D01*
X181959Y374784D01*
X180661Y375727D01*
X179527Y376861D01*
X178584Y378159D01*
X177856Y379588D01*
X177413Y380951D01*
X184751Y380951D01*
X184751Y373613D01*
X183388Y374056D01*
G37*
%LPD*%
%LPC*%
G36*
X210999Y52499D02*
X210999Y52499D01*
X210999Y57541D01*
X214335Y57541D01*
X214981Y57368D01*
X215560Y57033D01*
X216033Y56560D01*
X216368Y55981D01*
X216541Y55335D01*
X216541Y52499D01*
X210999Y52499D01*
G37*
%LPD*%
%LPC*%
G36*
X52499Y210999D02*
X52499Y210999D01*
X52499Y216541D01*
X55335Y216541D01*
X55981Y216368D01*
X56560Y216033D01*
X57033Y215560D01*
X57368Y214981D01*
X57541Y214335D01*
X57541Y210999D01*
X52499Y210999D01*
G37*
%LPD*%
%LPC*%
G36*
X72499Y210999D02*
X72499Y210999D01*
X72499Y216541D01*
X75335Y216541D01*
X75981Y216368D01*
X76560Y216033D01*
X77033Y215560D01*
X77368Y214981D01*
X77541Y214335D01*
X77541Y210999D01*
X72499Y210999D01*
G37*
%LPD*%
%LPC*%
G36*
X183459Y352499D02*
X183459Y352499D01*
X183459Y355335D01*
X183632Y355981D01*
X183967Y356560D01*
X184440Y357033D01*
X185019Y357368D01*
X185665Y357541D01*
X189001Y357541D01*
X189001Y352499D01*
X183459Y352499D01*
G37*
%LPD*%
%LPC*%
G36*
X352499Y183459D02*
X352499Y183459D01*
X352499Y189001D01*
X357541Y189001D01*
X357541Y185665D01*
X357368Y185019D01*
X357033Y184440D01*
X356560Y183967D01*
X355981Y183632D01*
X355335Y183459D01*
X352499Y183459D01*
G37*
%LPD*%
%LPC*%
G36*
X332499Y183459D02*
X332499Y183459D01*
X332499Y189001D01*
X337541Y189001D01*
X337541Y185665D01*
X337368Y185019D01*
X337033Y184440D01*
X336560Y183967D01*
X335981Y183632D01*
X335335Y183459D01*
X332499Y183459D01*
G37*
%LPD*%
%LPC*%
G36*
X210999Y42459D02*
X210999Y42459D01*
X210999Y47501D01*
X216541Y47501D01*
X216541Y44665D01*
X216368Y44019D01*
X216033Y43440D01*
X215560Y42967D01*
X214981Y42632D01*
X214335Y42459D01*
X210999Y42459D01*
G37*
%LPD*%
%LPC*%
G36*
X62459Y210999D02*
X62459Y210999D01*
X62459Y214335D01*
X62632Y214981D01*
X62967Y215560D01*
X63440Y216033D01*
X64019Y216368D01*
X64665Y216541D01*
X67501Y216541D01*
X67501Y210999D01*
X62459Y210999D01*
G37*
%LPD*%
%LPC*%
G36*
X210999Y62459D02*
X210999Y62459D01*
X210999Y67501D01*
X216541Y67501D01*
X216541Y64665D01*
X216368Y64019D01*
X216033Y63440D01*
X215560Y62967D01*
X214981Y62632D01*
X214335Y62459D01*
X210999Y62459D01*
G37*
%LPD*%
%LPC*%
G36*
X42459Y210999D02*
X42459Y210999D01*
X42459Y214335D01*
X42632Y214981D01*
X42967Y215560D01*
X43440Y216033D01*
X44019Y216368D01*
X44665Y216541D01*
X47501Y216541D01*
X47501Y210999D01*
X42459Y210999D01*
G37*
%LPD*%
%LPC*%
G36*
X344665Y183459D02*
X344665Y183459D01*
X344019Y183632D01*
X343440Y183967D01*
X342967Y184440D01*
X342632Y185019D01*
X342459Y185665D01*
X342459Y189001D01*
X347501Y189001D01*
X347501Y183459D01*
X344665Y183459D01*
G37*
%LPD*%
%LPC*%
G36*
X252839Y214523D02*
X252839Y214523D01*
X252839Y214835D01*
X253012Y215481D01*
X253347Y216060D01*
X253820Y216533D01*
X254399Y216868D01*
X255045Y217041D01*
X259357Y217041D01*
X259357Y214523D01*
X252839Y214523D01*
G37*
%LPD*%
%LPC*%
G36*
X298403Y169959D02*
X298403Y169959D01*
X298403Y176477D01*
X300921Y176477D01*
X300921Y172165D01*
X300748Y171519D01*
X300413Y170940D01*
X299940Y170467D01*
X299361Y170132D01*
X298715Y169959D01*
X298403Y169959D01*
G37*
%LPD*%
%LPC*%
G36*
X99079Y223523D02*
X99079Y223523D01*
X99079Y227835D01*
X99252Y228481D01*
X99587Y229060D01*
X100060Y229533D01*
X100639Y229868D01*
X101285Y230041D01*
X101597Y230041D01*
X101597Y223523D01*
X99079Y223523D01*
G37*
%LPD*%
%LPC*%
G36*
X140643Y182959D02*
X140643Y182959D01*
X140643Y185477D01*
X147161Y185477D01*
X147161Y185165D01*
X146988Y184519D01*
X146653Y183940D01*
X146180Y183467D01*
X145601Y183132D01*
X144955Y182959D01*
X140643Y182959D01*
G37*
%LPD*%
%LPC*%
G36*
X185165Y252839D02*
X185165Y252839D01*
X184519Y253012D01*
X183940Y253347D01*
X183467Y253820D01*
X183132Y254399D01*
X182959Y255045D01*
X182959Y259357D01*
X185477Y259357D01*
X185477Y252839D01*
X185165Y252839D01*
G37*
%LPD*%
%LPC*%
G36*
X23823Y286123D02*
X23823Y286123D01*
X23823Y290772D01*
X24152Y290707D01*
X25308Y290228D01*
X26348Y289533D01*
X27233Y288648D01*
X27928Y287608D01*
X28407Y286452D01*
X28472Y286123D01*
X23823Y286123D01*
G37*
%LPD*%
%LPC*%
G36*
X353823Y66123D02*
X353823Y66123D01*
X353823Y70772D01*
X354152Y70707D01*
X355308Y70228D01*
X356348Y69533D01*
X357233Y68648D01*
X357928Y67608D01*
X358407Y66452D01*
X358472Y66123D01*
X353823Y66123D01*
G37*
%LPD*%
%LPC*%
G36*
X346128Y66123D02*
X346128Y66123D01*
X346193Y66452D01*
X346672Y67608D01*
X347367Y68648D01*
X348252Y69533D01*
X349292Y70228D01*
X350448Y70707D01*
X350777Y70772D01*
X350777Y66123D01*
X346128Y66123D01*
G37*
%LPD*%
%LPC*%
G36*
X23823Y283077D02*
X23823Y283077D01*
X28472Y283077D01*
X28407Y282748D01*
X27928Y281592D01*
X27233Y280552D01*
X26348Y279667D01*
X25308Y278972D01*
X24152Y278493D01*
X23823Y278428D01*
X23823Y283077D01*
G37*
%LPD*%
D10*
X191500Y70000D03*
X208500Y70000D03*
D11*
X70000Y191500D03*
X70000Y208500D03*
X50000Y191500D03*
X50000Y208500D03*
D10*
X208500Y350000D03*
X191500Y350000D03*
X208500Y333000D03*
X191500Y333000D03*
D11*
X350000Y208500D03*
X350000Y191500D03*
X330000Y208500D03*
X330000Y191500D03*
D10*
X191500Y50000D03*
X208500Y50000D03*
D12*
X125000Y250000D03*
X95000Y250000D03*
D13*
X161900Y16500D03*
X187300Y16500D03*
X212700Y16500D03*
X238100Y16500D03*
D14*
X47700Y335400D03*
X22300Y335400D03*
X47700Y310000D03*
X22300Y310000D03*
X47700Y284600D03*
X22300Y284600D03*
D13*
X161900Y383500D03*
X187300Y383500D03*
X212700Y383500D03*
X238100Y383500D03*
D14*
X377700Y115400D03*
X352300Y115400D03*
X377700Y90000D03*
X352300Y90000D03*
X377700Y64600D03*
X352300Y64600D03*
D10*
X123500Y125000D03*
X106500Y125000D03*
X123500Y105000D03*
X106500Y105000D03*
X191500Y160000D03*
X208500Y160000D03*
X208500Y240000D03*
X191500Y240000D03*
D15*
X178000Y129120D03*
X178000Y122620D03*
X178000Y116120D03*
X178000Y109620D03*
X178000Y103120D03*
D16*
X187000Y94120D03*
X193500Y94120D03*
X200000Y94120D03*
X206500Y94120D03*
X213000Y94120D03*
D15*
X222000Y103120D03*
X222000Y109620D03*
X222000Y116120D03*
X222000Y122620D03*
X222000Y129120D03*
D16*
X213000Y139120D03*
X206500Y139120D03*
X200000Y139120D03*
X193500Y139120D03*
X187000Y139120D03*
X270880Y178000D03*
X277380Y178000D03*
X283880Y178000D03*
X290380Y178000D03*
X296880Y178000D03*
D15*
X305880Y187000D03*
X305880Y193500D03*
X305880Y200000D03*
X305880Y206500D03*
X305880Y213000D03*
D16*
X296880Y222000D03*
X290380Y222000D03*
X283880Y222000D03*
X277380Y222000D03*
X270880Y222000D03*
D15*
X260880Y213000D03*
X260880Y206500D03*
X260880Y200000D03*
X260880Y193500D03*
X260880Y187000D03*
D16*
X129120Y222000D03*
X122620Y222000D03*
X116120Y222000D03*
X109620Y222000D03*
X103120Y222000D03*
D15*
X94120Y213000D03*
X94120Y206500D03*
X94120Y200000D03*
X94120Y193500D03*
X94120Y187000D03*
D16*
X103120Y178000D03*
X109620Y178000D03*
X116120Y178000D03*
X122620Y178000D03*
X129120Y178000D03*
D15*
X139120Y187000D03*
X139120Y193500D03*
X139120Y200000D03*
X139120Y206500D03*
X139120Y213000D03*
X222000Y270880D03*
X222000Y277380D03*
X222000Y283880D03*
X222000Y290380D03*
X222000Y296880D03*
D16*
X213000Y305880D03*
X206500Y305880D03*
X200000Y305880D03*
X193500Y305880D03*
X187000Y305880D03*
D15*
X178000Y296880D03*
X178000Y290380D03*
X178000Y283880D03*
X178000Y277380D03*
X178000Y270880D03*
D16*
X187000Y260880D03*
X193500Y260880D03*
X200000Y260880D03*
X206500Y260880D03*
X213000Y260880D03*
D12*
X275000Y250000D03*
X305000Y250000D03*
D17*
X148000Y173000D03*
X270400Y111700D03*
X264300Y360400D03*
X377000Y302000D03*
X35000Y224000D03*
X117000Y371000D03*
X364000Y64000D03*
D18*
X307000Y47000D03*
D19*
X313412Y189342D02*
X309154Y193600D01*
X305980Y193600D02*
X305880Y193500D01*
X305980Y193600D02*
X309154Y193600D01*
X313412Y181369D02*
X313412Y177412D01*
D18*
X248000Y174000D03*
X253900Y224400D03*
X68000Y82000D03*
X233000Y135000D03*
D19*
X313412Y181369D02*
X313412Y189342D01*
X233000Y135000D02*
X232000Y136000D01*
X216120Y136000D01*
X213000Y139120D01*
D18*
X177900Y252000D03*
X149000Y295000D03*
D19*
X301680Y173200D02*
X309200Y173200D01*
X301680Y173200D02*
X296880Y178000D01*
X309200Y173200D02*
X313412Y177412D01*
X313343Y181300D02*
X313412Y181369D01*
D17*
X313343Y181300D03*
X339400Y179600D03*
X124600Y85500D03*
X20800Y120700D03*
X147300Y271900D03*
X249700Y330300D03*
X227000Y47000D03*
X280000Y361000D03*
X8000Y53000D03*
D19*
X73000Y125000D02*
X69000Y129000D01*
D17*
X69000Y129000D03*
D19*
X73000Y125000D02*
X73000Y135000D01*
X69000Y139000D01*
X20000Y139000D01*
D17*
X20000Y139000D03*
X78000Y83000D03*
D19*
X203018Y12490D02*
X208690Y6818D01*
X216710Y6818D01*
X99971Y83000D02*
X78000Y83000D01*
X99971Y83000D02*
X116527Y66444D01*
X151048Y66444D01*
X203018Y14474D01*
X203018Y12490D01*
X216710Y6818D02*
X226392Y16500D01*
X238100Y16500D01*
D20*
X210000Y350000D02*
X208500Y350000D01*
X210000Y350000D02*
X220000Y350000D01*
X210000Y334500D02*
X208500Y333000D01*
X210000Y334500D02*
X210000Y350000D01*
X330000Y208500D02*
X350000Y208500D01*
X191500Y70000D02*
X191500Y50000D01*
X106500Y105000D02*
X106500Y125000D01*
X70000Y191500D02*
X50000Y191500D01*
X12000Y177000D02*
X12000Y242000D01*
X20000Y250000D01*
X106500Y105000D02*
X92500Y91000D01*
X32000Y91000D01*
X12000Y111000D02*
X12000Y177000D01*
X28000Y95000D02*
X32000Y91000D01*
X28000Y95000D02*
X12000Y111000D01*
X155400Y70000D02*
X191500Y70000D01*
X155400Y70000D02*
X118000Y70000D01*
X106000Y82000D01*
X106000Y104500D01*
X106500Y105000D01*
X212700Y28800D02*
X212700Y16500D01*
X212700Y28800D02*
X191500Y50000D01*
X384000Y234000D02*
X384000Y235000D01*
X191500Y240000D02*
X191500Y246500D01*
X194000Y249000D01*
X194000Y260380D01*
X193500Y260880D01*
X178000Y277380D02*
X168000Y277380D01*
X164000Y255000D02*
X179000Y240000D01*
X191500Y240000D01*
X164000Y289760D02*
X154380Y299380D01*
X208500Y160000D02*
X206500Y158000D01*
X206500Y156000D01*
X206500Y139120D01*
X384000Y147100D02*
X384000Y234000D01*
X384000Y147100D02*
X352300Y115400D01*
X277380Y222000D02*
X277380Y229380D01*
X283000Y235000D01*
X260880Y206500D02*
X251500Y206500D01*
X245000Y213000D01*
X245000Y229000D01*
X251000Y235000D01*
X283000Y235000D01*
D17*
X384000Y234000D03*
X154380Y299380D03*
D20*
X12000Y325100D02*
X12000Y242000D01*
X12000Y325100D02*
X22300Y335400D01*
X167380Y122620D02*
X178000Y122620D01*
X167380Y122620D02*
X160900Y129100D01*
X156000Y134000D01*
X156000Y157000D01*
X170000Y171000D02*
X171000Y172000D01*
X170000Y171000D02*
X161620Y162620D01*
X156000Y157000D01*
X208500Y160000D02*
X208500Y167500D01*
X205000Y171000D01*
X170000Y171000D01*
X122620Y178000D02*
X122620Y162620D01*
X106500Y146500D02*
X106500Y125000D01*
X106500Y146500D02*
X122620Y162620D01*
X139120Y193500D02*
X149500Y193500D01*
X171000Y172000D01*
D17*
X319200Y277400D03*
D20*
X260000Y277380D02*
X222000Y277380D01*
X168000Y277380D02*
X164000Y281380D01*
X164000Y289760D01*
D17*
X12000Y177000D03*
D20*
X28000Y95000D02*
X28000Y89000D01*
X36000Y81000D01*
D17*
X40000Y77000D03*
D20*
X36000Y81000D01*
X222000Y122620D02*
X224000Y122620D01*
X224206Y122826D01*
X228657Y122826D01*
X241916Y136084D01*
X237419Y140581D01*
X221755Y140581D01*
X218000Y144336D02*
X218000Y147000D01*
X209000Y156000D01*
X206500Y156000D01*
X218000Y144336D02*
X221755Y140581D01*
X161620Y162620D02*
X122620Y162620D01*
X250419Y321245D02*
X247245Y324419D01*
X245581Y324419D01*
X220000Y350000D01*
X250419Y321245D02*
X250419Y286961D01*
X164000Y281380D02*
X164000Y255000D01*
X205000Y171000D02*
X214000Y171000D01*
X235000Y203000D02*
X245000Y213000D01*
X235000Y192000D02*
X214000Y171000D01*
X235000Y192000D02*
X235000Y203000D01*
X36000Y81000D02*
X36000Y56000D01*
X50000Y42000D01*
X75000Y42000D01*
X78000Y45000D01*
D17*
X78000Y45000D03*
D20*
X70000Y183000D02*
X70000Y191500D01*
X90380Y162620D02*
X122620Y162620D01*
X90380Y162620D02*
X70000Y183000D01*
X283000Y235000D02*
X318000Y235000D01*
X330000Y223000D01*
X330000Y208500D01*
X208500Y379300D02*
X212700Y383500D01*
X208500Y379300D02*
X208500Y350000D01*
X319180Y277380D02*
X319200Y277400D01*
X319180Y277380D02*
X260000Y277380D01*
X319180Y277380D02*
X341620Y277380D01*
X384000Y235000D01*
X95000Y250000D02*
X20000Y250000D01*
D17*
X250419Y286961D03*
D20*
X260000Y277380D01*
X160900Y129100D02*
X148100Y116300D01*
X148100Y77300D02*
X155400Y70000D01*
X148100Y77300D02*
X148100Y116300D01*
X305000Y263200D02*
X319200Y277400D01*
X305000Y263200D02*
X305000Y250000D01*
X305000Y248000D02*
X318000Y235000D01*
X305000Y248000D02*
X305000Y250000D01*
D17*
X181000Y165000D03*
D19*
X178000Y162000D01*
X178000Y159000D01*
X179000Y158000D01*
X189500Y158000D01*
X191500Y160000D01*
X200000Y94120D02*
X200000Y87000D01*
X201000Y86000D01*
X226700Y86000D02*
X258300Y117600D01*
D17*
X258300Y117600D03*
D19*
X226700Y86000D02*
X201000Y86000D01*
X371300Y109000D02*
X377700Y115400D01*
X329000Y109000D02*
X326000Y112000D01*
D17*
X326000Y112000D03*
D19*
X329000Y109000D02*
X371300Y109000D01*
X178000Y103120D02*
X177880Y103000D01*
X171000Y103000D01*
X167000Y99000D01*
X167000Y85000D01*
X174000Y78000D01*
X318000Y78000D01*
X322000Y82000D01*
X322000Y83000D01*
D17*
X322000Y83000D03*
D19*
X178000Y109620D02*
X177380Y109000D01*
X169000Y109000D01*
X159000Y99000D02*
X159000Y78000D01*
D17*
X159000Y78000D03*
D19*
X159000Y99000D02*
X169000Y109000D01*
X177777Y116343D02*
X178000Y116120D01*
X177777Y116343D02*
X160000Y116343D01*
X158000Y114343D01*
D17*
X158000Y114343D03*
X226000Y61000D03*
D19*
X377700Y90000D02*
X386000Y81700D01*
X386000Y62000D01*
X381000Y57000D01*
X230000Y57000D02*
X226000Y61000D01*
X230000Y57000D02*
X381000Y57000D01*
D17*
X242000Y69000D03*
D19*
X234000Y61000D01*
X226000Y61000D01*
D17*
X317000Y105000D03*
D19*
X357000Y105000D01*
X366000Y96000D01*
X366000Y71000D01*
X372400Y64600D01*
X377700Y64600D01*
X187000Y86000D02*
X187000Y94120D01*
X187000Y86000D02*
X190000Y83000D01*
X295000Y83000D01*
X317000Y105000D01*
X138750Y140250D02*
X123500Y125000D01*
X138750Y140250D02*
X145500Y147000D01*
X146000Y147000D01*
D17*
X146000Y147000D03*
X174000Y147000D03*
D19*
X179120Y147000D01*
X187000Y139120D01*
X138750Y140250D02*
X125000Y154000D01*
D17*
X125000Y154000D03*
X81600Y195700D03*
D19*
X305880Y206500D02*
X309500Y206500D01*
X318000Y198000D01*
X318000Y169000D01*
X297000Y148000D01*
X226000Y148000D02*
X224000Y146000D01*
D17*
X224000Y146000D03*
D19*
X226000Y148000D02*
X297000Y148000D01*
X84600Y195700D02*
X81600Y195700D01*
X84600Y195700D02*
X86900Y193400D01*
X94020Y193400D01*
X94120Y193500D01*
D17*
X80700Y181600D03*
X138000Y118000D03*
D19*
X142000Y114000D01*
X142000Y107000D01*
X140000Y105000D01*
X123500Y105000D01*
X172880Y129120D02*
X178000Y129120D01*
X172880Y129120D02*
X165000Y137000D01*
D17*
X165000Y137000D03*
X330200Y176500D03*
X134500Y92500D03*
D19*
X123500Y103500D02*
X123500Y105000D01*
X123500Y103500D02*
X134500Y92500D01*
X305880Y213000D02*
X315000Y213000D01*
X320794Y185906D02*
X330200Y176500D01*
X320794Y207206D02*
X315000Y213000D01*
X320794Y207206D02*
X320794Y185906D01*
X86100Y187000D02*
X80700Y181600D01*
X86100Y187000D02*
X94120Y187000D01*
X122620Y222000D02*
X123000Y222380D01*
X123000Y231000D01*
X127000Y235000D01*
D17*
X146000Y235000D03*
X248300Y142600D03*
D19*
X248300Y136300D01*
X228000Y116000D01*
X222120Y116000D01*
X222000Y116120D01*
X146000Y235000D02*
X127000Y235000D01*
X208500Y240000D02*
X219000Y240000D01*
D20*
X220000Y240000D01*
D17*
X220000Y240000D03*
X181000Y312343D03*
D19*
X197032Y308848D02*
X200000Y305880D01*
X197032Y308848D02*
X197032Y312222D01*
X195842Y313412D01*
X184658Y313412D02*
X182889Y311643D01*
X181700Y311643D01*
X181000Y312343D01*
X184658Y313412D02*
X195842Y313412D01*
X222000Y290380D02*
X231380Y290380D01*
X238000Y297000D02*
X238000Y317000D01*
X231000Y324000D01*
X97050Y324000D02*
X67000Y293950D01*
D17*
X67000Y293950D03*
D19*
X231380Y290380D02*
X238000Y297000D01*
X231000Y324000D02*
X97050Y324000D01*
D17*
X153000Y314000D03*
D19*
X212342Y320412D02*
X216532Y316222D01*
X159412Y320412D02*
X153000Y314000D01*
X159412Y320412D02*
X212342Y320412D01*
X216532Y302348D02*
X222000Y296880D01*
X216532Y302348D02*
X216532Y316222D01*
X222000Y283880D02*
X232880Y283880D01*
X233000Y284000D01*
D17*
X233000Y284000D03*
D19*
X213000Y305880D02*
X213000Y314000D01*
X210000Y317000D01*
X167000Y317000D01*
X163000Y313000D01*
D17*
X163000Y313000D03*
D19*
X222000Y109620D02*
X234720Y109620D01*
X250200Y125100D01*
D17*
X250200Y125100D03*
X234400Y103400D03*
D19*
X222280Y103400D02*
X222000Y103120D01*
X222280Y103400D02*
X234400Y103400D01*
X178000Y296880D02*
X170000Y304880D01*
X170000Y309000D01*
D17*
X170000Y309000D03*
X244600Y313200D03*
X166000Y296000D03*
D19*
X171620Y290380D01*
X178000Y290380D01*
X239700Y250000D02*
X275000Y250000D01*
X239700Y250000D02*
X234900Y245200D01*
D17*
X234900Y245200D03*
X170393Y160493D03*
D19*
X181186Y149700D01*
X195400Y149700D01*
X200000Y145100D01*
X200000Y139120D01*
X153300Y250000D02*
X125000Y250000D01*
X153300Y250000D02*
X163500Y239800D01*
D17*
X163500Y239800D03*
X201000Y250800D03*
D19*
X200000Y251800D01*
X200000Y260880D01*
M02*
