G04 EAGLE Gerber RS-274X export*
G75*
%MOMM*%
%FSLAX34Y34*%
%LPD*%
%IN*%
%IPPOS*%
%AMOC8*
5,1,8,0,0,1.08239X$1,22.5*%
G01*
%ADD10C,0.254000*%


D10*
X0Y0D02*
X400000Y0D01*
X400000Y400000D01*
X0Y400000D01*
X0Y0D01*
X40000Y23476D02*
X39932Y22431D01*
X39795Y21392D01*
X39590Y20365D01*
X39319Y19353D01*
X38983Y18361D01*
X38582Y17393D01*
X38118Y16454D01*
X37595Y15546D01*
X37013Y14675D01*
X36375Y13844D01*
X35684Y13057D01*
X34943Y12316D01*
X34156Y11625D01*
X33325Y10988D01*
X32454Y10406D01*
X31546Y9882D01*
X30607Y9418D01*
X29639Y9017D01*
X28647Y8681D01*
X27635Y8410D01*
X26608Y8205D01*
X25569Y8069D01*
X24524Y8000D01*
X23476Y8000D01*
X22431Y8069D01*
X21392Y8205D01*
X20365Y8410D01*
X19353Y8681D01*
X18361Y9017D01*
X17393Y9418D01*
X16454Y9882D01*
X15546Y10406D01*
X14675Y10988D01*
X13844Y11625D01*
X13057Y12316D01*
X12316Y13057D01*
X11625Y13844D01*
X10988Y14675D01*
X10406Y15546D01*
X9882Y16454D01*
X9418Y17393D01*
X9017Y18361D01*
X8681Y19353D01*
X8410Y20365D01*
X8205Y21392D01*
X8069Y22431D01*
X8000Y23476D01*
X8000Y24524D01*
X8069Y25569D01*
X8205Y26608D01*
X8410Y27635D01*
X8681Y28647D01*
X9017Y29639D01*
X9418Y30607D01*
X9882Y31546D01*
X10406Y32454D01*
X10988Y33325D01*
X11625Y34156D01*
X12316Y34943D01*
X13057Y35684D01*
X13844Y36375D01*
X14675Y37013D01*
X15546Y37595D01*
X16454Y38118D01*
X17393Y38582D01*
X18361Y38983D01*
X19353Y39319D01*
X20365Y39590D01*
X21392Y39795D01*
X22431Y39932D01*
X23476Y40000D01*
X24524Y40000D01*
X25569Y39932D01*
X26608Y39795D01*
X27635Y39590D01*
X28647Y39319D01*
X29639Y38983D01*
X30607Y38582D01*
X31546Y38118D01*
X32454Y37595D01*
X33325Y37013D01*
X34156Y36375D01*
X34943Y35684D01*
X35684Y34943D01*
X36375Y34156D01*
X37013Y33325D01*
X37595Y32454D01*
X38118Y31546D01*
X38582Y30607D01*
X38983Y29639D01*
X39319Y28647D01*
X39590Y27635D01*
X39795Y26608D01*
X39932Y25569D01*
X40000Y24524D01*
X40000Y23476D01*
X216000Y199476D02*
X215932Y198431D01*
X215795Y197392D01*
X215590Y196365D01*
X215319Y195353D01*
X214983Y194361D01*
X214582Y193393D01*
X214118Y192454D01*
X213595Y191546D01*
X213013Y190675D01*
X212375Y189844D01*
X211684Y189057D01*
X210943Y188316D01*
X210156Y187625D01*
X209325Y186988D01*
X208454Y186406D01*
X207546Y185882D01*
X206607Y185418D01*
X205639Y185017D01*
X204647Y184681D01*
X203635Y184410D01*
X202608Y184205D01*
X201569Y184069D01*
X200524Y184000D01*
X199476Y184000D01*
X198431Y184069D01*
X197392Y184205D01*
X196365Y184410D01*
X195353Y184681D01*
X194361Y185017D01*
X193393Y185418D01*
X192454Y185882D01*
X191546Y186406D01*
X190675Y186988D01*
X189844Y187625D01*
X189057Y188316D01*
X188316Y189057D01*
X187625Y189844D01*
X186988Y190675D01*
X186406Y191546D01*
X185882Y192454D01*
X185418Y193393D01*
X185017Y194361D01*
X184681Y195353D01*
X184410Y196365D01*
X184205Y197392D01*
X184069Y198431D01*
X184000Y199476D01*
X184000Y200524D01*
X184069Y201569D01*
X184205Y202608D01*
X184410Y203635D01*
X184681Y204647D01*
X185017Y205639D01*
X185418Y206607D01*
X185882Y207546D01*
X186406Y208454D01*
X186988Y209325D01*
X187625Y210156D01*
X188316Y210943D01*
X189057Y211684D01*
X189844Y212375D01*
X190675Y213013D01*
X191546Y213595D01*
X192454Y214118D01*
X193393Y214582D01*
X194361Y214983D01*
X195353Y215319D01*
X196365Y215590D01*
X197392Y215795D01*
X198431Y215932D01*
X199476Y216000D01*
X200524Y216000D01*
X201569Y215932D01*
X202608Y215795D01*
X203635Y215590D01*
X204647Y215319D01*
X205639Y214983D01*
X206607Y214582D01*
X207546Y214118D01*
X208454Y213595D01*
X209325Y213013D01*
X210156Y212375D01*
X210943Y211684D01*
X211684Y210943D01*
X212375Y210156D01*
X213013Y209325D01*
X213595Y208454D01*
X214118Y207546D01*
X214582Y206607D01*
X214983Y205639D01*
X215319Y204647D01*
X215590Y203635D01*
X215795Y202608D01*
X215932Y201569D01*
X216000Y200524D01*
X216000Y199476D01*
X40000Y375476D02*
X39932Y374431D01*
X39795Y373392D01*
X39590Y372365D01*
X39319Y371353D01*
X38983Y370361D01*
X38582Y369393D01*
X38118Y368454D01*
X37595Y367546D01*
X37013Y366675D01*
X36375Y365844D01*
X35684Y365057D01*
X34943Y364316D01*
X34156Y363625D01*
X33325Y362988D01*
X32454Y362406D01*
X31546Y361882D01*
X30607Y361418D01*
X29639Y361017D01*
X28647Y360681D01*
X27635Y360410D01*
X26608Y360205D01*
X25569Y360069D01*
X24524Y360000D01*
X23476Y360000D01*
X22431Y360069D01*
X21392Y360205D01*
X20365Y360410D01*
X19353Y360681D01*
X18361Y361017D01*
X17393Y361418D01*
X16454Y361882D01*
X15546Y362406D01*
X14675Y362988D01*
X13844Y363625D01*
X13057Y364316D01*
X12316Y365057D01*
X11625Y365844D01*
X10988Y366675D01*
X10406Y367546D01*
X9882Y368454D01*
X9418Y369393D01*
X9017Y370361D01*
X8681Y371353D01*
X8410Y372365D01*
X8205Y373392D01*
X8069Y374431D01*
X8000Y375476D01*
X8000Y376524D01*
X8069Y377569D01*
X8205Y378608D01*
X8410Y379635D01*
X8681Y380647D01*
X9017Y381639D01*
X9418Y382607D01*
X9882Y383546D01*
X10406Y384454D01*
X10988Y385325D01*
X11625Y386156D01*
X12316Y386943D01*
X13057Y387684D01*
X13844Y388375D01*
X14675Y389013D01*
X15546Y389595D01*
X16454Y390118D01*
X17393Y390582D01*
X18361Y390983D01*
X19353Y391319D01*
X20365Y391590D01*
X21392Y391795D01*
X22431Y391932D01*
X23476Y392000D01*
X24524Y392000D01*
X25569Y391932D01*
X26608Y391795D01*
X27635Y391590D01*
X28647Y391319D01*
X29639Y390983D01*
X30607Y390582D01*
X31546Y390118D01*
X32454Y389595D01*
X33325Y389013D01*
X34156Y388375D01*
X34943Y387684D01*
X35684Y386943D01*
X36375Y386156D01*
X37013Y385325D01*
X37595Y384454D01*
X38118Y383546D01*
X38582Y382607D01*
X38983Y381639D01*
X39319Y380647D01*
X39590Y379635D01*
X39795Y378608D01*
X39932Y377569D01*
X40000Y376524D01*
X40000Y375476D01*
X392000Y375476D02*
X391932Y374431D01*
X391795Y373392D01*
X391590Y372365D01*
X391319Y371353D01*
X390983Y370361D01*
X390582Y369393D01*
X390118Y368454D01*
X389595Y367546D01*
X389013Y366675D01*
X388375Y365844D01*
X387684Y365057D01*
X386943Y364316D01*
X386156Y363625D01*
X385325Y362988D01*
X384454Y362406D01*
X383546Y361882D01*
X382607Y361418D01*
X381639Y361017D01*
X380647Y360681D01*
X379635Y360410D01*
X378608Y360205D01*
X377569Y360069D01*
X376524Y360000D01*
X375476Y360000D01*
X374431Y360069D01*
X373392Y360205D01*
X372365Y360410D01*
X371353Y360681D01*
X370361Y361017D01*
X369393Y361418D01*
X368454Y361882D01*
X367546Y362406D01*
X366675Y362988D01*
X365844Y363625D01*
X365057Y364316D01*
X364316Y365057D01*
X363625Y365844D01*
X362988Y366675D01*
X362406Y367546D01*
X361882Y368454D01*
X361418Y369393D01*
X361017Y370361D01*
X360681Y371353D01*
X360410Y372365D01*
X360205Y373392D01*
X360069Y374431D01*
X360000Y375476D01*
X360000Y376524D01*
X360069Y377569D01*
X360205Y378608D01*
X360410Y379635D01*
X360681Y380647D01*
X361017Y381639D01*
X361418Y382607D01*
X361882Y383546D01*
X362406Y384454D01*
X362988Y385325D01*
X363625Y386156D01*
X364316Y386943D01*
X365057Y387684D01*
X365844Y388375D01*
X366675Y389013D01*
X367546Y389595D01*
X368454Y390118D01*
X369393Y390582D01*
X370361Y390983D01*
X371353Y391319D01*
X372365Y391590D01*
X373392Y391795D01*
X374431Y391932D01*
X375476Y392000D01*
X376524Y392000D01*
X377569Y391932D01*
X378608Y391795D01*
X379635Y391590D01*
X380647Y391319D01*
X381639Y390983D01*
X382607Y390582D01*
X383546Y390118D01*
X384454Y389595D01*
X385325Y389013D01*
X386156Y388375D01*
X386943Y387684D01*
X387684Y386943D01*
X388375Y386156D01*
X389013Y385325D01*
X389595Y384454D01*
X390118Y383546D01*
X390582Y382607D01*
X390983Y381639D01*
X391319Y380647D01*
X391590Y379635D01*
X391795Y378608D01*
X391932Y377569D01*
X392000Y376524D01*
X392000Y375476D01*
X392000Y23476D02*
X391932Y22431D01*
X391795Y21392D01*
X391590Y20365D01*
X391319Y19353D01*
X390983Y18361D01*
X390582Y17393D01*
X390118Y16454D01*
X389595Y15546D01*
X389013Y14675D01*
X388375Y13844D01*
X387684Y13057D01*
X386943Y12316D01*
X386156Y11625D01*
X385325Y10988D01*
X384454Y10406D01*
X383546Y9882D01*
X382607Y9418D01*
X381639Y9017D01*
X380647Y8681D01*
X379635Y8410D01*
X378608Y8205D01*
X377569Y8069D01*
X376524Y8000D01*
X375476Y8000D01*
X374431Y8069D01*
X373392Y8205D01*
X372365Y8410D01*
X371353Y8681D01*
X370361Y9017D01*
X369393Y9418D01*
X368454Y9882D01*
X367546Y10406D01*
X366675Y10988D01*
X365844Y11625D01*
X365057Y12316D01*
X364316Y13057D01*
X363625Y13844D01*
X362988Y14675D01*
X362406Y15546D01*
X361882Y16454D01*
X361418Y17393D01*
X361017Y18361D01*
X360681Y19353D01*
X360410Y20365D01*
X360205Y21392D01*
X360069Y22431D01*
X360000Y23476D01*
X360000Y24524D01*
X360069Y25569D01*
X360205Y26608D01*
X360410Y27635D01*
X360681Y28647D01*
X361017Y29639D01*
X361418Y30607D01*
X361882Y31546D01*
X362406Y32454D01*
X362988Y33325D01*
X363625Y34156D01*
X364316Y34943D01*
X365057Y35684D01*
X365844Y36375D01*
X366675Y37013D01*
X367546Y37595D01*
X368454Y38118D01*
X369393Y38582D01*
X370361Y38983D01*
X371353Y39319D01*
X372365Y39590D01*
X373392Y39795D01*
X374431Y39932D01*
X375476Y40000D01*
X376524Y40000D01*
X377569Y39932D01*
X378608Y39795D01*
X379635Y39590D01*
X380647Y39319D01*
X381639Y38983D01*
X382607Y38582D01*
X383546Y38118D01*
X384454Y37595D01*
X385325Y37013D01*
X386156Y36375D01*
X386943Y35684D01*
X387684Y34943D01*
X388375Y34156D01*
X389013Y33325D01*
X389595Y32454D01*
X390118Y31546D01*
X390582Y30607D01*
X390983Y29639D01*
X391319Y28647D01*
X391590Y27635D01*
X391795Y26608D01*
X391932Y25569D01*
X392000Y24524D01*
X392000Y23476D01*
M02*
