G04 EAGLE Gerber RS-274X export*
G75*
%MOMM*%
%FSLAX34Y34*%
%LPD*%
%INSilkscreen Top*%
%IPPOS*%
%AMOC8*
5,1,8,0,0,1.08239X$1,22.5*%
G01*
%ADD10C,0.010000*%
%ADD11C,0.101600*%
%ADD12C,0.076200*%
%ADD13C,0.127000*%
%ADD14C,0.200000*%
%ADD15C,0.100000*%
%ADD16C,0.050800*%
%ADD17C,0.203200*%


D10*
X120000Y200000D02*
X120024Y201963D01*
X120096Y203925D01*
X120217Y205885D01*
X120385Y207841D01*
X120602Y209793D01*
X120866Y211738D01*
X121178Y213677D01*
X121537Y215607D01*
X121944Y217528D01*
X122397Y219438D01*
X122898Y221337D01*
X123445Y223223D01*
X124038Y225095D01*
X124676Y226951D01*
X125361Y228792D01*
X126090Y230615D01*
X126863Y232419D01*
X127681Y234204D01*
X128542Y235969D01*
X129446Y237712D01*
X130393Y239432D01*
X131382Y241128D01*
X132412Y242800D01*
X133482Y244446D01*
X134593Y246065D01*
X135743Y247656D01*
X136932Y249219D01*
X138159Y250751D01*
X139423Y252254D01*
X140724Y253725D01*
X142060Y255163D01*
X143431Y256569D01*
X144837Y257940D01*
X146275Y259276D01*
X147746Y260577D01*
X149249Y261841D01*
X150781Y263068D01*
X152344Y264257D01*
X153935Y265407D01*
X155554Y266518D01*
X157200Y267588D01*
X158872Y268618D01*
X160568Y269607D01*
X162288Y270554D01*
X164031Y271458D01*
X165796Y272319D01*
X167581Y273137D01*
X169385Y273910D01*
X171208Y274639D01*
X173049Y275324D01*
X174905Y275962D01*
X176777Y276555D01*
X178663Y277102D01*
X180562Y277603D01*
X182472Y278056D01*
X184393Y278463D01*
X186323Y278822D01*
X188262Y279134D01*
X190207Y279398D01*
X192159Y279615D01*
X194115Y279783D01*
X196075Y279904D01*
X198037Y279976D01*
X200000Y280000D01*
X201963Y279976D01*
X203925Y279904D01*
X205885Y279783D01*
X207841Y279615D01*
X209793Y279398D01*
X211738Y279134D01*
X213677Y278822D01*
X215607Y278463D01*
X217528Y278056D01*
X219438Y277603D01*
X221337Y277102D01*
X223223Y276555D01*
X225095Y275962D01*
X226951Y275324D01*
X228792Y274639D01*
X230615Y273910D01*
X232419Y273137D01*
X234204Y272319D01*
X235969Y271458D01*
X237712Y270554D01*
X239432Y269607D01*
X241128Y268618D01*
X242800Y267588D01*
X244446Y266518D01*
X246065Y265407D01*
X247656Y264257D01*
X249219Y263068D01*
X250751Y261841D01*
X252254Y260577D01*
X253725Y259276D01*
X255163Y257940D01*
X256569Y256569D01*
X257940Y255163D01*
X259276Y253725D01*
X260577Y252254D01*
X261841Y250751D01*
X263068Y249219D01*
X264257Y247656D01*
X265407Y246065D01*
X266518Y244446D01*
X267588Y242800D01*
X268618Y241128D01*
X269607Y239432D01*
X270554Y237712D01*
X271458Y235969D01*
X272319Y234204D01*
X273137Y232419D01*
X273910Y230615D01*
X274639Y228792D01*
X275324Y226951D01*
X275962Y225095D01*
X276555Y223223D01*
X277102Y221337D01*
X277603Y219438D01*
X278056Y217528D01*
X278463Y215607D01*
X278822Y213677D01*
X279134Y211738D01*
X279398Y209793D01*
X279615Y207841D01*
X279783Y205885D01*
X279904Y203925D01*
X279976Y201963D01*
X280000Y200000D01*
X279976Y198037D01*
X279904Y196075D01*
X279783Y194115D01*
X279615Y192159D01*
X279398Y190207D01*
X279134Y188262D01*
X278822Y186323D01*
X278463Y184393D01*
X278056Y182472D01*
X277603Y180562D01*
X277102Y178663D01*
X276555Y176777D01*
X275962Y174905D01*
X275324Y173049D01*
X274639Y171208D01*
X273910Y169385D01*
X273137Y167581D01*
X272319Y165796D01*
X271458Y164031D01*
X270554Y162288D01*
X269607Y160568D01*
X268618Y158872D01*
X267588Y157200D01*
X266518Y155554D01*
X265407Y153935D01*
X264257Y152344D01*
X263068Y150781D01*
X261841Y149249D01*
X260577Y147746D01*
X259276Y146275D01*
X257940Y144837D01*
X256569Y143431D01*
X255163Y142060D01*
X253725Y140724D01*
X252254Y139423D01*
X250751Y138159D01*
X249219Y136932D01*
X247656Y135743D01*
X246065Y134593D01*
X244446Y133482D01*
X242800Y132412D01*
X241128Y131382D01*
X239432Y130393D01*
X237712Y129446D01*
X235969Y128542D01*
X234204Y127681D01*
X232419Y126863D01*
X230615Y126090D01*
X228792Y125361D01*
X226951Y124676D01*
X225095Y124038D01*
X223223Y123445D01*
X221337Y122898D01*
X219438Y122397D01*
X217528Y121944D01*
X215607Y121537D01*
X213677Y121178D01*
X211738Y120866D01*
X209793Y120602D01*
X207841Y120385D01*
X205885Y120217D01*
X203925Y120096D01*
X201963Y120024D01*
X200000Y120000D01*
X198037Y120024D01*
X196075Y120096D01*
X194115Y120217D01*
X192159Y120385D01*
X190207Y120602D01*
X188262Y120866D01*
X186323Y121178D01*
X184393Y121537D01*
X182472Y121944D01*
X180562Y122397D01*
X178663Y122898D01*
X176777Y123445D01*
X174905Y124038D01*
X173049Y124676D01*
X171208Y125361D01*
X169385Y126090D01*
X167581Y126863D01*
X165796Y127681D01*
X164031Y128542D01*
X162288Y129446D01*
X160568Y130393D01*
X158872Y131382D01*
X157200Y132412D01*
X155554Y133482D01*
X153935Y134593D01*
X152344Y135743D01*
X150781Y136932D01*
X149249Y138159D01*
X147746Y139423D01*
X146275Y140724D01*
X144837Y142060D01*
X143431Y143431D01*
X142060Y144837D01*
X140724Y146275D01*
X139423Y147746D01*
X138159Y149249D01*
X136932Y150781D01*
X135743Y152344D01*
X134593Y153935D01*
X133482Y155554D01*
X132412Y157200D01*
X131382Y158872D01*
X130393Y160568D01*
X129446Y162288D01*
X128542Y164031D01*
X127681Y165796D01*
X126863Y167581D01*
X126090Y169385D01*
X125361Y171208D01*
X124676Y173049D01*
X124038Y174905D01*
X123445Y176777D01*
X122898Y178663D01*
X122397Y180562D01*
X121944Y182472D01*
X121537Y184393D01*
X121178Y186323D01*
X120866Y188262D01*
X120602Y190207D01*
X120385Y192159D01*
X120217Y194115D01*
X120096Y196075D01*
X120024Y198037D01*
X120000Y200000D01*
D11*
X131000Y132000D02*
X99000Y132000D01*
X131000Y132000D02*
X131000Y118000D01*
X99000Y118000D01*
X99000Y132000D01*
X99000Y112000D02*
X131000Y112000D01*
X131000Y98000D01*
X99000Y98000D01*
X99000Y112000D01*
X43000Y184000D02*
X43000Y215000D01*
X43000Y184000D02*
X57000Y184000D01*
X57000Y216000D01*
X43000Y216000D01*
X63000Y216000D02*
X77000Y216000D01*
X77000Y184000D01*
X63000Y184000D01*
X63000Y216000D01*
X184000Y247000D02*
X216000Y247000D01*
X216000Y233000D01*
X184000Y233000D01*
X184000Y247000D01*
X184000Y167000D02*
X216000Y167000D01*
X216000Y153000D01*
X184000Y153000D01*
X184000Y167000D01*
X184000Y77000D02*
X216000Y77000D01*
X216000Y63000D01*
X184000Y63000D01*
X184000Y77000D01*
X184000Y43000D02*
X216000Y43000D01*
X216000Y57000D01*
X184000Y57000D01*
X184000Y43000D01*
X323000Y216000D02*
X337000Y216000D01*
X337000Y184000D01*
X323000Y184000D01*
X323000Y216000D01*
X343000Y216000D02*
X343000Y184000D01*
X357000Y184000D01*
X357000Y216000D01*
X343000Y216000D01*
X184000Y343000D02*
X184000Y357000D01*
X184000Y343000D02*
X216000Y343000D01*
X216000Y357000D01*
X184000Y357000D01*
X184000Y340000D02*
X216000Y340000D01*
X216000Y326000D01*
X184000Y326000D01*
X184000Y340000D01*
D12*
X237381Y266089D02*
X244619Y263676D01*
X244619Y268501D02*
X237381Y266089D01*
X242810Y267898D02*
X242810Y264279D01*
X244619Y273451D02*
X244617Y273530D01*
X244611Y273609D01*
X244602Y273687D01*
X244588Y273765D01*
X244571Y273842D01*
X244550Y273918D01*
X244525Y273993D01*
X244497Y274066D01*
X244465Y274139D01*
X244429Y274209D01*
X244390Y274278D01*
X244348Y274344D01*
X244303Y274409D01*
X244254Y274471D01*
X244202Y274531D01*
X244148Y274588D01*
X244091Y274642D01*
X244031Y274694D01*
X243969Y274743D01*
X243904Y274788D01*
X243838Y274830D01*
X243769Y274869D01*
X243699Y274905D01*
X243626Y274937D01*
X243553Y274965D01*
X243478Y274990D01*
X243402Y275011D01*
X243325Y275028D01*
X243247Y275042D01*
X243169Y275051D01*
X243090Y275057D01*
X243011Y275059D01*
X244619Y273451D02*
X244617Y273339D01*
X244612Y273228D01*
X244602Y273116D01*
X244590Y273005D01*
X244573Y272895D01*
X244553Y272785D01*
X244529Y272675D01*
X244502Y272567D01*
X244471Y272460D01*
X244437Y272353D01*
X244399Y272248D01*
X244358Y272144D01*
X244313Y272042D01*
X244265Y271941D01*
X244214Y271841D01*
X244159Y271744D01*
X244101Y271648D01*
X244040Y271554D01*
X243977Y271463D01*
X243910Y271373D01*
X243840Y271286D01*
X243767Y271201D01*
X243692Y271118D01*
X243614Y271038D01*
X238989Y271240D02*
X238910Y271242D01*
X238831Y271248D01*
X238753Y271257D01*
X238675Y271271D01*
X238598Y271288D01*
X238522Y271309D01*
X238447Y271334D01*
X238374Y271362D01*
X238301Y271394D01*
X238231Y271430D01*
X238162Y271469D01*
X238096Y271511D01*
X238031Y271556D01*
X237969Y271605D01*
X237909Y271657D01*
X237852Y271711D01*
X237798Y271768D01*
X237746Y271828D01*
X237697Y271890D01*
X237652Y271955D01*
X237610Y272021D01*
X237571Y272090D01*
X237535Y272160D01*
X237503Y272233D01*
X237475Y272306D01*
X237450Y272381D01*
X237429Y272457D01*
X237412Y272534D01*
X237398Y272612D01*
X237389Y272690D01*
X237383Y272769D01*
X237381Y272848D01*
X237383Y272956D01*
X237389Y273063D01*
X237398Y273171D01*
X237412Y273278D01*
X237429Y273384D01*
X237450Y273490D01*
X237475Y273595D01*
X237504Y273699D01*
X237536Y273802D01*
X237572Y273903D01*
X237611Y274004D01*
X237654Y274103D01*
X237701Y274200D01*
X237751Y274295D01*
X237804Y274389D01*
X237861Y274481D01*
X237921Y274570D01*
X237984Y274658D01*
X240397Y272043D02*
X240356Y271978D01*
X240312Y271914D01*
X240266Y271853D01*
X240216Y271794D01*
X240164Y271737D01*
X240109Y271683D01*
X240052Y271632D01*
X239992Y271583D01*
X239930Y271537D01*
X239866Y271494D01*
X239800Y271454D01*
X239732Y271418D01*
X239662Y271384D01*
X239591Y271354D01*
X239519Y271327D01*
X239446Y271304D01*
X239371Y271284D01*
X239296Y271268D01*
X239220Y271255D01*
X239143Y271246D01*
X239066Y271241D01*
X238989Y271239D01*
X241603Y274256D02*
X241644Y274321D01*
X241688Y274385D01*
X241734Y274446D01*
X241784Y274505D01*
X241836Y274562D01*
X241891Y274616D01*
X241948Y274667D01*
X242008Y274716D01*
X242070Y274762D01*
X242134Y274805D01*
X242200Y274845D01*
X242268Y274881D01*
X242338Y274915D01*
X242409Y274945D01*
X242481Y274972D01*
X242554Y274995D01*
X242629Y275015D01*
X242704Y275031D01*
X242780Y275044D01*
X242857Y275053D01*
X242934Y275058D01*
X243011Y275060D01*
X241603Y274255D02*
X240397Y272043D01*
X238185Y277998D02*
X237381Y277998D01*
X237381Y282019D01*
X244619Y280009D01*
X237381Y287410D02*
X237383Y287494D01*
X237389Y287577D01*
X237398Y287660D01*
X237412Y287743D01*
X237429Y287824D01*
X237450Y287905D01*
X237475Y287985D01*
X237503Y288064D01*
X237535Y288141D01*
X237571Y288217D01*
X237610Y288291D01*
X237652Y288363D01*
X237698Y288433D01*
X237747Y288501D01*
X237799Y288566D01*
X237853Y288629D01*
X237911Y288690D01*
X237972Y288748D01*
X238035Y288802D01*
X238100Y288854D01*
X238168Y288903D01*
X238238Y288949D01*
X238310Y288991D01*
X238384Y289030D01*
X238460Y289066D01*
X238537Y289098D01*
X238616Y289126D01*
X238696Y289151D01*
X238777Y289172D01*
X238858Y289189D01*
X238941Y289203D01*
X239024Y289212D01*
X239107Y289218D01*
X239191Y289220D01*
X237381Y287410D02*
X237383Y287316D01*
X237389Y287222D01*
X237398Y287128D01*
X237412Y287034D01*
X237429Y286942D01*
X237450Y286850D01*
X237474Y286759D01*
X237502Y286669D01*
X237534Y286580D01*
X237570Y286492D01*
X237609Y286407D01*
X237651Y286322D01*
X237697Y286240D01*
X237746Y286159D01*
X237798Y286081D01*
X237854Y286005D01*
X237912Y285931D01*
X237974Y285859D01*
X238038Y285790D01*
X238105Y285724D01*
X238175Y285660D01*
X238247Y285600D01*
X238322Y285542D01*
X238399Y285487D01*
X238478Y285436D01*
X238559Y285388D01*
X238642Y285343D01*
X238726Y285301D01*
X238813Y285263D01*
X238901Y285229D01*
X238990Y285198D01*
X240599Y288616D02*
X240537Y288678D01*
X240473Y288737D01*
X240406Y288793D01*
X240336Y288846D01*
X240264Y288896D01*
X240190Y288943D01*
X240114Y288986D01*
X240036Y289026D01*
X239957Y289062D01*
X239876Y289094D01*
X239793Y289123D01*
X239709Y289149D01*
X239625Y289170D01*
X239539Y289188D01*
X239453Y289201D01*
X239366Y289211D01*
X239278Y289217D01*
X239191Y289219D01*
X240598Y288616D02*
X244619Y285198D01*
X244619Y289219D01*
X240598Y292398D02*
X240598Y294811D01*
X240600Y294890D01*
X240606Y294969D01*
X240615Y295047D01*
X240629Y295125D01*
X240646Y295202D01*
X240667Y295278D01*
X240692Y295353D01*
X240720Y295426D01*
X240752Y295499D01*
X240788Y295569D01*
X240827Y295638D01*
X240869Y295704D01*
X240914Y295769D01*
X240963Y295831D01*
X241015Y295891D01*
X241069Y295948D01*
X241126Y296002D01*
X241186Y296054D01*
X241248Y296103D01*
X241313Y296148D01*
X241379Y296190D01*
X241448Y296229D01*
X241518Y296265D01*
X241591Y296297D01*
X241664Y296325D01*
X241739Y296350D01*
X241815Y296371D01*
X241892Y296388D01*
X241970Y296402D01*
X242048Y296411D01*
X242127Y296417D01*
X242206Y296419D01*
X242608Y296419D01*
X242697Y296417D01*
X242786Y296411D01*
X242874Y296401D01*
X242962Y296388D01*
X243049Y296370D01*
X243136Y296349D01*
X243221Y296323D01*
X243305Y296294D01*
X243388Y296262D01*
X243469Y296225D01*
X243549Y296185D01*
X243626Y296142D01*
X243702Y296095D01*
X243776Y296045D01*
X243847Y295992D01*
X243916Y295936D01*
X243982Y295876D01*
X244046Y295814D01*
X244106Y295749D01*
X244164Y295682D01*
X244219Y295612D01*
X244271Y295539D01*
X244319Y295464D01*
X244364Y295388D01*
X244406Y295309D01*
X244444Y295229D01*
X244478Y295147D01*
X244509Y295063D01*
X244536Y294978D01*
X244560Y294893D01*
X244579Y294806D01*
X244595Y294718D01*
X244607Y294630D01*
X244615Y294541D01*
X244619Y294452D01*
X244619Y294364D01*
X244615Y294275D01*
X244607Y294186D01*
X244595Y294098D01*
X244579Y294010D01*
X244560Y293923D01*
X244536Y293838D01*
X244509Y293753D01*
X244478Y293669D01*
X244444Y293587D01*
X244406Y293507D01*
X244364Y293428D01*
X244319Y293352D01*
X244271Y293277D01*
X244219Y293204D01*
X244164Y293134D01*
X244106Y293067D01*
X244046Y293002D01*
X243982Y292940D01*
X243916Y292880D01*
X243847Y292824D01*
X243776Y292771D01*
X243702Y292721D01*
X243626Y292674D01*
X243549Y292631D01*
X243469Y292591D01*
X243388Y292554D01*
X243305Y292522D01*
X243221Y292493D01*
X243136Y292467D01*
X243049Y292446D01*
X242962Y292428D01*
X242874Y292415D01*
X242786Y292405D01*
X242697Y292399D01*
X242608Y292397D01*
X242608Y292398D02*
X240598Y292398D01*
X240486Y292400D01*
X240374Y292406D01*
X240262Y292416D01*
X240150Y292429D01*
X240039Y292447D01*
X239929Y292468D01*
X239820Y292494D01*
X239711Y292523D01*
X239604Y292555D01*
X239498Y292592D01*
X239393Y292632D01*
X239290Y292676D01*
X239188Y292724D01*
X239088Y292775D01*
X238990Y292829D01*
X238893Y292887D01*
X238799Y292948D01*
X238707Y293012D01*
X238617Y293080D01*
X238530Y293151D01*
X238445Y293224D01*
X238363Y293301D01*
X238284Y293380D01*
X238207Y293462D01*
X238134Y293547D01*
X238063Y293634D01*
X237995Y293724D01*
X237931Y293816D01*
X237870Y293910D01*
X237812Y294006D01*
X237758Y294105D01*
X237707Y294205D01*
X237659Y294306D01*
X237615Y294410D01*
X237575Y294515D01*
X237538Y294621D01*
X237506Y294728D01*
X237477Y294837D01*
X237451Y294946D01*
X237430Y295056D01*
X237412Y295167D01*
X237399Y295279D01*
X237389Y295391D01*
X237383Y295503D01*
X237381Y295615D01*
X238989Y299598D02*
X237381Y301608D01*
X244619Y301608D01*
X244619Y299598D02*
X244619Y303619D01*
D13*
X176504Y67255D02*
X175432Y67255D01*
X175367Y67257D01*
X175303Y67263D01*
X175239Y67273D01*
X175175Y67286D01*
X175113Y67304D01*
X175052Y67325D01*
X174992Y67349D01*
X174934Y67378D01*
X174877Y67410D01*
X174823Y67445D01*
X174771Y67483D01*
X174721Y67525D01*
X174674Y67569D01*
X174630Y67616D01*
X174588Y67666D01*
X174550Y67718D01*
X174515Y67772D01*
X174483Y67829D01*
X174454Y67887D01*
X174430Y67947D01*
X174409Y68008D01*
X174391Y68070D01*
X174378Y68134D01*
X174368Y68198D01*
X174362Y68262D01*
X174360Y68327D01*
X174359Y68327D02*
X174359Y71009D01*
X174360Y71009D02*
X174362Y71074D01*
X174368Y71138D01*
X174378Y71202D01*
X174391Y71266D01*
X174409Y71328D01*
X174430Y71389D01*
X174454Y71449D01*
X174483Y71507D01*
X174515Y71564D01*
X174550Y71618D01*
X174588Y71670D01*
X174630Y71720D01*
X174674Y71767D01*
X174721Y71811D01*
X174771Y71853D01*
X174823Y71891D01*
X174877Y71926D01*
X174934Y71958D01*
X174992Y71987D01*
X175052Y72011D01*
X175113Y72032D01*
X175175Y72050D01*
X175239Y72063D01*
X175303Y72073D01*
X175367Y72079D01*
X175432Y72081D01*
X176504Y72081D01*
X178960Y71009D02*
X180300Y72081D01*
X180300Y67255D01*
X178960Y67255D02*
X181641Y67255D01*
X191780Y80673D02*
X193120Y81745D01*
X193120Y76919D01*
X191780Y76919D02*
X194461Y76919D01*
X197266Y79332D02*
X197268Y79452D01*
X197273Y79572D01*
X197282Y79692D01*
X197295Y79812D01*
X197311Y79931D01*
X197331Y80050D01*
X197355Y80168D01*
X197382Y80285D01*
X197412Y80401D01*
X197446Y80516D01*
X197484Y80631D01*
X197525Y80744D01*
X197569Y80855D01*
X197617Y80966D01*
X197668Y81075D01*
X197669Y81075D02*
X197690Y81132D01*
X197716Y81188D01*
X197744Y81243D01*
X197776Y81295D01*
X197812Y81346D01*
X197850Y81394D01*
X197891Y81440D01*
X197935Y81483D01*
X197981Y81523D01*
X198030Y81560D01*
X198082Y81594D01*
X198135Y81625D01*
X198190Y81653D01*
X198246Y81677D01*
X198304Y81698D01*
X198363Y81715D01*
X198423Y81728D01*
X198484Y81737D01*
X198546Y81743D01*
X198607Y81745D01*
X198668Y81743D01*
X198730Y81737D01*
X198791Y81728D01*
X198851Y81715D01*
X198910Y81698D01*
X198968Y81677D01*
X199024Y81653D01*
X199079Y81625D01*
X199132Y81594D01*
X199184Y81560D01*
X199233Y81523D01*
X199279Y81483D01*
X199323Y81440D01*
X199364Y81394D01*
X199402Y81346D01*
X199438Y81295D01*
X199470Y81243D01*
X199498Y81188D01*
X199524Y81132D01*
X199545Y81075D01*
X199596Y80966D01*
X199644Y80855D01*
X199688Y80744D01*
X199729Y80631D01*
X199767Y80516D01*
X199801Y80401D01*
X199831Y80285D01*
X199858Y80168D01*
X199882Y80050D01*
X199902Y79931D01*
X199918Y79812D01*
X199931Y79692D01*
X199940Y79572D01*
X199945Y79452D01*
X199947Y79332D01*
X197266Y79332D02*
X197268Y79212D01*
X197273Y79092D01*
X197282Y78972D01*
X197295Y78852D01*
X197311Y78733D01*
X197331Y78614D01*
X197355Y78496D01*
X197382Y78379D01*
X197412Y78263D01*
X197446Y78148D01*
X197484Y78033D01*
X197525Y77920D01*
X197569Y77809D01*
X197617Y77698D01*
X197668Y77589D01*
X197669Y77589D02*
X197690Y77532D01*
X197716Y77476D01*
X197744Y77421D01*
X197776Y77369D01*
X197812Y77318D01*
X197850Y77270D01*
X197891Y77224D01*
X197935Y77181D01*
X197981Y77141D01*
X198030Y77104D01*
X198082Y77070D01*
X198135Y77039D01*
X198190Y77011D01*
X198246Y76987D01*
X198304Y76966D01*
X198363Y76949D01*
X198423Y76936D01*
X198484Y76927D01*
X198546Y76921D01*
X198607Y76919D01*
X199545Y77589D02*
X199596Y77698D01*
X199644Y77809D01*
X199688Y77920D01*
X199729Y78033D01*
X199767Y78148D01*
X199801Y78263D01*
X199831Y78379D01*
X199858Y78496D01*
X199882Y78614D01*
X199902Y78733D01*
X199918Y78852D01*
X199931Y78972D01*
X199940Y79092D01*
X199945Y79212D01*
X199947Y79332D01*
X199545Y77589D02*
X199524Y77532D01*
X199498Y77476D01*
X199470Y77421D01*
X199438Y77369D01*
X199402Y77318D01*
X199364Y77270D01*
X199323Y77224D01*
X199279Y77181D01*
X199232Y77141D01*
X199184Y77104D01*
X199132Y77070D01*
X199079Y77039D01*
X199024Y77011D01*
X198968Y76987D01*
X198910Y76966D01*
X198851Y76949D01*
X198791Y76936D01*
X198730Y76927D01*
X198668Y76921D01*
X198607Y76919D01*
X197534Y77991D02*
X199679Y80673D01*
X202838Y80136D02*
X202838Y77723D01*
X202840Y77668D01*
X202845Y77614D01*
X202855Y77559D01*
X202868Y77506D01*
X202884Y77454D01*
X202905Y77403D01*
X202928Y77353D01*
X202955Y77305D01*
X202985Y77259D01*
X203018Y77216D01*
X203054Y77174D01*
X203093Y77135D01*
X203135Y77099D01*
X203178Y77066D01*
X203224Y77036D01*
X203272Y77009D01*
X203322Y76986D01*
X203373Y76965D01*
X203425Y76949D01*
X203478Y76936D01*
X203533Y76926D01*
X203587Y76921D01*
X203642Y76919D01*
X204983Y76919D01*
X204983Y80136D01*
X208075Y81745D02*
X208075Y76919D01*
X208075Y81745D02*
X210220Y81745D01*
X210220Y79600D02*
X208075Y79600D01*
X71745Y175432D02*
X71745Y176504D01*
X71745Y175432D02*
X71743Y175367D01*
X71737Y175303D01*
X71727Y175239D01*
X71714Y175175D01*
X71696Y175113D01*
X71675Y175052D01*
X71651Y174992D01*
X71622Y174934D01*
X71590Y174877D01*
X71555Y174823D01*
X71517Y174771D01*
X71475Y174721D01*
X71431Y174674D01*
X71384Y174630D01*
X71334Y174588D01*
X71282Y174550D01*
X71228Y174515D01*
X71171Y174483D01*
X71113Y174454D01*
X71053Y174430D01*
X70992Y174409D01*
X70930Y174391D01*
X70866Y174378D01*
X70802Y174368D01*
X70738Y174362D01*
X70673Y174360D01*
X70673Y174359D02*
X67991Y174359D01*
X67926Y174361D01*
X67862Y174367D01*
X67798Y174377D01*
X67734Y174390D01*
X67672Y174408D01*
X67611Y174429D01*
X67551Y174454D01*
X67492Y174482D01*
X67436Y174514D01*
X67381Y174549D01*
X67329Y174587D01*
X67279Y174629D01*
X67232Y174673D01*
X67188Y174720D01*
X67146Y174770D01*
X67108Y174822D01*
X67073Y174877D01*
X67041Y174933D01*
X67013Y174992D01*
X66988Y175051D01*
X66967Y175113D01*
X66949Y175175D01*
X66936Y175239D01*
X66926Y175303D01*
X66920Y175367D01*
X66918Y175432D01*
X66919Y175432D02*
X66919Y176504D01*
X66919Y180434D02*
X66921Y180502D01*
X66927Y180569D01*
X66936Y180636D01*
X66949Y180703D01*
X66966Y180768D01*
X66987Y180833D01*
X67011Y180896D01*
X67039Y180958D01*
X67070Y181018D01*
X67104Y181076D01*
X67142Y181132D01*
X67182Y181187D01*
X67226Y181238D01*
X67273Y181287D01*
X67322Y181334D01*
X67373Y181378D01*
X67428Y181418D01*
X67484Y181456D01*
X67542Y181490D01*
X67602Y181521D01*
X67664Y181549D01*
X67727Y181573D01*
X67792Y181594D01*
X67857Y181611D01*
X67924Y181624D01*
X67991Y181633D01*
X68058Y181639D01*
X68126Y181641D01*
X66919Y180434D02*
X66921Y180356D01*
X66927Y180278D01*
X66937Y180201D01*
X66950Y180124D01*
X66968Y180048D01*
X66989Y179973D01*
X67014Y179899D01*
X67043Y179827D01*
X67075Y179756D01*
X67111Y179687D01*
X67150Y179619D01*
X67193Y179554D01*
X67239Y179491D01*
X67288Y179430D01*
X67340Y179372D01*
X67395Y179317D01*
X67452Y179264D01*
X67512Y179215D01*
X67575Y179168D01*
X67640Y179125D01*
X67706Y179085D01*
X67775Y179048D01*
X67846Y179015D01*
X67918Y178985D01*
X67992Y178959D01*
X69064Y181239D02*
X69015Y181288D01*
X68963Y181335D01*
X68908Y181378D01*
X68851Y181419D01*
X68792Y181457D01*
X68731Y181491D01*
X68668Y181522D01*
X68604Y181550D01*
X68538Y181574D01*
X68472Y181594D01*
X68404Y181611D01*
X68335Y181624D01*
X68266Y181633D01*
X68196Y181639D01*
X68126Y181641D01*
X69064Y181239D02*
X71745Y178960D01*
X71745Y181641D01*
X80327Y200580D02*
X79255Y201920D01*
X84081Y201920D01*
X84081Y200580D02*
X84081Y203261D01*
X81668Y206066D02*
X81548Y206068D01*
X81428Y206073D01*
X81308Y206082D01*
X81188Y206095D01*
X81069Y206111D01*
X80950Y206131D01*
X80832Y206155D01*
X80715Y206182D01*
X80599Y206212D01*
X80484Y206246D01*
X80369Y206284D01*
X80256Y206325D01*
X80145Y206369D01*
X80034Y206417D01*
X79925Y206468D01*
X79925Y206469D02*
X79868Y206490D01*
X79812Y206516D01*
X79757Y206544D01*
X79705Y206576D01*
X79654Y206612D01*
X79606Y206650D01*
X79560Y206691D01*
X79517Y206735D01*
X79477Y206781D01*
X79440Y206830D01*
X79406Y206882D01*
X79375Y206935D01*
X79347Y206990D01*
X79323Y207046D01*
X79302Y207104D01*
X79285Y207163D01*
X79272Y207223D01*
X79263Y207284D01*
X79257Y207346D01*
X79255Y207407D01*
X79257Y207468D01*
X79263Y207530D01*
X79272Y207591D01*
X79285Y207651D01*
X79302Y207710D01*
X79323Y207768D01*
X79347Y207824D01*
X79375Y207879D01*
X79406Y207932D01*
X79440Y207984D01*
X79477Y208033D01*
X79517Y208079D01*
X79560Y208123D01*
X79606Y208164D01*
X79654Y208202D01*
X79705Y208238D01*
X79757Y208270D01*
X79812Y208298D01*
X79868Y208324D01*
X79925Y208345D01*
X80034Y208396D01*
X80145Y208444D01*
X80256Y208488D01*
X80369Y208529D01*
X80484Y208567D01*
X80599Y208601D01*
X80715Y208631D01*
X80832Y208658D01*
X80950Y208682D01*
X81069Y208702D01*
X81188Y208718D01*
X81308Y208731D01*
X81428Y208740D01*
X81548Y208745D01*
X81668Y208747D01*
X81668Y206066D02*
X81788Y206068D01*
X81908Y206073D01*
X82028Y206082D01*
X82148Y206095D01*
X82267Y206111D01*
X82386Y206131D01*
X82504Y206155D01*
X82621Y206182D01*
X82737Y206212D01*
X82852Y206246D01*
X82967Y206284D01*
X83080Y206325D01*
X83191Y206369D01*
X83302Y206417D01*
X83411Y206468D01*
X83411Y206469D02*
X83468Y206490D01*
X83524Y206516D01*
X83579Y206544D01*
X83631Y206576D01*
X83682Y206612D01*
X83730Y206650D01*
X83776Y206691D01*
X83819Y206735D01*
X83859Y206781D01*
X83896Y206830D01*
X83930Y206882D01*
X83961Y206935D01*
X83989Y206990D01*
X84013Y207046D01*
X84034Y207104D01*
X84051Y207163D01*
X84064Y207223D01*
X84073Y207284D01*
X84079Y207346D01*
X84081Y207407D01*
X83411Y208345D02*
X83302Y208396D01*
X83191Y208444D01*
X83080Y208488D01*
X82967Y208529D01*
X82852Y208567D01*
X82737Y208601D01*
X82621Y208631D01*
X82504Y208658D01*
X82386Y208682D01*
X82267Y208702D01*
X82148Y208718D01*
X82028Y208731D01*
X81908Y208740D01*
X81788Y208745D01*
X81668Y208747D01*
X83411Y208345D02*
X83468Y208324D01*
X83524Y208298D01*
X83579Y208270D01*
X83631Y208238D01*
X83682Y208202D01*
X83730Y208164D01*
X83776Y208123D01*
X83819Y208079D01*
X83859Y208032D01*
X83896Y207984D01*
X83930Y207932D01*
X83961Y207879D01*
X83989Y207824D01*
X84013Y207768D01*
X84034Y207710D01*
X84051Y207651D01*
X84064Y207591D01*
X84073Y207530D01*
X84079Y207468D01*
X84081Y207407D01*
X83009Y206334D02*
X80327Y208479D01*
X80864Y211638D02*
X83277Y211638D01*
X83332Y211640D01*
X83386Y211645D01*
X83441Y211655D01*
X83494Y211668D01*
X83546Y211684D01*
X83597Y211705D01*
X83647Y211728D01*
X83695Y211755D01*
X83741Y211785D01*
X83784Y211818D01*
X83826Y211854D01*
X83865Y211893D01*
X83901Y211935D01*
X83934Y211978D01*
X83964Y212024D01*
X83991Y212072D01*
X84014Y212122D01*
X84035Y212173D01*
X84051Y212225D01*
X84064Y212278D01*
X84074Y212333D01*
X84079Y212387D01*
X84081Y212442D01*
X84081Y213783D01*
X80864Y213783D01*
X79255Y216875D02*
X84081Y216875D01*
X79255Y216875D02*
X79255Y219020D01*
X81400Y219020D02*
X81400Y216875D01*
X52745Y176504D02*
X52745Y175432D01*
X52743Y175367D01*
X52737Y175303D01*
X52727Y175239D01*
X52714Y175175D01*
X52696Y175113D01*
X52675Y175052D01*
X52651Y174992D01*
X52622Y174934D01*
X52590Y174877D01*
X52555Y174823D01*
X52517Y174771D01*
X52475Y174721D01*
X52431Y174674D01*
X52384Y174630D01*
X52334Y174588D01*
X52282Y174550D01*
X52228Y174515D01*
X52171Y174483D01*
X52113Y174454D01*
X52053Y174430D01*
X51992Y174409D01*
X51930Y174391D01*
X51866Y174378D01*
X51802Y174368D01*
X51738Y174362D01*
X51673Y174360D01*
X51673Y174359D02*
X48991Y174359D01*
X48926Y174361D01*
X48862Y174367D01*
X48798Y174377D01*
X48734Y174390D01*
X48672Y174408D01*
X48611Y174429D01*
X48551Y174454D01*
X48492Y174482D01*
X48436Y174514D01*
X48381Y174549D01*
X48329Y174587D01*
X48279Y174629D01*
X48232Y174673D01*
X48188Y174720D01*
X48146Y174770D01*
X48108Y174822D01*
X48073Y174877D01*
X48041Y174933D01*
X48013Y174992D01*
X47988Y175051D01*
X47967Y175113D01*
X47949Y175175D01*
X47936Y175239D01*
X47926Y175303D01*
X47920Y175367D01*
X47918Y175432D01*
X47919Y175432D02*
X47919Y176504D01*
X52745Y178960D02*
X52745Y180300D01*
X52743Y180371D01*
X52737Y180443D01*
X52728Y180513D01*
X52715Y180583D01*
X52698Y180653D01*
X52677Y180721D01*
X52653Y180788D01*
X52625Y180854D01*
X52594Y180918D01*
X52559Y180981D01*
X52521Y181041D01*
X52480Y181100D01*
X52436Y181156D01*
X52389Y181210D01*
X52340Y181261D01*
X52287Y181309D01*
X52232Y181355D01*
X52175Y181397D01*
X52115Y181437D01*
X52054Y181473D01*
X51990Y181506D01*
X51925Y181535D01*
X51859Y181561D01*
X51791Y181584D01*
X51722Y181603D01*
X51652Y181618D01*
X51582Y181629D01*
X51511Y181637D01*
X51440Y181641D01*
X51368Y181641D01*
X51297Y181637D01*
X51226Y181629D01*
X51156Y181618D01*
X51086Y181603D01*
X51017Y181584D01*
X50949Y181561D01*
X50883Y181535D01*
X50818Y181506D01*
X50754Y181473D01*
X50693Y181437D01*
X50633Y181397D01*
X50576Y181355D01*
X50521Y181309D01*
X50468Y181261D01*
X50419Y181210D01*
X50372Y181156D01*
X50328Y181100D01*
X50287Y181041D01*
X50249Y180981D01*
X50214Y180918D01*
X50183Y180854D01*
X50155Y180788D01*
X50131Y180721D01*
X50110Y180653D01*
X50093Y180583D01*
X50080Y180513D01*
X50071Y180443D01*
X50065Y180371D01*
X50063Y180300D01*
X47919Y180568D02*
X47919Y178960D01*
X47919Y180568D02*
X47921Y180633D01*
X47927Y180697D01*
X47937Y180761D01*
X47950Y180825D01*
X47968Y180887D01*
X47989Y180948D01*
X48013Y181008D01*
X48042Y181066D01*
X48074Y181123D01*
X48109Y181177D01*
X48147Y181229D01*
X48189Y181279D01*
X48233Y181326D01*
X48280Y181370D01*
X48330Y181412D01*
X48382Y181450D01*
X48436Y181485D01*
X48493Y181517D01*
X48551Y181546D01*
X48611Y181570D01*
X48672Y181591D01*
X48734Y181609D01*
X48798Y181622D01*
X48862Y181632D01*
X48926Y181638D01*
X48991Y181640D01*
X49056Y181638D01*
X49120Y181632D01*
X49184Y181622D01*
X49248Y181609D01*
X49310Y181591D01*
X49371Y181570D01*
X49431Y181546D01*
X49489Y181517D01*
X49546Y181485D01*
X49600Y181450D01*
X49652Y181412D01*
X49702Y181370D01*
X49749Y181326D01*
X49793Y181279D01*
X49835Y181229D01*
X49873Y181177D01*
X49908Y181123D01*
X49940Y181066D01*
X49969Y181008D01*
X49993Y180948D01*
X50014Y180887D01*
X50032Y180825D01*
X50045Y180761D01*
X50055Y180697D01*
X50061Y180633D01*
X50063Y180568D01*
X50064Y180568D02*
X50064Y179496D01*
X37327Y195837D02*
X36255Y197177D01*
X41081Y197177D01*
X41081Y195837D02*
X41081Y198518D01*
X38668Y201323D02*
X38548Y201325D01*
X38428Y201330D01*
X38308Y201339D01*
X38188Y201352D01*
X38069Y201368D01*
X37950Y201388D01*
X37832Y201412D01*
X37715Y201439D01*
X37599Y201469D01*
X37484Y201503D01*
X37369Y201541D01*
X37256Y201582D01*
X37145Y201626D01*
X37034Y201674D01*
X36925Y201725D01*
X36868Y201746D01*
X36812Y201772D01*
X36757Y201800D01*
X36705Y201832D01*
X36654Y201868D01*
X36606Y201906D01*
X36560Y201947D01*
X36517Y201991D01*
X36477Y202037D01*
X36440Y202086D01*
X36406Y202138D01*
X36375Y202191D01*
X36347Y202246D01*
X36323Y202302D01*
X36302Y202360D01*
X36285Y202419D01*
X36272Y202479D01*
X36263Y202540D01*
X36257Y202602D01*
X36255Y202663D01*
X36257Y202724D01*
X36263Y202786D01*
X36272Y202847D01*
X36285Y202907D01*
X36302Y202966D01*
X36323Y203024D01*
X36347Y203080D01*
X36375Y203135D01*
X36406Y203188D01*
X36440Y203240D01*
X36477Y203289D01*
X36517Y203335D01*
X36560Y203379D01*
X36606Y203420D01*
X36654Y203458D01*
X36705Y203494D01*
X36757Y203526D01*
X36812Y203554D01*
X36868Y203580D01*
X36925Y203601D01*
X36925Y203602D02*
X37034Y203653D01*
X37145Y203701D01*
X37256Y203745D01*
X37369Y203786D01*
X37484Y203824D01*
X37599Y203858D01*
X37715Y203888D01*
X37832Y203915D01*
X37950Y203939D01*
X38069Y203959D01*
X38188Y203975D01*
X38308Y203988D01*
X38428Y203997D01*
X38548Y204002D01*
X38668Y204004D01*
X38668Y201323D02*
X38788Y201325D01*
X38908Y201330D01*
X39028Y201339D01*
X39148Y201352D01*
X39267Y201368D01*
X39386Y201388D01*
X39504Y201412D01*
X39621Y201439D01*
X39737Y201469D01*
X39852Y201503D01*
X39967Y201541D01*
X40080Y201582D01*
X40191Y201626D01*
X40302Y201674D01*
X40411Y201725D01*
X40468Y201746D01*
X40524Y201772D01*
X40579Y201800D01*
X40631Y201832D01*
X40682Y201868D01*
X40730Y201906D01*
X40776Y201947D01*
X40819Y201991D01*
X40859Y202037D01*
X40896Y202086D01*
X40930Y202138D01*
X40961Y202191D01*
X40989Y202246D01*
X41013Y202302D01*
X41034Y202360D01*
X41051Y202419D01*
X41064Y202479D01*
X41073Y202540D01*
X41079Y202602D01*
X41081Y202663D01*
X40411Y203602D02*
X40302Y203653D01*
X40191Y203701D01*
X40080Y203745D01*
X39967Y203786D01*
X39852Y203824D01*
X39737Y203858D01*
X39621Y203888D01*
X39504Y203915D01*
X39386Y203939D01*
X39267Y203959D01*
X39148Y203975D01*
X39028Y203988D01*
X38908Y203997D01*
X38788Y204002D01*
X38668Y204004D01*
X40411Y203601D02*
X40468Y203580D01*
X40524Y203554D01*
X40579Y203526D01*
X40631Y203494D01*
X40682Y203458D01*
X40730Y203420D01*
X40776Y203379D01*
X40819Y203335D01*
X40859Y203288D01*
X40896Y203240D01*
X40930Y203188D01*
X40961Y203135D01*
X40989Y203080D01*
X41013Y203024D01*
X41034Y202966D01*
X41051Y202907D01*
X41064Y202847D01*
X41073Y202786D01*
X41079Y202724D01*
X41081Y202663D01*
X40009Y201591D02*
X37327Y203736D01*
X38668Y206809D02*
X38548Y206811D01*
X38428Y206816D01*
X38308Y206825D01*
X38188Y206838D01*
X38069Y206854D01*
X37950Y206874D01*
X37832Y206898D01*
X37715Y206925D01*
X37599Y206955D01*
X37484Y206989D01*
X37369Y207027D01*
X37256Y207068D01*
X37145Y207112D01*
X37034Y207160D01*
X36925Y207211D01*
X36925Y207212D02*
X36868Y207233D01*
X36812Y207259D01*
X36757Y207287D01*
X36705Y207319D01*
X36654Y207355D01*
X36606Y207393D01*
X36560Y207434D01*
X36517Y207478D01*
X36477Y207524D01*
X36440Y207573D01*
X36406Y207625D01*
X36375Y207678D01*
X36347Y207733D01*
X36323Y207789D01*
X36302Y207847D01*
X36285Y207906D01*
X36272Y207966D01*
X36263Y208027D01*
X36257Y208089D01*
X36255Y208150D01*
X36257Y208211D01*
X36263Y208273D01*
X36272Y208334D01*
X36285Y208394D01*
X36302Y208453D01*
X36323Y208511D01*
X36347Y208567D01*
X36375Y208622D01*
X36406Y208675D01*
X36440Y208727D01*
X36477Y208776D01*
X36517Y208822D01*
X36560Y208866D01*
X36606Y208907D01*
X36654Y208945D01*
X36705Y208981D01*
X36757Y209013D01*
X36812Y209041D01*
X36868Y209067D01*
X36925Y209088D01*
X37034Y209139D01*
X37145Y209187D01*
X37256Y209231D01*
X37369Y209272D01*
X37484Y209310D01*
X37599Y209344D01*
X37715Y209374D01*
X37832Y209401D01*
X37950Y209425D01*
X38069Y209445D01*
X38188Y209461D01*
X38308Y209474D01*
X38428Y209483D01*
X38548Y209488D01*
X38668Y209490D01*
X38668Y206809D02*
X38788Y206811D01*
X38908Y206816D01*
X39028Y206825D01*
X39148Y206838D01*
X39267Y206854D01*
X39386Y206874D01*
X39504Y206898D01*
X39621Y206925D01*
X39737Y206955D01*
X39852Y206989D01*
X39967Y207027D01*
X40080Y207068D01*
X40191Y207112D01*
X40302Y207160D01*
X40411Y207211D01*
X40411Y207212D02*
X40468Y207233D01*
X40524Y207259D01*
X40579Y207287D01*
X40631Y207319D01*
X40682Y207355D01*
X40730Y207393D01*
X40776Y207434D01*
X40819Y207478D01*
X40859Y207524D01*
X40896Y207573D01*
X40930Y207625D01*
X40961Y207678D01*
X40989Y207733D01*
X41013Y207789D01*
X41034Y207847D01*
X41051Y207906D01*
X41064Y207966D01*
X41073Y208027D01*
X41079Y208089D01*
X41081Y208150D01*
X40411Y209088D02*
X40302Y209139D01*
X40191Y209187D01*
X40080Y209231D01*
X39967Y209272D01*
X39852Y209310D01*
X39737Y209344D01*
X39621Y209374D01*
X39504Y209401D01*
X39386Y209425D01*
X39267Y209445D01*
X39148Y209461D01*
X39028Y209474D01*
X38908Y209483D01*
X38788Y209488D01*
X38668Y209490D01*
X40411Y209088D02*
X40468Y209067D01*
X40524Y209041D01*
X40579Y209013D01*
X40631Y208981D01*
X40682Y208945D01*
X40730Y208907D01*
X40776Y208866D01*
X40819Y208822D01*
X40859Y208775D01*
X40896Y208727D01*
X40930Y208675D01*
X40961Y208622D01*
X40989Y208567D01*
X41013Y208511D01*
X41034Y208453D01*
X41051Y208394D01*
X41064Y208334D01*
X41073Y208273D01*
X41079Y208211D01*
X41081Y208150D01*
X40009Y207077D02*
X37327Y209222D01*
X37864Y212381D02*
X41081Y212381D01*
X37864Y212381D02*
X37864Y213721D01*
X37866Y213776D01*
X37871Y213830D01*
X37881Y213885D01*
X37894Y213938D01*
X37910Y213990D01*
X37931Y214041D01*
X37954Y214091D01*
X37981Y214139D01*
X38011Y214185D01*
X38044Y214228D01*
X38080Y214270D01*
X38119Y214309D01*
X38161Y214345D01*
X38204Y214378D01*
X38250Y214408D01*
X38298Y214435D01*
X38348Y214458D01*
X38399Y214479D01*
X38451Y214495D01*
X38504Y214508D01*
X38558Y214518D01*
X38613Y214523D01*
X38668Y214525D01*
X38668Y214526D02*
X41081Y214526D01*
X41081Y217619D02*
X36255Y217619D01*
X36255Y219763D01*
X38400Y219763D02*
X38400Y217619D01*
X175432Y346919D02*
X176504Y346919D01*
X175432Y346919D02*
X175367Y346921D01*
X175303Y346927D01*
X175239Y346937D01*
X175175Y346950D01*
X175113Y346968D01*
X175052Y346989D01*
X174992Y347013D01*
X174934Y347042D01*
X174877Y347074D01*
X174823Y347109D01*
X174771Y347147D01*
X174721Y347189D01*
X174674Y347233D01*
X174630Y347280D01*
X174588Y347330D01*
X174550Y347382D01*
X174515Y347436D01*
X174483Y347493D01*
X174454Y347551D01*
X174430Y347611D01*
X174409Y347672D01*
X174391Y347734D01*
X174378Y347798D01*
X174368Y347862D01*
X174362Y347926D01*
X174360Y347991D01*
X174359Y347991D02*
X174359Y350673D01*
X174360Y350673D02*
X174362Y350738D01*
X174368Y350802D01*
X174378Y350866D01*
X174391Y350930D01*
X174409Y350992D01*
X174430Y351053D01*
X174454Y351113D01*
X174483Y351171D01*
X174515Y351228D01*
X174550Y351282D01*
X174588Y351334D01*
X174630Y351384D01*
X174674Y351431D01*
X174721Y351475D01*
X174771Y351517D01*
X174823Y351555D01*
X174877Y351590D01*
X174934Y351622D01*
X174992Y351651D01*
X175052Y351675D01*
X175113Y351696D01*
X175175Y351714D01*
X175239Y351727D01*
X175303Y351737D01*
X175367Y351743D01*
X175432Y351745D01*
X176504Y351745D01*
X180032Y351745D02*
X178960Y347991D01*
X181641Y347991D01*
X180837Y349064D02*
X180837Y346919D01*
X188037Y362009D02*
X189377Y363081D01*
X189377Y358255D01*
X188037Y358255D02*
X190718Y358255D01*
X193523Y360668D02*
X193525Y360788D01*
X193530Y360908D01*
X193539Y361028D01*
X193552Y361148D01*
X193568Y361267D01*
X193588Y361386D01*
X193612Y361504D01*
X193639Y361621D01*
X193669Y361737D01*
X193703Y361852D01*
X193741Y361967D01*
X193782Y362080D01*
X193826Y362191D01*
X193874Y362302D01*
X193925Y362411D01*
X193946Y362468D01*
X193972Y362524D01*
X194000Y362579D01*
X194032Y362631D01*
X194068Y362682D01*
X194106Y362730D01*
X194147Y362776D01*
X194191Y362819D01*
X194237Y362859D01*
X194286Y362896D01*
X194338Y362930D01*
X194391Y362961D01*
X194446Y362989D01*
X194502Y363013D01*
X194560Y363034D01*
X194619Y363051D01*
X194679Y363064D01*
X194740Y363073D01*
X194802Y363079D01*
X194863Y363081D01*
X194924Y363079D01*
X194986Y363073D01*
X195047Y363064D01*
X195107Y363051D01*
X195166Y363034D01*
X195224Y363013D01*
X195280Y362989D01*
X195335Y362961D01*
X195388Y362930D01*
X195440Y362896D01*
X195489Y362859D01*
X195535Y362819D01*
X195579Y362776D01*
X195620Y362730D01*
X195658Y362682D01*
X195694Y362631D01*
X195726Y362579D01*
X195754Y362524D01*
X195780Y362468D01*
X195801Y362411D01*
X195802Y362411D02*
X195853Y362302D01*
X195901Y362191D01*
X195945Y362080D01*
X195986Y361967D01*
X196024Y361852D01*
X196058Y361737D01*
X196088Y361621D01*
X196115Y361504D01*
X196139Y361386D01*
X196159Y361267D01*
X196175Y361148D01*
X196188Y361028D01*
X196197Y360908D01*
X196202Y360788D01*
X196204Y360668D01*
X193523Y360668D02*
X193525Y360548D01*
X193530Y360428D01*
X193539Y360308D01*
X193552Y360188D01*
X193568Y360069D01*
X193588Y359950D01*
X193612Y359832D01*
X193639Y359715D01*
X193669Y359599D01*
X193703Y359484D01*
X193741Y359369D01*
X193782Y359256D01*
X193826Y359145D01*
X193874Y359034D01*
X193925Y358925D01*
X193946Y358868D01*
X193972Y358812D01*
X194000Y358757D01*
X194032Y358705D01*
X194068Y358654D01*
X194106Y358606D01*
X194147Y358560D01*
X194191Y358517D01*
X194237Y358477D01*
X194286Y358440D01*
X194338Y358406D01*
X194391Y358375D01*
X194446Y358347D01*
X194502Y358323D01*
X194560Y358302D01*
X194619Y358285D01*
X194679Y358272D01*
X194740Y358263D01*
X194802Y358257D01*
X194863Y358255D01*
X195802Y358925D02*
X195853Y359034D01*
X195901Y359145D01*
X195945Y359256D01*
X195986Y359369D01*
X196024Y359484D01*
X196058Y359599D01*
X196088Y359715D01*
X196115Y359832D01*
X196139Y359950D01*
X196159Y360069D01*
X196175Y360188D01*
X196188Y360308D01*
X196197Y360428D01*
X196202Y360548D01*
X196204Y360668D01*
X195801Y358925D02*
X195780Y358868D01*
X195754Y358812D01*
X195726Y358757D01*
X195694Y358705D01*
X195658Y358654D01*
X195620Y358606D01*
X195579Y358560D01*
X195535Y358517D01*
X195488Y358477D01*
X195440Y358440D01*
X195388Y358406D01*
X195335Y358375D01*
X195280Y358347D01*
X195224Y358323D01*
X195166Y358302D01*
X195107Y358285D01*
X195047Y358272D01*
X194986Y358263D01*
X194924Y358257D01*
X194863Y358255D01*
X193791Y359327D02*
X195936Y362009D01*
X199009Y360668D02*
X199011Y360788D01*
X199016Y360908D01*
X199025Y361028D01*
X199038Y361148D01*
X199054Y361267D01*
X199074Y361386D01*
X199098Y361504D01*
X199125Y361621D01*
X199155Y361737D01*
X199189Y361852D01*
X199227Y361967D01*
X199268Y362080D01*
X199312Y362191D01*
X199360Y362302D01*
X199411Y362411D01*
X199412Y362411D02*
X199433Y362468D01*
X199459Y362524D01*
X199487Y362579D01*
X199519Y362631D01*
X199555Y362682D01*
X199593Y362730D01*
X199634Y362776D01*
X199678Y362819D01*
X199724Y362859D01*
X199773Y362896D01*
X199825Y362930D01*
X199878Y362961D01*
X199933Y362989D01*
X199989Y363013D01*
X200047Y363034D01*
X200106Y363051D01*
X200166Y363064D01*
X200227Y363073D01*
X200289Y363079D01*
X200350Y363081D01*
X200411Y363079D01*
X200473Y363073D01*
X200534Y363064D01*
X200594Y363051D01*
X200653Y363034D01*
X200711Y363013D01*
X200767Y362989D01*
X200822Y362961D01*
X200875Y362930D01*
X200927Y362896D01*
X200976Y362859D01*
X201022Y362819D01*
X201066Y362776D01*
X201107Y362730D01*
X201145Y362682D01*
X201181Y362631D01*
X201213Y362579D01*
X201241Y362524D01*
X201267Y362468D01*
X201288Y362411D01*
X201339Y362302D01*
X201387Y362191D01*
X201431Y362080D01*
X201472Y361967D01*
X201510Y361852D01*
X201544Y361737D01*
X201574Y361621D01*
X201601Y361504D01*
X201625Y361386D01*
X201645Y361267D01*
X201661Y361148D01*
X201674Y361028D01*
X201683Y360908D01*
X201688Y360788D01*
X201690Y360668D01*
X199009Y360668D02*
X199011Y360548D01*
X199016Y360428D01*
X199025Y360308D01*
X199038Y360188D01*
X199054Y360069D01*
X199074Y359950D01*
X199098Y359832D01*
X199125Y359715D01*
X199155Y359599D01*
X199189Y359484D01*
X199227Y359369D01*
X199268Y359256D01*
X199312Y359145D01*
X199360Y359034D01*
X199411Y358925D01*
X199412Y358925D02*
X199433Y358868D01*
X199459Y358812D01*
X199487Y358757D01*
X199519Y358705D01*
X199555Y358654D01*
X199593Y358606D01*
X199634Y358560D01*
X199678Y358517D01*
X199724Y358477D01*
X199773Y358440D01*
X199825Y358406D01*
X199878Y358375D01*
X199933Y358347D01*
X199989Y358323D01*
X200047Y358302D01*
X200106Y358285D01*
X200166Y358272D01*
X200227Y358263D01*
X200289Y358257D01*
X200350Y358255D01*
X201288Y358925D02*
X201339Y359034D01*
X201387Y359145D01*
X201431Y359256D01*
X201472Y359369D01*
X201510Y359484D01*
X201544Y359599D01*
X201574Y359715D01*
X201601Y359832D01*
X201625Y359950D01*
X201645Y360069D01*
X201661Y360188D01*
X201674Y360308D01*
X201683Y360428D01*
X201688Y360548D01*
X201690Y360668D01*
X201288Y358925D02*
X201267Y358868D01*
X201241Y358812D01*
X201213Y358757D01*
X201181Y358705D01*
X201145Y358654D01*
X201107Y358606D01*
X201066Y358560D01*
X201022Y358517D01*
X200975Y358477D01*
X200927Y358440D01*
X200875Y358406D01*
X200822Y358375D01*
X200767Y358347D01*
X200711Y358323D01*
X200653Y358302D01*
X200594Y358285D01*
X200534Y358272D01*
X200473Y358263D01*
X200411Y358257D01*
X200350Y358255D01*
X199277Y359327D02*
X201422Y362009D01*
X204581Y361472D02*
X204581Y358255D01*
X204581Y361472D02*
X205921Y361472D01*
X205976Y361470D01*
X206030Y361465D01*
X206085Y361455D01*
X206138Y361442D01*
X206190Y361426D01*
X206241Y361405D01*
X206291Y361382D01*
X206339Y361355D01*
X206385Y361325D01*
X206428Y361292D01*
X206470Y361256D01*
X206509Y361217D01*
X206545Y361175D01*
X206578Y361132D01*
X206608Y361086D01*
X206635Y361038D01*
X206658Y360988D01*
X206679Y360937D01*
X206695Y360885D01*
X206708Y360832D01*
X206718Y360777D01*
X206723Y360723D01*
X206725Y360668D01*
X206726Y360668D02*
X206726Y358255D01*
X209819Y358255D02*
X209819Y363081D01*
X211963Y363081D01*
X211963Y360936D02*
X209819Y360936D01*
X175504Y327919D02*
X174432Y327919D01*
X174367Y327921D01*
X174303Y327927D01*
X174239Y327937D01*
X174175Y327950D01*
X174113Y327968D01*
X174052Y327989D01*
X173992Y328013D01*
X173934Y328042D01*
X173877Y328074D01*
X173823Y328109D01*
X173771Y328147D01*
X173721Y328189D01*
X173674Y328233D01*
X173630Y328280D01*
X173588Y328330D01*
X173550Y328382D01*
X173515Y328436D01*
X173483Y328493D01*
X173454Y328551D01*
X173430Y328611D01*
X173409Y328672D01*
X173391Y328734D01*
X173378Y328798D01*
X173368Y328862D01*
X173362Y328926D01*
X173360Y328991D01*
X173359Y328991D02*
X173359Y331673D01*
X173360Y331673D02*
X173362Y331738D01*
X173368Y331802D01*
X173378Y331866D01*
X173391Y331930D01*
X173409Y331992D01*
X173430Y332053D01*
X173454Y332113D01*
X173483Y332171D01*
X173515Y332228D01*
X173550Y332282D01*
X173588Y332334D01*
X173630Y332384D01*
X173674Y332431D01*
X173721Y332475D01*
X173771Y332517D01*
X173823Y332555D01*
X173877Y332590D01*
X173934Y332622D01*
X173992Y332651D01*
X174052Y332675D01*
X174113Y332696D01*
X174175Y332714D01*
X174239Y332727D01*
X174303Y332737D01*
X174367Y332743D01*
X174432Y332745D01*
X175504Y332745D01*
X177960Y327919D02*
X179568Y327919D01*
X179633Y327921D01*
X179697Y327927D01*
X179761Y327937D01*
X179825Y327950D01*
X179887Y327968D01*
X179948Y327989D01*
X180008Y328013D01*
X180066Y328042D01*
X180123Y328074D01*
X180177Y328109D01*
X180229Y328147D01*
X180279Y328189D01*
X180326Y328233D01*
X180370Y328280D01*
X180412Y328330D01*
X180450Y328382D01*
X180485Y328436D01*
X180517Y328493D01*
X180546Y328551D01*
X180570Y328611D01*
X180591Y328672D01*
X180609Y328734D01*
X180622Y328798D01*
X180632Y328862D01*
X180638Y328926D01*
X180640Y328991D01*
X180641Y328991D02*
X180641Y329528D01*
X180640Y329528D02*
X180638Y329593D01*
X180632Y329657D01*
X180622Y329721D01*
X180609Y329785D01*
X180591Y329847D01*
X180570Y329908D01*
X180546Y329968D01*
X180517Y330026D01*
X180485Y330083D01*
X180450Y330137D01*
X180412Y330189D01*
X180370Y330239D01*
X180326Y330286D01*
X180279Y330330D01*
X180229Y330372D01*
X180177Y330410D01*
X180123Y330445D01*
X180066Y330477D01*
X180008Y330506D01*
X179948Y330530D01*
X179887Y330551D01*
X179825Y330569D01*
X179761Y330582D01*
X179697Y330592D01*
X179633Y330598D01*
X179568Y330600D01*
X177960Y330600D01*
X177960Y332745D01*
X180641Y332745D01*
X190780Y325009D02*
X192120Y326081D01*
X192120Y321255D01*
X190780Y321255D02*
X193461Y321255D01*
X196266Y323668D02*
X196268Y323788D01*
X196273Y323908D01*
X196282Y324028D01*
X196295Y324148D01*
X196311Y324267D01*
X196331Y324386D01*
X196355Y324504D01*
X196382Y324621D01*
X196412Y324737D01*
X196446Y324852D01*
X196484Y324967D01*
X196525Y325080D01*
X196569Y325191D01*
X196617Y325302D01*
X196668Y325411D01*
X196669Y325411D02*
X196690Y325468D01*
X196716Y325524D01*
X196744Y325579D01*
X196776Y325631D01*
X196812Y325682D01*
X196850Y325730D01*
X196891Y325776D01*
X196935Y325819D01*
X196981Y325859D01*
X197030Y325896D01*
X197082Y325930D01*
X197135Y325961D01*
X197190Y325989D01*
X197246Y326013D01*
X197304Y326034D01*
X197363Y326051D01*
X197423Y326064D01*
X197484Y326073D01*
X197546Y326079D01*
X197607Y326081D01*
X197668Y326079D01*
X197730Y326073D01*
X197791Y326064D01*
X197851Y326051D01*
X197910Y326034D01*
X197968Y326013D01*
X198024Y325989D01*
X198079Y325961D01*
X198132Y325930D01*
X198184Y325896D01*
X198233Y325859D01*
X198279Y325819D01*
X198323Y325776D01*
X198364Y325730D01*
X198402Y325682D01*
X198438Y325631D01*
X198470Y325579D01*
X198498Y325524D01*
X198524Y325468D01*
X198545Y325411D01*
X198596Y325302D01*
X198644Y325191D01*
X198688Y325080D01*
X198729Y324967D01*
X198767Y324852D01*
X198801Y324737D01*
X198831Y324621D01*
X198858Y324504D01*
X198882Y324386D01*
X198902Y324267D01*
X198918Y324148D01*
X198931Y324028D01*
X198940Y323908D01*
X198945Y323788D01*
X198947Y323668D01*
X196266Y323668D02*
X196268Y323548D01*
X196273Y323428D01*
X196282Y323308D01*
X196295Y323188D01*
X196311Y323069D01*
X196331Y322950D01*
X196355Y322832D01*
X196382Y322715D01*
X196412Y322599D01*
X196446Y322484D01*
X196484Y322369D01*
X196525Y322256D01*
X196569Y322145D01*
X196617Y322034D01*
X196668Y321925D01*
X196669Y321925D02*
X196690Y321868D01*
X196716Y321812D01*
X196744Y321757D01*
X196776Y321705D01*
X196812Y321654D01*
X196850Y321606D01*
X196891Y321560D01*
X196935Y321517D01*
X196981Y321477D01*
X197030Y321440D01*
X197082Y321406D01*
X197135Y321375D01*
X197190Y321347D01*
X197246Y321323D01*
X197304Y321302D01*
X197363Y321285D01*
X197423Y321272D01*
X197484Y321263D01*
X197546Y321257D01*
X197607Y321255D01*
X198545Y321925D02*
X198596Y322034D01*
X198644Y322145D01*
X198688Y322256D01*
X198729Y322369D01*
X198767Y322484D01*
X198801Y322599D01*
X198831Y322715D01*
X198858Y322832D01*
X198882Y322950D01*
X198902Y323069D01*
X198918Y323188D01*
X198931Y323308D01*
X198940Y323428D01*
X198945Y323548D01*
X198947Y323668D01*
X198545Y321925D02*
X198524Y321868D01*
X198498Y321812D01*
X198470Y321757D01*
X198438Y321705D01*
X198402Y321654D01*
X198364Y321606D01*
X198323Y321560D01*
X198279Y321517D01*
X198232Y321477D01*
X198184Y321440D01*
X198132Y321406D01*
X198079Y321375D01*
X198024Y321347D01*
X197968Y321323D01*
X197910Y321302D01*
X197851Y321285D01*
X197791Y321272D01*
X197730Y321263D01*
X197668Y321257D01*
X197607Y321255D01*
X196534Y322327D02*
X198679Y325009D01*
X201838Y324472D02*
X201838Y322059D01*
X201840Y322004D01*
X201845Y321950D01*
X201855Y321895D01*
X201868Y321842D01*
X201884Y321790D01*
X201905Y321739D01*
X201928Y321689D01*
X201955Y321641D01*
X201985Y321595D01*
X202018Y321552D01*
X202054Y321510D01*
X202093Y321471D01*
X202135Y321435D01*
X202178Y321402D01*
X202224Y321372D01*
X202272Y321345D01*
X202322Y321322D01*
X202373Y321301D01*
X202425Y321285D01*
X202478Y321272D01*
X202533Y321262D01*
X202587Y321257D01*
X202642Y321255D01*
X203983Y321255D01*
X203983Y324472D01*
X207075Y326081D02*
X207075Y321255D01*
X207075Y326081D02*
X209220Y326081D01*
X209220Y323936D02*
X207075Y323936D01*
X352861Y220604D02*
X352861Y219532D01*
X352859Y219467D01*
X352853Y219403D01*
X352843Y219339D01*
X352830Y219275D01*
X352812Y219213D01*
X352791Y219152D01*
X352767Y219092D01*
X352738Y219034D01*
X352706Y218977D01*
X352671Y218923D01*
X352633Y218871D01*
X352591Y218821D01*
X352547Y218774D01*
X352500Y218730D01*
X352450Y218688D01*
X352398Y218650D01*
X352344Y218615D01*
X352287Y218583D01*
X352229Y218554D01*
X352169Y218530D01*
X352108Y218509D01*
X352046Y218491D01*
X351982Y218478D01*
X351918Y218468D01*
X351854Y218462D01*
X351789Y218460D01*
X351789Y218459D02*
X349107Y218459D01*
X349042Y218461D01*
X348978Y218467D01*
X348914Y218477D01*
X348850Y218490D01*
X348788Y218508D01*
X348727Y218529D01*
X348667Y218554D01*
X348608Y218582D01*
X348552Y218614D01*
X348497Y218649D01*
X348445Y218687D01*
X348395Y218729D01*
X348348Y218773D01*
X348304Y218820D01*
X348262Y218870D01*
X348224Y218922D01*
X348189Y218977D01*
X348157Y219033D01*
X348129Y219092D01*
X348104Y219151D01*
X348083Y219213D01*
X348065Y219275D01*
X348052Y219339D01*
X348042Y219403D01*
X348036Y219467D01*
X348034Y219532D01*
X348035Y219532D02*
X348035Y220604D01*
X350180Y223060D02*
X350180Y224668D01*
X350182Y224733D01*
X350188Y224797D01*
X350198Y224861D01*
X350211Y224925D01*
X350229Y224987D01*
X350250Y225048D01*
X350274Y225108D01*
X350303Y225166D01*
X350335Y225223D01*
X350370Y225277D01*
X350408Y225329D01*
X350450Y225379D01*
X350494Y225426D01*
X350541Y225470D01*
X350591Y225512D01*
X350643Y225550D01*
X350697Y225585D01*
X350754Y225617D01*
X350812Y225646D01*
X350872Y225670D01*
X350933Y225691D01*
X350995Y225709D01*
X351059Y225722D01*
X351123Y225732D01*
X351187Y225738D01*
X351252Y225740D01*
X351252Y225741D02*
X351520Y225741D01*
X351591Y225739D01*
X351663Y225733D01*
X351733Y225724D01*
X351803Y225711D01*
X351873Y225694D01*
X351941Y225673D01*
X352008Y225649D01*
X352074Y225621D01*
X352138Y225590D01*
X352201Y225555D01*
X352261Y225517D01*
X352320Y225476D01*
X352376Y225432D01*
X352430Y225385D01*
X352481Y225336D01*
X352529Y225283D01*
X352575Y225228D01*
X352617Y225171D01*
X352657Y225111D01*
X352693Y225050D01*
X352726Y224986D01*
X352755Y224921D01*
X352781Y224855D01*
X352804Y224787D01*
X352823Y224718D01*
X352838Y224648D01*
X352849Y224578D01*
X352857Y224507D01*
X352861Y224436D01*
X352861Y224364D01*
X352857Y224293D01*
X352849Y224222D01*
X352838Y224152D01*
X352823Y224082D01*
X352804Y224013D01*
X352781Y223945D01*
X352755Y223879D01*
X352726Y223814D01*
X352693Y223750D01*
X352657Y223689D01*
X352617Y223629D01*
X352575Y223572D01*
X352529Y223517D01*
X352481Y223464D01*
X352430Y223415D01*
X352376Y223368D01*
X352320Y223324D01*
X352261Y223283D01*
X352201Y223245D01*
X352138Y223210D01*
X352074Y223179D01*
X352008Y223151D01*
X351941Y223127D01*
X351873Y223106D01*
X351803Y223089D01*
X351733Y223076D01*
X351663Y223067D01*
X351591Y223061D01*
X351520Y223059D01*
X351520Y223060D02*
X350180Y223060D01*
X350089Y223062D01*
X349998Y223068D01*
X349908Y223077D01*
X349817Y223091D01*
X349728Y223108D01*
X349640Y223129D01*
X349552Y223154D01*
X349465Y223183D01*
X349380Y223215D01*
X349296Y223250D01*
X349214Y223290D01*
X349134Y223332D01*
X349055Y223378D01*
X348979Y223428D01*
X348905Y223480D01*
X348832Y223536D01*
X348763Y223595D01*
X348696Y223656D01*
X348631Y223721D01*
X348570Y223788D01*
X348511Y223857D01*
X348455Y223929D01*
X348403Y224004D01*
X348353Y224080D01*
X348307Y224159D01*
X348265Y224239D01*
X348225Y224321D01*
X348190Y224405D01*
X348158Y224490D01*
X348129Y224577D01*
X348104Y224664D01*
X348083Y224753D01*
X348066Y224842D01*
X348052Y224932D01*
X348043Y225023D01*
X348037Y225114D01*
X348035Y225205D01*
X358819Y189377D02*
X359891Y188037D01*
X358819Y189377D02*
X363645Y189377D01*
X363645Y188037D02*
X363645Y190718D01*
X361232Y193523D02*
X361112Y193525D01*
X360992Y193530D01*
X360872Y193539D01*
X360752Y193552D01*
X360633Y193568D01*
X360514Y193588D01*
X360396Y193612D01*
X360279Y193639D01*
X360163Y193669D01*
X360048Y193703D01*
X359933Y193741D01*
X359820Y193782D01*
X359709Y193826D01*
X359598Y193874D01*
X359489Y193925D01*
X359432Y193946D01*
X359376Y193972D01*
X359321Y194000D01*
X359269Y194032D01*
X359218Y194068D01*
X359170Y194106D01*
X359124Y194147D01*
X359081Y194191D01*
X359041Y194237D01*
X359004Y194286D01*
X358970Y194338D01*
X358939Y194391D01*
X358911Y194446D01*
X358887Y194502D01*
X358866Y194560D01*
X358849Y194619D01*
X358836Y194679D01*
X358827Y194740D01*
X358821Y194802D01*
X358819Y194863D01*
X358821Y194924D01*
X358827Y194986D01*
X358836Y195047D01*
X358849Y195107D01*
X358866Y195166D01*
X358887Y195224D01*
X358911Y195280D01*
X358939Y195335D01*
X358970Y195388D01*
X359004Y195440D01*
X359041Y195489D01*
X359081Y195535D01*
X359124Y195579D01*
X359170Y195620D01*
X359218Y195658D01*
X359269Y195694D01*
X359321Y195726D01*
X359376Y195754D01*
X359432Y195780D01*
X359489Y195801D01*
X359489Y195802D02*
X359598Y195853D01*
X359709Y195901D01*
X359820Y195945D01*
X359933Y195986D01*
X360048Y196024D01*
X360163Y196058D01*
X360279Y196088D01*
X360396Y196115D01*
X360514Y196139D01*
X360633Y196159D01*
X360752Y196175D01*
X360872Y196188D01*
X360992Y196197D01*
X361112Y196202D01*
X361232Y196204D01*
X361232Y193523D02*
X361352Y193525D01*
X361472Y193530D01*
X361592Y193539D01*
X361712Y193552D01*
X361831Y193568D01*
X361950Y193588D01*
X362068Y193612D01*
X362185Y193639D01*
X362301Y193669D01*
X362416Y193703D01*
X362531Y193741D01*
X362644Y193782D01*
X362755Y193826D01*
X362866Y193874D01*
X362975Y193925D01*
X363032Y193946D01*
X363088Y193972D01*
X363143Y194000D01*
X363195Y194032D01*
X363246Y194068D01*
X363294Y194106D01*
X363340Y194147D01*
X363383Y194191D01*
X363423Y194237D01*
X363460Y194286D01*
X363494Y194338D01*
X363525Y194391D01*
X363553Y194446D01*
X363577Y194502D01*
X363598Y194560D01*
X363615Y194619D01*
X363628Y194679D01*
X363637Y194740D01*
X363643Y194802D01*
X363645Y194863D01*
X362975Y195802D02*
X362866Y195853D01*
X362755Y195901D01*
X362644Y195945D01*
X362531Y195986D01*
X362416Y196024D01*
X362301Y196058D01*
X362185Y196088D01*
X362068Y196115D01*
X361950Y196139D01*
X361831Y196159D01*
X361712Y196175D01*
X361592Y196188D01*
X361472Y196197D01*
X361352Y196202D01*
X361232Y196204D01*
X362975Y195801D02*
X363032Y195780D01*
X363088Y195754D01*
X363143Y195726D01*
X363195Y195694D01*
X363246Y195658D01*
X363294Y195620D01*
X363340Y195579D01*
X363383Y195535D01*
X363423Y195488D01*
X363460Y195440D01*
X363494Y195388D01*
X363525Y195335D01*
X363553Y195280D01*
X363577Y195224D01*
X363598Y195166D01*
X363615Y195107D01*
X363628Y195047D01*
X363637Y194986D01*
X363643Y194924D01*
X363645Y194863D01*
X362573Y193791D02*
X359891Y195936D01*
X361232Y199009D02*
X361112Y199011D01*
X360992Y199016D01*
X360872Y199025D01*
X360752Y199038D01*
X360633Y199054D01*
X360514Y199074D01*
X360396Y199098D01*
X360279Y199125D01*
X360163Y199155D01*
X360048Y199189D01*
X359933Y199227D01*
X359820Y199268D01*
X359709Y199312D01*
X359598Y199360D01*
X359489Y199411D01*
X359489Y199412D02*
X359432Y199433D01*
X359376Y199459D01*
X359321Y199487D01*
X359269Y199519D01*
X359218Y199555D01*
X359170Y199593D01*
X359124Y199634D01*
X359081Y199678D01*
X359041Y199724D01*
X359004Y199773D01*
X358970Y199825D01*
X358939Y199878D01*
X358911Y199933D01*
X358887Y199989D01*
X358866Y200047D01*
X358849Y200106D01*
X358836Y200166D01*
X358827Y200227D01*
X358821Y200289D01*
X358819Y200350D01*
X358821Y200411D01*
X358827Y200473D01*
X358836Y200534D01*
X358849Y200594D01*
X358866Y200653D01*
X358887Y200711D01*
X358911Y200767D01*
X358939Y200822D01*
X358970Y200875D01*
X359004Y200927D01*
X359041Y200976D01*
X359081Y201022D01*
X359124Y201066D01*
X359170Y201107D01*
X359218Y201145D01*
X359269Y201181D01*
X359321Y201213D01*
X359376Y201241D01*
X359432Y201267D01*
X359489Y201288D01*
X359598Y201339D01*
X359709Y201387D01*
X359820Y201431D01*
X359933Y201472D01*
X360048Y201510D01*
X360163Y201544D01*
X360279Y201574D01*
X360396Y201601D01*
X360514Y201625D01*
X360633Y201645D01*
X360752Y201661D01*
X360872Y201674D01*
X360992Y201683D01*
X361112Y201688D01*
X361232Y201690D01*
X361232Y199009D02*
X361352Y199011D01*
X361472Y199016D01*
X361592Y199025D01*
X361712Y199038D01*
X361831Y199054D01*
X361950Y199074D01*
X362068Y199098D01*
X362185Y199125D01*
X362301Y199155D01*
X362416Y199189D01*
X362531Y199227D01*
X362644Y199268D01*
X362755Y199312D01*
X362866Y199360D01*
X362975Y199411D01*
X362975Y199412D02*
X363032Y199433D01*
X363088Y199459D01*
X363143Y199487D01*
X363195Y199519D01*
X363246Y199555D01*
X363294Y199593D01*
X363340Y199634D01*
X363383Y199678D01*
X363423Y199724D01*
X363460Y199773D01*
X363494Y199825D01*
X363525Y199878D01*
X363553Y199933D01*
X363577Y199989D01*
X363598Y200047D01*
X363615Y200106D01*
X363628Y200166D01*
X363637Y200227D01*
X363643Y200289D01*
X363645Y200350D01*
X362975Y201288D02*
X362866Y201339D01*
X362755Y201387D01*
X362644Y201431D01*
X362531Y201472D01*
X362416Y201510D01*
X362301Y201544D01*
X362185Y201574D01*
X362068Y201601D01*
X361950Y201625D01*
X361831Y201645D01*
X361712Y201661D01*
X361592Y201674D01*
X361472Y201683D01*
X361352Y201688D01*
X361232Y201690D01*
X362975Y201288D02*
X363032Y201267D01*
X363088Y201241D01*
X363143Y201213D01*
X363195Y201181D01*
X363246Y201145D01*
X363294Y201107D01*
X363340Y201066D01*
X363383Y201022D01*
X363423Y200975D01*
X363460Y200927D01*
X363494Y200875D01*
X363525Y200822D01*
X363553Y200767D01*
X363577Y200711D01*
X363598Y200653D01*
X363615Y200594D01*
X363628Y200534D01*
X363637Y200473D01*
X363643Y200411D01*
X363645Y200350D01*
X362573Y199277D02*
X359891Y201422D01*
X360428Y204581D02*
X363645Y204581D01*
X360428Y204581D02*
X360428Y205921D01*
X360430Y205976D01*
X360435Y206030D01*
X360445Y206085D01*
X360458Y206138D01*
X360474Y206190D01*
X360495Y206241D01*
X360518Y206291D01*
X360545Y206339D01*
X360575Y206385D01*
X360608Y206428D01*
X360644Y206470D01*
X360683Y206509D01*
X360725Y206545D01*
X360768Y206578D01*
X360814Y206608D01*
X360862Y206635D01*
X360912Y206658D01*
X360963Y206679D01*
X361015Y206695D01*
X361068Y206708D01*
X361122Y206718D01*
X361177Y206723D01*
X361232Y206725D01*
X361232Y206726D02*
X363645Y206726D01*
X363645Y209819D02*
X358819Y209819D01*
X358819Y211963D01*
X360964Y211963D02*
X360964Y209819D01*
X332781Y219832D02*
X332781Y220904D01*
X332781Y219832D02*
X332779Y219767D01*
X332773Y219703D01*
X332763Y219639D01*
X332750Y219575D01*
X332732Y219513D01*
X332711Y219452D01*
X332687Y219392D01*
X332658Y219334D01*
X332626Y219277D01*
X332591Y219223D01*
X332553Y219171D01*
X332511Y219121D01*
X332467Y219074D01*
X332420Y219030D01*
X332370Y218988D01*
X332318Y218950D01*
X332264Y218915D01*
X332207Y218883D01*
X332149Y218854D01*
X332089Y218830D01*
X332028Y218809D01*
X331966Y218791D01*
X331902Y218778D01*
X331838Y218768D01*
X331774Y218762D01*
X331709Y218760D01*
X331709Y218759D02*
X329027Y218759D01*
X328962Y218761D01*
X328898Y218767D01*
X328834Y218777D01*
X328770Y218790D01*
X328708Y218808D01*
X328647Y218829D01*
X328587Y218854D01*
X328528Y218882D01*
X328472Y218914D01*
X328417Y218949D01*
X328365Y218987D01*
X328315Y219029D01*
X328268Y219073D01*
X328224Y219120D01*
X328182Y219170D01*
X328144Y219222D01*
X328109Y219277D01*
X328077Y219333D01*
X328049Y219392D01*
X328024Y219451D01*
X328003Y219513D01*
X327985Y219575D01*
X327972Y219639D01*
X327962Y219703D01*
X327956Y219767D01*
X327954Y219832D01*
X327955Y219832D02*
X327955Y220904D01*
X327955Y223360D02*
X328491Y223360D01*
X327955Y223360D02*
X327955Y226041D01*
X332781Y224700D01*
X315419Y192120D02*
X316491Y190780D01*
X315419Y192120D02*
X320245Y192120D01*
X320245Y190780D02*
X320245Y193461D01*
X317832Y196266D02*
X317712Y196268D01*
X317592Y196273D01*
X317472Y196282D01*
X317352Y196295D01*
X317233Y196311D01*
X317114Y196331D01*
X316996Y196355D01*
X316879Y196382D01*
X316763Y196412D01*
X316648Y196446D01*
X316533Y196484D01*
X316420Y196525D01*
X316309Y196569D01*
X316198Y196617D01*
X316089Y196668D01*
X316089Y196669D02*
X316032Y196690D01*
X315976Y196716D01*
X315921Y196744D01*
X315869Y196776D01*
X315818Y196812D01*
X315770Y196850D01*
X315724Y196891D01*
X315681Y196935D01*
X315641Y196981D01*
X315604Y197030D01*
X315570Y197082D01*
X315539Y197135D01*
X315511Y197190D01*
X315487Y197246D01*
X315466Y197304D01*
X315449Y197363D01*
X315436Y197423D01*
X315427Y197484D01*
X315421Y197546D01*
X315419Y197607D01*
X315421Y197668D01*
X315427Y197730D01*
X315436Y197791D01*
X315449Y197851D01*
X315466Y197910D01*
X315487Y197968D01*
X315511Y198024D01*
X315539Y198079D01*
X315570Y198132D01*
X315604Y198184D01*
X315641Y198233D01*
X315681Y198279D01*
X315724Y198323D01*
X315770Y198364D01*
X315818Y198402D01*
X315869Y198438D01*
X315921Y198470D01*
X315976Y198498D01*
X316032Y198524D01*
X316089Y198545D01*
X316198Y198596D01*
X316309Y198644D01*
X316420Y198688D01*
X316533Y198729D01*
X316648Y198767D01*
X316763Y198801D01*
X316879Y198831D01*
X316996Y198858D01*
X317114Y198882D01*
X317233Y198902D01*
X317352Y198918D01*
X317472Y198931D01*
X317592Y198940D01*
X317712Y198945D01*
X317832Y198947D01*
X317832Y196266D02*
X317952Y196268D01*
X318072Y196273D01*
X318192Y196282D01*
X318312Y196295D01*
X318431Y196311D01*
X318550Y196331D01*
X318668Y196355D01*
X318785Y196382D01*
X318901Y196412D01*
X319016Y196446D01*
X319131Y196484D01*
X319244Y196525D01*
X319355Y196569D01*
X319466Y196617D01*
X319575Y196668D01*
X319575Y196669D02*
X319632Y196690D01*
X319688Y196716D01*
X319743Y196744D01*
X319795Y196776D01*
X319846Y196812D01*
X319894Y196850D01*
X319940Y196891D01*
X319983Y196935D01*
X320023Y196981D01*
X320060Y197030D01*
X320094Y197082D01*
X320125Y197135D01*
X320153Y197190D01*
X320177Y197246D01*
X320198Y197304D01*
X320215Y197363D01*
X320228Y197423D01*
X320237Y197484D01*
X320243Y197546D01*
X320245Y197607D01*
X319575Y198545D02*
X319466Y198596D01*
X319355Y198644D01*
X319244Y198688D01*
X319131Y198729D01*
X319016Y198767D01*
X318901Y198801D01*
X318785Y198831D01*
X318668Y198858D01*
X318550Y198882D01*
X318431Y198902D01*
X318312Y198918D01*
X318192Y198931D01*
X318072Y198940D01*
X317952Y198945D01*
X317832Y198947D01*
X319575Y198545D02*
X319632Y198524D01*
X319688Y198498D01*
X319743Y198470D01*
X319795Y198438D01*
X319846Y198402D01*
X319894Y198364D01*
X319940Y198323D01*
X319983Y198279D01*
X320023Y198232D01*
X320060Y198184D01*
X320094Y198132D01*
X320125Y198079D01*
X320153Y198024D01*
X320177Y197968D01*
X320198Y197910D01*
X320215Y197851D01*
X320228Y197791D01*
X320237Y197730D01*
X320243Y197668D01*
X320245Y197607D01*
X319173Y196534D02*
X316491Y198679D01*
X317028Y201838D02*
X319441Y201838D01*
X319496Y201840D01*
X319550Y201845D01*
X319605Y201855D01*
X319658Y201868D01*
X319710Y201884D01*
X319761Y201905D01*
X319811Y201928D01*
X319859Y201955D01*
X319905Y201985D01*
X319948Y202018D01*
X319990Y202054D01*
X320029Y202093D01*
X320065Y202135D01*
X320098Y202178D01*
X320128Y202224D01*
X320155Y202272D01*
X320178Y202322D01*
X320199Y202373D01*
X320215Y202425D01*
X320228Y202478D01*
X320238Y202533D01*
X320243Y202587D01*
X320245Y202642D01*
X320245Y203983D01*
X317028Y203983D01*
X315419Y207075D02*
X320245Y207075D01*
X315419Y207075D02*
X315419Y209220D01*
X317564Y209220D02*
X317564Y207075D01*
X176504Y47255D02*
X175432Y47255D01*
X175367Y47257D01*
X175303Y47263D01*
X175239Y47273D01*
X175175Y47286D01*
X175113Y47304D01*
X175052Y47325D01*
X174992Y47349D01*
X174934Y47378D01*
X174877Y47410D01*
X174823Y47445D01*
X174771Y47483D01*
X174721Y47525D01*
X174674Y47569D01*
X174630Y47616D01*
X174588Y47666D01*
X174550Y47718D01*
X174515Y47772D01*
X174483Y47829D01*
X174454Y47887D01*
X174430Y47947D01*
X174409Y48008D01*
X174391Y48070D01*
X174378Y48134D01*
X174368Y48198D01*
X174362Y48262D01*
X174360Y48327D01*
X174359Y48327D02*
X174359Y51009D01*
X174360Y51009D02*
X174362Y51074D01*
X174368Y51138D01*
X174378Y51202D01*
X174391Y51266D01*
X174409Y51328D01*
X174430Y51389D01*
X174454Y51449D01*
X174483Y51507D01*
X174515Y51564D01*
X174550Y51618D01*
X174588Y51670D01*
X174630Y51720D01*
X174674Y51767D01*
X174721Y51811D01*
X174771Y51853D01*
X174823Y51891D01*
X174877Y51926D01*
X174934Y51958D01*
X174992Y51987D01*
X175052Y52011D01*
X175113Y52032D01*
X175175Y52050D01*
X175239Y52063D01*
X175303Y52073D01*
X175367Y52079D01*
X175432Y52081D01*
X176504Y52081D01*
X178959Y48596D02*
X178961Y48667D01*
X178967Y48739D01*
X178976Y48809D01*
X178989Y48879D01*
X179006Y48949D01*
X179027Y49017D01*
X179051Y49084D01*
X179079Y49150D01*
X179110Y49214D01*
X179145Y49277D01*
X179183Y49337D01*
X179224Y49396D01*
X179268Y49452D01*
X179315Y49506D01*
X179364Y49557D01*
X179417Y49605D01*
X179472Y49651D01*
X179529Y49693D01*
X179589Y49733D01*
X179650Y49769D01*
X179714Y49802D01*
X179779Y49831D01*
X179845Y49857D01*
X179913Y49880D01*
X179982Y49899D01*
X180052Y49914D01*
X180122Y49925D01*
X180193Y49933D01*
X180264Y49937D01*
X180336Y49937D01*
X180407Y49933D01*
X180478Y49925D01*
X180548Y49914D01*
X180618Y49899D01*
X180687Y49880D01*
X180755Y49857D01*
X180821Y49831D01*
X180886Y49802D01*
X180950Y49769D01*
X181011Y49733D01*
X181071Y49693D01*
X181128Y49651D01*
X181183Y49605D01*
X181236Y49557D01*
X181285Y49506D01*
X181332Y49452D01*
X181376Y49396D01*
X181417Y49337D01*
X181455Y49277D01*
X181490Y49214D01*
X181521Y49150D01*
X181549Y49084D01*
X181573Y49017D01*
X181594Y48949D01*
X181611Y48879D01*
X181624Y48809D01*
X181633Y48739D01*
X181639Y48667D01*
X181641Y48596D01*
X181639Y48525D01*
X181633Y48453D01*
X181624Y48383D01*
X181611Y48313D01*
X181594Y48243D01*
X181573Y48175D01*
X181549Y48108D01*
X181521Y48042D01*
X181490Y47978D01*
X181455Y47915D01*
X181417Y47855D01*
X181376Y47796D01*
X181332Y47740D01*
X181285Y47686D01*
X181236Y47635D01*
X181183Y47587D01*
X181128Y47541D01*
X181071Y47499D01*
X181011Y47459D01*
X180950Y47423D01*
X180886Y47390D01*
X180821Y47361D01*
X180755Y47335D01*
X180687Y47312D01*
X180618Y47293D01*
X180548Y47278D01*
X180478Y47267D01*
X180407Y47259D01*
X180336Y47255D01*
X180264Y47255D01*
X180193Y47259D01*
X180122Y47267D01*
X180052Y47278D01*
X179982Y47293D01*
X179913Y47312D01*
X179845Y47335D01*
X179779Y47361D01*
X179714Y47390D01*
X179650Y47423D01*
X179589Y47459D01*
X179529Y47499D01*
X179472Y47541D01*
X179417Y47587D01*
X179364Y47635D01*
X179315Y47686D01*
X179268Y47740D01*
X179224Y47796D01*
X179183Y47855D01*
X179145Y47915D01*
X179110Y47978D01*
X179079Y48042D01*
X179051Y48108D01*
X179027Y48175D01*
X179006Y48243D01*
X178989Y48313D01*
X178976Y48383D01*
X178967Y48453D01*
X178961Y48525D01*
X178959Y48596D01*
X179228Y51009D02*
X179230Y51074D01*
X179236Y51138D01*
X179246Y51202D01*
X179259Y51266D01*
X179277Y51328D01*
X179298Y51389D01*
X179322Y51449D01*
X179351Y51507D01*
X179383Y51564D01*
X179418Y51618D01*
X179456Y51670D01*
X179498Y51720D01*
X179542Y51767D01*
X179589Y51811D01*
X179639Y51853D01*
X179691Y51891D01*
X179745Y51926D01*
X179802Y51958D01*
X179860Y51987D01*
X179920Y52011D01*
X179981Y52032D01*
X180043Y52050D01*
X180107Y52063D01*
X180171Y52073D01*
X180235Y52079D01*
X180300Y52081D01*
X180365Y52079D01*
X180429Y52073D01*
X180493Y52063D01*
X180557Y52050D01*
X180619Y52032D01*
X180680Y52011D01*
X180740Y51987D01*
X180798Y51958D01*
X180855Y51926D01*
X180909Y51891D01*
X180961Y51853D01*
X181011Y51811D01*
X181058Y51767D01*
X181102Y51720D01*
X181144Y51670D01*
X181182Y51618D01*
X181217Y51564D01*
X181249Y51507D01*
X181278Y51449D01*
X181302Y51389D01*
X181323Y51328D01*
X181341Y51266D01*
X181354Y51202D01*
X181364Y51138D01*
X181370Y51074D01*
X181372Y51009D01*
X181370Y50944D01*
X181364Y50880D01*
X181354Y50816D01*
X181341Y50752D01*
X181323Y50690D01*
X181302Y50629D01*
X181278Y50569D01*
X181249Y50511D01*
X181217Y50454D01*
X181182Y50400D01*
X181144Y50348D01*
X181102Y50298D01*
X181058Y50251D01*
X181011Y50207D01*
X180961Y50165D01*
X180909Y50127D01*
X180855Y50092D01*
X180798Y50060D01*
X180740Y50031D01*
X180680Y50007D01*
X180619Y49986D01*
X180557Y49968D01*
X180493Y49955D01*
X180429Y49945D01*
X180365Y49939D01*
X180300Y49937D01*
X180235Y49939D01*
X180171Y49945D01*
X180107Y49955D01*
X180043Y49968D01*
X179981Y49986D01*
X179920Y50007D01*
X179860Y50031D01*
X179802Y50060D01*
X179745Y50092D01*
X179691Y50127D01*
X179639Y50165D01*
X179589Y50207D01*
X179542Y50251D01*
X179498Y50298D01*
X179456Y50348D01*
X179418Y50400D01*
X179383Y50454D01*
X179351Y50511D01*
X179322Y50569D01*
X179298Y50629D01*
X179277Y50690D01*
X179259Y50752D01*
X179246Y50816D01*
X179236Y50880D01*
X179230Y50944D01*
X179228Y51009D01*
X188037Y40673D02*
X189377Y41745D01*
X189377Y36919D01*
X188037Y36919D02*
X190718Y36919D01*
X193523Y39332D02*
X193525Y39452D01*
X193530Y39572D01*
X193539Y39692D01*
X193552Y39812D01*
X193568Y39931D01*
X193588Y40050D01*
X193612Y40168D01*
X193639Y40285D01*
X193669Y40401D01*
X193703Y40516D01*
X193741Y40631D01*
X193782Y40744D01*
X193826Y40855D01*
X193874Y40966D01*
X193925Y41075D01*
X193946Y41132D01*
X193972Y41188D01*
X194000Y41243D01*
X194032Y41295D01*
X194068Y41346D01*
X194106Y41394D01*
X194147Y41440D01*
X194191Y41483D01*
X194237Y41523D01*
X194286Y41560D01*
X194338Y41594D01*
X194391Y41625D01*
X194446Y41653D01*
X194502Y41677D01*
X194560Y41698D01*
X194619Y41715D01*
X194679Y41728D01*
X194740Y41737D01*
X194802Y41743D01*
X194863Y41745D01*
X194924Y41743D01*
X194986Y41737D01*
X195047Y41728D01*
X195107Y41715D01*
X195166Y41698D01*
X195224Y41677D01*
X195280Y41653D01*
X195335Y41625D01*
X195388Y41594D01*
X195440Y41560D01*
X195489Y41523D01*
X195535Y41483D01*
X195579Y41440D01*
X195620Y41394D01*
X195658Y41346D01*
X195694Y41295D01*
X195726Y41243D01*
X195754Y41188D01*
X195780Y41132D01*
X195801Y41075D01*
X195802Y41075D02*
X195853Y40966D01*
X195901Y40855D01*
X195945Y40744D01*
X195986Y40631D01*
X196024Y40516D01*
X196058Y40401D01*
X196088Y40285D01*
X196115Y40168D01*
X196139Y40050D01*
X196159Y39931D01*
X196175Y39812D01*
X196188Y39692D01*
X196197Y39572D01*
X196202Y39452D01*
X196204Y39332D01*
X193523Y39332D02*
X193525Y39212D01*
X193530Y39092D01*
X193539Y38972D01*
X193552Y38852D01*
X193568Y38733D01*
X193588Y38614D01*
X193612Y38496D01*
X193639Y38379D01*
X193669Y38263D01*
X193703Y38148D01*
X193741Y38033D01*
X193782Y37920D01*
X193826Y37809D01*
X193874Y37698D01*
X193925Y37589D01*
X193946Y37532D01*
X193972Y37476D01*
X194000Y37421D01*
X194032Y37369D01*
X194068Y37318D01*
X194106Y37270D01*
X194147Y37224D01*
X194191Y37181D01*
X194237Y37141D01*
X194286Y37104D01*
X194338Y37070D01*
X194391Y37039D01*
X194446Y37011D01*
X194502Y36987D01*
X194560Y36966D01*
X194619Y36949D01*
X194679Y36936D01*
X194740Y36927D01*
X194802Y36921D01*
X194863Y36919D01*
X195802Y37589D02*
X195853Y37698D01*
X195901Y37809D01*
X195945Y37920D01*
X195986Y38033D01*
X196024Y38148D01*
X196058Y38263D01*
X196088Y38379D01*
X196115Y38496D01*
X196139Y38614D01*
X196159Y38733D01*
X196175Y38852D01*
X196188Y38972D01*
X196197Y39092D01*
X196202Y39212D01*
X196204Y39332D01*
X195801Y37589D02*
X195780Y37532D01*
X195754Y37476D01*
X195726Y37421D01*
X195694Y37369D01*
X195658Y37318D01*
X195620Y37270D01*
X195579Y37224D01*
X195535Y37181D01*
X195488Y37141D01*
X195440Y37104D01*
X195388Y37070D01*
X195335Y37039D01*
X195280Y37011D01*
X195224Y36987D01*
X195166Y36966D01*
X195107Y36949D01*
X195047Y36936D01*
X194986Y36927D01*
X194924Y36921D01*
X194863Y36919D01*
X193791Y37991D02*
X195936Y40673D01*
X199009Y39332D02*
X199011Y39452D01*
X199016Y39572D01*
X199025Y39692D01*
X199038Y39812D01*
X199054Y39931D01*
X199074Y40050D01*
X199098Y40168D01*
X199125Y40285D01*
X199155Y40401D01*
X199189Y40516D01*
X199227Y40631D01*
X199268Y40744D01*
X199312Y40855D01*
X199360Y40966D01*
X199411Y41075D01*
X199412Y41075D02*
X199433Y41132D01*
X199459Y41188D01*
X199487Y41243D01*
X199519Y41295D01*
X199555Y41346D01*
X199593Y41394D01*
X199634Y41440D01*
X199678Y41483D01*
X199724Y41523D01*
X199773Y41560D01*
X199825Y41594D01*
X199878Y41625D01*
X199933Y41653D01*
X199989Y41677D01*
X200047Y41698D01*
X200106Y41715D01*
X200166Y41728D01*
X200227Y41737D01*
X200289Y41743D01*
X200350Y41745D01*
X200411Y41743D01*
X200473Y41737D01*
X200534Y41728D01*
X200594Y41715D01*
X200653Y41698D01*
X200711Y41677D01*
X200767Y41653D01*
X200822Y41625D01*
X200875Y41594D01*
X200927Y41560D01*
X200976Y41523D01*
X201022Y41483D01*
X201066Y41440D01*
X201107Y41394D01*
X201145Y41346D01*
X201181Y41295D01*
X201213Y41243D01*
X201241Y41188D01*
X201267Y41132D01*
X201288Y41075D01*
X201339Y40966D01*
X201387Y40855D01*
X201431Y40744D01*
X201472Y40631D01*
X201510Y40516D01*
X201544Y40401D01*
X201574Y40285D01*
X201601Y40168D01*
X201625Y40050D01*
X201645Y39931D01*
X201661Y39812D01*
X201674Y39692D01*
X201683Y39572D01*
X201688Y39452D01*
X201690Y39332D01*
X199009Y39332D02*
X199011Y39212D01*
X199016Y39092D01*
X199025Y38972D01*
X199038Y38852D01*
X199054Y38733D01*
X199074Y38614D01*
X199098Y38496D01*
X199125Y38379D01*
X199155Y38263D01*
X199189Y38148D01*
X199227Y38033D01*
X199268Y37920D01*
X199312Y37809D01*
X199360Y37698D01*
X199411Y37589D01*
X199412Y37589D02*
X199433Y37532D01*
X199459Y37476D01*
X199487Y37421D01*
X199519Y37369D01*
X199555Y37318D01*
X199593Y37270D01*
X199634Y37224D01*
X199678Y37181D01*
X199724Y37141D01*
X199773Y37104D01*
X199825Y37070D01*
X199878Y37039D01*
X199933Y37011D01*
X199989Y36987D01*
X200047Y36966D01*
X200106Y36949D01*
X200166Y36936D01*
X200227Y36927D01*
X200289Y36921D01*
X200350Y36919D01*
X201288Y37589D02*
X201339Y37698D01*
X201387Y37809D01*
X201431Y37920D01*
X201472Y38033D01*
X201510Y38148D01*
X201544Y38263D01*
X201574Y38379D01*
X201601Y38496D01*
X201625Y38614D01*
X201645Y38733D01*
X201661Y38852D01*
X201674Y38972D01*
X201683Y39092D01*
X201688Y39212D01*
X201690Y39332D01*
X201288Y37589D02*
X201267Y37532D01*
X201241Y37476D01*
X201213Y37421D01*
X201181Y37369D01*
X201145Y37318D01*
X201107Y37270D01*
X201066Y37224D01*
X201022Y37181D01*
X200975Y37141D01*
X200927Y37104D01*
X200875Y37070D01*
X200822Y37039D01*
X200767Y37011D01*
X200711Y36987D01*
X200653Y36966D01*
X200594Y36949D01*
X200534Y36936D01*
X200473Y36927D01*
X200411Y36921D01*
X200350Y36919D01*
X199277Y37991D02*
X201422Y40673D01*
X204581Y40136D02*
X204581Y36919D01*
X204581Y40136D02*
X205921Y40136D01*
X205976Y40134D01*
X206030Y40129D01*
X206085Y40119D01*
X206138Y40106D01*
X206190Y40090D01*
X206241Y40069D01*
X206291Y40046D01*
X206339Y40019D01*
X206385Y39989D01*
X206428Y39956D01*
X206470Y39920D01*
X206509Y39881D01*
X206545Y39839D01*
X206578Y39796D01*
X206608Y39750D01*
X206635Y39702D01*
X206658Y39652D01*
X206679Y39601D01*
X206695Y39549D01*
X206708Y39496D01*
X206718Y39441D01*
X206723Y39387D01*
X206725Y39332D01*
X206726Y39332D02*
X206726Y36919D01*
X209819Y36919D02*
X209819Y41745D01*
X211963Y41745D01*
X211963Y39600D02*
X209819Y39600D01*
D14*
X114000Y241000D02*
X105000Y241000D01*
X105000Y259000D02*
X115000Y259000D01*
D15*
X107900Y253500D02*
X107900Y246600D01*
X113300Y250000D02*
X107900Y253500D01*
X113300Y250000D02*
X107900Y246600D01*
D12*
X83619Y248118D02*
X78708Y248118D01*
X81164Y250573D02*
X81164Y245662D01*
D16*
X86628Y263558D02*
X86628Y269146D01*
X88180Y269146D01*
X88256Y269144D01*
X88332Y269139D01*
X88408Y269129D01*
X88483Y269116D01*
X88557Y269099D01*
X88631Y269079D01*
X88703Y269055D01*
X88774Y269028D01*
X88844Y268997D01*
X88912Y268963D01*
X88978Y268925D01*
X89042Y268884D01*
X89105Y268841D01*
X89165Y268794D01*
X89222Y268744D01*
X89277Y268691D01*
X89330Y268636D01*
X89380Y268579D01*
X89427Y268519D01*
X89470Y268456D01*
X89511Y268392D01*
X89549Y268326D01*
X89583Y268258D01*
X89614Y268188D01*
X89641Y268117D01*
X89665Y268044D01*
X89685Y267971D01*
X89702Y267897D01*
X89715Y267822D01*
X89725Y267746D01*
X89730Y267670D01*
X89732Y267594D01*
X89732Y265110D01*
X89730Y265031D01*
X89724Y264953D01*
X89714Y264875D01*
X89700Y264798D01*
X89682Y264721D01*
X89661Y264645D01*
X89635Y264571D01*
X89606Y264498D01*
X89573Y264427D01*
X89537Y264357D01*
X89497Y264289D01*
X89454Y264223D01*
X89407Y264160D01*
X89358Y264099D01*
X89305Y264041D01*
X89249Y263985D01*
X89191Y263932D01*
X89130Y263883D01*
X89067Y263836D01*
X89001Y263793D01*
X88933Y263753D01*
X88864Y263717D01*
X88792Y263684D01*
X88719Y263655D01*
X88645Y263629D01*
X88569Y263608D01*
X88492Y263590D01*
X88415Y263576D01*
X88337Y263566D01*
X88259Y263560D01*
X88180Y263558D01*
X86628Y263558D01*
X92297Y267904D02*
X93849Y269146D01*
X93849Y263558D01*
X92297Y263558D02*
X95402Y263558D01*
X97839Y265731D02*
X101564Y265731D01*
X103691Y263558D02*
X105554Y269146D01*
X107416Y263558D01*
X106951Y264955D02*
X104157Y264955D01*
X111168Y263558D02*
X111238Y263560D01*
X111307Y263566D01*
X111376Y263576D01*
X111444Y263589D01*
X111512Y263607D01*
X111578Y263628D01*
X111643Y263653D01*
X111707Y263681D01*
X111769Y263713D01*
X111829Y263748D01*
X111887Y263787D01*
X111942Y263829D01*
X111996Y263874D01*
X112046Y263922D01*
X112094Y263972D01*
X112139Y264026D01*
X112181Y264081D01*
X112220Y264139D01*
X112255Y264199D01*
X112287Y264261D01*
X112315Y264325D01*
X112340Y264390D01*
X112361Y264456D01*
X112379Y264524D01*
X112392Y264592D01*
X112402Y264661D01*
X112408Y264730D01*
X112410Y264800D01*
X111168Y263558D02*
X111069Y263560D01*
X110971Y263565D01*
X110873Y263575D01*
X110775Y263588D01*
X110678Y263604D01*
X110581Y263624D01*
X110486Y263648D01*
X110391Y263676D01*
X110297Y263707D01*
X110205Y263741D01*
X110114Y263779D01*
X110024Y263820D01*
X109936Y263865D01*
X109850Y263913D01*
X109766Y263964D01*
X109684Y264018D01*
X109603Y264076D01*
X109525Y264136D01*
X109450Y264199D01*
X109376Y264265D01*
X109306Y264334D01*
X109460Y267904D02*
X109462Y267974D01*
X109468Y268043D01*
X109478Y268112D01*
X109491Y268180D01*
X109509Y268248D01*
X109530Y268314D01*
X109555Y268379D01*
X109583Y268443D01*
X109615Y268505D01*
X109650Y268565D01*
X109689Y268623D01*
X109731Y268678D01*
X109776Y268732D01*
X109824Y268782D01*
X109874Y268830D01*
X109928Y268875D01*
X109983Y268917D01*
X110041Y268956D01*
X110101Y268991D01*
X110163Y269023D01*
X110227Y269051D01*
X110292Y269076D01*
X110358Y269097D01*
X110426Y269115D01*
X110494Y269128D01*
X110563Y269138D01*
X110632Y269144D01*
X110702Y269146D01*
X110796Y269144D01*
X110889Y269138D01*
X110982Y269129D01*
X111075Y269116D01*
X111167Y269099D01*
X111258Y269079D01*
X111349Y269054D01*
X111438Y269027D01*
X111526Y268995D01*
X111613Y268960D01*
X111699Y268922D01*
X111782Y268880D01*
X111864Y268835D01*
X111945Y268787D01*
X112023Y268735D01*
X112099Y268680D01*
X110081Y266818D02*
X110022Y266854D01*
X109966Y266894D01*
X109912Y266937D01*
X109860Y266982D01*
X109811Y267031D01*
X109765Y267082D01*
X109722Y267135D01*
X109681Y267191D01*
X109644Y267249D01*
X109609Y267309D01*
X109579Y267370D01*
X109551Y267433D01*
X109527Y267498D01*
X109507Y267564D01*
X109490Y267631D01*
X109477Y267698D01*
X109468Y267766D01*
X109462Y267835D01*
X109460Y267904D01*
X111788Y265886D02*
X111847Y265850D01*
X111903Y265810D01*
X111957Y265767D01*
X112009Y265722D01*
X112058Y265673D01*
X112104Y265622D01*
X112147Y265569D01*
X112188Y265513D01*
X112225Y265455D01*
X112260Y265395D01*
X112290Y265334D01*
X112318Y265271D01*
X112342Y265206D01*
X112362Y265140D01*
X112379Y265073D01*
X112392Y265006D01*
X112401Y264938D01*
X112407Y264869D01*
X112409Y264800D01*
X111789Y265886D02*
X110081Y266818D01*
X114608Y268525D02*
X114608Y269146D01*
X117713Y269146D01*
X116161Y263558D01*
X121802Y269146D02*
X121875Y269144D01*
X121948Y269138D01*
X122021Y269129D01*
X122092Y269115D01*
X122164Y269098D01*
X122234Y269078D01*
X122303Y269053D01*
X122370Y269025D01*
X122436Y268994D01*
X122501Y268959D01*
X122563Y268921D01*
X122623Y268879D01*
X122681Y268835D01*
X122737Y268787D01*
X122790Y268737D01*
X122840Y268684D01*
X122888Y268628D01*
X122932Y268570D01*
X122974Y268510D01*
X123012Y268448D01*
X123047Y268383D01*
X123078Y268317D01*
X123106Y268250D01*
X123131Y268181D01*
X123151Y268111D01*
X123168Y268039D01*
X123182Y267968D01*
X123191Y267895D01*
X123197Y267822D01*
X123199Y267749D01*
X121802Y269146D02*
X121718Y269144D01*
X121635Y269138D01*
X121552Y269129D01*
X121470Y269115D01*
X121388Y269098D01*
X121307Y269076D01*
X121227Y269051D01*
X121149Y269023D01*
X121071Y268991D01*
X120996Y268955D01*
X120922Y268916D01*
X120850Y268873D01*
X120780Y268827D01*
X120713Y268778D01*
X120647Y268725D01*
X120585Y268670D01*
X120525Y268612D01*
X120467Y268551D01*
X120413Y268488D01*
X120361Y268422D01*
X120313Y268354D01*
X120268Y268283D01*
X120226Y268211D01*
X120188Y268136D01*
X120153Y268060D01*
X120122Y267983D01*
X120094Y267904D01*
X122733Y266663D02*
X122787Y266716D01*
X122838Y266773D01*
X122886Y266832D01*
X122931Y266893D01*
X122972Y266956D01*
X123011Y267022D01*
X123046Y267089D01*
X123078Y267158D01*
X123106Y267229D01*
X123130Y267300D01*
X123151Y267373D01*
X123168Y267447D01*
X123182Y267522D01*
X123191Y267597D01*
X123197Y267673D01*
X123199Y267749D01*
X122734Y266662D02*
X120095Y263558D01*
X123199Y263558D01*
X125581Y266662D02*
X127444Y266662D01*
X127444Y266663D02*
X127514Y266661D01*
X127583Y266655D01*
X127652Y266645D01*
X127720Y266632D01*
X127788Y266614D01*
X127854Y266593D01*
X127919Y266568D01*
X127983Y266540D01*
X128045Y266508D01*
X128105Y266473D01*
X128163Y266434D01*
X128218Y266392D01*
X128272Y266347D01*
X128322Y266299D01*
X128370Y266249D01*
X128415Y266195D01*
X128457Y266140D01*
X128496Y266082D01*
X128531Y266022D01*
X128563Y265960D01*
X128591Y265896D01*
X128616Y265831D01*
X128637Y265765D01*
X128655Y265697D01*
X128668Y265629D01*
X128678Y265560D01*
X128684Y265491D01*
X128686Y265421D01*
X128686Y265110D01*
X128685Y265110D02*
X128683Y265033D01*
X128677Y264955D01*
X128668Y264879D01*
X128654Y264802D01*
X128637Y264727D01*
X128616Y264653D01*
X128591Y264579D01*
X128563Y264507D01*
X128531Y264437D01*
X128496Y264368D01*
X128457Y264301D01*
X128415Y264236D01*
X128370Y264173D01*
X128322Y264112D01*
X128271Y264054D01*
X128217Y263999D01*
X128160Y263946D01*
X128101Y263897D01*
X128039Y263850D01*
X127975Y263806D01*
X127909Y263766D01*
X127841Y263729D01*
X127771Y263695D01*
X127700Y263665D01*
X127627Y263639D01*
X127553Y263616D01*
X127478Y263597D01*
X127403Y263582D01*
X127326Y263570D01*
X127249Y263562D01*
X127172Y263558D01*
X127094Y263558D01*
X127017Y263562D01*
X126940Y263570D01*
X126863Y263582D01*
X126788Y263597D01*
X126713Y263616D01*
X126639Y263639D01*
X126566Y263665D01*
X126495Y263695D01*
X126425Y263729D01*
X126357Y263766D01*
X126291Y263806D01*
X126227Y263850D01*
X126165Y263897D01*
X126106Y263946D01*
X126049Y263999D01*
X125995Y264054D01*
X125944Y264112D01*
X125896Y264173D01*
X125851Y264236D01*
X125809Y264301D01*
X125770Y264368D01*
X125735Y264437D01*
X125703Y264507D01*
X125675Y264579D01*
X125650Y264653D01*
X125629Y264727D01*
X125612Y264802D01*
X125598Y264879D01*
X125589Y264955D01*
X125583Y265033D01*
X125581Y265110D01*
X125581Y266662D01*
X125583Y266760D01*
X125589Y266857D01*
X125598Y266954D01*
X125612Y267051D01*
X125629Y267147D01*
X125650Y267242D01*
X125674Y267336D01*
X125703Y267430D01*
X125735Y267522D01*
X125770Y267613D01*
X125809Y267702D01*
X125852Y267790D01*
X125898Y267876D01*
X125947Y267960D01*
X126000Y268042D01*
X126055Y268122D01*
X126114Y268200D01*
X126176Y268275D01*
X126241Y268348D01*
X126309Y268418D01*
X126379Y268486D01*
X126452Y268551D01*
X126527Y268613D01*
X126605Y268672D01*
X126685Y268727D01*
X126767Y268780D01*
X126851Y268829D01*
X126937Y268875D01*
X127025Y268918D01*
X127114Y268957D01*
X127205Y268992D01*
X127297Y269024D01*
X127391Y269053D01*
X127485Y269077D01*
X127580Y269098D01*
X127676Y269115D01*
X127773Y269129D01*
X127870Y269138D01*
X127967Y269144D01*
X128065Y269146D01*
X131068Y267904D02*
X132620Y269146D01*
X132620Y263558D01*
X131068Y263558D02*
X134172Y263558D01*
D14*
X145700Y30000D02*
X254300Y30000D01*
X254300Y3000D01*
X145700Y3000D01*
X145700Y30000D01*
X149200Y7500D02*
X149202Y7563D01*
X149208Y7625D01*
X149218Y7687D01*
X149231Y7749D01*
X149249Y7809D01*
X149270Y7868D01*
X149295Y7926D01*
X149324Y7982D01*
X149356Y8036D01*
X149391Y8088D01*
X149429Y8137D01*
X149471Y8185D01*
X149515Y8229D01*
X149563Y8271D01*
X149612Y8309D01*
X149664Y8344D01*
X149718Y8376D01*
X149774Y8405D01*
X149832Y8430D01*
X149891Y8451D01*
X149951Y8469D01*
X150013Y8482D01*
X150075Y8492D01*
X150137Y8498D01*
X150200Y8500D01*
X150263Y8498D01*
X150325Y8492D01*
X150387Y8482D01*
X150449Y8469D01*
X150509Y8451D01*
X150568Y8430D01*
X150626Y8405D01*
X150682Y8376D01*
X150736Y8344D01*
X150788Y8309D01*
X150837Y8271D01*
X150885Y8229D01*
X150929Y8185D01*
X150971Y8137D01*
X151009Y8088D01*
X151044Y8036D01*
X151076Y7982D01*
X151105Y7926D01*
X151130Y7868D01*
X151151Y7809D01*
X151169Y7749D01*
X151182Y7687D01*
X151192Y7625D01*
X151198Y7563D01*
X151200Y7500D01*
X151198Y7437D01*
X151192Y7375D01*
X151182Y7313D01*
X151169Y7251D01*
X151151Y7191D01*
X151130Y7132D01*
X151105Y7074D01*
X151076Y7018D01*
X151044Y6964D01*
X151009Y6912D01*
X150971Y6863D01*
X150929Y6815D01*
X150885Y6771D01*
X150837Y6729D01*
X150788Y6691D01*
X150736Y6656D01*
X150682Y6624D01*
X150626Y6595D01*
X150568Y6570D01*
X150509Y6549D01*
X150449Y6531D01*
X150387Y6518D01*
X150325Y6508D01*
X150263Y6502D01*
X150200Y6500D01*
X150137Y6502D01*
X150075Y6508D01*
X150013Y6518D01*
X149951Y6531D01*
X149891Y6549D01*
X149832Y6570D01*
X149774Y6595D01*
X149718Y6624D01*
X149664Y6656D01*
X149612Y6691D01*
X149563Y6729D01*
X149515Y6771D01*
X149471Y6815D01*
X149429Y6863D01*
X149391Y6912D01*
X149356Y6964D01*
X149324Y7018D01*
X149295Y7074D01*
X149270Y7132D01*
X149249Y7191D01*
X149231Y7251D01*
X149218Y7313D01*
X149208Y7375D01*
X149202Y7437D01*
X149200Y7500D01*
D17*
X55574Y331844D02*
X55574Y338702D01*
D14*
X145700Y397000D02*
X254300Y397000D01*
X254300Y370000D01*
X145700Y370000D01*
X145700Y397000D01*
X149200Y374500D02*
X149202Y374563D01*
X149208Y374625D01*
X149218Y374687D01*
X149231Y374749D01*
X149249Y374809D01*
X149270Y374868D01*
X149295Y374926D01*
X149324Y374982D01*
X149356Y375036D01*
X149391Y375088D01*
X149429Y375137D01*
X149471Y375185D01*
X149515Y375229D01*
X149563Y375271D01*
X149612Y375309D01*
X149664Y375344D01*
X149718Y375376D01*
X149774Y375405D01*
X149832Y375430D01*
X149891Y375451D01*
X149951Y375469D01*
X150013Y375482D01*
X150075Y375492D01*
X150137Y375498D01*
X150200Y375500D01*
X150263Y375498D01*
X150325Y375492D01*
X150387Y375482D01*
X150449Y375469D01*
X150509Y375451D01*
X150568Y375430D01*
X150626Y375405D01*
X150682Y375376D01*
X150736Y375344D01*
X150788Y375309D01*
X150837Y375271D01*
X150885Y375229D01*
X150929Y375185D01*
X150971Y375137D01*
X151009Y375088D01*
X151044Y375036D01*
X151076Y374982D01*
X151105Y374926D01*
X151130Y374868D01*
X151151Y374809D01*
X151169Y374749D01*
X151182Y374687D01*
X151192Y374625D01*
X151198Y374563D01*
X151200Y374500D01*
X151198Y374437D01*
X151192Y374375D01*
X151182Y374313D01*
X151169Y374251D01*
X151151Y374191D01*
X151130Y374132D01*
X151105Y374074D01*
X151076Y374018D01*
X151044Y373964D01*
X151009Y373912D01*
X150971Y373863D01*
X150929Y373815D01*
X150885Y373771D01*
X150837Y373729D01*
X150788Y373691D01*
X150736Y373656D01*
X150682Y373624D01*
X150626Y373595D01*
X150568Y373570D01*
X150509Y373549D01*
X150449Y373531D01*
X150387Y373518D01*
X150325Y373508D01*
X150263Y373502D01*
X150200Y373500D01*
X150137Y373502D01*
X150075Y373508D01*
X150013Y373518D01*
X149951Y373531D01*
X149891Y373549D01*
X149832Y373570D01*
X149774Y373595D01*
X149718Y373624D01*
X149664Y373656D01*
X149612Y373691D01*
X149563Y373729D01*
X149515Y373771D01*
X149471Y373815D01*
X149429Y373863D01*
X149391Y373912D01*
X149356Y373964D01*
X149324Y374018D01*
X149295Y374074D01*
X149270Y374132D01*
X149249Y374191D01*
X149231Y374251D01*
X149218Y374313D01*
X149208Y374375D01*
X149202Y374437D01*
X149200Y374500D01*
D17*
X385574Y118702D02*
X385574Y111844D01*
D13*
X87948Y121919D02*
X87948Y126745D01*
X89289Y126745D01*
X89360Y126743D01*
X89432Y126737D01*
X89502Y126728D01*
X89572Y126715D01*
X89642Y126698D01*
X89710Y126677D01*
X89777Y126653D01*
X89843Y126625D01*
X89907Y126594D01*
X89970Y126559D01*
X90030Y126521D01*
X90089Y126480D01*
X90145Y126436D01*
X90199Y126389D01*
X90250Y126340D01*
X90298Y126287D01*
X90344Y126232D01*
X90386Y126175D01*
X90426Y126115D01*
X90462Y126054D01*
X90495Y125990D01*
X90524Y125925D01*
X90550Y125859D01*
X90573Y125791D01*
X90592Y125722D01*
X90607Y125652D01*
X90618Y125582D01*
X90626Y125511D01*
X90630Y125440D01*
X90630Y125368D01*
X90626Y125297D01*
X90618Y125226D01*
X90607Y125156D01*
X90592Y125086D01*
X90573Y125017D01*
X90550Y124949D01*
X90524Y124883D01*
X90495Y124818D01*
X90462Y124754D01*
X90426Y124693D01*
X90386Y124633D01*
X90344Y124576D01*
X90298Y124521D01*
X90250Y124468D01*
X90199Y124419D01*
X90145Y124372D01*
X90089Y124328D01*
X90030Y124287D01*
X89970Y124249D01*
X89907Y124214D01*
X89843Y124183D01*
X89777Y124155D01*
X89710Y124131D01*
X89642Y124110D01*
X89572Y124093D01*
X89502Y124080D01*
X89432Y124071D01*
X89360Y124065D01*
X89289Y124063D01*
X89289Y124064D02*
X87948Y124064D01*
X89557Y124064D02*
X90629Y121919D01*
X93371Y126209D02*
X93371Y126745D01*
X96052Y126745D01*
X94711Y121919D01*
X110124Y138174D02*
X110122Y138242D01*
X110116Y138309D01*
X110107Y138376D01*
X110094Y138443D01*
X110077Y138508D01*
X110056Y138573D01*
X110032Y138636D01*
X110004Y138698D01*
X109973Y138758D01*
X109939Y138816D01*
X109901Y138872D01*
X109861Y138927D01*
X109817Y138978D01*
X109770Y139027D01*
X109721Y139074D01*
X109670Y139118D01*
X109615Y139158D01*
X109559Y139196D01*
X109501Y139230D01*
X109441Y139261D01*
X109379Y139289D01*
X109316Y139313D01*
X109251Y139334D01*
X109186Y139351D01*
X109119Y139364D01*
X109052Y139373D01*
X108985Y139379D01*
X108917Y139381D01*
X108839Y139379D01*
X108761Y139373D01*
X108684Y139363D01*
X108607Y139350D01*
X108531Y139332D01*
X108456Y139311D01*
X108382Y139286D01*
X108310Y139257D01*
X108239Y139225D01*
X108170Y139189D01*
X108102Y139150D01*
X108037Y139107D01*
X107974Y139061D01*
X107913Y139012D01*
X107855Y138960D01*
X107800Y138905D01*
X107747Y138848D01*
X107698Y138788D01*
X107651Y138725D01*
X107608Y138661D01*
X107568Y138594D01*
X107531Y138525D01*
X107498Y138454D01*
X107468Y138382D01*
X107442Y138309D01*
X109722Y137236D02*
X109771Y137285D01*
X109818Y137337D01*
X109861Y137392D01*
X109902Y137449D01*
X109940Y137508D01*
X109974Y137569D01*
X110005Y137632D01*
X110033Y137696D01*
X110057Y137762D01*
X110077Y137828D01*
X110094Y137896D01*
X110107Y137965D01*
X110116Y138034D01*
X110122Y138104D01*
X110124Y138174D01*
X109722Y137236D02*
X107443Y134555D01*
X110124Y134555D01*
X112490Y134555D02*
X112490Y134823D01*
X112758Y134823D01*
X112758Y134555D01*
X112490Y134555D01*
X116598Y139381D02*
X116666Y139379D01*
X116733Y139373D01*
X116800Y139364D01*
X116867Y139351D01*
X116932Y139334D01*
X116997Y139313D01*
X117060Y139289D01*
X117122Y139261D01*
X117182Y139230D01*
X117240Y139196D01*
X117296Y139158D01*
X117351Y139118D01*
X117402Y139074D01*
X117451Y139027D01*
X117498Y138978D01*
X117542Y138927D01*
X117582Y138872D01*
X117620Y138816D01*
X117654Y138758D01*
X117685Y138698D01*
X117713Y138636D01*
X117737Y138573D01*
X117758Y138508D01*
X117775Y138443D01*
X117788Y138376D01*
X117797Y138309D01*
X117803Y138242D01*
X117805Y138174D01*
X116598Y139381D02*
X116520Y139379D01*
X116442Y139373D01*
X116365Y139363D01*
X116288Y139350D01*
X116212Y139332D01*
X116137Y139311D01*
X116063Y139286D01*
X115991Y139257D01*
X115920Y139225D01*
X115851Y139189D01*
X115783Y139150D01*
X115718Y139107D01*
X115655Y139061D01*
X115594Y139012D01*
X115536Y138960D01*
X115481Y138905D01*
X115428Y138848D01*
X115379Y138788D01*
X115332Y138725D01*
X115289Y138661D01*
X115249Y138594D01*
X115212Y138525D01*
X115179Y138454D01*
X115149Y138382D01*
X115123Y138309D01*
X117403Y137236D02*
X117452Y137285D01*
X117499Y137337D01*
X117542Y137392D01*
X117583Y137449D01*
X117621Y137508D01*
X117655Y137569D01*
X117686Y137632D01*
X117714Y137696D01*
X117738Y137762D01*
X117758Y137828D01*
X117775Y137896D01*
X117788Y137965D01*
X117797Y138034D01*
X117803Y138104D01*
X117805Y138174D01*
X117403Y137236D02*
X115124Y134555D01*
X117805Y134555D01*
X120812Y134555D02*
X120812Y139381D01*
X122957Y137772D02*
X120812Y136164D01*
X121751Y136834D02*
X122957Y134555D01*
X87948Y107745D02*
X87948Y102919D01*
X87948Y107745D02*
X89289Y107745D01*
X89360Y107743D01*
X89432Y107737D01*
X89502Y107728D01*
X89572Y107715D01*
X89642Y107698D01*
X89710Y107677D01*
X89777Y107653D01*
X89843Y107625D01*
X89907Y107594D01*
X89970Y107559D01*
X90030Y107521D01*
X90089Y107480D01*
X90145Y107436D01*
X90199Y107389D01*
X90250Y107340D01*
X90298Y107287D01*
X90344Y107232D01*
X90386Y107175D01*
X90426Y107115D01*
X90462Y107054D01*
X90495Y106990D01*
X90524Y106925D01*
X90550Y106859D01*
X90573Y106791D01*
X90592Y106722D01*
X90607Y106652D01*
X90618Y106582D01*
X90626Y106511D01*
X90630Y106440D01*
X90630Y106368D01*
X90626Y106297D01*
X90618Y106226D01*
X90607Y106156D01*
X90592Y106086D01*
X90573Y106017D01*
X90550Y105949D01*
X90524Y105883D01*
X90495Y105818D01*
X90462Y105754D01*
X90426Y105693D01*
X90386Y105633D01*
X90344Y105576D01*
X90298Y105521D01*
X90250Y105468D01*
X90199Y105419D01*
X90145Y105372D01*
X90089Y105328D01*
X90030Y105287D01*
X89970Y105249D01*
X89907Y105214D01*
X89843Y105183D01*
X89777Y105155D01*
X89710Y105131D01*
X89642Y105110D01*
X89572Y105093D01*
X89502Y105080D01*
X89432Y105071D01*
X89360Y105065D01*
X89289Y105063D01*
X89289Y105064D02*
X87948Y105064D01*
X89557Y105064D02*
X90629Y102919D01*
X93370Y104260D02*
X93372Y104331D01*
X93378Y104403D01*
X93387Y104473D01*
X93400Y104543D01*
X93417Y104613D01*
X93438Y104681D01*
X93462Y104748D01*
X93490Y104814D01*
X93521Y104878D01*
X93556Y104941D01*
X93594Y105001D01*
X93635Y105060D01*
X93679Y105116D01*
X93726Y105170D01*
X93775Y105221D01*
X93828Y105269D01*
X93883Y105315D01*
X93940Y105357D01*
X94000Y105397D01*
X94061Y105433D01*
X94125Y105466D01*
X94190Y105495D01*
X94256Y105521D01*
X94324Y105544D01*
X94393Y105563D01*
X94463Y105578D01*
X94533Y105589D01*
X94604Y105597D01*
X94675Y105601D01*
X94747Y105601D01*
X94818Y105597D01*
X94889Y105589D01*
X94959Y105578D01*
X95029Y105563D01*
X95098Y105544D01*
X95166Y105521D01*
X95232Y105495D01*
X95297Y105466D01*
X95361Y105433D01*
X95422Y105397D01*
X95482Y105357D01*
X95539Y105315D01*
X95594Y105269D01*
X95647Y105221D01*
X95696Y105170D01*
X95743Y105116D01*
X95787Y105060D01*
X95828Y105001D01*
X95866Y104941D01*
X95901Y104878D01*
X95932Y104814D01*
X95960Y104748D01*
X95984Y104681D01*
X96005Y104613D01*
X96022Y104543D01*
X96035Y104473D01*
X96044Y104403D01*
X96050Y104331D01*
X96052Y104260D01*
X96050Y104189D01*
X96044Y104117D01*
X96035Y104047D01*
X96022Y103977D01*
X96005Y103907D01*
X95984Y103839D01*
X95960Y103772D01*
X95932Y103706D01*
X95901Y103642D01*
X95866Y103579D01*
X95828Y103519D01*
X95787Y103460D01*
X95743Y103404D01*
X95696Y103350D01*
X95647Y103299D01*
X95594Y103251D01*
X95539Y103205D01*
X95482Y103163D01*
X95422Y103123D01*
X95361Y103087D01*
X95297Y103054D01*
X95232Y103025D01*
X95166Y102999D01*
X95098Y102976D01*
X95029Y102957D01*
X94959Y102942D01*
X94889Y102931D01*
X94818Y102923D01*
X94747Y102919D01*
X94675Y102919D01*
X94604Y102923D01*
X94533Y102931D01*
X94463Y102942D01*
X94393Y102957D01*
X94324Y102976D01*
X94256Y102999D01*
X94190Y103025D01*
X94125Y103054D01*
X94061Y103087D01*
X94000Y103123D01*
X93940Y103163D01*
X93883Y103205D01*
X93828Y103251D01*
X93775Y103299D01*
X93726Y103350D01*
X93679Y103404D01*
X93635Y103460D01*
X93594Y103519D01*
X93556Y103579D01*
X93521Y103642D01*
X93490Y103706D01*
X93462Y103772D01*
X93438Y103839D01*
X93417Y103907D01*
X93400Y103977D01*
X93387Y104047D01*
X93378Y104117D01*
X93372Y104189D01*
X93370Y104260D01*
X93639Y106673D02*
X93641Y106738D01*
X93647Y106802D01*
X93657Y106866D01*
X93670Y106930D01*
X93688Y106992D01*
X93709Y107053D01*
X93733Y107113D01*
X93762Y107171D01*
X93794Y107228D01*
X93829Y107282D01*
X93867Y107334D01*
X93909Y107384D01*
X93953Y107431D01*
X94000Y107475D01*
X94050Y107517D01*
X94102Y107555D01*
X94156Y107590D01*
X94213Y107622D01*
X94271Y107651D01*
X94331Y107675D01*
X94392Y107696D01*
X94454Y107714D01*
X94518Y107727D01*
X94582Y107737D01*
X94646Y107743D01*
X94711Y107745D01*
X94776Y107743D01*
X94840Y107737D01*
X94904Y107727D01*
X94968Y107714D01*
X95030Y107696D01*
X95091Y107675D01*
X95151Y107651D01*
X95209Y107622D01*
X95266Y107590D01*
X95320Y107555D01*
X95372Y107517D01*
X95422Y107475D01*
X95469Y107431D01*
X95513Y107384D01*
X95555Y107334D01*
X95593Y107282D01*
X95628Y107228D01*
X95660Y107171D01*
X95689Y107113D01*
X95713Y107053D01*
X95734Y106992D01*
X95752Y106930D01*
X95765Y106866D01*
X95775Y106802D01*
X95781Y106738D01*
X95783Y106673D01*
X95781Y106608D01*
X95775Y106544D01*
X95765Y106480D01*
X95752Y106416D01*
X95734Y106354D01*
X95713Y106293D01*
X95689Y106233D01*
X95660Y106175D01*
X95628Y106118D01*
X95593Y106064D01*
X95555Y106012D01*
X95513Y105962D01*
X95469Y105915D01*
X95422Y105871D01*
X95372Y105829D01*
X95320Y105791D01*
X95266Y105756D01*
X95209Y105724D01*
X95151Y105695D01*
X95091Y105671D01*
X95030Y105650D01*
X94968Y105632D01*
X94904Y105619D01*
X94840Y105609D01*
X94776Y105603D01*
X94711Y105601D01*
X94646Y105603D01*
X94582Y105609D01*
X94518Y105619D01*
X94454Y105632D01*
X94392Y105650D01*
X94331Y105671D01*
X94271Y105695D01*
X94213Y105724D01*
X94156Y105756D01*
X94102Y105791D01*
X94050Y105829D01*
X94000Y105871D01*
X93953Y105915D01*
X93909Y105962D01*
X93867Y106012D01*
X93829Y106064D01*
X93794Y106118D01*
X93762Y106175D01*
X93733Y106233D01*
X93709Y106293D01*
X93688Y106354D01*
X93670Y106416D01*
X93657Y106480D01*
X93647Y106544D01*
X93641Y106608D01*
X93639Y106673D01*
X108917Y95681D02*
X108985Y95679D01*
X109052Y95673D01*
X109119Y95664D01*
X109186Y95651D01*
X109251Y95634D01*
X109316Y95613D01*
X109379Y95589D01*
X109441Y95561D01*
X109501Y95530D01*
X109559Y95496D01*
X109615Y95458D01*
X109670Y95418D01*
X109721Y95374D01*
X109770Y95327D01*
X109817Y95278D01*
X109861Y95227D01*
X109901Y95172D01*
X109939Y95116D01*
X109973Y95058D01*
X110004Y94998D01*
X110032Y94936D01*
X110056Y94873D01*
X110077Y94808D01*
X110094Y94743D01*
X110107Y94676D01*
X110116Y94609D01*
X110122Y94542D01*
X110124Y94474D01*
X108917Y95681D02*
X108839Y95679D01*
X108761Y95673D01*
X108684Y95663D01*
X108607Y95650D01*
X108531Y95632D01*
X108456Y95611D01*
X108382Y95586D01*
X108310Y95557D01*
X108239Y95525D01*
X108170Y95489D01*
X108102Y95450D01*
X108037Y95407D01*
X107974Y95361D01*
X107913Y95312D01*
X107855Y95260D01*
X107800Y95205D01*
X107747Y95148D01*
X107698Y95088D01*
X107651Y95025D01*
X107608Y94961D01*
X107568Y94894D01*
X107531Y94825D01*
X107498Y94754D01*
X107468Y94682D01*
X107442Y94609D01*
X109722Y93536D02*
X109771Y93585D01*
X109818Y93637D01*
X109861Y93692D01*
X109902Y93749D01*
X109940Y93808D01*
X109974Y93869D01*
X110005Y93932D01*
X110033Y93996D01*
X110057Y94062D01*
X110077Y94128D01*
X110094Y94196D01*
X110107Y94265D01*
X110116Y94334D01*
X110122Y94404D01*
X110124Y94474D01*
X109722Y93536D02*
X107443Y90855D01*
X110124Y90855D01*
X112490Y90855D02*
X112490Y91123D01*
X112758Y91123D01*
X112758Y90855D01*
X112490Y90855D01*
X116598Y95681D02*
X116666Y95679D01*
X116733Y95673D01*
X116800Y95664D01*
X116867Y95651D01*
X116932Y95634D01*
X116997Y95613D01*
X117060Y95589D01*
X117122Y95561D01*
X117182Y95530D01*
X117240Y95496D01*
X117296Y95458D01*
X117351Y95418D01*
X117402Y95374D01*
X117451Y95327D01*
X117498Y95278D01*
X117542Y95227D01*
X117582Y95172D01*
X117620Y95116D01*
X117654Y95058D01*
X117685Y94998D01*
X117713Y94936D01*
X117737Y94873D01*
X117758Y94808D01*
X117775Y94743D01*
X117788Y94676D01*
X117797Y94609D01*
X117803Y94542D01*
X117805Y94474D01*
X116598Y95681D02*
X116520Y95679D01*
X116442Y95673D01*
X116365Y95663D01*
X116288Y95650D01*
X116212Y95632D01*
X116137Y95611D01*
X116063Y95586D01*
X115991Y95557D01*
X115920Y95525D01*
X115851Y95489D01*
X115783Y95450D01*
X115718Y95407D01*
X115655Y95361D01*
X115594Y95312D01*
X115536Y95260D01*
X115481Y95205D01*
X115428Y95148D01*
X115379Y95088D01*
X115332Y95025D01*
X115289Y94961D01*
X115249Y94894D01*
X115212Y94825D01*
X115179Y94754D01*
X115149Y94682D01*
X115123Y94609D01*
X117403Y93536D02*
X117452Y93585D01*
X117499Y93637D01*
X117542Y93692D01*
X117583Y93749D01*
X117621Y93808D01*
X117655Y93869D01*
X117686Y93932D01*
X117714Y93996D01*
X117738Y94062D01*
X117758Y94128D01*
X117775Y94196D01*
X117788Y94265D01*
X117797Y94334D01*
X117803Y94404D01*
X117805Y94474D01*
X117403Y93536D02*
X115124Y90855D01*
X117805Y90855D01*
X120812Y90855D02*
X120812Y95681D01*
X122957Y94072D02*
X120812Y92464D01*
X121751Y93134D02*
X122957Y90855D01*
X218548Y157855D02*
X218548Y162681D01*
X219889Y162681D01*
X219960Y162679D01*
X220032Y162673D01*
X220102Y162664D01*
X220172Y162651D01*
X220242Y162634D01*
X220310Y162613D01*
X220377Y162589D01*
X220443Y162561D01*
X220507Y162530D01*
X220570Y162495D01*
X220630Y162457D01*
X220689Y162416D01*
X220745Y162372D01*
X220799Y162325D01*
X220850Y162276D01*
X220898Y162223D01*
X220944Y162168D01*
X220986Y162111D01*
X221026Y162051D01*
X221062Y161990D01*
X221095Y161926D01*
X221124Y161861D01*
X221150Y161795D01*
X221173Y161727D01*
X221192Y161658D01*
X221207Y161588D01*
X221218Y161518D01*
X221226Y161447D01*
X221230Y161376D01*
X221230Y161304D01*
X221226Y161233D01*
X221218Y161162D01*
X221207Y161092D01*
X221192Y161022D01*
X221173Y160953D01*
X221150Y160885D01*
X221124Y160819D01*
X221095Y160754D01*
X221062Y160690D01*
X221026Y160629D01*
X220986Y160569D01*
X220944Y160512D01*
X220898Y160457D01*
X220850Y160404D01*
X220799Y160355D01*
X220745Y160308D01*
X220689Y160264D01*
X220630Y160223D01*
X220570Y160185D01*
X220507Y160150D01*
X220443Y160119D01*
X220377Y160091D01*
X220310Y160067D01*
X220242Y160046D01*
X220172Y160029D01*
X220102Y160016D01*
X220032Y160007D01*
X219960Y160001D01*
X219889Y159999D01*
X219889Y160000D02*
X218548Y160000D01*
X220157Y160000D02*
X221229Y157855D01*
X223971Y157855D02*
X225311Y157855D01*
X225382Y157857D01*
X225454Y157863D01*
X225524Y157872D01*
X225594Y157885D01*
X225664Y157902D01*
X225732Y157923D01*
X225799Y157947D01*
X225865Y157975D01*
X225929Y158006D01*
X225992Y158041D01*
X226052Y158079D01*
X226111Y158120D01*
X226167Y158164D01*
X226221Y158211D01*
X226272Y158260D01*
X226320Y158313D01*
X226366Y158368D01*
X226408Y158425D01*
X226448Y158485D01*
X226484Y158546D01*
X226517Y158610D01*
X226546Y158675D01*
X226572Y158741D01*
X226595Y158809D01*
X226614Y158878D01*
X226629Y158948D01*
X226640Y159018D01*
X226648Y159089D01*
X226652Y159160D01*
X226652Y159232D01*
X226648Y159303D01*
X226640Y159374D01*
X226629Y159444D01*
X226614Y159514D01*
X226595Y159583D01*
X226572Y159651D01*
X226546Y159717D01*
X226517Y159782D01*
X226484Y159846D01*
X226448Y159907D01*
X226408Y159967D01*
X226366Y160024D01*
X226320Y160079D01*
X226272Y160132D01*
X226221Y160181D01*
X226167Y160228D01*
X226111Y160272D01*
X226052Y160313D01*
X225992Y160351D01*
X225929Y160386D01*
X225865Y160417D01*
X225799Y160445D01*
X225732Y160469D01*
X225664Y160490D01*
X225594Y160507D01*
X225524Y160520D01*
X225454Y160529D01*
X225382Y160535D01*
X225311Y160537D01*
X225579Y162681D02*
X223971Y162681D01*
X225579Y162681D02*
X225644Y162679D01*
X225708Y162673D01*
X225772Y162663D01*
X225836Y162650D01*
X225898Y162632D01*
X225959Y162611D01*
X226019Y162587D01*
X226077Y162558D01*
X226134Y162526D01*
X226188Y162491D01*
X226240Y162453D01*
X226290Y162411D01*
X226337Y162367D01*
X226381Y162320D01*
X226423Y162270D01*
X226461Y162218D01*
X226496Y162164D01*
X226528Y162107D01*
X226557Y162049D01*
X226581Y161989D01*
X226602Y161928D01*
X226620Y161866D01*
X226633Y161802D01*
X226643Y161738D01*
X226649Y161674D01*
X226651Y161609D01*
X226649Y161544D01*
X226643Y161480D01*
X226633Y161416D01*
X226620Y161352D01*
X226602Y161290D01*
X226581Y161229D01*
X226557Y161169D01*
X226528Y161111D01*
X226496Y161054D01*
X226461Y161000D01*
X226423Y160948D01*
X226381Y160898D01*
X226337Y160851D01*
X226290Y160807D01*
X226240Y160765D01*
X226188Y160727D01*
X226134Y160692D01*
X226077Y160660D01*
X226019Y160631D01*
X225959Y160607D01*
X225898Y160586D01*
X225836Y160568D01*
X225772Y160555D01*
X225708Y160545D01*
X225644Y160539D01*
X225579Y160537D01*
X225579Y160536D02*
X224507Y160536D01*
X195681Y172745D02*
X194340Y171673D01*
X195681Y172745D02*
X195681Y167919D01*
X197021Y167919D02*
X194340Y167919D01*
X199826Y170332D02*
X199828Y170452D01*
X199833Y170572D01*
X199842Y170692D01*
X199855Y170812D01*
X199871Y170931D01*
X199891Y171050D01*
X199915Y171168D01*
X199942Y171285D01*
X199972Y171401D01*
X200006Y171516D01*
X200044Y171631D01*
X200085Y171744D01*
X200129Y171855D01*
X200177Y171966D01*
X200228Y172075D01*
X200229Y172075D02*
X200250Y172132D01*
X200276Y172188D01*
X200304Y172243D01*
X200336Y172295D01*
X200372Y172346D01*
X200410Y172394D01*
X200451Y172440D01*
X200495Y172483D01*
X200541Y172523D01*
X200590Y172560D01*
X200642Y172594D01*
X200695Y172625D01*
X200750Y172653D01*
X200806Y172677D01*
X200864Y172698D01*
X200923Y172715D01*
X200983Y172728D01*
X201044Y172737D01*
X201106Y172743D01*
X201167Y172745D01*
X201228Y172743D01*
X201290Y172737D01*
X201351Y172728D01*
X201411Y172715D01*
X201470Y172698D01*
X201528Y172677D01*
X201584Y172653D01*
X201639Y172625D01*
X201692Y172594D01*
X201744Y172560D01*
X201793Y172523D01*
X201839Y172483D01*
X201883Y172440D01*
X201924Y172394D01*
X201962Y172346D01*
X201998Y172295D01*
X202030Y172243D01*
X202058Y172188D01*
X202084Y172132D01*
X202105Y172075D01*
X202156Y171966D01*
X202204Y171855D01*
X202248Y171744D01*
X202289Y171631D01*
X202327Y171516D01*
X202361Y171401D01*
X202391Y171285D01*
X202418Y171168D01*
X202442Y171050D01*
X202462Y170931D01*
X202478Y170812D01*
X202491Y170692D01*
X202500Y170572D01*
X202505Y170452D01*
X202507Y170332D01*
X199827Y170332D02*
X199829Y170212D01*
X199834Y170092D01*
X199843Y169972D01*
X199856Y169852D01*
X199872Y169733D01*
X199892Y169614D01*
X199916Y169496D01*
X199943Y169379D01*
X199973Y169263D01*
X200007Y169148D01*
X200045Y169033D01*
X200086Y168920D01*
X200130Y168809D01*
X200178Y168698D01*
X200229Y168589D01*
X200250Y168532D01*
X200276Y168476D01*
X200304Y168421D01*
X200336Y168369D01*
X200372Y168318D01*
X200410Y168270D01*
X200451Y168224D01*
X200495Y168181D01*
X200541Y168141D01*
X200590Y168104D01*
X200642Y168070D01*
X200695Y168039D01*
X200750Y168011D01*
X200806Y167987D01*
X200864Y167966D01*
X200923Y167949D01*
X200983Y167936D01*
X201044Y167927D01*
X201106Y167921D01*
X201167Y167919D01*
X202105Y168589D02*
X202156Y168698D01*
X202204Y168809D01*
X202248Y168920D01*
X202289Y169033D01*
X202327Y169148D01*
X202361Y169263D01*
X202391Y169379D01*
X202418Y169496D01*
X202442Y169614D01*
X202462Y169733D01*
X202478Y169852D01*
X202491Y169972D01*
X202500Y170092D01*
X202505Y170212D01*
X202507Y170332D01*
X202105Y168589D02*
X202084Y168532D01*
X202058Y168476D01*
X202030Y168421D01*
X201998Y168369D01*
X201962Y168318D01*
X201924Y168270D01*
X201883Y168224D01*
X201839Y168181D01*
X201792Y168141D01*
X201744Y168104D01*
X201692Y168070D01*
X201639Y168039D01*
X201584Y168011D01*
X201528Y167987D01*
X201470Y167966D01*
X201411Y167949D01*
X201351Y167936D01*
X201290Y167927D01*
X201228Y167921D01*
X201167Y167919D01*
X200094Y168991D02*
X202239Y171673D01*
X205515Y172745D02*
X205515Y167919D01*
X205515Y169528D02*
X207660Y171136D01*
X206454Y170198D02*
X207660Y167919D01*
X173948Y237919D02*
X173948Y242745D01*
X175289Y242745D01*
X175360Y242743D01*
X175432Y242737D01*
X175502Y242728D01*
X175572Y242715D01*
X175642Y242698D01*
X175710Y242677D01*
X175777Y242653D01*
X175843Y242625D01*
X175907Y242594D01*
X175970Y242559D01*
X176030Y242521D01*
X176089Y242480D01*
X176145Y242436D01*
X176199Y242389D01*
X176250Y242340D01*
X176298Y242287D01*
X176344Y242232D01*
X176386Y242175D01*
X176426Y242115D01*
X176462Y242054D01*
X176495Y241990D01*
X176524Y241925D01*
X176550Y241859D01*
X176573Y241791D01*
X176592Y241722D01*
X176607Y241652D01*
X176618Y241582D01*
X176626Y241511D01*
X176630Y241440D01*
X176630Y241368D01*
X176626Y241297D01*
X176618Y241226D01*
X176607Y241156D01*
X176592Y241086D01*
X176573Y241017D01*
X176550Y240949D01*
X176524Y240883D01*
X176495Y240818D01*
X176462Y240754D01*
X176426Y240693D01*
X176386Y240633D01*
X176344Y240576D01*
X176298Y240521D01*
X176250Y240468D01*
X176199Y240419D01*
X176145Y240372D01*
X176089Y240328D01*
X176030Y240287D01*
X175970Y240249D01*
X175907Y240214D01*
X175843Y240183D01*
X175777Y240155D01*
X175710Y240131D01*
X175642Y240110D01*
X175572Y240093D01*
X175502Y240080D01*
X175432Y240071D01*
X175360Y240065D01*
X175289Y240063D01*
X175289Y240064D02*
X173948Y240064D01*
X175557Y240064D02*
X176629Y237919D01*
X179371Y240600D02*
X180979Y240600D01*
X181044Y240598D01*
X181108Y240592D01*
X181172Y240582D01*
X181236Y240569D01*
X181298Y240551D01*
X181359Y240530D01*
X181419Y240506D01*
X181477Y240477D01*
X181534Y240445D01*
X181588Y240410D01*
X181640Y240372D01*
X181690Y240330D01*
X181737Y240286D01*
X181781Y240239D01*
X181823Y240189D01*
X181861Y240137D01*
X181896Y240083D01*
X181928Y240026D01*
X181957Y239968D01*
X181981Y239908D01*
X182002Y239847D01*
X182020Y239785D01*
X182033Y239721D01*
X182043Y239657D01*
X182049Y239593D01*
X182051Y239528D01*
X182052Y239528D02*
X182052Y239260D01*
X182050Y239189D01*
X182044Y239117D01*
X182035Y239047D01*
X182022Y238977D01*
X182005Y238907D01*
X181984Y238839D01*
X181960Y238772D01*
X181932Y238706D01*
X181901Y238642D01*
X181866Y238579D01*
X181828Y238519D01*
X181787Y238460D01*
X181743Y238404D01*
X181696Y238350D01*
X181647Y238299D01*
X181594Y238251D01*
X181539Y238205D01*
X181482Y238163D01*
X181422Y238123D01*
X181361Y238087D01*
X181297Y238054D01*
X181232Y238025D01*
X181166Y237999D01*
X181098Y237976D01*
X181029Y237957D01*
X180959Y237942D01*
X180889Y237931D01*
X180818Y237923D01*
X180747Y237919D01*
X180675Y237919D01*
X180604Y237923D01*
X180533Y237931D01*
X180463Y237942D01*
X180393Y237957D01*
X180324Y237976D01*
X180256Y237999D01*
X180190Y238025D01*
X180125Y238054D01*
X180061Y238087D01*
X180000Y238123D01*
X179940Y238163D01*
X179883Y238205D01*
X179828Y238251D01*
X179775Y238299D01*
X179726Y238350D01*
X179679Y238404D01*
X179635Y238460D01*
X179594Y238519D01*
X179556Y238579D01*
X179521Y238642D01*
X179490Y238706D01*
X179462Y238772D01*
X179438Y238839D01*
X179417Y238907D01*
X179400Y238977D01*
X179387Y239047D01*
X179378Y239117D01*
X179372Y239189D01*
X179370Y239260D01*
X179371Y239260D02*
X179371Y240600D01*
X179373Y240691D01*
X179379Y240782D01*
X179388Y240872D01*
X179402Y240963D01*
X179419Y241052D01*
X179440Y241140D01*
X179465Y241228D01*
X179494Y241315D01*
X179526Y241400D01*
X179561Y241484D01*
X179601Y241566D01*
X179643Y241646D01*
X179689Y241725D01*
X179739Y241801D01*
X179791Y241875D01*
X179847Y241948D01*
X179906Y242017D01*
X179967Y242084D01*
X180032Y242149D01*
X180099Y242210D01*
X180168Y242269D01*
X180240Y242325D01*
X180315Y242377D01*
X180391Y242427D01*
X180470Y242473D01*
X180550Y242515D01*
X180632Y242555D01*
X180716Y242590D01*
X180801Y242622D01*
X180888Y242651D01*
X180975Y242676D01*
X181064Y242697D01*
X181153Y242714D01*
X181244Y242728D01*
X181334Y242737D01*
X181425Y242743D01*
X181516Y242745D01*
X193340Y231009D02*
X194681Y232081D01*
X194681Y227255D01*
X196021Y227255D02*
X193340Y227255D01*
X198826Y229668D02*
X198828Y229788D01*
X198833Y229908D01*
X198842Y230028D01*
X198855Y230148D01*
X198871Y230267D01*
X198891Y230386D01*
X198915Y230504D01*
X198942Y230621D01*
X198972Y230737D01*
X199006Y230852D01*
X199044Y230967D01*
X199085Y231080D01*
X199129Y231191D01*
X199177Y231302D01*
X199228Y231411D01*
X199229Y231411D02*
X199250Y231468D01*
X199276Y231524D01*
X199304Y231579D01*
X199336Y231631D01*
X199372Y231682D01*
X199410Y231730D01*
X199451Y231776D01*
X199495Y231819D01*
X199541Y231859D01*
X199590Y231896D01*
X199642Y231930D01*
X199695Y231961D01*
X199750Y231989D01*
X199806Y232013D01*
X199864Y232034D01*
X199923Y232051D01*
X199983Y232064D01*
X200044Y232073D01*
X200106Y232079D01*
X200167Y232081D01*
X200228Y232079D01*
X200290Y232073D01*
X200351Y232064D01*
X200411Y232051D01*
X200470Y232034D01*
X200528Y232013D01*
X200584Y231989D01*
X200639Y231961D01*
X200692Y231930D01*
X200744Y231896D01*
X200793Y231859D01*
X200839Y231819D01*
X200883Y231776D01*
X200924Y231730D01*
X200962Y231682D01*
X200998Y231631D01*
X201030Y231579D01*
X201058Y231524D01*
X201084Y231468D01*
X201105Y231411D01*
X201156Y231302D01*
X201204Y231191D01*
X201248Y231080D01*
X201289Y230967D01*
X201327Y230852D01*
X201361Y230737D01*
X201391Y230621D01*
X201418Y230504D01*
X201442Y230386D01*
X201462Y230267D01*
X201478Y230148D01*
X201491Y230028D01*
X201500Y229908D01*
X201505Y229788D01*
X201507Y229668D01*
X198827Y229668D02*
X198829Y229548D01*
X198834Y229428D01*
X198843Y229308D01*
X198856Y229188D01*
X198872Y229069D01*
X198892Y228950D01*
X198916Y228832D01*
X198943Y228715D01*
X198973Y228599D01*
X199007Y228484D01*
X199045Y228369D01*
X199086Y228256D01*
X199130Y228145D01*
X199178Y228034D01*
X199229Y227925D01*
X199250Y227868D01*
X199276Y227812D01*
X199304Y227757D01*
X199336Y227705D01*
X199372Y227654D01*
X199410Y227606D01*
X199451Y227560D01*
X199495Y227517D01*
X199541Y227477D01*
X199590Y227440D01*
X199642Y227406D01*
X199695Y227375D01*
X199750Y227347D01*
X199806Y227323D01*
X199864Y227302D01*
X199923Y227285D01*
X199983Y227272D01*
X200044Y227263D01*
X200106Y227257D01*
X200167Y227255D01*
X201105Y227925D02*
X201156Y228034D01*
X201204Y228145D01*
X201248Y228256D01*
X201289Y228369D01*
X201327Y228484D01*
X201361Y228599D01*
X201391Y228715D01*
X201418Y228832D01*
X201442Y228950D01*
X201462Y229069D01*
X201478Y229188D01*
X201491Y229308D01*
X201500Y229428D01*
X201505Y229548D01*
X201507Y229668D01*
X201105Y227925D02*
X201084Y227868D01*
X201058Y227812D01*
X201030Y227757D01*
X200998Y227705D01*
X200962Y227654D01*
X200924Y227606D01*
X200883Y227560D01*
X200839Y227517D01*
X200792Y227477D01*
X200744Y227440D01*
X200692Y227406D01*
X200639Y227375D01*
X200584Y227347D01*
X200528Y227323D01*
X200470Y227302D01*
X200411Y227285D01*
X200351Y227272D01*
X200290Y227263D01*
X200228Y227257D01*
X200167Y227255D01*
X199094Y228327D02*
X201239Y231009D01*
X204515Y232081D02*
X204515Y227255D01*
X204515Y228864D02*
X206660Y230472D01*
X205453Y229534D02*
X206660Y227255D01*
D14*
X171000Y136120D02*
X171002Y136183D01*
X171008Y136245D01*
X171018Y136307D01*
X171031Y136369D01*
X171049Y136429D01*
X171070Y136488D01*
X171095Y136546D01*
X171124Y136602D01*
X171156Y136656D01*
X171191Y136708D01*
X171229Y136757D01*
X171271Y136805D01*
X171315Y136849D01*
X171363Y136891D01*
X171412Y136929D01*
X171464Y136964D01*
X171518Y136996D01*
X171574Y137025D01*
X171632Y137050D01*
X171691Y137071D01*
X171751Y137089D01*
X171813Y137102D01*
X171875Y137112D01*
X171937Y137118D01*
X172000Y137120D01*
X172063Y137118D01*
X172125Y137112D01*
X172187Y137102D01*
X172249Y137089D01*
X172309Y137071D01*
X172368Y137050D01*
X172426Y137025D01*
X172482Y136996D01*
X172536Y136964D01*
X172588Y136929D01*
X172637Y136891D01*
X172685Y136849D01*
X172729Y136805D01*
X172771Y136757D01*
X172809Y136708D01*
X172844Y136656D01*
X172876Y136602D01*
X172905Y136546D01*
X172930Y136488D01*
X172951Y136429D01*
X172969Y136369D01*
X172982Y136307D01*
X172992Y136245D01*
X172998Y136183D01*
X173000Y136120D01*
X172998Y136057D01*
X172992Y135995D01*
X172982Y135933D01*
X172969Y135871D01*
X172951Y135811D01*
X172930Y135752D01*
X172905Y135694D01*
X172876Y135638D01*
X172844Y135584D01*
X172809Y135532D01*
X172771Y135483D01*
X172729Y135435D01*
X172685Y135391D01*
X172637Y135349D01*
X172588Y135311D01*
X172536Y135276D01*
X172482Y135244D01*
X172426Y135215D01*
X172368Y135190D01*
X172309Y135169D01*
X172249Y135151D01*
X172187Y135138D01*
X172125Y135128D01*
X172063Y135122D01*
X172000Y135120D01*
X171937Y135122D01*
X171875Y135128D01*
X171813Y135138D01*
X171751Y135151D01*
X171691Y135169D01*
X171632Y135190D01*
X171574Y135215D01*
X171518Y135244D01*
X171464Y135276D01*
X171412Y135311D01*
X171363Y135349D01*
X171315Y135391D01*
X171271Y135435D01*
X171229Y135483D01*
X171191Y135532D01*
X171156Y135584D01*
X171124Y135638D01*
X171095Y135694D01*
X171070Y135752D01*
X171049Y135811D01*
X171031Y135871D01*
X171018Y135933D01*
X171008Y135995D01*
X171002Y136057D01*
X171000Y136120D01*
D13*
X176000Y133120D02*
X176000Y139120D01*
X183000Y139120D01*
X217000Y139120D02*
X224000Y139120D01*
X224000Y133120D01*
X183000Y93120D02*
X176000Y93120D01*
X217000Y93120D02*
X224000Y93120D01*
X224000Y99120D01*
X176000Y99120D02*
X176000Y93120D01*
D16*
X237734Y97400D02*
X244846Y95029D01*
X244846Y99771D02*
X237734Y97400D01*
X243068Y99178D02*
X243068Y95622D01*
X244846Y104424D02*
X244844Y104502D01*
X244838Y104579D01*
X244829Y104656D01*
X244816Y104732D01*
X244799Y104808D01*
X244778Y104883D01*
X244754Y104956D01*
X244726Y105029D01*
X244694Y105100D01*
X244659Y105169D01*
X244621Y105236D01*
X244580Y105302D01*
X244535Y105365D01*
X244487Y105426D01*
X244437Y105485D01*
X244383Y105541D01*
X244327Y105595D01*
X244268Y105645D01*
X244207Y105693D01*
X244144Y105738D01*
X244078Y105779D01*
X244011Y105817D01*
X243942Y105852D01*
X243871Y105884D01*
X243798Y105912D01*
X243725Y105936D01*
X243650Y105957D01*
X243574Y105974D01*
X243498Y105987D01*
X243421Y105996D01*
X243344Y106002D01*
X243266Y106004D01*
X244846Y104424D02*
X244844Y104309D01*
X244838Y104195D01*
X244828Y104081D01*
X244815Y103967D01*
X244797Y103854D01*
X244775Y103741D01*
X244750Y103629D01*
X244721Y103519D01*
X244688Y103409D01*
X244651Y103300D01*
X244611Y103193D01*
X244567Y103087D01*
X244519Y102983D01*
X244468Y102880D01*
X244413Y102780D01*
X244355Y102681D01*
X244293Y102584D01*
X244229Y102490D01*
X244161Y102397D01*
X244089Y102307D01*
X244015Y102220D01*
X243938Y102135D01*
X243858Y102053D01*
X239314Y102252D02*
X239236Y102254D01*
X239159Y102260D01*
X239082Y102269D01*
X239006Y102282D01*
X238930Y102299D01*
X238855Y102320D01*
X238782Y102344D01*
X238709Y102372D01*
X238638Y102404D01*
X238569Y102439D01*
X238502Y102477D01*
X238436Y102518D01*
X238373Y102563D01*
X238312Y102611D01*
X238253Y102661D01*
X238197Y102715D01*
X238143Y102771D01*
X238093Y102830D01*
X238045Y102891D01*
X238000Y102954D01*
X237959Y103020D01*
X237921Y103087D01*
X237886Y103156D01*
X237854Y103227D01*
X237826Y103300D01*
X237802Y103373D01*
X237781Y103448D01*
X237764Y103524D01*
X237751Y103600D01*
X237742Y103677D01*
X237736Y103754D01*
X237734Y103832D01*
X237736Y103938D01*
X237742Y104044D01*
X237751Y104149D01*
X237764Y104254D01*
X237781Y104359D01*
X237802Y104463D01*
X237826Y104566D01*
X237854Y104668D01*
X237886Y104769D01*
X237921Y104869D01*
X237960Y104967D01*
X238003Y105065D01*
X238048Y105160D01*
X238097Y105254D01*
X238150Y105346D01*
X238206Y105436D01*
X238265Y105524D01*
X238327Y105610D01*
X240697Y103041D02*
X240655Y102974D01*
X240610Y102909D01*
X240561Y102846D01*
X240510Y102785D01*
X240455Y102728D01*
X240398Y102673D01*
X240338Y102620D01*
X240276Y102571D01*
X240211Y102525D01*
X240145Y102483D01*
X240076Y102443D01*
X240005Y102407D01*
X239932Y102375D01*
X239858Y102346D01*
X239783Y102321D01*
X239707Y102300D01*
X239629Y102282D01*
X239551Y102269D01*
X239472Y102259D01*
X239393Y102253D01*
X239314Y102251D01*
X241883Y105215D02*
X241925Y105282D01*
X241970Y105347D01*
X242019Y105410D01*
X242070Y105471D01*
X242125Y105528D01*
X242182Y105583D01*
X242242Y105636D01*
X242304Y105685D01*
X242369Y105731D01*
X242435Y105773D01*
X242504Y105813D01*
X242575Y105849D01*
X242648Y105881D01*
X242722Y105910D01*
X242797Y105935D01*
X242873Y105956D01*
X242951Y105974D01*
X243029Y105987D01*
X243108Y105997D01*
X243187Y106003D01*
X243266Y106005D01*
X241883Y105215D02*
X240697Y103041D01*
X238524Y108683D02*
X237734Y108683D01*
X237734Y112634D01*
X244846Y110659D01*
X237734Y117714D02*
X237736Y117796D01*
X237742Y117878D01*
X237751Y117960D01*
X237764Y118041D01*
X237781Y118121D01*
X237802Y118201D01*
X237826Y118279D01*
X237854Y118356D01*
X237885Y118432D01*
X237920Y118507D01*
X237959Y118579D01*
X238000Y118650D01*
X238045Y118719D01*
X238093Y118785D01*
X238144Y118850D01*
X238198Y118912D01*
X238255Y118971D01*
X238314Y119028D01*
X238376Y119082D01*
X238441Y119133D01*
X238507Y119181D01*
X238576Y119226D01*
X238647Y119267D01*
X238719Y119306D01*
X238794Y119341D01*
X238870Y119372D01*
X238947Y119400D01*
X239025Y119424D01*
X239105Y119445D01*
X239185Y119462D01*
X239266Y119475D01*
X239348Y119484D01*
X239430Y119490D01*
X239512Y119492D01*
X237734Y117714D02*
X237736Y117621D01*
X237742Y117529D01*
X237751Y117437D01*
X237764Y117345D01*
X237781Y117254D01*
X237801Y117164D01*
X237825Y117074D01*
X237853Y116986D01*
X237885Y116898D01*
X237919Y116813D01*
X237958Y116728D01*
X237999Y116646D01*
X238044Y116565D01*
X238093Y116485D01*
X238144Y116408D01*
X238198Y116333D01*
X238256Y116261D01*
X238316Y116190D01*
X238380Y116123D01*
X238445Y116058D01*
X238514Y115995D01*
X238585Y115936D01*
X238658Y115879D01*
X238734Y115825D01*
X238811Y115775D01*
X238891Y115727D01*
X238973Y115683D01*
X239056Y115643D01*
X239141Y115605D01*
X239227Y115571D01*
X239314Y115541D01*
X240895Y118899D02*
X240834Y118960D01*
X240771Y119018D01*
X240705Y119073D01*
X240637Y119126D01*
X240566Y119175D01*
X240494Y119220D01*
X240419Y119263D01*
X240343Y119302D01*
X240264Y119338D01*
X240185Y119370D01*
X240104Y119398D01*
X240021Y119423D01*
X239938Y119444D01*
X239854Y119461D01*
X239769Y119475D01*
X239684Y119484D01*
X239598Y119490D01*
X239512Y119492D01*
X240895Y118899D02*
X244846Y115541D01*
X244846Y119492D01*
X240895Y122399D02*
X240895Y124770D01*
X240897Y124848D01*
X240903Y124925D01*
X240912Y125002D01*
X240925Y125078D01*
X240942Y125154D01*
X240963Y125229D01*
X240987Y125302D01*
X241015Y125375D01*
X241047Y125446D01*
X241082Y125515D01*
X241120Y125582D01*
X241161Y125648D01*
X241206Y125711D01*
X241254Y125772D01*
X241304Y125831D01*
X241358Y125887D01*
X241414Y125941D01*
X241473Y125991D01*
X241534Y126039D01*
X241597Y126084D01*
X241663Y126125D01*
X241730Y126163D01*
X241799Y126198D01*
X241870Y126230D01*
X241943Y126258D01*
X242016Y126282D01*
X242091Y126303D01*
X242167Y126320D01*
X242243Y126333D01*
X242320Y126342D01*
X242397Y126348D01*
X242475Y126350D01*
X242870Y126350D01*
X242870Y126351D02*
X242957Y126349D01*
X243045Y126343D01*
X243132Y126334D01*
X243218Y126320D01*
X243304Y126303D01*
X243388Y126282D01*
X243472Y126257D01*
X243555Y126228D01*
X243636Y126196D01*
X243716Y126161D01*
X243794Y126122D01*
X243871Y126079D01*
X243945Y126033D01*
X244017Y125984D01*
X244087Y125932D01*
X244155Y125876D01*
X244220Y125818D01*
X244283Y125757D01*
X244342Y125693D01*
X244399Y125626D01*
X244453Y125558D01*
X244504Y125486D01*
X244551Y125413D01*
X244596Y125338D01*
X244637Y125260D01*
X244674Y125181D01*
X244708Y125101D01*
X244738Y125019D01*
X244765Y124936D01*
X244788Y124851D01*
X244807Y124766D01*
X244822Y124680D01*
X244834Y124593D01*
X244842Y124506D01*
X244846Y124419D01*
X244846Y124331D01*
X244842Y124244D01*
X244834Y124157D01*
X244822Y124070D01*
X244807Y123984D01*
X244788Y123899D01*
X244765Y123814D01*
X244738Y123731D01*
X244708Y123649D01*
X244674Y123569D01*
X244637Y123490D01*
X244596Y123412D01*
X244551Y123337D01*
X244504Y123264D01*
X244453Y123192D01*
X244399Y123124D01*
X244342Y123057D01*
X244283Y122993D01*
X244220Y122932D01*
X244155Y122874D01*
X244087Y122818D01*
X244017Y122766D01*
X243945Y122717D01*
X243871Y122671D01*
X243794Y122628D01*
X243716Y122589D01*
X243636Y122554D01*
X243555Y122522D01*
X243472Y122493D01*
X243388Y122468D01*
X243304Y122447D01*
X243218Y122430D01*
X243132Y122416D01*
X243045Y122407D01*
X242957Y122401D01*
X242870Y122399D01*
X240895Y122399D01*
X240785Y122401D01*
X240675Y122407D01*
X240565Y122416D01*
X240455Y122430D01*
X240346Y122447D01*
X240238Y122468D01*
X240130Y122493D01*
X240024Y122521D01*
X239918Y122554D01*
X239814Y122590D01*
X239711Y122629D01*
X239609Y122672D01*
X239509Y122719D01*
X239411Y122769D01*
X239315Y122822D01*
X239220Y122879D01*
X239127Y122939D01*
X239037Y123003D01*
X238949Y123069D01*
X238863Y123139D01*
X238780Y123211D01*
X238699Y123286D01*
X238621Y123364D01*
X238546Y123445D01*
X238474Y123528D01*
X238404Y123614D01*
X238338Y123702D01*
X238274Y123792D01*
X238214Y123885D01*
X238158Y123979D01*
X238104Y124076D01*
X238054Y124174D01*
X238007Y124274D01*
X237964Y124376D01*
X237925Y124479D01*
X237889Y124583D01*
X237856Y124689D01*
X237828Y124795D01*
X237803Y124903D01*
X237782Y125011D01*
X237765Y125120D01*
X237751Y125230D01*
X237742Y125339D01*
X237736Y125450D01*
X237734Y125560D01*
X244846Y129257D02*
X244846Y131628D01*
X244844Y131706D01*
X244838Y131783D01*
X244829Y131860D01*
X244816Y131936D01*
X244799Y132012D01*
X244778Y132087D01*
X244754Y132160D01*
X244726Y132233D01*
X244694Y132304D01*
X244659Y132373D01*
X244621Y132440D01*
X244580Y132506D01*
X244535Y132569D01*
X244487Y132630D01*
X244437Y132689D01*
X244383Y132745D01*
X244327Y132799D01*
X244268Y132849D01*
X244207Y132897D01*
X244144Y132942D01*
X244078Y132983D01*
X244011Y133021D01*
X243942Y133056D01*
X243871Y133088D01*
X243798Y133116D01*
X243725Y133140D01*
X243650Y133161D01*
X243574Y133178D01*
X243498Y133191D01*
X243421Y133200D01*
X243344Y133206D01*
X243266Y133208D01*
X242475Y133208D01*
X242397Y133206D01*
X242320Y133200D01*
X242243Y133191D01*
X242167Y133178D01*
X242091Y133161D01*
X242016Y133140D01*
X241943Y133116D01*
X241870Y133088D01*
X241799Y133056D01*
X241730Y133021D01*
X241663Y132983D01*
X241597Y132942D01*
X241534Y132897D01*
X241473Y132849D01*
X241414Y132799D01*
X241358Y132745D01*
X241304Y132689D01*
X241254Y132630D01*
X241206Y132569D01*
X241161Y132506D01*
X241120Y132440D01*
X241082Y132373D01*
X241047Y132304D01*
X241015Y132233D01*
X240987Y132160D01*
X240963Y132087D01*
X240942Y132012D01*
X240925Y131936D01*
X240912Y131860D01*
X240903Y131783D01*
X240897Y131706D01*
X240895Y131628D01*
X240895Y129257D01*
X237734Y129257D01*
X237734Y133208D01*
X239314Y136115D02*
X237734Y138090D01*
X244846Y138090D01*
X244846Y136115D02*
X244846Y140066D01*
D14*
X262880Y172000D02*
X262882Y172063D01*
X262888Y172125D01*
X262898Y172187D01*
X262911Y172249D01*
X262929Y172309D01*
X262950Y172368D01*
X262975Y172426D01*
X263004Y172482D01*
X263036Y172536D01*
X263071Y172588D01*
X263109Y172637D01*
X263151Y172685D01*
X263195Y172729D01*
X263243Y172771D01*
X263292Y172809D01*
X263344Y172844D01*
X263398Y172876D01*
X263454Y172905D01*
X263512Y172930D01*
X263571Y172951D01*
X263631Y172969D01*
X263693Y172982D01*
X263755Y172992D01*
X263817Y172998D01*
X263880Y173000D01*
X263943Y172998D01*
X264005Y172992D01*
X264067Y172982D01*
X264129Y172969D01*
X264189Y172951D01*
X264248Y172930D01*
X264306Y172905D01*
X264362Y172876D01*
X264416Y172844D01*
X264468Y172809D01*
X264517Y172771D01*
X264565Y172729D01*
X264609Y172685D01*
X264651Y172637D01*
X264689Y172588D01*
X264724Y172536D01*
X264756Y172482D01*
X264785Y172426D01*
X264810Y172368D01*
X264831Y172309D01*
X264849Y172249D01*
X264862Y172187D01*
X264872Y172125D01*
X264878Y172063D01*
X264880Y172000D01*
X264878Y171937D01*
X264872Y171875D01*
X264862Y171813D01*
X264849Y171751D01*
X264831Y171691D01*
X264810Y171632D01*
X264785Y171574D01*
X264756Y171518D01*
X264724Y171464D01*
X264689Y171412D01*
X264651Y171363D01*
X264609Y171315D01*
X264565Y171271D01*
X264517Y171229D01*
X264468Y171191D01*
X264416Y171156D01*
X264362Y171124D01*
X264306Y171095D01*
X264248Y171070D01*
X264189Y171049D01*
X264129Y171031D01*
X264067Y171018D01*
X264005Y171008D01*
X263943Y171002D01*
X263880Y171000D01*
X263817Y171002D01*
X263755Y171008D01*
X263693Y171018D01*
X263631Y171031D01*
X263571Y171049D01*
X263512Y171070D01*
X263454Y171095D01*
X263398Y171124D01*
X263344Y171156D01*
X263292Y171191D01*
X263243Y171229D01*
X263195Y171271D01*
X263151Y171315D01*
X263109Y171363D01*
X263071Y171412D01*
X263036Y171464D01*
X263004Y171518D01*
X262975Y171574D01*
X262950Y171632D01*
X262929Y171691D01*
X262911Y171751D01*
X262898Y171813D01*
X262888Y171875D01*
X262882Y171937D01*
X262880Y172000D01*
D13*
X260880Y176000D02*
X266880Y176000D01*
X260880Y176000D02*
X260880Y183000D01*
X260880Y217000D02*
X260880Y224000D01*
X266880Y224000D01*
X306880Y183000D02*
X306880Y176000D01*
X306880Y217000D02*
X306880Y224000D01*
X300880Y224000D01*
X300880Y176000D02*
X306880Y176000D01*
D16*
X260400Y166266D02*
X258029Y159154D01*
X262771Y159154D02*
X260400Y166266D01*
X262178Y160932D02*
X258622Y160932D01*
X267424Y159154D02*
X267502Y159156D01*
X267579Y159162D01*
X267656Y159171D01*
X267732Y159184D01*
X267808Y159201D01*
X267883Y159222D01*
X267956Y159246D01*
X268029Y159274D01*
X268100Y159306D01*
X268169Y159341D01*
X268236Y159379D01*
X268302Y159420D01*
X268365Y159465D01*
X268426Y159513D01*
X268485Y159563D01*
X268541Y159617D01*
X268595Y159673D01*
X268645Y159732D01*
X268693Y159793D01*
X268738Y159856D01*
X268779Y159922D01*
X268817Y159989D01*
X268852Y160058D01*
X268884Y160129D01*
X268912Y160202D01*
X268936Y160275D01*
X268957Y160350D01*
X268974Y160426D01*
X268987Y160502D01*
X268996Y160579D01*
X269002Y160656D01*
X269004Y160734D01*
X267424Y159154D02*
X267309Y159156D01*
X267195Y159162D01*
X267081Y159172D01*
X266967Y159185D01*
X266854Y159203D01*
X266741Y159225D01*
X266629Y159250D01*
X266519Y159279D01*
X266409Y159312D01*
X266300Y159349D01*
X266193Y159389D01*
X266087Y159433D01*
X265983Y159481D01*
X265880Y159532D01*
X265780Y159587D01*
X265681Y159645D01*
X265584Y159707D01*
X265490Y159771D01*
X265397Y159839D01*
X265307Y159911D01*
X265220Y159985D01*
X265135Y160062D01*
X265053Y160142D01*
X265252Y164686D02*
X265254Y164764D01*
X265260Y164841D01*
X265269Y164918D01*
X265282Y164994D01*
X265299Y165070D01*
X265320Y165145D01*
X265344Y165218D01*
X265372Y165291D01*
X265404Y165362D01*
X265439Y165431D01*
X265477Y165498D01*
X265518Y165564D01*
X265563Y165627D01*
X265611Y165688D01*
X265661Y165747D01*
X265715Y165803D01*
X265771Y165857D01*
X265830Y165907D01*
X265891Y165955D01*
X265954Y166000D01*
X266020Y166041D01*
X266087Y166079D01*
X266156Y166114D01*
X266227Y166146D01*
X266300Y166174D01*
X266373Y166198D01*
X266448Y166219D01*
X266524Y166236D01*
X266600Y166249D01*
X266677Y166258D01*
X266755Y166264D01*
X266832Y166266D01*
X266938Y166264D01*
X267044Y166258D01*
X267149Y166249D01*
X267254Y166236D01*
X267359Y166219D01*
X267463Y166198D01*
X267566Y166174D01*
X267668Y166146D01*
X267769Y166114D01*
X267869Y166079D01*
X267967Y166040D01*
X268065Y165997D01*
X268160Y165952D01*
X268254Y165903D01*
X268346Y165850D01*
X268436Y165794D01*
X268524Y165735D01*
X268610Y165673D01*
X266041Y163303D02*
X265974Y163345D01*
X265909Y163390D01*
X265846Y163439D01*
X265785Y163490D01*
X265728Y163545D01*
X265673Y163602D01*
X265620Y163662D01*
X265571Y163724D01*
X265525Y163789D01*
X265483Y163855D01*
X265443Y163924D01*
X265407Y163995D01*
X265375Y164068D01*
X265346Y164142D01*
X265321Y164217D01*
X265300Y164293D01*
X265282Y164371D01*
X265269Y164449D01*
X265259Y164528D01*
X265253Y164607D01*
X265251Y164686D01*
X268215Y162117D02*
X268282Y162075D01*
X268347Y162030D01*
X268410Y161981D01*
X268471Y161930D01*
X268528Y161875D01*
X268583Y161818D01*
X268636Y161758D01*
X268685Y161696D01*
X268731Y161631D01*
X268773Y161565D01*
X268813Y161496D01*
X268849Y161425D01*
X268881Y161352D01*
X268910Y161278D01*
X268935Y161203D01*
X268956Y161127D01*
X268974Y161049D01*
X268987Y160971D01*
X268997Y160892D01*
X269003Y160813D01*
X269005Y160734D01*
X268215Y162117D02*
X266041Y163303D01*
X271683Y165476D02*
X271683Y166266D01*
X275634Y166266D01*
X273659Y159154D01*
X280714Y166266D02*
X280796Y166264D01*
X280878Y166258D01*
X280960Y166249D01*
X281041Y166236D01*
X281121Y166219D01*
X281201Y166198D01*
X281279Y166174D01*
X281356Y166146D01*
X281432Y166115D01*
X281507Y166080D01*
X281579Y166041D01*
X281650Y166000D01*
X281719Y165955D01*
X281785Y165907D01*
X281850Y165856D01*
X281912Y165802D01*
X281971Y165745D01*
X282028Y165686D01*
X282082Y165624D01*
X282133Y165559D01*
X282181Y165493D01*
X282226Y165424D01*
X282267Y165353D01*
X282306Y165281D01*
X282341Y165206D01*
X282372Y165130D01*
X282400Y165053D01*
X282424Y164975D01*
X282445Y164895D01*
X282462Y164815D01*
X282475Y164734D01*
X282484Y164652D01*
X282490Y164570D01*
X282492Y164488D01*
X280714Y166266D02*
X280621Y166264D01*
X280529Y166258D01*
X280437Y166249D01*
X280345Y166236D01*
X280254Y166219D01*
X280164Y166199D01*
X280074Y166175D01*
X279986Y166147D01*
X279898Y166115D01*
X279813Y166081D01*
X279728Y166042D01*
X279646Y166001D01*
X279565Y165956D01*
X279485Y165907D01*
X279408Y165856D01*
X279333Y165802D01*
X279261Y165744D01*
X279191Y165684D01*
X279123Y165620D01*
X279058Y165555D01*
X278995Y165486D01*
X278936Y165415D01*
X278879Y165342D01*
X278825Y165266D01*
X278775Y165189D01*
X278727Y165109D01*
X278683Y165028D01*
X278643Y164944D01*
X278605Y164860D01*
X278571Y164773D01*
X278541Y164686D01*
X281899Y163105D02*
X281960Y163166D01*
X282018Y163229D01*
X282073Y163295D01*
X282126Y163363D01*
X282175Y163434D01*
X282220Y163506D01*
X282263Y163581D01*
X282302Y163657D01*
X282338Y163736D01*
X282370Y163815D01*
X282398Y163896D01*
X282423Y163979D01*
X282444Y164062D01*
X282461Y164146D01*
X282475Y164231D01*
X282484Y164316D01*
X282490Y164402D01*
X282492Y164488D01*
X281899Y163105D02*
X278541Y159154D01*
X282492Y159154D01*
X285399Y163105D02*
X287770Y163105D01*
X287848Y163103D01*
X287925Y163097D01*
X288002Y163088D01*
X288078Y163075D01*
X288154Y163058D01*
X288229Y163037D01*
X288302Y163013D01*
X288375Y162985D01*
X288446Y162953D01*
X288515Y162918D01*
X288582Y162880D01*
X288648Y162839D01*
X288711Y162794D01*
X288772Y162746D01*
X288831Y162696D01*
X288887Y162642D01*
X288941Y162586D01*
X288991Y162527D01*
X289039Y162466D01*
X289084Y162403D01*
X289125Y162337D01*
X289163Y162270D01*
X289198Y162201D01*
X289230Y162130D01*
X289258Y162057D01*
X289282Y161984D01*
X289303Y161909D01*
X289320Y161833D01*
X289333Y161757D01*
X289342Y161680D01*
X289348Y161603D01*
X289350Y161525D01*
X289350Y161130D01*
X289351Y161130D02*
X289349Y161043D01*
X289343Y160955D01*
X289334Y160868D01*
X289320Y160782D01*
X289303Y160696D01*
X289282Y160612D01*
X289257Y160528D01*
X289228Y160445D01*
X289196Y160364D01*
X289161Y160284D01*
X289122Y160206D01*
X289079Y160129D01*
X289033Y160055D01*
X288984Y159983D01*
X288932Y159913D01*
X288876Y159845D01*
X288818Y159780D01*
X288757Y159717D01*
X288693Y159658D01*
X288626Y159601D01*
X288558Y159547D01*
X288486Y159496D01*
X288413Y159449D01*
X288338Y159404D01*
X288260Y159363D01*
X288181Y159326D01*
X288101Y159292D01*
X288019Y159262D01*
X287936Y159235D01*
X287851Y159212D01*
X287766Y159193D01*
X287680Y159178D01*
X287593Y159166D01*
X287506Y159158D01*
X287419Y159154D01*
X287331Y159154D01*
X287244Y159158D01*
X287157Y159166D01*
X287070Y159178D01*
X286984Y159193D01*
X286899Y159212D01*
X286814Y159235D01*
X286731Y159262D01*
X286649Y159292D01*
X286569Y159326D01*
X286490Y159363D01*
X286412Y159404D01*
X286337Y159449D01*
X286264Y159496D01*
X286192Y159547D01*
X286124Y159601D01*
X286057Y159658D01*
X285993Y159717D01*
X285932Y159780D01*
X285874Y159845D01*
X285818Y159913D01*
X285766Y159983D01*
X285717Y160055D01*
X285671Y160129D01*
X285628Y160206D01*
X285589Y160284D01*
X285554Y160364D01*
X285522Y160445D01*
X285493Y160528D01*
X285468Y160612D01*
X285447Y160696D01*
X285430Y160782D01*
X285416Y160868D01*
X285407Y160955D01*
X285401Y161043D01*
X285399Y161130D01*
X285399Y163105D01*
X285401Y163215D01*
X285407Y163325D01*
X285416Y163435D01*
X285430Y163545D01*
X285447Y163654D01*
X285468Y163762D01*
X285493Y163870D01*
X285521Y163976D01*
X285554Y164082D01*
X285590Y164186D01*
X285629Y164289D01*
X285672Y164391D01*
X285719Y164491D01*
X285769Y164589D01*
X285822Y164685D01*
X285879Y164780D01*
X285939Y164873D01*
X286003Y164963D01*
X286069Y165051D01*
X286139Y165137D01*
X286211Y165220D01*
X286286Y165301D01*
X286364Y165379D01*
X286445Y165454D01*
X286528Y165526D01*
X286614Y165596D01*
X286702Y165662D01*
X286792Y165726D01*
X286885Y165786D01*
X286979Y165842D01*
X287076Y165896D01*
X287174Y165946D01*
X287274Y165993D01*
X287376Y166036D01*
X287479Y166075D01*
X287583Y166111D01*
X287689Y166144D01*
X287795Y166172D01*
X287903Y166197D01*
X288011Y166218D01*
X288120Y166235D01*
X288230Y166249D01*
X288339Y166258D01*
X288450Y166264D01*
X288560Y166266D01*
X292257Y159154D02*
X294628Y159154D01*
X294706Y159156D01*
X294783Y159162D01*
X294860Y159171D01*
X294936Y159184D01*
X295012Y159201D01*
X295087Y159222D01*
X295160Y159246D01*
X295233Y159274D01*
X295304Y159306D01*
X295373Y159341D01*
X295440Y159379D01*
X295506Y159420D01*
X295569Y159465D01*
X295630Y159513D01*
X295689Y159563D01*
X295745Y159617D01*
X295799Y159673D01*
X295849Y159732D01*
X295897Y159793D01*
X295942Y159856D01*
X295983Y159922D01*
X296021Y159989D01*
X296056Y160058D01*
X296088Y160129D01*
X296116Y160202D01*
X296140Y160275D01*
X296161Y160350D01*
X296178Y160426D01*
X296191Y160502D01*
X296200Y160579D01*
X296206Y160656D01*
X296208Y160734D01*
X296208Y161525D01*
X296206Y161603D01*
X296200Y161680D01*
X296191Y161757D01*
X296178Y161833D01*
X296161Y161909D01*
X296140Y161984D01*
X296116Y162057D01*
X296088Y162130D01*
X296056Y162201D01*
X296021Y162270D01*
X295983Y162337D01*
X295942Y162403D01*
X295897Y162466D01*
X295849Y162527D01*
X295799Y162586D01*
X295745Y162642D01*
X295689Y162696D01*
X295630Y162746D01*
X295569Y162794D01*
X295506Y162839D01*
X295440Y162880D01*
X295373Y162918D01*
X295304Y162953D01*
X295233Y162985D01*
X295160Y163013D01*
X295087Y163037D01*
X295012Y163058D01*
X294936Y163075D01*
X294860Y163088D01*
X294783Y163097D01*
X294706Y163103D01*
X294628Y163105D01*
X292257Y163105D01*
X292257Y166266D01*
X296208Y166266D01*
X299115Y159154D02*
X301090Y159154D01*
X301177Y159156D01*
X301265Y159162D01*
X301352Y159171D01*
X301438Y159185D01*
X301524Y159202D01*
X301608Y159223D01*
X301692Y159248D01*
X301775Y159277D01*
X301856Y159309D01*
X301936Y159344D01*
X302014Y159383D01*
X302091Y159426D01*
X302165Y159472D01*
X302237Y159521D01*
X302307Y159573D01*
X302375Y159629D01*
X302440Y159687D01*
X302503Y159748D01*
X302562Y159812D01*
X302619Y159879D01*
X302673Y159947D01*
X302724Y160019D01*
X302771Y160092D01*
X302816Y160167D01*
X302857Y160245D01*
X302894Y160324D01*
X302928Y160404D01*
X302958Y160486D01*
X302985Y160569D01*
X303008Y160654D01*
X303027Y160739D01*
X303042Y160825D01*
X303054Y160912D01*
X303062Y160999D01*
X303066Y161086D01*
X303066Y161174D01*
X303062Y161261D01*
X303054Y161348D01*
X303042Y161435D01*
X303027Y161521D01*
X303008Y161606D01*
X302985Y161691D01*
X302958Y161774D01*
X302928Y161856D01*
X302894Y161936D01*
X302857Y162015D01*
X302816Y162093D01*
X302771Y162168D01*
X302724Y162241D01*
X302673Y162313D01*
X302619Y162381D01*
X302562Y162448D01*
X302503Y162512D01*
X302440Y162573D01*
X302375Y162631D01*
X302307Y162687D01*
X302237Y162739D01*
X302165Y162788D01*
X302091Y162834D01*
X302014Y162877D01*
X301936Y162916D01*
X301856Y162951D01*
X301775Y162983D01*
X301692Y163012D01*
X301608Y163037D01*
X301524Y163058D01*
X301438Y163075D01*
X301352Y163089D01*
X301265Y163098D01*
X301177Y163104D01*
X301090Y163106D01*
X301486Y166266D02*
X299115Y166266D01*
X301486Y166266D02*
X301565Y166264D01*
X301643Y166258D01*
X301721Y166248D01*
X301799Y166235D01*
X301876Y166217D01*
X301952Y166196D01*
X302026Y166171D01*
X302100Y166142D01*
X302172Y166110D01*
X302242Y166074D01*
X302310Y166034D01*
X302376Y165991D01*
X302440Y165945D01*
X302502Y165896D01*
X302561Y165844D01*
X302617Y165789D01*
X302671Y165731D01*
X302721Y165671D01*
X302769Y165608D01*
X302813Y165543D01*
X302854Y165476D01*
X302892Y165407D01*
X302926Y165336D01*
X302957Y165263D01*
X302984Y165189D01*
X303007Y165114D01*
X303026Y165038D01*
X303042Y164960D01*
X303054Y164882D01*
X303062Y164804D01*
X303066Y164725D01*
X303066Y164647D01*
X303062Y164568D01*
X303054Y164490D01*
X303042Y164412D01*
X303026Y164334D01*
X303007Y164258D01*
X302984Y164183D01*
X302957Y164109D01*
X302926Y164036D01*
X302892Y163965D01*
X302854Y163896D01*
X302813Y163829D01*
X302769Y163764D01*
X302721Y163701D01*
X302671Y163641D01*
X302617Y163583D01*
X302561Y163528D01*
X302502Y163476D01*
X302440Y163427D01*
X302376Y163381D01*
X302310Y163338D01*
X302242Y163298D01*
X302172Y163262D01*
X302100Y163230D01*
X302026Y163201D01*
X301952Y163176D01*
X301876Y163155D01*
X301799Y163137D01*
X301721Y163124D01*
X301643Y163114D01*
X301565Y163108D01*
X301486Y163106D01*
X301486Y163105D02*
X299905Y163105D01*
D14*
X135120Y228000D02*
X135122Y228063D01*
X135128Y228125D01*
X135138Y228187D01*
X135151Y228249D01*
X135169Y228309D01*
X135190Y228368D01*
X135215Y228426D01*
X135244Y228482D01*
X135276Y228536D01*
X135311Y228588D01*
X135349Y228637D01*
X135391Y228685D01*
X135435Y228729D01*
X135483Y228771D01*
X135532Y228809D01*
X135584Y228844D01*
X135638Y228876D01*
X135694Y228905D01*
X135752Y228930D01*
X135811Y228951D01*
X135871Y228969D01*
X135933Y228982D01*
X135995Y228992D01*
X136057Y228998D01*
X136120Y229000D01*
X136183Y228998D01*
X136245Y228992D01*
X136307Y228982D01*
X136369Y228969D01*
X136429Y228951D01*
X136488Y228930D01*
X136546Y228905D01*
X136602Y228876D01*
X136656Y228844D01*
X136708Y228809D01*
X136757Y228771D01*
X136805Y228729D01*
X136849Y228685D01*
X136891Y228637D01*
X136929Y228588D01*
X136964Y228536D01*
X136996Y228482D01*
X137025Y228426D01*
X137050Y228368D01*
X137071Y228309D01*
X137089Y228249D01*
X137102Y228187D01*
X137112Y228125D01*
X137118Y228063D01*
X137120Y228000D01*
X137118Y227937D01*
X137112Y227875D01*
X137102Y227813D01*
X137089Y227751D01*
X137071Y227691D01*
X137050Y227632D01*
X137025Y227574D01*
X136996Y227518D01*
X136964Y227464D01*
X136929Y227412D01*
X136891Y227363D01*
X136849Y227315D01*
X136805Y227271D01*
X136757Y227229D01*
X136708Y227191D01*
X136656Y227156D01*
X136602Y227124D01*
X136546Y227095D01*
X136488Y227070D01*
X136429Y227049D01*
X136369Y227031D01*
X136307Y227018D01*
X136245Y227008D01*
X136183Y227002D01*
X136120Y227000D01*
X136057Y227002D01*
X135995Y227008D01*
X135933Y227018D01*
X135871Y227031D01*
X135811Y227049D01*
X135752Y227070D01*
X135694Y227095D01*
X135638Y227124D01*
X135584Y227156D01*
X135532Y227191D01*
X135483Y227229D01*
X135435Y227271D01*
X135391Y227315D01*
X135349Y227363D01*
X135311Y227412D01*
X135276Y227464D01*
X135244Y227518D01*
X135215Y227574D01*
X135190Y227632D01*
X135169Y227691D01*
X135151Y227751D01*
X135138Y227813D01*
X135128Y227875D01*
X135122Y227937D01*
X135120Y228000D01*
D13*
X133120Y224000D02*
X139120Y224000D01*
X139120Y217000D01*
X139120Y183000D02*
X139120Y176000D01*
X133120Y176000D01*
X93120Y217000D02*
X93120Y224000D01*
X93120Y183000D02*
X93120Y176000D01*
X99120Y176000D01*
X99120Y224000D02*
X93120Y224000D01*
D16*
X99305Y167846D02*
X96934Y160734D01*
X101675Y160734D02*
X99305Y167846D01*
X101083Y162512D02*
X97527Y162512D01*
X106329Y160734D02*
X106407Y160736D01*
X106484Y160742D01*
X106561Y160751D01*
X106637Y160764D01*
X106713Y160781D01*
X106788Y160802D01*
X106861Y160826D01*
X106934Y160854D01*
X107005Y160886D01*
X107074Y160921D01*
X107141Y160959D01*
X107207Y161000D01*
X107270Y161045D01*
X107331Y161093D01*
X107390Y161143D01*
X107446Y161197D01*
X107500Y161253D01*
X107550Y161312D01*
X107598Y161373D01*
X107643Y161436D01*
X107684Y161502D01*
X107722Y161569D01*
X107757Y161638D01*
X107789Y161709D01*
X107817Y161782D01*
X107841Y161855D01*
X107862Y161930D01*
X107879Y162006D01*
X107892Y162082D01*
X107901Y162159D01*
X107907Y162236D01*
X107909Y162314D01*
X106329Y160734D02*
X106214Y160736D01*
X106100Y160742D01*
X105986Y160752D01*
X105872Y160765D01*
X105759Y160783D01*
X105646Y160805D01*
X105534Y160830D01*
X105424Y160859D01*
X105314Y160892D01*
X105205Y160929D01*
X105098Y160969D01*
X104992Y161013D01*
X104888Y161061D01*
X104785Y161112D01*
X104685Y161167D01*
X104586Y161225D01*
X104489Y161287D01*
X104395Y161351D01*
X104302Y161419D01*
X104212Y161491D01*
X104125Y161565D01*
X104040Y161642D01*
X103958Y161722D01*
X104156Y166266D02*
X104158Y166344D01*
X104164Y166421D01*
X104173Y166498D01*
X104186Y166574D01*
X104203Y166650D01*
X104224Y166725D01*
X104248Y166798D01*
X104276Y166871D01*
X104308Y166942D01*
X104343Y167011D01*
X104381Y167078D01*
X104422Y167144D01*
X104467Y167207D01*
X104515Y167268D01*
X104565Y167327D01*
X104619Y167383D01*
X104675Y167437D01*
X104734Y167487D01*
X104795Y167535D01*
X104858Y167580D01*
X104924Y167621D01*
X104991Y167659D01*
X105060Y167694D01*
X105131Y167726D01*
X105204Y167754D01*
X105277Y167778D01*
X105352Y167799D01*
X105428Y167816D01*
X105504Y167829D01*
X105581Y167838D01*
X105659Y167844D01*
X105736Y167846D01*
X105842Y167844D01*
X105948Y167838D01*
X106053Y167829D01*
X106158Y167816D01*
X106263Y167799D01*
X106367Y167778D01*
X106470Y167754D01*
X106572Y167726D01*
X106673Y167694D01*
X106773Y167659D01*
X106871Y167620D01*
X106969Y167577D01*
X107064Y167532D01*
X107158Y167483D01*
X107250Y167430D01*
X107340Y167374D01*
X107428Y167315D01*
X107514Y167253D01*
X104946Y164883D02*
X104879Y164925D01*
X104814Y164970D01*
X104751Y165019D01*
X104690Y165070D01*
X104633Y165125D01*
X104578Y165182D01*
X104525Y165242D01*
X104476Y165304D01*
X104430Y165369D01*
X104388Y165435D01*
X104348Y165504D01*
X104312Y165575D01*
X104280Y165648D01*
X104251Y165722D01*
X104226Y165797D01*
X104205Y165873D01*
X104187Y165951D01*
X104174Y166029D01*
X104164Y166108D01*
X104158Y166187D01*
X104156Y166266D01*
X107119Y163697D02*
X107186Y163655D01*
X107251Y163610D01*
X107314Y163561D01*
X107375Y163510D01*
X107432Y163455D01*
X107487Y163398D01*
X107540Y163338D01*
X107589Y163276D01*
X107635Y163211D01*
X107677Y163145D01*
X107717Y163076D01*
X107753Y163005D01*
X107785Y162932D01*
X107814Y162858D01*
X107839Y162783D01*
X107860Y162707D01*
X107878Y162629D01*
X107891Y162551D01*
X107901Y162472D01*
X107907Y162393D01*
X107909Y162314D01*
X107119Y163697D02*
X104946Y164883D01*
X110588Y167056D02*
X110588Y167846D01*
X114539Y167846D01*
X112563Y160734D01*
X119619Y167846D02*
X119701Y167844D01*
X119783Y167838D01*
X119865Y167829D01*
X119946Y167816D01*
X120026Y167799D01*
X120106Y167778D01*
X120184Y167754D01*
X120261Y167726D01*
X120337Y167695D01*
X120412Y167660D01*
X120484Y167621D01*
X120555Y167580D01*
X120624Y167535D01*
X120690Y167487D01*
X120755Y167436D01*
X120817Y167382D01*
X120876Y167325D01*
X120933Y167266D01*
X120987Y167204D01*
X121038Y167139D01*
X121086Y167073D01*
X121131Y167004D01*
X121172Y166933D01*
X121211Y166861D01*
X121246Y166786D01*
X121277Y166710D01*
X121305Y166633D01*
X121329Y166555D01*
X121350Y166475D01*
X121367Y166395D01*
X121380Y166314D01*
X121389Y166232D01*
X121395Y166150D01*
X121397Y166068D01*
X119619Y167846D02*
X119526Y167844D01*
X119434Y167838D01*
X119342Y167829D01*
X119250Y167816D01*
X119159Y167799D01*
X119069Y167779D01*
X118979Y167755D01*
X118891Y167727D01*
X118803Y167695D01*
X118718Y167661D01*
X118633Y167622D01*
X118551Y167581D01*
X118470Y167536D01*
X118390Y167487D01*
X118313Y167436D01*
X118238Y167382D01*
X118166Y167324D01*
X118096Y167264D01*
X118028Y167200D01*
X117963Y167135D01*
X117900Y167066D01*
X117841Y166995D01*
X117784Y166922D01*
X117730Y166846D01*
X117680Y166769D01*
X117632Y166689D01*
X117588Y166608D01*
X117548Y166524D01*
X117510Y166440D01*
X117476Y166353D01*
X117446Y166266D01*
X120804Y164685D02*
X120865Y164746D01*
X120923Y164809D01*
X120978Y164875D01*
X121031Y164943D01*
X121080Y165014D01*
X121125Y165086D01*
X121168Y165161D01*
X121207Y165237D01*
X121243Y165316D01*
X121275Y165395D01*
X121303Y165476D01*
X121328Y165559D01*
X121349Y165642D01*
X121366Y165726D01*
X121380Y165811D01*
X121389Y165896D01*
X121395Y165982D01*
X121397Y166068D01*
X120804Y164685D02*
X117446Y160734D01*
X121397Y160734D01*
X124304Y164685D02*
X126674Y164685D01*
X126752Y164683D01*
X126829Y164677D01*
X126906Y164668D01*
X126982Y164655D01*
X127058Y164638D01*
X127133Y164617D01*
X127206Y164593D01*
X127279Y164565D01*
X127350Y164533D01*
X127419Y164498D01*
X127486Y164460D01*
X127552Y164419D01*
X127615Y164374D01*
X127676Y164326D01*
X127735Y164276D01*
X127791Y164222D01*
X127845Y164166D01*
X127895Y164107D01*
X127943Y164046D01*
X127988Y163983D01*
X128029Y163917D01*
X128067Y163850D01*
X128102Y163781D01*
X128134Y163710D01*
X128162Y163637D01*
X128186Y163564D01*
X128207Y163489D01*
X128224Y163413D01*
X128237Y163337D01*
X128246Y163260D01*
X128252Y163183D01*
X128254Y163105D01*
X128255Y163105D02*
X128255Y162710D01*
X128253Y162623D01*
X128247Y162535D01*
X128238Y162448D01*
X128224Y162362D01*
X128207Y162276D01*
X128186Y162192D01*
X128161Y162108D01*
X128132Y162025D01*
X128100Y161944D01*
X128065Y161864D01*
X128026Y161786D01*
X127983Y161709D01*
X127937Y161635D01*
X127888Y161563D01*
X127836Y161493D01*
X127780Y161425D01*
X127722Y161360D01*
X127661Y161297D01*
X127597Y161238D01*
X127530Y161181D01*
X127462Y161127D01*
X127390Y161076D01*
X127317Y161029D01*
X127242Y160984D01*
X127164Y160943D01*
X127085Y160906D01*
X127005Y160872D01*
X126923Y160842D01*
X126840Y160815D01*
X126755Y160792D01*
X126670Y160773D01*
X126584Y160758D01*
X126497Y160746D01*
X126410Y160738D01*
X126323Y160734D01*
X126235Y160734D01*
X126148Y160738D01*
X126061Y160746D01*
X125974Y160758D01*
X125888Y160773D01*
X125803Y160792D01*
X125718Y160815D01*
X125635Y160842D01*
X125553Y160872D01*
X125473Y160906D01*
X125394Y160943D01*
X125316Y160984D01*
X125241Y161029D01*
X125168Y161076D01*
X125096Y161127D01*
X125028Y161181D01*
X124961Y161238D01*
X124897Y161297D01*
X124836Y161360D01*
X124778Y161425D01*
X124722Y161493D01*
X124670Y161563D01*
X124621Y161635D01*
X124575Y161709D01*
X124532Y161786D01*
X124493Y161864D01*
X124458Y161944D01*
X124426Y162025D01*
X124397Y162108D01*
X124372Y162192D01*
X124351Y162276D01*
X124334Y162362D01*
X124320Y162448D01*
X124311Y162535D01*
X124305Y162623D01*
X124303Y162710D01*
X124304Y162710D02*
X124304Y164685D01*
X124306Y164795D01*
X124312Y164905D01*
X124321Y165015D01*
X124335Y165125D01*
X124352Y165234D01*
X124373Y165342D01*
X124398Y165450D01*
X124426Y165556D01*
X124459Y165662D01*
X124495Y165766D01*
X124534Y165869D01*
X124577Y165971D01*
X124624Y166071D01*
X124674Y166169D01*
X124727Y166265D01*
X124784Y166360D01*
X124844Y166453D01*
X124908Y166543D01*
X124974Y166631D01*
X125044Y166717D01*
X125116Y166800D01*
X125191Y166881D01*
X125269Y166959D01*
X125350Y167034D01*
X125433Y167106D01*
X125519Y167176D01*
X125607Y167242D01*
X125697Y167306D01*
X125790Y167366D01*
X125884Y167422D01*
X125981Y167476D01*
X126079Y167526D01*
X126179Y167573D01*
X126281Y167616D01*
X126384Y167655D01*
X126488Y167691D01*
X126594Y167724D01*
X126700Y167752D01*
X126808Y167777D01*
X126916Y167798D01*
X127025Y167815D01*
X127135Y167829D01*
X127244Y167838D01*
X127355Y167844D01*
X127465Y167846D01*
X131162Y160734D02*
X133532Y160734D01*
X133610Y160736D01*
X133687Y160742D01*
X133764Y160751D01*
X133840Y160764D01*
X133916Y160781D01*
X133991Y160802D01*
X134064Y160826D01*
X134137Y160854D01*
X134208Y160886D01*
X134277Y160921D01*
X134344Y160959D01*
X134410Y161000D01*
X134473Y161045D01*
X134534Y161093D01*
X134593Y161143D01*
X134649Y161197D01*
X134703Y161253D01*
X134753Y161312D01*
X134801Y161373D01*
X134846Y161436D01*
X134887Y161502D01*
X134925Y161569D01*
X134960Y161638D01*
X134992Y161709D01*
X135020Y161782D01*
X135044Y161855D01*
X135065Y161930D01*
X135082Y162006D01*
X135095Y162082D01*
X135104Y162159D01*
X135110Y162236D01*
X135112Y162314D01*
X135113Y162314D02*
X135113Y163105D01*
X135112Y163105D02*
X135110Y163183D01*
X135104Y163260D01*
X135095Y163337D01*
X135082Y163413D01*
X135065Y163489D01*
X135044Y163564D01*
X135020Y163637D01*
X134992Y163710D01*
X134960Y163781D01*
X134925Y163850D01*
X134887Y163917D01*
X134846Y163983D01*
X134801Y164046D01*
X134753Y164107D01*
X134703Y164166D01*
X134649Y164222D01*
X134593Y164276D01*
X134534Y164326D01*
X134473Y164374D01*
X134410Y164419D01*
X134344Y164460D01*
X134277Y164498D01*
X134208Y164533D01*
X134137Y164565D01*
X134064Y164593D01*
X133991Y164617D01*
X133916Y164638D01*
X133840Y164655D01*
X133764Y164668D01*
X133687Y164677D01*
X133610Y164683D01*
X133532Y164685D01*
X131162Y164685D01*
X131162Y167846D01*
X135113Y167846D01*
X140193Y167846D02*
X140275Y167844D01*
X140357Y167838D01*
X140439Y167829D01*
X140520Y167816D01*
X140600Y167799D01*
X140680Y167778D01*
X140758Y167754D01*
X140835Y167726D01*
X140911Y167695D01*
X140986Y167660D01*
X141058Y167621D01*
X141129Y167580D01*
X141198Y167535D01*
X141264Y167487D01*
X141329Y167436D01*
X141391Y167382D01*
X141450Y167325D01*
X141507Y167266D01*
X141561Y167204D01*
X141612Y167139D01*
X141660Y167073D01*
X141705Y167004D01*
X141746Y166933D01*
X141785Y166861D01*
X141820Y166786D01*
X141851Y166710D01*
X141879Y166633D01*
X141903Y166555D01*
X141924Y166475D01*
X141941Y166395D01*
X141954Y166314D01*
X141963Y166232D01*
X141969Y166150D01*
X141971Y166068D01*
X140193Y167846D02*
X140100Y167844D01*
X140008Y167838D01*
X139916Y167829D01*
X139824Y167816D01*
X139733Y167799D01*
X139643Y167779D01*
X139553Y167755D01*
X139465Y167727D01*
X139377Y167695D01*
X139292Y167661D01*
X139207Y167622D01*
X139125Y167581D01*
X139044Y167536D01*
X138964Y167487D01*
X138887Y167436D01*
X138812Y167382D01*
X138740Y167324D01*
X138670Y167264D01*
X138602Y167200D01*
X138537Y167135D01*
X138474Y167066D01*
X138415Y166995D01*
X138358Y166922D01*
X138304Y166846D01*
X138254Y166769D01*
X138206Y166689D01*
X138162Y166608D01*
X138122Y166524D01*
X138084Y166440D01*
X138050Y166353D01*
X138020Y166266D01*
X141378Y164685D02*
X141439Y164746D01*
X141497Y164809D01*
X141552Y164875D01*
X141605Y164943D01*
X141654Y165014D01*
X141699Y165086D01*
X141742Y165161D01*
X141781Y165237D01*
X141817Y165316D01*
X141849Y165395D01*
X141877Y165476D01*
X141902Y165559D01*
X141923Y165642D01*
X141940Y165726D01*
X141954Y165811D01*
X141963Y165896D01*
X141969Y165982D01*
X141971Y166068D01*
X141378Y164685D02*
X138020Y160734D01*
X141971Y160734D01*
D13*
X224000Y260880D02*
X224000Y266880D01*
X224000Y260880D02*
X217000Y260880D01*
X183000Y260880D02*
X176000Y260880D01*
X176000Y266880D01*
X217000Y306880D02*
X224000Y306880D01*
X183000Y306880D02*
X176000Y306880D01*
X176000Y300880D01*
X224000Y300880D02*
X224000Y306880D01*
D14*
X227000Y263880D02*
X227002Y263943D01*
X227008Y264005D01*
X227018Y264067D01*
X227031Y264129D01*
X227049Y264189D01*
X227070Y264248D01*
X227095Y264306D01*
X227124Y264362D01*
X227156Y264416D01*
X227191Y264468D01*
X227229Y264517D01*
X227271Y264565D01*
X227315Y264609D01*
X227363Y264651D01*
X227412Y264689D01*
X227464Y264724D01*
X227518Y264756D01*
X227574Y264785D01*
X227632Y264810D01*
X227691Y264831D01*
X227751Y264849D01*
X227813Y264862D01*
X227875Y264872D01*
X227937Y264878D01*
X228000Y264880D01*
X228063Y264878D01*
X228125Y264872D01*
X228187Y264862D01*
X228249Y264849D01*
X228309Y264831D01*
X228368Y264810D01*
X228426Y264785D01*
X228482Y264756D01*
X228536Y264724D01*
X228588Y264689D01*
X228637Y264651D01*
X228685Y264609D01*
X228729Y264565D01*
X228771Y264517D01*
X228809Y264468D01*
X228844Y264416D01*
X228876Y264362D01*
X228905Y264306D01*
X228930Y264248D01*
X228951Y264189D01*
X228969Y264129D01*
X228982Y264067D01*
X228992Y264005D01*
X228998Y263943D01*
X229000Y263880D01*
X228998Y263817D01*
X228992Y263755D01*
X228982Y263693D01*
X228969Y263631D01*
X228951Y263571D01*
X228930Y263512D01*
X228905Y263454D01*
X228876Y263398D01*
X228844Y263344D01*
X228809Y263292D01*
X228771Y263243D01*
X228729Y263195D01*
X228685Y263151D01*
X228637Y263109D01*
X228588Y263071D01*
X228536Y263036D01*
X228482Y263004D01*
X228426Y262975D01*
X228368Y262950D01*
X228309Y262929D01*
X228249Y262911D01*
X228187Y262898D01*
X228125Y262888D01*
X228063Y262882D01*
X228000Y262880D01*
X227937Y262882D01*
X227875Y262888D01*
X227813Y262898D01*
X227751Y262911D01*
X227691Y262929D01*
X227632Y262950D01*
X227574Y262975D01*
X227518Y263004D01*
X227464Y263036D01*
X227412Y263071D01*
X227363Y263109D01*
X227315Y263151D01*
X227271Y263195D01*
X227229Y263243D01*
X227191Y263292D01*
X227156Y263344D01*
X227124Y263398D01*
X227095Y263454D01*
X227070Y263512D01*
X227049Y263571D01*
X227031Y263631D01*
X227018Y263693D01*
X227008Y263755D01*
X227002Y263817D01*
X227000Y263880D01*
X286000Y259000D02*
X295000Y259000D01*
X295000Y241000D02*
X285000Y241000D01*
D15*
X292100Y246500D02*
X292100Y253400D01*
X286700Y250000D02*
X292100Y246500D01*
X286700Y250000D02*
X292100Y253400D01*
D12*
X316381Y250246D02*
X321292Y250246D01*
X318836Y252701D02*
X318836Y247790D01*
D16*
X263230Y265054D02*
X263230Y270642D01*
X264782Y270642D01*
X264858Y270640D01*
X264934Y270635D01*
X265010Y270625D01*
X265085Y270612D01*
X265159Y270595D01*
X265233Y270575D01*
X265305Y270551D01*
X265376Y270524D01*
X265446Y270493D01*
X265514Y270459D01*
X265580Y270421D01*
X265644Y270380D01*
X265707Y270337D01*
X265767Y270290D01*
X265824Y270240D01*
X265879Y270187D01*
X265932Y270132D01*
X265982Y270075D01*
X266029Y270015D01*
X266072Y269952D01*
X266113Y269888D01*
X266151Y269822D01*
X266185Y269754D01*
X266216Y269684D01*
X266243Y269613D01*
X266267Y269540D01*
X266287Y269467D01*
X266304Y269393D01*
X266317Y269318D01*
X266327Y269242D01*
X266332Y269166D01*
X266334Y269090D01*
X266334Y266606D01*
X266332Y266527D01*
X266326Y266449D01*
X266316Y266371D01*
X266302Y266294D01*
X266284Y266217D01*
X266263Y266141D01*
X266237Y266067D01*
X266208Y265994D01*
X266175Y265923D01*
X266139Y265853D01*
X266099Y265785D01*
X266056Y265719D01*
X266009Y265656D01*
X265960Y265595D01*
X265907Y265537D01*
X265851Y265481D01*
X265793Y265428D01*
X265732Y265379D01*
X265669Y265332D01*
X265603Y265289D01*
X265535Y265249D01*
X265466Y265213D01*
X265394Y265180D01*
X265321Y265151D01*
X265247Y265125D01*
X265171Y265104D01*
X265094Y265086D01*
X265017Y265072D01*
X264939Y265062D01*
X264861Y265056D01*
X264782Y265054D01*
X263230Y265054D01*
X270606Y270642D02*
X270679Y270640D01*
X270752Y270634D01*
X270825Y270625D01*
X270896Y270611D01*
X270968Y270594D01*
X271038Y270574D01*
X271107Y270549D01*
X271174Y270521D01*
X271240Y270490D01*
X271305Y270455D01*
X271367Y270417D01*
X271427Y270375D01*
X271485Y270331D01*
X271541Y270283D01*
X271594Y270233D01*
X271644Y270180D01*
X271692Y270124D01*
X271736Y270066D01*
X271778Y270006D01*
X271816Y269944D01*
X271851Y269879D01*
X271882Y269813D01*
X271910Y269746D01*
X271935Y269677D01*
X271955Y269607D01*
X271972Y269535D01*
X271986Y269464D01*
X271995Y269391D01*
X272001Y269318D01*
X272003Y269245D01*
X270606Y270642D02*
X270522Y270640D01*
X270439Y270634D01*
X270356Y270625D01*
X270274Y270611D01*
X270192Y270594D01*
X270111Y270572D01*
X270031Y270547D01*
X269953Y270519D01*
X269875Y270487D01*
X269800Y270451D01*
X269726Y270412D01*
X269654Y270369D01*
X269584Y270323D01*
X269517Y270274D01*
X269451Y270221D01*
X269389Y270166D01*
X269329Y270108D01*
X269271Y270047D01*
X269217Y269984D01*
X269165Y269918D01*
X269117Y269850D01*
X269072Y269779D01*
X269030Y269707D01*
X268992Y269632D01*
X268957Y269556D01*
X268926Y269479D01*
X268898Y269400D01*
X271537Y268159D02*
X271591Y268212D01*
X271642Y268269D01*
X271690Y268328D01*
X271735Y268389D01*
X271776Y268452D01*
X271815Y268518D01*
X271850Y268585D01*
X271882Y268654D01*
X271910Y268725D01*
X271934Y268796D01*
X271955Y268869D01*
X271972Y268943D01*
X271986Y269018D01*
X271995Y269093D01*
X272001Y269169D01*
X272003Y269245D01*
X271538Y268158D02*
X268899Y265054D01*
X272003Y265054D01*
X274441Y267227D02*
X278166Y267227D01*
X280293Y265054D02*
X282155Y270642D01*
X284018Y265054D01*
X283552Y266451D02*
X280758Y266451D01*
X287769Y265054D02*
X287839Y265056D01*
X287908Y265062D01*
X287977Y265072D01*
X288045Y265085D01*
X288113Y265103D01*
X288179Y265124D01*
X288244Y265149D01*
X288308Y265177D01*
X288370Y265209D01*
X288430Y265244D01*
X288488Y265283D01*
X288543Y265325D01*
X288597Y265370D01*
X288647Y265418D01*
X288695Y265468D01*
X288740Y265522D01*
X288782Y265577D01*
X288821Y265635D01*
X288856Y265695D01*
X288888Y265757D01*
X288916Y265821D01*
X288941Y265886D01*
X288962Y265952D01*
X288980Y266020D01*
X288993Y266088D01*
X289003Y266157D01*
X289009Y266226D01*
X289011Y266296D01*
X287769Y265054D02*
X287670Y265056D01*
X287572Y265061D01*
X287474Y265071D01*
X287376Y265084D01*
X287279Y265100D01*
X287182Y265120D01*
X287087Y265144D01*
X286992Y265172D01*
X286898Y265203D01*
X286806Y265237D01*
X286715Y265275D01*
X286625Y265316D01*
X286537Y265361D01*
X286451Y265409D01*
X286367Y265460D01*
X286285Y265514D01*
X286204Y265572D01*
X286126Y265632D01*
X286051Y265695D01*
X285977Y265761D01*
X285907Y265830D01*
X286062Y269400D02*
X286064Y269470D01*
X286070Y269539D01*
X286080Y269608D01*
X286093Y269676D01*
X286111Y269744D01*
X286132Y269810D01*
X286157Y269875D01*
X286185Y269939D01*
X286217Y270001D01*
X286252Y270061D01*
X286291Y270119D01*
X286333Y270174D01*
X286378Y270228D01*
X286426Y270278D01*
X286476Y270326D01*
X286530Y270371D01*
X286585Y270413D01*
X286643Y270452D01*
X286703Y270487D01*
X286765Y270519D01*
X286829Y270547D01*
X286894Y270572D01*
X286960Y270593D01*
X287028Y270611D01*
X287096Y270624D01*
X287165Y270634D01*
X287234Y270640D01*
X287304Y270642D01*
X287398Y270640D01*
X287491Y270634D01*
X287584Y270625D01*
X287677Y270612D01*
X287769Y270595D01*
X287860Y270575D01*
X287951Y270550D01*
X288040Y270523D01*
X288128Y270491D01*
X288215Y270456D01*
X288301Y270418D01*
X288384Y270376D01*
X288466Y270331D01*
X288547Y270283D01*
X288625Y270231D01*
X288701Y270176D01*
X286683Y268314D02*
X286624Y268350D01*
X286568Y268390D01*
X286514Y268433D01*
X286462Y268478D01*
X286413Y268527D01*
X286367Y268578D01*
X286324Y268631D01*
X286283Y268687D01*
X286246Y268745D01*
X286211Y268805D01*
X286181Y268866D01*
X286153Y268929D01*
X286129Y268994D01*
X286109Y269060D01*
X286092Y269127D01*
X286079Y269194D01*
X286070Y269262D01*
X286064Y269331D01*
X286062Y269400D01*
X288390Y267382D02*
X288449Y267346D01*
X288505Y267306D01*
X288559Y267263D01*
X288611Y267218D01*
X288660Y267169D01*
X288706Y267118D01*
X288749Y267065D01*
X288790Y267009D01*
X288827Y266951D01*
X288862Y266891D01*
X288892Y266830D01*
X288920Y266767D01*
X288944Y266702D01*
X288964Y266636D01*
X288981Y266569D01*
X288994Y266502D01*
X289003Y266434D01*
X289009Y266365D01*
X289011Y266296D01*
X288390Y267382D02*
X286683Y268314D01*
X291210Y270021D02*
X291210Y270642D01*
X294315Y270642D01*
X292762Y265054D01*
X298404Y270642D02*
X298477Y270640D01*
X298550Y270634D01*
X298623Y270625D01*
X298694Y270611D01*
X298766Y270594D01*
X298836Y270574D01*
X298905Y270549D01*
X298972Y270521D01*
X299038Y270490D01*
X299103Y270455D01*
X299165Y270417D01*
X299225Y270375D01*
X299283Y270331D01*
X299339Y270283D01*
X299392Y270233D01*
X299442Y270180D01*
X299490Y270124D01*
X299534Y270066D01*
X299576Y270006D01*
X299614Y269944D01*
X299649Y269879D01*
X299680Y269813D01*
X299708Y269746D01*
X299733Y269677D01*
X299753Y269607D01*
X299770Y269535D01*
X299784Y269464D01*
X299793Y269391D01*
X299799Y269318D01*
X299801Y269245D01*
X298404Y270642D02*
X298320Y270640D01*
X298237Y270634D01*
X298154Y270625D01*
X298072Y270611D01*
X297990Y270594D01*
X297909Y270572D01*
X297829Y270547D01*
X297751Y270519D01*
X297673Y270487D01*
X297598Y270451D01*
X297524Y270412D01*
X297452Y270369D01*
X297382Y270323D01*
X297315Y270274D01*
X297249Y270221D01*
X297187Y270166D01*
X297127Y270108D01*
X297069Y270047D01*
X297015Y269984D01*
X296963Y269918D01*
X296915Y269850D01*
X296870Y269779D01*
X296828Y269707D01*
X296790Y269632D01*
X296755Y269556D01*
X296724Y269479D01*
X296696Y269400D01*
X299334Y268159D02*
X299388Y268212D01*
X299439Y268269D01*
X299487Y268328D01*
X299532Y268389D01*
X299573Y268452D01*
X299612Y268518D01*
X299647Y268585D01*
X299679Y268654D01*
X299707Y268725D01*
X299731Y268796D01*
X299752Y268869D01*
X299769Y268943D01*
X299783Y269018D01*
X299792Y269093D01*
X299798Y269169D01*
X299800Y269245D01*
X299335Y268158D02*
X296696Y265054D01*
X299801Y265054D01*
X302183Y268158D02*
X304045Y268158D01*
X304045Y268159D02*
X304115Y268157D01*
X304184Y268151D01*
X304253Y268141D01*
X304321Y268128D01*
X304389Y268110D01*
X304455Y268089D01*
X304520Y268064D01*
X304584Y268036D01*
X304646Y268004D01*
X304706Y267969D01*
X304764Y267930D01*
X304819Y267888D01*
X304873Y267843D01*
X304923Y267795D01*
X304971Y267745D01*
X305016Y267691D01*
X305058Y267636D01*
X305097Y267578D01*
X305132Y267518D01*
X305164Y267456D01*
X305192Y267392D01*
X305217Y267327D01*
X305238Y267261D01*
X305256Y267193D01*
X305269Y267125D01*
X305279Y267056D01*
X305285Y266987D01*
X305287Y266917D01*
X305287Y266606D01*
X305285Y266529D01*
X305279Y266451D01*
X305270Y266375D01*
X305256Y266298D01*
X305239Y266223D01*
X305218Y266149D01*
X305193Y266075D01*
X305165Y266003D01*
X305133Y265933D01*
X305098Y265864D01*
X305059Y265797D01*
X305017Y265732D01*
X304972Y265669D01*
X304924Y265608D01*
X304873Y265550D01*
X304819Y265495D01*
X304762Y265442D01*
X304703Y265393D01*
X304641Y265346D01*
X304577Y265302D01*
X304511Y265262D01*
X304443Y265225D01*
X304373Y265191D01*
X304302Y265161D01*
X304229Y265135D01*
X304155Y265112D01*
X304080Y265093D01*
X304005Y265078D01*
X303928Y265066D01*
X303851Y265058D01*
X303774Y265054D01*
X303696Y265054D01*
X303619Y265058D01*
X303542Y265066D01*
X303465Y265078D01*
X303390Y265093D01*
X303315Y265112D01*
X303241Y265135D01*
X303168Y265161D01*
X303097Y265191D01*
X303027Y265225D01*
X302959Y265262D01*
X302893Y265302D01*
X302829Y265346D01*
X302767Y265393D01*
X302708Y265442D01*
X302651Y265495D01*
X302597Y265550D01*
X302546Y265608D01*
X302498Y265669D01*
X302453Y265732D01*
X302411Y265797D01*
X302372Y265864D01*
X302337Y265933D01*
X302305Y266003D01*
X302277Y266075D01*
X302252Y266149D01*
X302231Y266223D01*
X302214Y266298D01*
X302200Y266375D01*
X302191Y266451D01*
X302185Y266529D01*
X302183Y266606D01*
X302183Y268158D01*
X302182Y268158D02*
X302184Y268256D01*
X302190Y268353D01*
X302199Y268450D01*
X302213Y268547D01*
X302230Y268643D01*
X302251Y268738D01*
X302275Y268832D01*
X302304Y268926D01*
X302336Y269018D01*
X302371Y269109D01*
X302410Y269198D01*
X302453Y269286D01*
X302499Y269372D01*
X302548Y269456D01*
X302601Y269538D01*
X302656Y269618D01*
X302715Y269696D01*
X302777Y269771D01*
X302842Y269844D01*
X302910Y269914D01*
X302980Y269982D01*
X303053Y270047D01*
X303128Y270109D01*
X303206Y270168D01*
X303286Y270223D01*
X303368Y270276D01*
X303452Y270325D01*
X303538Y270371D01*
X303626Y270414D01*
X303715Y270453D01*
X303806Y270488D01*
X303898Y270520D01*
X303992Y270549D01*
X304086Y270573D01*
X304181Y270594D01*
X304277Y270611D01*
X304374Y270625D01*
X304471Y270634D01*
X304568Y270640D01*
X304666Y270642D01*
X307669Y265054D02*
X309532Y265054D01*
X309602Y265056D01*
X309671Y265062D01*
X309740Y265072D01*
X309808Y265085D01*
X309876Y265103D01*
X309942Y265124D01*
X310007Y265149D01*
X310071Y265177D01*
X310133Y265209D01*
X310193Y265244D01*
X310251Y265283D01*
X310306Y265325D01*
X310360Y265370D01*
X310410Y265418D01*
X310458Y265468D01*
X310503Y265522D01*
X310545Y265577D01*
X310584Y265635D01*
X310619Y265695D01*
X310651Y265757D01*
X310679Y265821D01*
X310704Y265886D01*
X310725Y265952D01*
X310743Y266020D01*
X310756Y266088D01*
X310766Y266157D01*
X310772Y266226D01*
X310774Y266296D01*
X310774Y266917D01*
X310772Y266987D01*
X310766Y267056D01*
X310756Y267125D01*
X310743Y267193D01*
X310725Y267261D01*
X310704Y267327D01*
X310679Y267392D01*
X310651Y267456D01*
X310619Y267518D01*
X310584Y267578D01*
X310545Y267636D01*
X310503Y267691D01*
X310458Y267745D01*
X310410Y267795D01*
X310360Y267843D01*
X310306Y267888D01*
X310251Y267930D01*
X310193Y267969D01*
X310133Y268004D01*
X310071Y268036D01*
X310007Y268064D01*
X309942Y268089D01*
X309876Y268110D01*
X309808Y268128D01*
X309740Y268141D01*
X309671Y268151D01*
X309602Y268157D01*
X309532Y268159D01*
X309532Y268158D02*
X307669Y268158D01*
X307669Y270642D01*
X310774Y270642D01*
X316570Y270642D02*
X312845Y265054D01*
X316570Y265054D02*
X312845Y270642D01*
M02*
