G04 EAGLE Gerber RS-274X export*
G75*
%MOMM*%
%FSLAX34Y34*%
%LPD*%
%INSolderpaste Top*%
%IPPOS*%
%AMOC8*
5,1,8,0,0,1.08239X$1,22.5*%
G01*
%ADD10R,1.100000X1.000000*%
%ADD11R,1.000000X1.100000*%
%ADD12R,1.400000X1.500000*%
%ADD13R,1.100000X0.300000*%
%ADD14R,0.300000X1.100000*%
%ADD15R,0.825016X0.225000*%
%ADD16R,0.225000X0.825016*%
%ADD17R,0.825013X0.225000*%
%ADD18R,0.225000X0.825013*%


D10*
X191500Y70000D03*
X208500Y70000D03*
D11*
X70000Y191500D03*
X70000Y208500D03*
X50000Y191500D03*
X50000Y208500D03*
D10*
X208500Y350000D03*
X191500Y350000D03*
X208500Y333000D03*
X191500Y333000D03*
D11*
X350000Y208500D03*
X350000Y191500D03*
X330000Y208500D03*
X330000Y191500D03*
D10*
X191500Y50000D03*
X208500Y50000D03*
D12*
X125000Y250000D03*
X95000Y250000D03*
D10*
X123500Y125000D03*
X106500Y125000D03*
X123500Y105000D03*
X106500Y105000D03*
X191500Y160000D03*
X208500Y160000D03*
X208500Y240000D03*
X191500Y240000D03*
D13*
X178000Y129120D03*
X178000Y122620D03*
X178000Y116120D03*
X178000Y109620D03*
X178000Y103120D03*
D14*
X187000Y94120D03*
X193500Y94120D03*
X200000Y94120D03*
X206500Y94120D03*
X213000Y94120D03*
D13*
X222000Y103120D03*
X222000Y109620D03*
X222000Y116120D03*
X222000Y122620D03*
X222000Y129120D03*
D14*
X213000Y139120D03*
X206500Y139120D03*
X200000Y139120D03*
X193500Y139120D03*
X187000Y139120D03*
X270880Y178000D03*
X277380Y178000D03*
X283880Y178000D03*
X290380Y178000D03*
X296880Y178000D03*
D13*
X305880Y187000D03*
X305880Y193500D03*
X305880Y200000D03*
X305880Y206500D03*
X305880Y213000D03*
D14*
X296880Y222000D03*
X290380Y222000D03*
X283880Y222000D03*
X277380Y222000D03*
X270880Y222000D03*
D13*
X260880Y213000D03*
X260880Y206500D03*
X260880Y200000D03*
X260880Y193500D03*
X260880Y187000D03*
D14*
X129120Y222000D03*
X122620Y222000D03*
X116120Y222000D03*
X109620Y222000D03*
X103120Y222000D03*
D13*
X94120Y213000D03*
X94120Y206500D03*
X94120Y200000D03*
X94120Y193500D03*
X94120Y187000D03*
D14*
X103120Y178000D03*
X109620Y178000D03*
X116120Y178000D03*
X122620Y178000D03*
X129120Y178000D03*
D13*
X139120Y187000D03*
X139120Y193500D03*
X139120Y200000D03*
X139120Y206500D03*
X139120Y213000D03*
D15*
X222000Y290380D03*
X222000Y283880D03*
X222000Y277380D03*
X222000Y270880D03*
X222000Y296880D03*
D16*
X187000Y305880D03*
X206500Y305880D03*
D15*
X178000Y296880D03*
D17*
X178000Y270880D03*
X178000Y290380D03*
X178000Y283880D03*
D15*
X178000Y277380D03*
D18*
X193500Y305880D03*
X213000Y305880D03*
X200000Y305880D03*
X200000Y260880D03*
X193500Y260880D03*
X187000Y260880D03*
X206500Y260880D03*
X213000Y260880D03*
D12*
X275000Y250000D03*
X305000Y250000D03*
M02*
