G04 EAGLE Gerber RS-274X export*
G75*
%MOMM*%
%FSLAX34Y34*%
%LPD*%
%INSoldermask Bottom*%
%IPPOS*%
%AMOC8*
5,1,8,0,0,1.08239X$1,22.5*%
G01*
%ADD10C,1.657000*%
%ADD11C,1.221313*%
%ADD12R,1.227000X1.127000*%
%ADD13R,1.127000X1.227000*%
%ADD14R,0.432000X1.016000*%
%ADD15R,1.016000X0.432000*%
%ADD16R,1.327000X0.727000*%
%ADD17C,3.327000*%
%ADD18C,5.000000*%
%ADD19C,0.652000*%
%ADD20C,0.584200*%


D10*
X161900Y16500D03*
X187300Y16500D03*
X212700Y16500D03*
X238100Y16500D03*
D11*
X22300Y335400D03*
X22300Y310000D03*
X22300Y284600D03*
X47700Y335400D03*
X47700Y310000D03*
X47700Y284600D03*
D10*
X161900Y383500D03*
X187300Y383500D03*
X212700Y383500D03*
X238100Y383500D03*
D11*
X352300Y115400D03*
X352300Y90000D03*
X352300Y64600D03*
X377700Y115400D03*
X377700Y90000D03*
X377700Y64600D03*
D12*
X72500Y57000D03*
X55500Y57000D03*
D13*
X265400Y304100D03*
X265400Y287100D03*
X282600Y304300D03*
X282600Y287300D03*
X357000Y322500D03*
X357000Y339500D03*
X337000Y339500D03*
X337000Y322500D03*
X357000Y294500D03*
X357000Y277500D03*
X337000Y277500D03*
X337000Y294500D03*
X60000Y151500D03*
X60000Y168500D03*
X40000Y151500D03*
X40000Y168500D03*
D12*
X112500Y32000D03*
X95500Y32000D03*
X95500Y57000D03*
X112500Y57000D03*
X59500Y32000D03*
X76500Y32000D03*
D14*
X50000Y131055D03*
X55000Y131055D03*
X45000Y131055D03*
X60000Y131055D03*
X40000Y131055D03*
X50000Y88945D03*
X55000Y88945D03*
X60000Y88945D03*
X45000Y88945D03*
X40000Y88945D03*
D15*
X271945Y331000D03*
X271945Y336000D03*
X271945Y326000D03*
X271945Y341000D03*
X271945Y321000D03*
X314055Y331000D03*
X314055Y336000D03*
X314055Y341000D03*
X314055Y326000D03*
X314055Y321000D03*
D16*
X138000Y332050D03*
X138000Y319350D03*
X138000Y306650D03*
X138000Y293950D03*
X82000Y293950D03*
X82000Y306650D03*
X82000Y319350D03*
X82000Y332050D03*
X310000Y95050D03*
X310000Y82350D03*
X310000Y69650D03*
X310000Y56950D03*
X254000Y56950D03*
X254000Y69650D03*
X254000Y82350D03*
X254000Y95050D03*
D17*
X24000Y24000D03*
D18*
X24000Y24000D03*
D17*
X200000Y200000D03*
D18*
X200000Y200000D03*
D17*
X24000Y376000D03*
D18*
X24000Y376000D03*
D17*
X376000Y376000D03*
D18*
X376000Y376000D03*
D17*
X376000Y24000D03*
D18*
X376000Y24000D03*
D19*
X148000Y173000D03*
X270400Y111700D03*
X264300Y360400D03*
X377000Y302000D03*
X35000Y224000D03*
X117000Y371000D03*
X364000Y64000D03*
D20*
X307000Y47000D03*
X248000Y174000D03*
X253900Y224400D03*
X68000Y82000D03*
X233000Y135000D03*
X177900Y252000D03*
X149000Y295000D03*
D19*
X313343Y181300D03*
X339400Y179600D03*
X124600Y85500D03*
X20800Y120700D03*
X147300Y271900D03*
X249700Y330300D03*
X227000Y47000D03*
X280000Y361000D03*
X8000Y53000D03*
X69000Y129000D03*
X20000Y139000D03*
X78000Y83000D03*
X384000Y234000D03*
X154380Y299380D03*
X319200Y277400D03*
X12000Y177000D03*
X40000Y77000D03*
X78000Y45000D03*
X250419Y286961D03*
X181000Y165000D03*
X258300Y117600D03*
X326000Y112000D03*
X322000Y83000D03*
X159000Y78000D03*
X158000Y114343D03*
X226000Y61000D03*
X242000Y69000D03*
X317000Y105000D03*
X146000Y147000D03*
X174000Y147000D03*
X125000Y154000D03*
X81600Y195700D03*
X224000Y146000D03*
X80700Y181600D03*
X138000Y118000D03*
X165000Y137000D03*
X330200Y176500D03*
X134500Y92500D03*
X146000Y235000D03*
X248300Y142600D03*
X220000Y240000D03*
X181000Y312343D03*
X67000Y293950D03*
X153000Y314000D03*
X233000Y284000D03*
X163000Y313000D03*
X250200Y125100D03*
X234400Y103400D03*
X170000Y309000D03*
X244600Y313200D03*
X166000Y296000D03*
X234900Y245200D03*
X170393Y160493D03*
X163500Y239800D03*
X201000Y250800D03*
M02*
