G04 EAGLE Gerber RS-274X export*
G75*
%MOMM*%
%FSLAX34Y34*%
%LPD*%
%INSoldermask Top*%
%IPPOS*%
%AMOC8*
5,1,8,0,0,1.08239X$1,22.5*%
G01*
%ADD10R,1.227000X1.127000*%
%ADD11R,1.127000X1.227000*%
%ADD12R,1.527000X1.627000*%
%ADD13C,1.657000*%
%ADD14R,1.227000X0.427000*%
%ADD15R,0.427000X1.227000*%
%ADD16C,3.327000*%
%ADD17C,5.000000*%
%ADD18C,0.652000*%
%ADD19C,0.584200*%


D10*
X191500Y70000D03*
X208500Y70000D03*
D11*
X70000Y191500D03*
X70000Y208500D03*
X50000Y191500D03*
X50000Y208500D03*
D10*
X208500Y350000D03*
X191500Y350000D03*
X208500Y333000D03*
X191500Y333000D03*
D11*
X350000Y208500D03*
X350000Y191500D03*
X330000Y208500D03*
X330000Y191500D03*
D10*
X191500Y50000D03*
X208500Y50000D03*
D12*
X125000Y250000D03*
X95000Y250000D03*
D13*
X161900Y16500D03*
X187300Y16500D03*
X212700Y16500D03*
X238100Y16500D03*
X161900Y383500D03*
X187300Y383500D03*
X212700Y383500D03*
X238100Y383500D03*
D10*
X123500Y125000D03*
X106500Y125000D03*
X123500Y105000D03*
X106500Y105000D03*
X191500Y160000D03*
X208500Y160000D03*
X208500Y240000D03*
X191500Y240000D03*
D14*
X178000Y129120D03*
X178000Y122620D03*
X178000Y116120D03*
X178000Y109620D03*
X178000Y103120D03*
D15*
X187000Y94120D03*
X193500Y94120D03*
X200000Y94120D03*
X206500Y94120D03*
X213000Y94120D03*
D14*
X222000Y103120D03*
X222000Y109620D03*
X222000Y116120D03*
X222000Y122620D03*
X222000Y129120D03*
D15*
X213000Y139120D03*
X206500Y139120D03*
X200000Y139120D03*
X193500Y139120D03*
X187000Y139120D03*
X270880Y178000D03*
X277380Y178000D03*
X283880Y178000D03*
X290380Y178000D03*
X296880Y178000D03*
D14*
X305880Y187000D03*
X305880Y193500D03*
X305880Y200000D03*
X305880Y206500D03*
X305880Y213000D03*
D15*
X296880Y222000D03*
X290380Y222000D03*
X283880Y222000D03*
X277380Y222000D03*
X270880Y222000D03*
D14*
X260880Y213000D03*
X260880Y206500D03*
X260880Y200000D03*
X260880Y193500D03*
X260880Y187000D03*
D15*
X129120Y222000D03*
X122620Y222000D03*
X116120Y222000D03*
X109620Y222000D03*
X103120Y222000D03*
D14*
X94120Y213000D03*
X94120Y206500D03*
X94120Y200000D03*
X94120Y193500D03*
X94120Y187000D03*
D15*
X103120Y178000D03*
X109620Y178000D03*
X116120Y178000D03*
X122620Y178000D03*
X129120Y178000D03*
D14*
X139120Y187000D03*
X139120Y193500D03*
X139120Y200000D03*
X139120Y206500D03*
X139120Y213000D03*
X222000Y270880D03*
X222000Y277380D03*
X222000Y283880D03*
X222000Y290380D03*
X222000Y296880D03*
D15*
X213000Y305880D03*
X206500Y305880D03*
X200000Y305880D03*
X193500Y305880D03*
X187000Y305880D03*
D14*
X178000Y296880D03*
X178000Y290380D03*
X178000Y283880D03*
X178000Y277380D03*
X178000Y270880D03*
D15*
X187000Y260880D03*
X193500Y260880D03*
X200000Y260880D03*
X206500Y260880D03*
X213000Y260880D03*
D16*
X24000Y24000D03*
D17*
X24000Y24000D03*
D16*
X200000Y200000D03*
D17*
X200000Y200000D03*
D16*
X24000Y376000D03*
D17*
X24000Y376000D03*
D16*
X376000Y376000D03*
D17*
X376000Y376000D03*
D16*
X376000Y24000D03*
D17*
X376000Y24000D03*
D12*
X275000Y250000D03*
X305000Y250000D03*
D18*
X148000Y173000D03*
X270400Y111700D03*
X264300Y360400D03*
X377000Y302000D03*
X35000Y224000D03*
X117000Y371000D03*
X364000Y64000D03*
D19*
X307000Y47000D03*
X248000Y174000D03*
X253900Y224400D03*
X68000Y82000D03*
X233000Y135000D03*
X177900Y252000D03*
X149000Y295000D03*
D18*
X313343Y181300D03*
X339400Y179600D03*
X124600Y85500D03*
X20800Y120700D03*
X147300Y271900D03*
X249700Y330300D03*
X227000Y47000D03*
X280000Y361000D03*
X8000Y53000D03*
X69000Y129000D03*
X20000Y139000D03*
X78000Y83000D03*
X384000Y234000D03*
X154380Y299380D03*
X319200Y277400D03*
X12000Y177000D03*
X40000Y77000D03*
X78000Y45000D03*
X250419Y286961D03*
X181000Y165000D03*
X258300Y117600D03*
X326000Y112000D03*
X322000Y83000D03*
X159000Y78000D03*
X158000Y114343D03*
X226000Y61000D03*
X242000Y69000D03*
X317000Y105000D03*
X146000Y147000D03*
X174000Y147000D03*
X125000Y154000D03*
X81600Y195700D03*
X224000Y146000D03*
X80700Y181600D03*
X138000Y118000D03*
X165000Y137000D03*
X330200Y176500D03*
X134500Y92500D03*
X146000Y235000D03*
X248300Y142600D03*
X220000Y240000D03*
X181000Y312343D03*
X67000Y293950D03*
X153000Y314000D03*
X233000Y284000D03*
X163000Y313000D03*
X250200Y125100D03*
X234400Y103400D03*
X170000Y309000D03*
X244600Y313200D03*
X166000Y296000D03*
X234900Y245200D03*
X170393Y160493D03*
X163500Y239800D03*
X201000Y250800D03*
M02*
